<svg width="188" height="158" viewBox="0 0 188 158" fill="none" xmlns="http://www.w3.org/2000/svg">
<path d="M159.552 131.545C123.275 166.704 65.6344 166.704 29.3574 131.545C29.3574 93.972 29.3574 56.397 29.3574 18.823C34.9004 18.823 53.1534 0 57.3894 0C82.1004 0 106.809 0 131.52 0C135.761 0 154.009 18.823 159.552 18.823C159.552 56.398 159.552 93.972 159.552 131.545Z" fill="#041E4E"/>
<path d="M153.244 133.05C152.997 135.679 152.754 138.311 152.508 140.942C156.221 138.632 159.977 136.36 163.774 134.119C160.264 133.733 156.756 133.376 153.244 133.05Z" fill="#E67E22"/>
<path d="M35.4807 140.942C35.2343 138.311 34.9896 135.68 34.7457 133.05C31.2347 133.376 27.7279 133.733 24.2227 134.12C28.0178 136.36 31.7701 138.634 35.4807 140.942Z" fill="#E67E22"/>
<path d="M33.9199 124.171C34.1959 127.132 34.471 130.09 34.7478 133.049C74.1583 129.377 113.828 129.377 153.241 133.049C153.516 130.09 153.792 127.13 154.067 124.168C114.104 120.448 73.8816 120.448 33.9199 124.171Z" fill="#44A0AB"/>
<path d="M188 108.576C125.647 99.7001 62.3513 99.7001 0 108.576C4.27228 114.08 8.45094 119.624 12.5401 125.209C9.96866 131.63 7.49414 138.066 5.11491 144.515C15.2141 143.078 25.3413 141.887 35.4841 140.942C31.7727 138.634 28.0203 136.36 24.226 134.119C27.7312 133.732 31.2381 133.376 34.749 133.049C34.4723 130.09 34.1971 127.132 33.9212 124.171C73.8828 120.448 114.106 120.448 154.068 124.169C153.793 127.131 153.517 130.09 153.242 133.05C156.754 133.376 160.262 133.733 163.772 134.12C159.974 136.361 156.219 138.633 152.505 140.943C162.651 141.886 172.781 143.079 182.883 144.516C180.503 138.067 178.03 131.632 175.459 125.21C179.548 119.624 183.729 114.08 188 108.576Z" fill="#F39C12"/>
<path d="M94.4561 145.357C75.0291 145.357 56.5631 138.52 41.9141 126.003V26.685C45.1241 24.534 48.6851 21.681 52.9561 18.201C55.1431 16.418 58.216 13.915 60.118 12.558H128.792C130.694 13.914 133.767 16.417 135.957 18.201C140.226 21.681 143.786 24.534 146.996 26.685V126.003C132.345 138.52 113.879 145.357 94.4561 145.357Z" fill="#3B5FA0"/>
<path d="M94.4557 142.218C76.4087 142.218 58.9237 135.949 45.0527 124.54V28.333C48.0597 26.207 51.3327 23.571 54.9387 20.634C56.7227 19.178 59.3007 17.079 61.1467 15.696H127.766C129.611 17.079 132.184 19.177 133.973 20.632C137.577 23.571 140.849 26.207 143.856 28.333V124.54C129.986 135.95 112.502 142.218 94.4557 142.218Z" fill="#34495E"/>
<path d="M94.4557 142.218C76.4087 142.218 58.9237 135.949 45.0527 124.54V28.333C48.0597 26.207 51.3327 23.571 54.9387 20.634C56.7227 19.178 59.3007 17.079 61.1467 15.696H127.766C129.611 17.079 132.184 19.177 133.973 20.632C137.577 23.571 140.849 26.207 143.856 28.333V124.54C129.986 135.95 112.502 142.218 94.4557 142.218Z" fill="url(#paint0_linear_2137_4295)"/>
<mask id="path-8-outside-1_2137_4295" maskUnits="userSpaceOnUse" x="75" y="28" width="40" height="58" fill="black">
<rect fill="white" x="75" y="28" width="40" height="58"/>
<path d="M80.034 83V75.1872H91.7532V38.9975H96.323L82.6874 47.2525L79.0021 40.3242L94.4804 31.0372H101.188V75.1872H112.17V83H80.034Z"/>
</mask>
<path d="M80.034 83V75.1872H91.7532V38.9975H96.323L82.6874 47.2525L79.0021 40.3242L94.4804 31.0372H101.188V75.1872H112.17V83H80.034Z" fill="url(#paint1_linear_2137_4295)"/>
<path d="M80.034 83H77.7306V85.3033H80.034V83ZM80.034 75.1872V72.8838H77.7306V75.1872H80.034ZM91.7532 75.1872V77.4905H94.0565V75.1872H91.7532ZM91.7532 38.9975V36.6941H89.4499V38.9975H91.7532ZM96.323 38.9975L97.5159 40.9678L104.575 36.6941H96.323V38.9975ZM82.6874 47.2525L80.6539 48.3342L81.7973 50.4839L83.8803 49.2229L82.6874 47.2525ZM79.0021 40.3242L77.817 38.3491L75.9413 39.4746L76.9685 41.4058L79.0021 40.3242ZM94.4804 31.0372V28.7339H93.8424L93.2953 29.0621L94.4804 31.0372ZM101.188 31.0372H103.491V28.7339H101.188V31.0372ZM101.188 75.1872H98.8843V77.4905H101.188V75.1872ZM112.17 75.1872H114.473V72.8838H112.17V75.1872ZM112.17 83V85.3033H114.473V83H112.17ZM80.034 83H82.3373V75.1872H80.034H77.7306V83H80.034ZM80.034 75.1872V77.4905H91.7532V75.1872V72.8838H80.034V75.1872ZM91.7532 75.1872H94.0565V38.9975H91.7532H89.4499V75.1872H91.7532ZM91.7532 38.9975V41.3008H96.323V38.9975V36.6941H91.7532V38.9975ZM96.323 38.9975L95.1301 37.0271L81.4945 45.2822L82.6874 47.2525L83.8803 49.2229L97.5159 40.9678L96.323 38.9975ZM82.6874 47.2525L84.7209 46.1709L81.0356 39.2425L79.0021 40.3242L76.9685 41.4058L80.6539 48.3342L82.6874 47.2525ZM79.0021 40.3242L80.1871 42.2992L95.6654 33.0123L94.4804 31.0372L93.2953 29.0621L77.817 38.3491L79.0021 40.3242ZM94.4804 31.0372V33.3405H101.188V31.0372V28.7339H94.4804V31.0372ZM101.188 31.0372H98.8843V75.1872H101.188H103.491V31.0372H101.188ZM101.188 75.1872V77.4905H112.17V75.1872V72.8838H101.188V75.1872ZM112.17 75.1872H109.867V83H112.17H114.473V75.1872H112.17ZM112.17 83V80.6967H80.034V83V85.3033H112.17V83Z" fill="#000F3C" mask="url(#path-8-outside-1_2137_4295)"/>
<path d="M163.773 134.12C117.397 129.023 70.6038 129.023 24.2271 134.12C22.9065 122.092 21.5859 110.065 20.2637 98.0394C69.275 92.6535 118.728 92.6535 167.737 98.0394C166.415 110.065 165.094 122.092 163.773 134.12Z" fill="#F1C40F"/>
<path d="M71.0203 119L77.4864 104.71H79.6148L86.0809 119H83.4458L81.7228 114.987L82.8174 115.696H74.2635L75.3581 114.987L73.6554 119H71.0203ZM78.5202 107.527L75.6824 114.277L75.1554 113.628H81.9255L81.4188 114.277L78.5607 107.527H78.5202ZM87.6445 119V104.71H89.5904L97.7998 115.372H97.2728V104.71H99.6849V119H97.7593L89.5499 108.318H90.0567V119H87.6445ZM109.213 119.203C108.172 119.203 107.226 119.034 106.375 118.696C105.537 118.345 104.814 117.845 104.206 117.196C103.611 116.547 103.152 115.77 102.828 114.865C102.503 113.96 102.341 112.953 102.341 111.845C102.341 110.723 102.503 109.716 102.828 108.824C103.152 107.919 103.611 107.149 104.206 106.514C104.814 105.865 105.537 105.372 106.375 105.034C107.226 104.683 108.172 104.507 109.213 104.507C110.253 104.507 111.192 104.683 112.03 105.034C112.882 105.372 113.605 105.858 114.199 106.493C114.807 107.129 115.273 107.899 115.598 108.804C115.922 109.696 116.084 110.703 116.084 111.824C116.084 112.946 115.922 113.96 115.598 114.865C115.273 115.77 114.807 116.547 114.199 117.196C113.605 117.845 112.882 118.345 112.03 118.696C111.192 119.034 110.253 119.203 109.213 119.203ZM109.213 116.973C110.091 116.973 110.834 116.77 111.442 116.365C112.064 115.959 112.537 115.372 112.861 114.601C113.199 113.831 113.368 112.912 113.368 111.845C113.368 110.764 113.206 109.845 112.882 109.088C112.557 108.318 112.084 107.737 111.463 107.345C110.841 106.939 110.091 106.737 109.213 106.737C108.348 106.737 107.605 106.939 106.983 107.345C106.361 107.737 105.882 108.318 105.544 109.088C105.22 109.845 105.057 110.764 105.057 111.845C105.057 112.912 105.22 113.831 105.544 114.601C105.882 115.372 106.361 115.959 106.983 116.365C107.605 116.77 108.348 116.973 109.213 116.973Z" fill="#041E4E"/>
<defs>
<linearGradient id="paint0_linear_2137_4295" x1="94.4542" y1="15.696" x2="94.4542" y2="142.218" gradientUnits="userSpaceOnUse">
<stop stop-color="#002161"/>
<stop offset="1" stop-color="#0F1934"/>
</linearGradient>
<linearGradient id="paint1_linear_2137_4295" x1="81.4406" y1="83" x2="117" y2="83" gradientUnits="userSpaceOnUse">
<stop stop-color="#F6D365"/>
<stop offset="1" stop-color="#FFBF23"/>
</linearGradient>
</defs>
</svg>
