<svg width="141" height="161" viewBox="0 0 141 161" fill="none" xmlns="http://www.w3.org/2000/svg">
<path d="M51.1874 160.411L76.4374 116.678L50.7314 101.837L25.4824 145.57L42.4914 145.792L51.1874 160.411Z" fill="url(#paint0_linear_2151_49)"/>
<path d="M87.2402 160.411L61.9902 116.678L87.6962 101.837L112.945 145.57L95.9362 145.792L87.2402 160.411Z" fill="url(#paint1_linear_2151_49)"/>
<path d="M138.044 76.0522L138.029 76.0663C135.476 78.5833 134.864 82.4702 136.518 85.6512C138.624 89.6992 137.005 94.6883 132.922 96.7273L132.919 96.7282C129.713 98.3292 127.925 101.833 128.51 105.368L128.512 105.382C129.257 109.88 126.175 114.116 121.666 114.792L121.659 114.793C118.111 115.325 115.326 118.11 114.794 121.658L114.793 121.665C114.117 126.173 109.881 129.255 105.383 128.511L105.369 128.509C101.834 127.924 98.3296 129.712 96.7286 132.918L96.7276 132.921C94.6886 137.004 89.6996 138.624 85.6516 136.517C82.4716 134.862 78.5836 135.475 76.0666 138.028L76.0527 138.042C72.8547 141.285 67.6206 141.285 64.4226 138.042L64.4086 138.027C61.8916 135.475 58.0036 134.862 54.8236 136.517C50.7756 138.623 45.7866 137.004 43.7476 132.921L43.7466 132.918C42.1456 129.712 38.6416 127.924 35.1066 128.509L35.0926 128.511C30.5946 129.255 26.3586 126.173 25.6826 121.665L25.6816 121.658C25.1496 118.11 22.3646 115.325 18.8166 114.793L18.8096 114.792C14.3016 114.116 11.2196 109.88 11.9636 105.382L11.9656 105.368C12.5506 101.833 10.7626 98.3292 7.55665 96.7282L7.55363 96.7273C3.47063 94.6883 1.85065 89.6992 3.95765 85.6512C5.61265 82.4712 4.99963 78.5833 2.44663 76.0663L2.43263 76.0522C-0.810375 72.8542 -0.811375 67.6202 2.43263 64.4222L2.44764 64.4083C5.00064 61.8913 5.61263 58.0032 3.95863 54.8232C1.85263 50.7752 3.47163 45.7863 7.55463 43.7473L7.55762 43.7462C10.7636 42.1452 12.5516 38.6413 11.9666 35.1063L11.9646 35.0923C11.2206 30.5943 14.3026 26.3583 18.8106 25.6823L18.8176 25.6812C22.3656 25.1492 25.1506 22.3643 25.6826 18.8163L25.6836 18.8093C26.3596 14.3013 30.5956 11.2193 35.0936 11.9633L35.1076 11.9652C38.6426 12.5502 42.1466 10.7622 43.7476 7.55624L43.7486 7.55325C45.7876 3.47025 50.7766 1.85024 54.8246 3.95724C58.0046 5.61224 61.8926 4.99926 64.4096 2.44626L64.4236 2.43225C67.6216 -0.81075 72.8556 -0.81075 76.0536 2.43225L76.0676 2.44726C78.5846 5.00026 82.4716 5.61225 85.6526 3.95825C89.7006 1.85225 94.6896 3.47126 96.7286 7.55426L96.7296 7.55725C98.3306 10.7633 101.835 12.5512 105.37 11.9662L105.384 11.9643C109.882 11.2203 114.118 14.3022 114.794 18.8102L114.795 18.8173C115.327 22.3653 118.112 25.1503 121.66 25.6823L121.667 25.6833C126.175 26.3593 129.257 30.5953 128.513 35.0933L128.511 35.1072C127.926 38.6422 129.714 42.1463 132.92 43.7473L132.923 43.7483C137.006 45.7873 138.626 50.7762 136.519 54.8242C134.864 58.0042 135.477 61.8922 138.03 64.4092L138.044 64.4232C141.287 67.6202 141.287 72.8542 138.044 76.0522Z" fill="#041E4E"/>
<path d="M127.97 75.3012L127.959 75.3142C126.167 77.5522 125.691 80.5712 126.708 83.2522C128.056 86.8052 126.753 90.8182 123.575 92.9012L123.573 92.9022C121.176 94.4732 119.788 97.1942 119.922 100.057L119.923 100.069C120.101 103.861 117.622 107.267 113.96 108.265L113.955 108.266C111.186 109.02 109.022 111.184 108.268 113.953L108.267 113.958C107.269 117.62 103.862 120.099 100.071 119.921H100.06C97.1969 119.787 94.4759 121.175 92.9049 123.572L92.9039 123.573C90.8209 126.751 86.8079 128.054 83.2549 126.706C80.5739 125.689 77.5549 126.165 75.3169 127.957L75.3039 127.968C72.3439 130.338 68.1359 130.338 65.1759 127.968L65.1629 127.957C62.9249 126.165 59.9059 125.689 57.2249 126.706C53.6719 128.054 49.6589 126.751 47.5759 123.573L47.5749 123.571C46.0039 121.174 43.2829 119.786 40.4199 119.92L40.4079 119.921C36.6159 120.099 33.2099 117.62 32.2119 113.958L32.2109 113.953C31.4569 111.184 29.2929 109.021 26.5239 108.266L26.5189 108.265C22.8569 107.267 20.3779 103.86 20.5559 100.069L20.5569 100.058C20.6909 97.1952 19.3029 94.4742 16.9059 92.9032L16.9049 92.9022C13.7269 90.8192 12.4239 86.8062 13.7719 83.2532C14.7889 80.5722 14.3129 77.5532 12.5209 75.3152L12.5099 75.3022C10.1399 72.3422 10.1399 68.1342 12.5099 65.1742L12.5209 65.1612C14.3129 62.9232 14.7889 59.9042 13.7719 57.2232C12.4239 53.6702 13.7269 49.6572 16.9049 47.5742L16.9069 47.5732C19.3039 46.0022 20.6919 43.2812 20.5579 40.4182V40.4062C20.3799 36.6142 22.8589 33.2082 26.5209 32.2102L26.5259 32.2092C29.2949 31.4552 31.4579 29.2912 32.2129 26.5222L32.2139 26.5172C33.2119 22.8552 36.6189 20.3762 40.4099 20.5542L40.4209 20.5552C43.2839 20.6892 46.0049 19.3012 47.5759 16.9042L47.5769 16.9032C49.6599 13.7252 53.6729 12.4222 57.2259 13.7702C59.9069 14.7872 62.9259 14.3112 65.1639 12.5192L65.178 12.5082C68.138 10.1382 72.3459 10.1382 75.3059 12.5082L75.3189 12.5192C77.5569 14.3112 80.5759 14.7872 83.2569 13.7702C86.8099 12.4222 90.8229 13.7252 92.9059 16.9032L92.9069 16.9052C94.4779 19.3022 97.1989 20.6902 100.062 20.5562H100.074C103.866 20.3782 107.272 22.8572 108.27 26.5192L108.271 26.5242C109.025 29.2932 111.189 31.4562 113.958 32.2112L113.963 32.2122C117.625 33.2102 120.104 36.6172 119.926 40.4082L119.925 40.4192C119.791 43.2822 121.179 46.0032 123.576 47.5742L123.577 47.5752C126.755 49.6582 128.058 53.6712 126.71 57.2242C125.693 59.9052 126.169 62.9242 127.961 65.1622L127.972 65.1752C130.34 68.1332 130.34 72.3412 127.97 75.3012Z" fill="#3B5FA0"/>
<path d="M125.74 75.1053L125.73 75.1183C124.007 77.2703 123.55 80.1723 124.528 82.7493C125.824 86.1653 124.571 90.0223 121.516 92.0263L121.514 92.0273C119.21 93.5383 117.875 96.1533 118.004 98.9063L118.005 98.9173C118.176 102.562 115.793 105.837 112.272 106.796L112.267 106.797C109.605 107.522 107.525 109.602 106.8 112.264L106.799 112.269C105.84 115.79 102.565 118.173 98.9186 118.002H98.9076C96.1556 117.873 93.5396 119.208 92.0286 121.512L92.0276 121.513C90.0246 124.569 86.1666 125.821 82.7506 124.525C80.1736 123.547 77.2716 124.005 75.1196 125.728L75.1066 125.738C72.2606 128.017 68.2156 128.017 65.3696 125.738L65.3566 125.728C63.2046 124.005 60.3026 123.548 57.7256 124.525C54.3096 125.821 50.4516 124.568 48.4486 121.513L48.4476 121.511C46.9366 119.207 44.3216 117.872 41.5686 118.001L41.5576 118.002C37.9126 118.173 34.6376 115.79 33.6776 112.269L33.6766 112.264C32.9516 109.602 30.8716 107.522 28.2096 106.797L28.2056 106.796C24.6846 105.837 22.3016 102.562 22.4726 98.9163V98.9053C22.6016 96.1533 21.2666 93.5373 18.9626 92.0263L18.9616 92.0253C15.9056 90.0223 14.6536 86.1643 15.9496 82.7483C16.9276 80.1713 16.4706 77.2693 14.7466 75.1173L14.7366 75.1043C12.4576 72.2583 12.4576 68.2133 14.7366 65.3673L14.7466 65.3543C16.4696 63.2023 16.9266 60.3003 15.9496 57.7233C14.6536 54.3073 15.9056 50.4493 18.9616 48.4463L18.9636 48.4453C21.2676 46.9343 22.6026 44.3193 22.4736 41.5663V41.5553C22.3026 37.9103 24.6856 34.6353 28.2066 33.6753L28.2116 33.6743C30.8736 32.9493 32.9536 30.8693 33.6786 28.2073L33.6796 28.2033C34.6386 24.6823 37.9136 22.2993 41.5596 22.4703H41.5706C44.3226 22.5993 46.9386 21.2643 48.4496 18.9603L48.4506 18.9593C50.4536 15.9033 54.3116 14.6513 57.7276 15.9473C60.3046 16.9253 63.2066 16.4673 65.3586 14.7443L65.3716 14.7343C68.2176 12.4553 72.2626 12.4553 75.1086 14.7343L75.1216 14.7443C77.2736 16.4673 80.1756 16.9243 82.7526 15.9473C86.1686 14.6513 90.0266 15.9033 92.0296 18.9593L92.0306 18.9613C93.5416 21.2653 96.1566 22.6003 98.9096 22.4713H98.9206C102.566 22.3003 105.841 24.6833 106.801 28.2043L106.802 28.2093C107.527 30.8713 109.607 32.9513 112.269 33.6763L112.273 33.6773C115.794 34.6363 118.177 37.9113 118.006 41.5573L118.005 41.5683C117.876 44.3203 119.211 46.9363 121.515 48.4473L121.516 48.4483C124.572 50.4513 125.824 54.3093 124.528 57.7253C123.55 60.3023 124.008 63.2043 125.731 65.3563L125.741 65.3693C128.019 68.2143 128.019 72.2603 125.74 75.1053Z" fill="url(#paint2_linear_2151_49)"/>
<path d="M125.74 75.1053L125.73 75.1183C124.007 77.2703 123.55 80.1723 124.528 82.7493C125.824 86.1653 124.571 90.0223 121.516 92.0263L121.514 92.0273C119.21 93.5383 117.875 96.1533 118.004 98.9063L118.005 98.9173C118.176 102.562 115.793 105.837 112.272 106.796L112.267 106.797C109.605 107.522 107.525 109.602 106.8 112.264L106.799 112.269C105.84 115.79 102.565 118.173 98.9186 118.002H98.9076C96.1556 117.873 93.5396 119.208 92.0286 121.512L92.0276 121.513C90.0246 124.569 86.1666 125.821 82.7506 124.525C80.1736 123.547 77.2716 124.005 75.1196 125.728L75.1066 125.738C72.2606 128.017 68.2156 128.017 65.3696 125.738L65.3566 125.728C63.2046 124.005 60.3026 123.548 57.7256 124.525C54.3096 125.821 50.4516 124.568 48.4486 121.513L48.4476 121.511C46.9366 119.207 44.3216 117.872 41.5686 118.001L41.5576 118.002C37.9126 118.173 34.6376 115.79 33.6776 112.269L33.6766 112.264C32.9516 109.602 30.8716 107.522 28.2096 106.797L28.2056 106.796C24.6846 105.837 22.3016 102.562 22.4726 98.9163V98.9053C22.6016 96.1533 21.2666 93.5373 18.9626 92.0263L18.9616 92.0253C15.9056 90.0223 14.6536 86.1643 15.9496 82.7483C16.9276 80.1713 16.4706 77.2693 14.7466 75.1173L14.7366 75.1043C12.4576 72.2583 12.4576 68.2133 14.7366 65.3673L14.7466 65.3543C16.4696 63.2023 16.9266 60.3003 15.9496 57.7233C14.6536 54.3073 15.9056 50.4493 18.9616 48.4463L18.9636 48.4453C21.2676 46.9343 22.6026 44.3193 22.4736 41.5663V41.5553C22.3026 37.9103 24.6856 34.6353 28.2066 33.6753L28.2116 33.6743C30.8736 32.9493 32.9536 30.8693 33.6786 28.2073L33.6796 28.2033C34.6386 24.6823 37.9136 22.2993 41.5596 22.4703H41.5706C44.3226 22.5993 46.9386 21.2643 48.4496 18.9603L48.4506 18.9593C50.4536 15.9033 54.3116 14.6513 57.7276 15.9473C60.3046 16.9253 63.2066 16.4673 65.3586 14.7443L65.3716 14.7343C68.2176 12.4553 72.2626 12.4553 75.1086 14.7343L75.1216 14.7443C77.2736 16.4673 80.1756 16.9243 82.7526 15.9473C86.1686 14.6513 90.0266 15.9033 92.0296 18.9593L92.0306 18.9613C93.5416 21.2653 96.1566 22.6003 98.9096 22.4713H98.9206C102.566 22.3003 105.841 24.6833 106.801 28.2043L106.802 28.2093C107.527 30.8713 109.607 32.9513 112.269 33.6763L112.273 33.6773C115.794 34.6363 118.177 37.9113 118.006 41.5573L118.005 41.5683C117.876 44.3203 119.211 46.9363 121.515 48.4473L121.516 48.4483C124.572 50.4513 125.824 54.3093 124.528 57.7253C123.55 60.3023 124.008 63.2043 125.731 65.3563L125.741 65.3693C128.019 68.2143 128.019 72.2603 125.74 75.1053Z" fill="url(#paint3_linear_2151_49)"/>
<path d="M51.0622 109.622V95.3323H53.231L58.6226 105.284H57.974L63.3453 95.3323H65.4736V109.622H63.1224V99.1834H63.5683L59.028 107.453H57.5078L52.927 99.1632H53.4134V109.622H51.0622ZM68.6186 109.622V95.3323H78.1249V97.3998H71.1117V101.332H77.679V103.399H71.1117V107.555H78.1249V109.622H68.6186ZM70.0983 94.1162L72.6117 90.5893H74.8007L77.3141 94.1162H75.5304L73.7062 92.0082L71.882 94.1162H70.0983ZM85.4403 109.825C84.6971 109.825 83.9809 109.757 83.2918 109.622C82.6161 109.5 81.9878 109.318 81.4067 109.075C80.8392 108.832 80.3325 108.541 79.8866 108.203L80.6771 106.156C81.123 106.467 81.5892 106.737 82.0756 106.967C82.5756 107.183 83.1026 107.352 83.6566 107.474C84.2242 107.582 84.8187 107.636 85.4403 107.636C86.5078 107.636 87.2848 107.46 87.7713 107.109C88.2577 106.744 88.501 106.278 88.501 105.71C88.501 105.399 88.4266 105.136 88.278 104.92C88.1294 104.69 87.8861 104.494 87.5483 104.332C87.2105 104.17 86.7646 104.035 86.2105 103.926L83.9809 103.46C82.6972 103.19 81.7378 102.737 81.1027 102.102C80.4811 101.454 80.1703 100.602 80.1703 99.5483C80.1703 98.6564 80.4068 97.8795 80.8797 97.2173C81.3527 96.5552 82.0081 96.0417 82.8459 95.6769C83.6836 95.312 84.6498 95.1296 85.7443 95.1296C86.393 95.1296 87.0145 95.1972 87.6091 95.3323C88.2172 95.4539 88.7712 95.6431 89.2712 95.8998C89.7847 96.1431 90.2306 96.4403 90.6089 96.7917L89.8184 98.7375C89.2509 98.2646 88.6293 97.9132 87.9537 97.6835C87.278 97.4403 86.5348 97.3187 85.7241 97.3187C85.1025 97.3187 84.5687 97.4065 84.1228 97.5822C83.6769 97.7578 83.3323 98.0078 83.0891 98.3321C82.8594 98.6429 82.7445 99.0145 82.7445 99.4469C82.7445 99.9334 82.9067 100.325 83.231 100.623C83.5553 100.906 84.1093 101.129 84.893 101.291L87.1024 101.758C88.4401 102.041 89.4333 102.487 90.0819 103.095C90.7441 103.703 91.0751 104.514 91.0751 105.528C91.0751 106.379 90.8454 107.129 90.386 107.778C89.9266 108.426 89.2712 108.933 88.4199 109.298C87.5821 109.649 86.5889 109.825 85.4403 109.825Z" fill="url(#paint4_linear_2151_49)"/>
<mask id="path-7-outside-1_2151_49" maskUnits="userSpaceOnUse" x="50.4609" y="28.6221" width="40" height="58" fill="black">
<rect fill="white" x="50.4609" y="28.6221" width="40" height="58"/>
<path d="M55.4949 83.6221V75.8092H67.2142V39.6195H71.7839L58.1483 47.8746L54.463 40.9462L69.9413 31.6593H76.6486V75.8092H87.6308V83.6221H55.4949Z"/>
</mask>
<path d="M55.4949 83.6221V75.8092H67.2142V39.6195H71.7839L58.1483 47.8746L54.463 40.9462L69.9413 31.6593H76.6486V75.8092H87.6308V83.6221H55.4949Z" fill="url(#paint5_linear_2151_49)"/>
<path d="M55.4949 83.6221H53.1916V85.9254H55.4949V83.6221ZM55.4949 75.8092V73.5059H53.1916V75.8092H55.4949ZM67.2142 75.8092V78.1125H69.5175V75.8092H67.2142ZM67.2142 39.6195V37.3162H64.9109V39.6195H67.2142ZM71.7839 39.6195L72.9768 41.5899L80.036 37.3162H71.7839V39.6195ZM58.1483 47.8746L56.1148 48.9563L57.2583 51.106L59.3412 49.845L58.1483 47.8746ZM54.463 40.9462L53.278 38.9712L51.4022 40.0966L52.4295 42.0279L54.463 40.9462ZM69.9413 31.6593V29.356H69.3033L68.7563 29.6842L69.9413 31.6593ZM76.6486 31.6593H78.9519V29.356H76.6486V31.6593ZM76.6486 75.8092H74.3452V78.1125H76.6486V75.8092ZM87.6308 75.8092H89.9341V73.5059H87.6308V75.8092ZM87.6308 83.6221V85.9254H89.9341V83.6221H87.6308ZM55.4949 83.6221H57.7982V75.8092H55.4949H53.1916V83.6221H55.4949ZM55.4949 75.8092V78.1125H67.2142V75.8092V73.5059H55.4949V75.8092ZM67.2142 75.8092H69.5175V39.6195H67.2142H64.9109V75.8092H67.2142ZM67.2142 39.6195V41.9228H71.7839V39.6195V37.3162H67.2142V39.6195ZM71.7839 39.6195L70.5911 37.6492L56.9555 45.9043L58.1483 47.8746L59.3412 49.845L72.9768 41.5899L71.7839 39.6195ZM58.1483 47.8746L60.1819 46.7929L56.4966 39.8646L54.463 40.9462L52.4295 42.0279L56.1148 48.9563L58.1483 47.8746ZM54.463 40.9462L55.6481 42.9213L71.1263 33.6343L69.9413 31.6593L68.7563 29.6842L53.278 38.9712L54.463 40.9462ZM69.9413 31.6593V33.9626H76.6486V31.6593V29.356H69.9413V31.6593ZM76.6486 31.6593H74.3452V75.8092H76.6486H78.9519V31.6593H76.6486ZM76.6486 75.8092V78.1125H87.6308V75.8092V73.5059H76.6486V75.8092ZM87.6308 75.8092H85.3274V83.6221H87.6308H89.9341V75.8092H87.6308ZM87.6308 83.6221V81.3188H55.4949V83.6221V85.9254H87.6308V83.6221Z" fill="#000F3C" mask="url(#path-7-outside-1_2151_49)"/>
<defs>
<linearGradient id="paint0_linear_2151_49" x1="36.1723" y1="160.411" x2="76.4374" y2="160.411" gradientUnits="userSpaceOnUse">
<stop stop-color="#F6D365"/>
<stop offset="1" stop-color="#FFBF23"/>
</linearGradient>
<linearGradient id="paint1_linear_2151_49" x1="72.6801" y1="160.411" x2="112.945" y2="160.411" gradientUnits="userSpaceOnUse">
<stop stop-color="#F6D365"/>
<stop offset="1" stop-color="#FFBF23"/>
</linearGradient>
<linearGradient id="paint2_linear_2151_49" x1="69.9729" y1="-2.46643" x2="70.4706" y2="133.929" gradientUnits="userSpaceOnUse">
<stop offset="0.1589" stop-color="#575CC9"/>
<stop offset="0.9451" stop-color="#9A9BE9"/>
</linearGradient>
<linearGradient id="paint3_linear_2151_49" x1="70.2382" y1="13.025" x2="70.2382" y2="127.448" gradientUnits="userSpaceOnUse">
<stop stop-color="#002161"/>
<stop offset="1" stop-color="#0F1934"/>
</linearGradient>
<linearGradient id="paint4_linear_2151_49" x1="58.4819" y1="109.622" x2="92.4609" y2="109.622" gradientUnits="userSpaceOnUse">
<stop stop-color="#F6D365"/>
<stop offset="1" stop-color="#FFBF23"/>
</linearGradient>
<linearGradient id="paint5_linear_2151_49" x1="56.9015" y1="83.6221" x2="92.4609" y2="83.6221" gradientUnits="userSpaceOnUse">
<stop stop-color="#F6D365"/>
<stop offset="1" stop-color="#FFBF23"/>
</linearGradient>
</defs>
</svg>
