<svg width="179" height="158" viewBox="0 0 179 158" fill="none" xmlns="http://www.w3.org/2000/svg">
<path d="M178.604 135.813C148.987 140.028 119.144 142.135 89.3012 142.135C59.4603 142.135 29.618 140.028 0 135.813C3.30104 131.097 6.60436 126.352 9.91144 121.581C6.60436 115.979 3.30104 110.348 0 104.691C29.618 108.906 59.4603 111.013 89.3012 111.013C119.144 111.013 148.987 108.906 178.604 104.691C175.304 110.348 172 115.979 168.693 121.581C172 126.352 175.304 131.097 178.604 135.813Z" fill="#F39C12"/>
<path d="M161.33 127.053C113.469 132.527 65.1387 132.527 17.2773 127.053C22.2304 131.279 27.188 135.444 32.1494 139.554C70.1749 142.998 108.432 142.998 146.46 139.554C151.42 135.445 156.377 131.279 161.33 127.053Z" fill="#E67E22"/>
<path d="M150.042 140.691L88.3025 157.91L26.5664 140.691V78.9554V17.217L88.3025 0L150.042 17.217V78.9554V140.691Z" fill="#001A58"/>
<path d="M29.0156 138.833V19.0763L88.3035 2.54181L147.595 19.0763V138.833L88.3035 155.368L29.0156 138.833Z" fill="#0C5098"/>
<path d="M31.4648 136.973V20.9357L88.3045 5.08203L145.148 20.9357V136.973L88.3045 152.827L31.4648 136.973Z" fill="#000E3B"/>
<path d="M33.9121 135.115V22.7942L88.3036 7.62384L142.697 22.7942V135.115L88.3036 150.286L33.9121 135.115Z" fill="#2C3E50"/>
<path d="M33.9121 135.115V22.7942L88.3036 7.62384L142.697 22.7942V135.115L88.3036 150.286L33.9121 135.115Z" fill="url(#paint0_linear_2137_4284)"/>
<path d="M161.33 127.053C113.469 132.527 65.1387 132.527 17.2773 127.053C17.2773 116.68 17.2773 106.305 17.2773 95.9313C65.1387 101.405 113.469 101.405 161.33 95.9313C161.33 106.305 161.33 116.68 161.33 127.053Z" fill="#F1C40F"/>
<mask id="path-8-outside-1_2137_4284" maskUnits="userSpaceOnUse" x="68.0742" y="27.4172" width="42" height="58" fill="black">
<rect fill="white" x="68.0742" y="27.4172" width="42" height="58"/>
<path d="M73.0641 83.4172V76.3043L90.1352 58.1101C91.6826 56.4629 92.9055 54.9404 93.804 53.5428C94.7524 52.1452 95.4512 50.7975 95.9004 49.4997C96.3497 48.2019 96.5743 46.9041 96.5743 45.6063C96.5743 43.1105 95.7756 41.2137 94.1783 39.9159C92.6309 38.6181 90.3598 37.9692 87.3649 37.9692C85.0188 37.9692 82.7227 38.4184 80.4765 39.3169C78.2802 40.1655 76.1588 41.5132 74.1123 43.3601L70.8928 36.1722C72.9892 34.2754 75.6098 32.753 78.7544 31.605C81.8991 30.4569 85.1686 29.8829 88.5628 29.8829C92.3564 29.8829 95.551 30.4569 98.1466 31.605C100.742 32.753 102.714 34.4252 104.062 36.6215C105.409 38.8177 106.083 41.4882 106.083 44.6329C106.083 46.2302 105.884 47.8025 105.484 49.3499C105.135 50.8474 104.561 52.3448 103.762 53.8423C103.013 55.3398 102.04 56.8872 100.842 58.4845C99.694 60.0318 98.2964 61.6541 96.6491 63.3512L82.573 78.0264V75.4807H108.105V83.4172H73.0641Z"/>
</mask>
<path d="M73.0641 83.4172V76.3043L90.1352 58.1101C91.6826 56.4629 92.9055 54.9404 93.804 53.5428C94.7524 52.1452 95.4512 50.7975 95.9004 49.4997C96.3497 48.2019 96.5743 46.9041 96.5743 45.6063C96.5743 43.1105 95.7756 41.2137 94.1783 39.9159C92.6309 38.6181 90.3598 37.9692 87.3649 37.9692C85.0188 37.9692 82.7227 38.4184 80.4765 39.3169C78.2802 40.1655 76.1588 41.5132 74.1123 43.3601L70.8928 36.1722C72.9892 34.2754 75.6098 32.753 78.7544 31.605C81.8991 30.4569 85.1686 29.8829 88.5628 29.8829C92.3564 29.8829 95.551 30.4569 98.1466 31.605C100.742 32.753 102.714 34.4252 104.062 36.6215C105.409 38.8177 106.083 41.4882 106.083 44.6329C106.083 46.2302 105.884 47.8025 105.484 49.3499C105.135 50.8474 104.561 52.3448 103.762 53.8423C103.013 55.3398 102.04 56.8872 100.842 58.4845C99.694 60.0318 98.2964 61.6541 96.6491 63.3512L82.573 78.0264V75.4807H108.105V83.4172H73.0641Z" fill="url(#paint1_linear_2137_4284)"/>
<path d="M73.0641 83.4172H71.2677V85.2137H73.0641V83.4172ZM73.0641 76.3043L71.754 75.0751L71.2677 75.5935V76.3043H73.0641ZM90.1352 58.1101L88.8259 56.8801L88.8251 56.8809L90.1352 58.1101ZM93.804 53.5428L92.3175 52.5341L92.3049 52.5526L92.2929 52.5714L93.804 53.5428ZM95.9004 49.4997L97.598 50.0873L95.9004 49.4997ZM94.1783 39.9159L93.0239 41.2923L93.0347 41.3013L93.0455 41.3101L94.1783 39.9159ZM80.4765 39.3169L81.124 40.9926L81.1339 40.9888L81.1437 40.9848L80.4765 39.3169ZM74.1123 43.3601L72.4728 44.0944L73.4824 46.3483L75.3158 44.6937L74.1123 43.3601ZM70.8928 36.1722L69.6875 34.8401L68.7198 35.7156L69.2533 36.9066L70.8928 36.1722ZM78.7544 31.605L78.1384 29.9175V29.9175L78.7544 31.605ZM98.1466 31.605L98.8733 29.9621V29.9621L98.1466 31.605ZM104.062 36.6215L102.53 37.561V37.561L104.062 36.6215ZM105.484 49.3499L103.745 48.901L103.74 48.9213L103.735 48.9417L105.484 49.3499ZM103.762 53.8423L102.177 52.9969L102.166 53.0178L102.155 53.0389L103.762 53.8423ZM100.842 58.4845L99.4049 57.4066L99.3993 57.4141L100.842 58.4845ZM96.6491 63.3512L95.36 62.1L95.3527 62.1077L96.6491 63.3512ZM82.573 78.0264H80.7766V82.4944L83.8694 79.2699L82.573 78.0264ZM82.573 75.4807V73.6842H80.7766V75.4807H82.573ZM108.105 75.4807H109.901V73.6842H108.105V75.4807ZM108.105 83.4172V85.2137H109.901V83.4172H108.105ZM73.0641 83.4172H74.8605V76.3043H73.0641H71.2677V83.4172H73.0641ZM73.0641 76.3043L74.3741 77.5335L91.4452 59.3393L90.1352 58.1101L88.8251 56.8809L71.754 75.0751L73.0641 76.3043ZM90.1352 58.1101L91.4445 59.34C93.0421 57.6394 94.3406 56.0302 95.3151 54.5142L93.804 53.5428L92.2929 52.5714C91.4704 53.8507 90.323 55.2864 88.8259 56.8801L90.1352 58.1101ZM93.804 53.5428L95.2905 54.5515C96.308 53.052 97.087 51.5636 97.598 50.0873L95.9004 49.4997L94.2028 48.912C93.8154 50.0313 93.1968 51.2383 92.3175 52.5341L93.804 53.5428ZM95.9004 49.4997L97.598 50.0873C98.1088 48.6116 98.3707 47.1155 98.3707 45.6063H96.5743H94.7778C94.7778 46.6927 94.5905 47.7922 94.2028 48.912L95.9004 49.4997ZM96.5743 45.6063H98.3707C98.3707 42.6966 97.4179 40.2334 95.3111 38.5217L94.1783 39.9159L93.0455 41.3101C94.1334 42.194 94.7778 43.5244 94.7778 45.6063H96.5743ZM94.1783 39.9159L95.3327 38.5395C93.3374 36.866 90.5846 36.1728 87.3649 36.1728V37.9692V39.7656C90.135 39.7656 91.9245 40.3702 93.0239 41.2923L94.1783 39.9159ZM87.3649 37.9692V36.1728C84.7831 36.1728 82.261 36.6683 79.8094 37.649L80.4765 39.3169L81.1437 40.9848C83.1845 40.1685 85.2545 39.7656 87.3649 39.7656V37.9692ZM80.4765 39.3169L79.8291 37.6412C77.3964 38.5811 75.0909 40.0572 72.9088 42.0264L74.1123 43.3601L75.3158 44.6937C77.2268 42.9692 79.1641 41.7498 81.124 40.9926L80.4765 39.3169ZM74.1123 43.3601L75.7518 42.6257L72.5322 35.4379L70.8928 36.1722L69.2533 36.9066L72.4728 44.0944L74.1123 43.3601ZM70.8928 36.1722L72.098 37.5043C73.9943 35.7887 76.404 34.3755 79.3705 33.2924L78.7544 31.605L78.1384 29.9175C74.8155 31.1306 71.9841 32.7622 69.6875 34.8401L70.8928 36.1722ZM78.7544 31.605L79.3705 33.2924C82.315 32.2175 85.3757 31.6793 88.5628 31.6793V29.8829V28.0865C84.9614 28.0865 81.4832 28.6963 78.1384 29.9175L78.7544 31.605ZM88.5628 29.8829V31.6793C92.186 31.6793 95.1164 32.229 97.4199 33.2479L98.1466 31.605L98.8733 29.9621C95.9856 28.6848 92.5268 28.0865 88.5628 28.0865V29.8829ZM98.1466 31.605L97.4199 33.2479C99.7176 34.2641 101.393 35.7067 102.53 37.561L104.062 36.6215L105.593 35.6819C104.035 33.1436 101.767 31.2419 98.8733 29.9621L98.1466 31.605ZM104.062 36.6215L102.53 37.561C103.67 39.4181 104.287 41.7467 104.287 44.6329H106.083H107.88C107.88 41.2297 107.149 38.2174 105.593 35.6819L104.062 36.6215ZM106.083 44.6329H104.287C104.287 46.0787 104.106 47.5002 103.745 48.901L105.484 49.3499L107.224 49.7988C107.661 48.1049 107.88 46.3817 107.88 44.6329H106.083ZM105.484 49.3499L103.735 48.9417C103.424 50.2721 102.91 51.6233 102.177 52.9969L103.762 53.8423L105.347 54.6877C106.212 53.0664 106.845 51.4227 107.234 49.7581L105.484 49.3499ZM103.762 53.8423L102.155 53.0389C101.463 54.4237 100.55 55.8796 99.4049 57.4066L100.842 58.4845L102.279 59.5623C103.53 57.8947 104.564 56.2558 105.369 54.6457L103.762 53.8423ZM100.842 58.4845L99.3993 57.4141C98.3076 58.8855 96.964 60.4475 95.3601 62.1L96.6491 63.3512L97.9382 64.6024C99.6287 62.8607 101.08 61.1782 102.285 59.5548L100.842 58.4845ZM96.6491 63.3512L95.3527 62.1077L81.2765 76.7828L82.573 78.0264L83.8694 79.2699L97.9456 64.5947L96.6491 63.3512ZM82.573 78.0264H84.3694V75.4807H82.573H80.7766V78.0264H82.573ZM82.573 75.4807V77.2771H108.105V75.4807V73.6842H82.573V75.4807ZM108.105 75.4807H106.308V83.4172H108.105H109.901V75.4807H108.105ZM108.105 83.4172V81.6208H73.0641V83.4172V85.2137H108.105V83.4172Z" fill="#000F3C" mask="url(#path-8-outside-1_2137_4284)"/>
<path d="M66.3107 121.75L71.3539 110.605H73.0138L78.0569 121.75H76.0018L74.658 118.62L75.5117 119.173H68.8402L69.6939 118.62L68.3659 121.75H66.3107ZM72.1601 112.802L69.9468 118.066L69.5358 117.561H74.8161L74.4208 118.066L72.1917 112.802H72.1601ZM79.2765 121.75V110.605H80.7942L87.1969 118.92H86.7858V110.605H88.6671V121.75H87.1653L80.7625 113.419H81.1578V121.75H79.2765ZM96.0982 121.908C95.2866 121.908 94.5489 121.776 93.8849 121.513C93.2314 121.239 92.6676 120.849 92.1933 120.343C91.7296 119.837 91.3712 119.231 91.1183 118.525C90.8653 117.819 90.7389 117.034 90.7389 116.169C90.7389 115.295 90.8653 114.509 91.1183 113.814C91.3712 113.108 91.7296 112.507 92.1933 112.012C92.6676 111.506 93.2314 111.121 93.8849 110.857C94.5489 110.583 95.2866 110.446 96.0982 110.446C96.9097 110.446 97.6422 110.583 98.2956 110.857C98.9596 111.121 99.5235 111.5 99.9872 111.996C100.462 112.491 100.825 113.092 101.078 113.798C101.331 114.494 101.457 115.279 101.457 116.154C101.457 117.028 101.331 117.819 101.078 118.525C100.825 119.231 100.462 119.837 99.9872 120.343C99.5235 120.849 98.9596 121.239 98.2956 121.513C97.6422 121.776 96.9097 121.908 96.0982 121.908ZM96.0982 120.169C96.7832 120.169 97.3629 120.011 97.8372 119.695C98.322 119.379 98.6909 118.92 98.9438 118.319C99.2073 117.719 99.3391 117.002 99.3391 116.169C99.3391 115.326 99.2126 114.61 98.9596 114.019C98.7067 113.419 98.3378 112.965 97.853 112.66C97.3682 112.344 96.7832 112.185 96.0982 112.185C95.4237 112.185 94.844 112.344 94.3592 112.66C93.8744 112.965 93.5002 113.419 93.2367 114.019C92.9838 114.61 92.8573 115.326 92.8573 116.169C92.8573 117.002 92.9838 117.719 93.2367 118.319C93.5002 118.92 93.8744 119.379 94.3592 119.695C94.844 120.011 95.4237 120.169 96.0982 120.169ZM107.357 121.908C106.777 121.908 106.219 121.855 105.681 121.75C105.154 121.655 104.664 121.513 104.211 121.323C103.768 121.133 103.373 120.907 103.025 120.643L103.642 119.047C103.989 119.289 104.353 119.5 104.732 119.679C105.122 119.848 105.533 119.979 105.966 120.074C106.408 120.159 106.872 120.201 107.357 120.201C108.189 120.201 108.795 120.064 109.175 119.79C109.554 119.505 109.744 119.141 109.744 118.699C109.744 118.456 109.686 118.251 109.57 118.082C109.454 117.903 109.264 117.75 109.001 117.624C108.737 117.497 108.39 117.392 107.958 117.308L106.219 116.944C105.217 116.733 104.469 116.38 103.974 115.885C103.489 115.379 103.246 114.715 103.246 113.893C103.246 113.197 103.431 112.591 103.8 112.075C104.169 111.558 104.68 111.158 105.333 110.873C105.987 110.589 106.74 110.446 107.594 110.446C108.1 110.446 108.585 110.499 109.048 110.605C109.523 110.699 109.955 110.847 110.345 111.047C110.745 111.237 111.093 111.469 111.388 111.743L110.772 113.26C110.329 112.892 109.844 112.618 109.317 112.438C108.79 112.249 108.21 112.154 107.578 112.154C107.093 112.154 106.677 112.222 106.329 112.359C105.981 112.496 105.713 112.691 105.523 112.944C105.344 113.187 105.254 113.477 105.254 113.814C105.254 114.193 105.381 114.499 105.634 114.731C105.887 114.952 106.319 115.126 106.93 115.252L108.653 115.616C109.697 115.837 110.471 116.185 110.977 116.659C111.494 117.134 111.752 117.766 111.752 118.557C111.752 119.221 111.573 119.805 111.214 120.311C110.856 120.817 110.345 121.212 109.681 121.497C109.027 121.771 108.253 121.908 107.357 121.908Z" fill="#041E4E"/>
<defs>
<linearGradient id="paint0_linear_2137_4284" x1="88.3048" y1="7.62384" x2="88.3048" y2="150.286" gradientUnits="userSpaceOnUse">
<stop stop-color="#002161"/>
<stop offset="1" stop-color="#0F1934"/>
</linearGradient>
<linearGradient id="paint1_linear_2137_4284" x1="76.5148" y1="83.4172" x2="112.074" y2="83.4172" gradientUnits="userSpaceOnUse">
<stop stop-color="#F6D365"/>
<stop offset="1" stop-color="#FFBF23"/>
</linearGradient>
</defs>
</svg>
