<svg width="157" height="156" viewBox="0 0 157 156" fill="none" xmlns="http://www.w3.org/2000/svg">
<path d="M147.241 108.482V47.1845C147.241 41.2775 144.089 35.8185 138.974 32.8645L85.888 2.2155C80.772 -0.7385 74.469 -0.7385 69.353 2.2155L16.267 32.8645C11.151 35.8185 8 41.2765 8 47.1845V108.482C8 114.389 11.151 119.848 16.267 122.801L69.353 153.451C74.469 156.404 80.772 156.404 85.888 153.451L138.974 122.801C144.09 119.848 147.241 114.39 147.241 108.482Z" fill="#041E4E"/>
<path d="M135.309 103.23V52.4376C135.309 47.5426 132.698 43.0196 128.459 40.5726L84.4716 15.1766C80.2326 12.7296 75.0096 12.7296 70.7706 15.1766L26.7836 40.5726C22.5446 43.0196 19.9336 47.5426 19.9336 52.4376V103.23C19.9336 108.125 22.5446 112.648 26.7836 115.095L70.7706 140.491C75.0096 142.938 80.2326 142.938 84.4716 140.491L128.459 115.095C132.697 112.648 135.309 108.125 135.309 103.23Z" fill="#3B5FA0"/>
<path d="M132.222 101.871V53.7965C132.222 49.1635 129.75 44.8825 125.738 42.5665L84.1036 18.5295C80.0916 16.2135 75.1486 16.2135 71.1356 18.5295L29.5016 42.5665C25.4896 44.8825 23.0176 49.1635 23.0176 53.7965V101.871C23.0176 106.504 25.4896 110.785 29.5016 113.101L71.1356 137.138C75.1476 139.455 80.0906 139.455 84.1036 137.138L125.738 113.101C129.75 110.784 132.222 106.503 132.222 101.871Z" fill="url(#paint0_linear_2151_74)"/>
<path d="M157 131H0L5.2194 115.501L0 100H157L151.78 115.501L157 131Z" fill="url(#paint1_linear_2151_74)"/>
<path d="M53.6013 122V107.71H55.7701L61.1617 117.662H60.5131L65.8844 107.71H68.0126V122H65.6614V111.561H66.1073L61.5671 119.831H60.0469L55.466 111.541H55.9525V122H53.6013ZM71.1577 122V107.71H80.6639V109.778H73.6508V113.71H80.218V115.777H73.6508V119.933H80.6639V122H71.1577ZM87.9794 122.203C87.2362 122.203 86.52 122.135 85.8308 122C85.1552 121.878 84.5269 121.696 83.9458 121.453C83.3783 121.21 82.8715 120.919 82.4256 120.581L83.2161 118.534C83.662 118.845 84.1282 119.115 84.6147 119.345C85.1147 119.561 85.6417 119.73 86.1957 119.851C86.7632 119.96 87.3578 120.014 87.9794 120.014C89.0469 120.014 89.8239 119.838 90.3103 119.487C90.7968 119.122 91.04 118.656 91.04 118.088C91.04 117.777 90.9657 117.514 90.8171 117.298C90.6684 117.068 90.4252 116.872 90.0874 116.71C89.7495 116.548 89.3036 116.412 88.7496 116.304L86.52 115.838C85.2363 115.568 84.2769 115.115 83.6418 114.48C83.0202 113.832 82.7094 112.98 82.7094 111.926C82.7094 111.034 82.9459 110.257 83.4188 109.595C83.8918 108.933 84.5471 108.42 85.3849 108.055C86.2227 107.69 87.1889 107.508 88.2834 107.508C88.932 107.508 89.5536 107.575 90.1482 107.71C90.7562 107.832 91.3103 108.021 91.8102 108.278C92.3237 108.521 92.7697 108.818 93.148 109.17L92.3575 111.115C91.79 110.643 91.1684 110.291 90.4927 110.061C89.8171 109.818 89.0739 109.697 88.2631 109.697C87.6415 109.697 87.1078 109.784 86.6619 109.96C86.216 110.136 85.8714 110.386 85.6281 110.71C85.3984 111.021 85.2836 111.392 85.2836 111.825C85.2836 112.311 85.4457 112.703 85.77 113C86.0943 113.284 86.6484 113.507 87.4321 113.669L89.6414 114.136C90.9792 114.419 91.9724 114.865 92.621 115.473C93.2831 116.081 93.6142 116.892 93.6142 117.906C93.6142 118.757 93.3845 119.507 92.925 120.156C92.4656 120.804 91.8102 121.311 90.9589 121.676C90.1211 122.027 89.128 122.203 87.9794 122.203ZM95.841 122V107.71H105.347V109.778H98.3341V113.71H104.901V115.777H98.3341V119.933H105.347V122H95.841ZM112.663 122.203C111.919 122.203 111.203 122.135 110.514 122C109.838 121.878 109.21 121.696 108.629 121.453C108.062 121.21 107.555 120.919 107.109 120.581L107.899 118.534C108.345 118.845 108.811 119.115 109.298 119.345C109.798 119.561 110.325 119.73 110.879 119.851C111.446 119.96 112.041 120.014 112.663 120.014C113.73 120.014 114.507 119.838 114.994 119.487C115.48 119.122 115.723 118.656 115.723 118.088C115.723 117.777 115.649 117.514 115.5 117.298C115.352 117.068 115.108 116.872 114.771 116.71C114.433 116.548 113.987 116.412 113.433 116.304L111.203 115.838C109.92 115.568 108.96 115.115 108.325 114.48C107.703 113.832 107.393 112.98 107.393 111.926C107.393 111.034 107.629 110.257 108.102 109.595C108.575 108.933 109.23 108.42 110.068 108.055C110.906 107.69 111.872 107.508 112.967 107.508C113.615 107.508 114.237 107.575 114.831 107.71C115.44 107.832 115.994 108.021 116.494 108.278C117.007 108.521 117.453 108.818 117.831 109.17L117.041 111.115C116.473 110.643 115.852 110.291 115.176 110.061C114.5 109.818 113.757 109.697 112.946 109.697C112.325 109.697 111.791 109.784 111.345 109.96C110.899 110.136 110.555 110.386 110.311 110.71C110.082 111.021 109.967 111.392 109.967 111.825C109.967 112.311 110.129 112.703 110.453 113C110.778 113.284 111.332 113.507 112.115 113.669L114.325 114.136C115.662 114.419 116.656 114.865 117.304 115.473C117.966 116.081 118.297 116.892 118.297 117.906C118.297 118.757 118.068 119.507 117.608 120.156C117.149 120.804 116.494 121.311 115.642 121.676C114.804 122.027 113.811 122.203 112.663 122.203Z" fill="#041E4E"/>
<mask id="path-6-outside-1_2151_74" maskUnits="userSpaceOnUse" x="56" y="36" width="43" height="60" fill="black">
<rect fill="white" x="56" y="36" width="43" height="60"/>
<path d="M77.0799 92.7371C74.7213 92.7371 72.4119 92.4914 70.1516 92C67.9404 91.5578 65.8766 90.8944 63.9603 90.0099C62.0439 89.1255 60.3732 88.069 58.9482 86.8406L62.0439 79.6174C64.3534 81.3863 66.712 82.6885 69.1197 83.5238C71.5274 84.3591 74.0826 84.7768 76.7851 84.7768C78.9472 84.7768 80.7652 84.482 82.2394 83.8923C83.7135 83.3027 84.8191 82.4182 85.5561 81.2389C86.3423 80.0596 86.7354 78.6346 86.7354 76.964C86.7354 74.5071 85.9001 72.689 84.2294 71.5097C82.6079 70.2813 80.2247 69.6671 77.0799 69.6671H68.7512V61.8542H76.1955C78.0627 61.8542 79.6597 61.5594 80.9864 60.9697C82.3131 60.3309 83.345 59.4465 84.082 58.3163C84.8191 57.1862 85.1876 55.8103 85.1876 54.1888C85.1876 51.9285 84.426 50.2086 82.9027 49.0293C81.4286 47.85 79.2666 47.2604 76.4166 47.2604C73.8614 47.2604 71.4783 47.7026 69.2671 48.5871C67.0559 49.4224 64.943 50.7492 62.9284 52.5672L59.8327 45.4915C61.8965 43.526 64.4762 42.0027 67.5719 40.9217C70.6675 39.8407 73.886 39.3001 77.2274 39.3001C80.8144 39.3001 83.8855 39.8652 86.4406 40.9954C88.9958 42.0764 90.9367 43.6488 92.2634 45.7126C93.6392 47.7272 94.3272 50.1841 94.3272 53.0832C94.3272 56.1788 93.4673 58.8568 91.7475 61.1171C90.0276 63.3283 87.6691 64.8025 84.6717 65.5395V64.655C87.0303 65.0481 89.0449 65.8343 90.7156 67.0136C92.3862 68.1929 93.6638 69.6916 94.5483 71.5097C95.4328 73.3278 95.875 75.4161 95.875 77.7747C95.875 80.8212 95.1134 83.4747 93.5901 85.735C92.0669 87.9953 89.9048 89.7397 87.104 90.9681C84.3031 92.1474 80.9618 92.7371 77.0799 92.7371Z"/>
</mask>
<path d="M77.0799 92.7371C74.7213 92.7371 72.4119 92.4914 70.1516 92C67.9404 91.5578 65.8766 90.8944 63.9603 90.0099C62.0439 89.1255 60.3732 88.069 58.9482 86.8406L62.0439 79.6174C64.3534 81.3863 66.712 82.6885 69.1197 83.5238C71.5274 84.3591 74.0826 84.7768 76.7851 84.7768C78.9472 84.7768 80.7652 84.482 82.2394 83.8923C83.7135 83.3027 84.8191 82.4182 85.5561 81.2389C86.3423 80.0596 86.7354 78.6346 86.7354 76.964C86.7354 74.5071 85.9001 72.689 84.2294 71.5097C82.6079 70.2813 80.2247 69.6671 77.0799 69.6671H68.7512V61.8542H76.1955C78.0627 61.8542 79.6597 61.5594 80.9864 60.9697C82.3131 60.3309 83.345 59.4465 84.082 58.3163C84.8191 57.1862 85.1876 55.8103 85.1876 54.1888C85.1876 51.9285 84.426 50.2086 82.9027 49.0293C81.4286 47.85 79.2666 47.2604 76.4166 47.2604C73.8614 47.2604 71.4783 47.7026 69.2671 48.5871C67.0559 49.4224 64.943 50.7492 62.9284 52.5672L59.8327 45.4915C61.8965 43.526 64.4762 42.0027 67.5719 40.9217C70.6675 39.8407 73.886 39.3001 77.2274 39.3001C80.8144 39.3001 83.8855 39.8652 86.4406 40.9954C88.9958 42.0764 90.9367 43.6488 92.2634 45.7126C93.6392 47.7272 94.3272 50.1841 94.3272 53.0832C94.3272 56.1788 93.4673 58.8568 91.7475 61.1171C90.0276 63.3283 87.6691 64.8025 84.6717 65.5395V64.655C87.0303 65.0481 89.0449 65.8343 90.7156 67.0136C92.3862 68.1929 93.6638 69.6916 94.5483 71.5097C95.4328 73.3278 95.875 75.4161 95.875 77.7747C95.875 80.8212 95.1134 83.4747 93.5901 85.735C92.0669 87.9953 89.9048 89.7397 87.104 90.9681C84.3031 92.1474 80.9618 92.7371 77.0799 92.7371Z" fill="url(#paint2_linear_2151_74)"/>
<path d="M70.1516 92L70.6409 89.7493L70.6221 89.7452L70.6033 89.7414L70.1516 92ZM63.9603 90.0099L62.995 92.1013L63.9603 90.0099ZM58.9482 86.8406L56.8312 85.9333L56.1667 87.4837L57.4443 88.5851L58.9482 86.8406ZM62.0439 79.6174L63.4445 77.7888L61.0934 75.988L59.9268 78.7101L62.0439 79.6174ZM69.1197 83.5238L68.3647 85.6999L69.1197 83.5238ZM85.5561 81.2389L83.6397 79.9613L83.6209 79.9894L83.6029 80.0182L85.5561 81.2389ZM84.2294 71.5097L82.8386 73.3457L82.8695 73.3691L82.9012 73.3914L84.2294 71.5097ZM68.7512 69.6671H66.4478V71.9704H68.7512V69.6671ZM68.7512 61.8542V59.5509H66.4478V61.8542H68.7512ZM80.9864 60.9697L81.9218 63.0745L81.9539 63.0603L81.9856 63.045L80.9864 60.9697ZM84.082 58.3163L82.1527 57.0581V57.0581L84.082 58.3163ZM82.9027 49.0293L81.4639 50.8279L81.4782 50.8394L81.4927 50.8506L82.9027 49.0293ZM69.2671 48.5871L70.0811 50.7418L70.1019 50.7339L70.1225 50.7257L69.2671 48.5871ZM62.9284 52.5672L60.8182 53.4905L62.0991 56.4182L64.4715 54.2772L62.9284 52.5672ZM59.8327 45.4915L58.2442 43.8235L57.0758 44.9364L57.7225 46.4147L59.8327 45.4915ZM67.5719 40.9217L66.8125 38.7471L67.5719 40.9217ZM86.4406 40.9954L85.5089 43.1018L85.526 43.1094L85.5432 43.1167L86.4406 40.9954ZM92.2634 45.7126L90.3259 46.9581L90.3432 46.9851L90.3613 47.0116L92.2634 45.7126ZM91.7475 61.1171L93.5656 62.5312L93.5731 62.5216L93.5805 62.5119L91.7475 61.1171ZM84.6717 65.5395H82.3684V68.4778L85.2217 67.7762L84.6717 65.5395ZM84.6717 64.655L85.0503 62.3831L82.3684 61.9361V64.655H84.6717ZM90.7156 67.0136L92.0439 65.1319L90.7156 67.0136ZM94.5483 71.5097L96.6195 70.5021L94.5483 71.5097ZM93.5901 85.735L95.5002 87.0222H95.5002L93.5901 85.735ZM87.104 90.9681L87.9978 93.0909L88.0135 93.0843L88.0291 93.0775L87.104 90.9681ZM77.0799 92.7371V90.4337C74.8826 90.4337 72.7373 90.205 70.6409 89.7493L70.1516 92L69.6623 94.2507C72.0865 94.7777 74.5601 95.0404 77.0799 95.0404V92.7371ZM70.1516 92L70.6033 89.7414C68.5572 89.3322 66.667 88.7224 64.9255 87.9186L63.9603 90.0099L62.995 92.1013C65.0862 93.0664 67.3236 93.7833 69.6999 94.2586L70.1516 92ZM63.9603 90.0099L64.9255 87.9186C63.1806 87.1133 61.6962 86.1685 60.4522 85.096L58.9482 86.8406L57.4443 88.5851C59.0502 89.9695 60.9072 91.1376 62.995 92.1013L63.9603 90.0099ZM58.9482 86.8406L61.0653 87.7479L64.161 80.5247L62.0439 79.6174L59.9268 78.7101L56.8312 85.9333L58.9482 86.8406ZM62.0439 79.6174L60.6433 81.4459C63.1209 83.3436 65.6943 84.7734 68.3647 85.6999L69.1197 83.5238L69.8746 81.3477C67.7296 80.6035 65.5858 79.429 63.4445 77.7888L62.0439 79.6174ZM69.1197 83.5238L68.3647 85.6999C71.0296 86.6244 73.8412 87.0801 76.7851 87.0801V84.7768V82.4735C74.3239 82.4735 72.0253 82.0939 69.8746 81.3477L69.1197 83.5238ZM76.7851 84.7768V87.0801C79.1409 87.0801 81.2695 86.761 83.0948 86.0309L82.2394 83.8923L81.3839 81.7538C80.261 82.2029 78.7534 82.4735 76.7851 82.4735V84.7768ZM82.2394 83.8923L83.0948 86.0309C84.956 85.2864 86.4773 84.1109 87.5094 82.4597L85.5561 81.2389L83.6029 80.0182C83.1609 80.7255 82.4709 81.319 81.3839 81.7538L82.2394 83.8923ZM85.5561 81.2389L87.4726 82.5166C88.5534 80.8953 89.0388 79.0064 89.0388 76.964H86.7354H84.4321C84.4321 78.2628 84.1312 79.2239 83.6397 79.9613L85.5561 81.2389ZM86.7354 76.964H89.0388C89.0388 73.93 87.9675 71.329 85.5577 69.628L84.2294 71.5097L82.9012 73.3914C83.8327 74.049 84.4321 75.0842 84.4321 76.964H86.7354ZM84.2294 71.5097L85.6203 69.6737C83.4328 68.0165 80.4692 67.3637 77.0799 67.3637V69.6671V71.9704C79.9803 71.9704 81.783 72.546 82.8386 73.3457L84.2294 71.5097ZM77.0799 69.6671V67.3637H68.7512V69.6671V71.9704H77.0799V69.6671ZM68.7512 69.6671H71.0545V61.8542H68.7512H66.4478V69.6671H68.7512ZM68.7512 61.8542V64.1575H76.1955V61.8542V59.5509H68.7512V61.8542ZM76.1955 61.8542V64.1575C78.2964 64.1575 80.2292 63.8268 81.9218 63.0745L80.9864 60.9697L80.0509 58.8649C79.0901 59.292 77.829 59.5509 76.1955 59.5509V61.8542ZM80.9864 60.9697L81.9856 63.045C83.6553 62.2411 85.0238 61.0887 86.0113 59.5745L84.082 58.3163L82.1527 57.0581C81.6661 57.8043 80.9708 58.4208 79.9872 58.8944L80.9864 60.9697ZM84.082 58.3163L86.0113 59.5745C87.0379 58.0004 87.4909 56.1659 87.4909 54.1888H85.1876H82.8843C82.8843 55.4548 82.6002 56.3719 82.1527 57.0581L84.082 58.3163ZM85.1876 54.1888H87.4909C87.4909 51.3549 86.501 48.9022 84.3128 47.2081L82.9027 49.0293L81.4927 50.8506C82.351 51.5151 82.8843 52.502 82.8843 54.1888H85.1876ZM82.9027 49.0293L84.3416 47.2308C82.2968 45.5949 79.5349 44.9571 76.4166 44.9571V47.2604V49.5637C78.9983 49.5637 80.5604 50.1052 81.4639 50.8279L82.9027 49.0293ZM76.4166 47.2604V44.9571C73.59 44.9571 70.9142 45.4475 68.4117 46.4485L69.2671 48.5871L70.1225 50.7257C72.0423 49.9578 74.1329 49.5637 76.4166 49.5637V47.2604ZM69.2671 48.5871L68.4531 46.4324C65.9366 47.3831 63.5819 48.875 61.3852 50.8573L62.9284 52.5672L64.4715 54.2772C66.3042 52.6234 68.1753 51.4618 70.0811 50.7418L69.2671 48.5871ZM62.9284 52.5672L65.0386 51.644L61.9429 44.5682L59.8327 45.4915L57.7225 46.4147L60.8182 53.4905L62.9284 52.5672ZM59.8327 45.4915L61.4212 47.1594C63.2146 45.4514 65.4985 44.0854 68.3312 43.0962L67.5719 40.9217L66.8125 38.7471C63.4539 39.92 60.5784 41.6006 58.2442 43.8235L59.8327 45.4915ZM67.5719 40.9217L68.3312 43.0962C71.1781 42.1021 74.1396 41.6035 77.2274 41.6035V39.3001V36.9968C73.6325 36.9968 70.1569 37.5792 66.8125 38.7471L67.5719 40.9217ZM77.2274 39.3001V41.6035C80.581 41.6035 83.3179 42.1327 85.5089 43.1018L86.4406 40.9954L87.3723 38.8889C84.453 37.5977 81.0478 36.9968 77.2274 36.9968V39.3001ZM86.4406 40.9954L85.5432 43.1167C87.7293 44.0415 89.2818 45.334 90.3259 46.9581L92.2634 45.7126L94.2009 44.467C92.5916 41.9637 90.2623 40.1113 87.3381 38.8741L86.4406 40.9954ZM92.2634 45.7126L90.3613 47.0116C91.4297 48.5759 92.0239 50.5585 92.0239 53.0832H94.3272H96.6305C96.6305 49.8097 95.8488 46.8785 94.1655 44.4136L92.2634 45.7126ZM94.3272 53.0832H92.0239C92.0239 55.723 91.3013 57.8997 89.9144 59.7224L91.7475 61.1171L93.5805 62.5119C95.6332 59.814 96.6305 56.6346 96.6305 53.0832H94.3272ZM91.7475 61.1171L89.9293 59.703C88.5604 61.463 86.6703 62.6761 84.1217 63.3028L84.6717 65.5395L85.2217 67.7762C88.6678 66.9288 91.4948 65.1936 93.5656 62.5312L91.7475 61.1171ZM84.6717 65.5395H86.975V64.655H84.6717H82.3684V65.5395H84.6717ZM84.6717 64.655L84.293 66.927C86.3673 67.2727 88.0439 67.9471 89.3873 68.8954L90.7156 67.0136L92.0439 65.1319C90.0459 63.7216 87.6932 62.8235 85.0503 62.3831L84.6717 64.655ZM90.7156 67.0136L89.3873 68.8954C90.7444 69.8533 91.7646 71.0528 92.4771 72.5173L94.5483 71.5097L96.6195 70.5021C95.563 68.3305 94.0281 66.5326 92.0439 65.1319L90.7156 67.0136ZM94.5483 71.5097L92.4771 72.5173C93.1853 73.9732 93.5717 75.7073 93.5717 77.7747H95.875H98.1783C98.1783 75.125 97.6802 72.6824 96.6195 70.5021L94.5483 71.5097ZM95.875 77.7747H93.5717C93.5717 80.4186 92.9174 82.6118 91.68 84.4478L93.5901 85.735L95.5002 87.0222C97.3094 84.3376 98.1783 81.2239 98.1783 77.7747H95.875ZM93.5901 85.735L91.68 84.4478C90.4296 86.3033 88.6304 87.7835 86.1788 88.8588L87.104 90.9681L88.0291 93.0775C91.1793 91.6958 93.7042 89.6873 95.5002 87.0222L93.5901 85.735ZM87.104 90.9681L86.2102 88.8453C83.7589 89.8774 80.7365 90.4337 77.0799 90.4337V92.7371V95.0404C81.1871 95.0404 84.8474 94.4174 87.9978 93.0909L87.104 90.9681Z" fill="#000F3C" mask="url(#path-6-outside-1_2151_74)"/>
<defs>
<linearGradient id="paint0_linear_2151_74" x1="77.6196" y1="16.7925" x2="77.6196" y2="138.876" gradientUnits="userSpaceOnUse">
<stop stop-color="#002161"/>
<stop offset="1" stop-color="#0F1934"/>
</linearGradient>
<linearGradient id="paint1_linear_2151_74" x1="32.9371" y1="131" x2="157" y2="131" gradientUnits="userSpaceOnUse">
<stop stop-color="#F6D365"/>
<stop offset="1" stop-color="#FFBF23"/>
</linearGradient>
<linearGradient id="paint2_linear_2151_74" x1="65.4406" y1="92" x2="101" y2="92" gradientUnits="userSpaceOnUse">
<stop stop-color="#F6D365"/>
<stop offset="1" stop-color="#FFBF23"/>
</linearGradient>
</defs>
</svg>
