<svg width="153" height="143" viewBox="0 0 153 143" fill="none" xmlns="http://www.w3.org/2000/svg">
<path d="M148.461 132.954C124.432 129.534 100.219 127.824 76.0072 127.824C51.7969 127.824 27.5866 129.533 3.5558 132.954C5.64075 128.407 7.79433 123.87 10.0141 119.348C6.74021 115.52 3.40136 111.722 0 107.956C25.2081 104.368 50.6067 102.574 76.0072 102.574C101.408 102.574 126.809 104.368 152.019 107.956C148.615 111.722 145.276 115.52 142.001 119.348C144.223 123.871 146.374 128.407 148.461 132.954Z" fill="#F39C12"/>
<path d="M136.093 120.901C96.1696 116.442 55.851 116.442 15.9258 120.901C20.3961 123.352 24.8039 125.857 29.1423 128.415C60.3239 125.658 91.695 125.658 122.878 128.415C127.216 125.857 131.621 123.352 136.093 120.901Z" fill="#E67E22"/>
<path d="M76.0261 142.548C69.9738 142.548 65.0408 134.642 59.453 133.143C53.6771 131.594 45.4566 135.918 40.3954 132.986C35.2667 130.012 34.9281 120.702 30.7645 116.536C26.5978 112.37 17.2862 112.033 14.315 106.904C11.3836 101.843 15.7046 93.6229 14.1576 87.8477C12.6596 82.2614 4.75391 77.3269 4.75391 71.273C4.75391 65.2207 12.6596 60.2862 14.1576 54.6999C15.7054 48.924 11.3836 40.7019 14.3157 35.6423C17.2878 30.5128 26.5993 30.1765 30.7645 26.0106C34.9296 21.8446 35.2667 12.5339 40.3954 9.56106C45.4581 6.62971 53.6771 10.953 59.453 9.40367C65.0408 7.90575 69.9738 0 76.0261 0C82.0815 0 87.0137 7.90575 92.6008 9.40367C98.3767 10.953 106.597 6.62971 111.657 9.56183C116.787 12.5346 117.124 21.8454 121.291 26.0113C125.458 30.1773 134.769 30.5136 137.74 35.6438C140.672 40.7034 136.348 48.924 137.898 54.6999C139.396 60.2862 147.301 65.2207 147.301 71.273C147.301 77.3269 139.396 82.2614 137.898 87.8484C136.348 93.6236 140.672 101.845 137.74 106.905C134.768 112.035 125.456 112.371 121.289 116.538C117.124 120.704 116.787 130.014 111.657 132.987C106.597 135.919 98.3767 131.595 92.6008 133.144C87.0137 134.641 82.0815 142.548 76.0261 142.548Z" fill="#002B68"/>
<path d="M7.86523 71.2722C7.86523 65.484 15.5383 60.7829 16.9664 55.4446C18.4428 49.922 14.1909 42.0201 16.9887 37.1839C19.8263 32.2786 28.82 32.0291 32.8024 28.049C36.7833 24.0673 37.0336 15.0721 41.9397 12.2344C46.7744 9.43667 54.6763 13.6894 60.1989 12.2122C65.5372 10.7864 70.239 3.11023 76.0249 3.11023C81.8147 3.11023 86.5158 10.7864 91.8541 12.2122C97.3782 13.6886 105.279 9.43667 110.116 12.2344C115.02 15.0721 115.272 24.0673 119.252 28.049C123.233 32.0299 132.226 32.2802 135.066 37.1855C137.863 42.0209 133.612 49.9213 135.087 55.4446C136.513 60.7829 144.188 65.4848 144.188 71.2722C144.188 77.062 136.514 81.7638 135.087 87.1014C133.612 92.6255 137.862 100.526 135.064 105.361C132.227 110.267 123.233 110.517 119.25 114.498C115.27 118.479 115.019 127.473 110.113 130.312C105.279 133.109 97.3782 128.857 91.8541 130.335C86.5158 131.76 81.8147 139.437 76.0249 139.437C70.239 139.437 65.5372 131.761 60.1989 130.335C54.6748 128.857 46.7736 133.109 41.9367 130.312C37.0329 127.473 36.7826 118.479 32.8017 114.498C28.82 110.516 19.8248 110.266 16.9864 105.361C14.1894 100.524 18.4421 92.624 16.9657 87.1006C15.5391 81.7631 7.86523 77.062 7.86523 71.2722Z" fill="#041E4E"/>
<path d="M18.8926 71.2722C18.8926 39.7184 44.4747 14.1393 76.0248 14.1393C107.582 14.1393 133.162 39.7184 133.162 71.2722C133.162 102.828 107.583 128.407 76.0248 128.407C44.4747 128.407 18.8926 102.828 18.8926 71.2722Z" fill="#3B5FA0"/>
<path d="M23.6895 71.2723C23.6895 42.3664 47.1203 18.9348 76.0253 18.9348C104.937 18.9348 128.364 42.3664 128.364 71.2723C128.364 100.18 104.937 123.611 76.0253 123.611C47.1195 123.611 23.6895 100.18 23.6895 71.2723Z" fill="url(#paint0_linear_2151_100)"/>
<path d="M135.457 122.306C95.9561 117.788 56.0645 117.788 16.5621 122.306C15.6055 113.945 14.6488 105.582 13.6934 97.2203C55.1036 92.4841 96.9164 92.4841 138.327 97.2203C137.371 105.582 136.413 113.945 135.457 122.306Z" fill="#F1C40F"/>
<mask id="path-8-outside-1_2151_100" maskUnits="userSpaceOnUse" x="54.7441" y="29.0142" width="44" height="60" fill="black">
<rect fill="white" x="54.7441" y="29.0142" width="44" height="60"/>
<path d="M77.7723 85.7512C73.4974 85.7512 69.8366 84.7439 66.7901 82.7293C63.7927 80.6655 61.5078 77.7173 59.9355 73.8845C58.3631 70.0518 57.5769 65.4083 57.5769 59.9541C57.5769 54.0576 58.4613 49.0702 60.2303 44.9917C61.9992 40.8642 64.5544 37.7194 67.8957 35.5574C71.2371 33.3953 75.2418 32.3143 79.9098 32.3143C81.7279 32.3143 83.546 32.56 85.3641 33.0514C87.2313 33.4936 88.9757 34.157 90.5972 35.0414C92.2679 35.8768 93.742 36.9086 95.0196 38.1371L91.9239 45.2129C90.1058 43.5422 88.1649 42.3138 86.1011 41.5276C84.0373 40.6922 81.9244 40.2746 79.7624 40.2746C77.6495 40.2746 75.7577 40.6677 74.087 41.4539C72.4655 42.1909 71.0896 43.3211 69.9595 44.8443C68.8293 46.3185 67.9694 48.1857 67.3798 50.446C66.8393 52.6572 66.569 55.2369 66.569 58.1851V63.7131H65.6845C66.0776 61.2071 66.8884 59.0696 68.1168 57.3007C69.3944 55.4826 71.0159 54.1067 72.9814 53.1731C74.9469 52.1904 77.1335 51.699 79.5413 51.699C82.5387 51.699 85.1921 52.4115 87.5015 53.8365C89.811 55.2615 91.6291 57.227 92.9558 59.733C94.2825 62.239 94.9458 65.1135 94.9458 68.3566C94.9458 71.6979 94.2088 74.6953 92.7347 77.3487C91.3097 79.953 89.295 82.0168 86.6908 83.54C84.1356 85.0142 81.1628 85.7512 77.7723 85.7512ZM77.2564 78.2332C79.0253 78.2332 80.5732 77.8401 81.8999 77.0539C83.2757 76.2677 84.3322 75.1621 85.0692 73.7371C85.8063 72.263 86.1748 70.5923 86.1748 68.7251C86.1748 66.8088 85.8063 65.1381 85.0692 63.7131C84.3322 62.2881 83.2757 61.1825 81.8999 60.3963C80.5732 59.561 79.0253 59.1433 77.2564 59.1433C75.4874 59.1433 73.9396 59.561 72.6129 60.3963C71.2862 61.1825 70.2297 62.2881 69.4435 63.7131C68.7065 65.1381 68.3379 66.8088 68.3379 68.7251C68.3379 70.5923 68.7065 72.263 69.4435 73.7371C70.2297 75.1621 71.2862 76.2677 72.6129 77.0539C73.9396 77.8401 75.4874 78.2332 77.2564 78.2332Z"/>
</mask>
<path d="M77.7723 85.7512C73.4974 85.7512 69.8366 84.7439 66.7901 82.7293C63.7927 80.6655 61.5078 77.7173 59.9355 73.8845C58.3631 70.0518 57.5769 65.4083 57.5769 59.9541C57.5769 54.0576 58.4613 49.0702 60.2303 44.9917C61.9992 40.8642 64.5544 37.7194 67.8957 35.5574C71.2371 33.3953 75.2418 32.3143 79.9098 32.3143C81.7279 32.3143 83.546 32.56 85.3641 33.0514C87.2313 33.4936 88.9757 34.157 90.5972 35.0414C92.2679 35.8768 93.742 36.9086 95.0196 38.1371L91.9239 45.2129C90.1058 43.5422 88.1649 42.3138 86.1011 41.5276C84.0373 40.6922 81.9244 40.2746 79.7624 40.2746C77.6495 40.2746 75.7577 40.6677 74.087 41.4539C72.4655 42.1909 71.0896 43.3211 69.9595 44.8443C68.8293 46.3185 67.9694 48.1857 67.3798 50.446C66.8393 52.6572 66.569 55.2369 66.569 58.1851V63.7131H65.6845C66.0776 61.2071 66.8884 59.0696 68.1168 57.3007C69.3944 55.4826 71.0159 54.1067 72.9814 53.1731C74.9469 52.1904 77.1335 51.699 79.5413 51.699C82.5387 51.699 85.1921 52.4115 87.5015 53.8365C89.811 55.2615 91.6291 57.227 92.9558 59.733C94.2825 62.239 94.9458 65.1135 94.9458 68.3566C94.9458 71.6979 94.2088 74.6953 92.7347 77.3487C91.3097 79.953 89.295 82.0168 86.6908 83.54C84.1356 85.0142 81.1628 85.7512 77.7723 85.7512ZM77.2564 78.2332C79.0253 78.2332 80.5732 77.8401 81.8999 77.0539C83.2757 76.2677 84.3322 75.1621 85.0692 73.7371C85.8063 72.263 86.1748 70.5923 86.1748 68.7251C86.1748 66.8088 85.8063 65.1381 85.0692 63.7131C84.3322 62.2881 83.2757 61.1825 81.8999 60.3963C80.5732 59.561 79.0253 59.1433 77.2564 59.1433C75.4874 59.1433 73.9396 59.561 72.6129 60.3963C71.2862 61.1825 70.2297 62.2881 69.4435 63.7131C68.7065 65.1381 68.3379 66.8088 68.3379 68.7251C68.3379 70.5923 68.7065 72.263 69.4435 73.7371C70.2297 75.1621 71.2862 76.2677 72.6129 77.0539C73.9396 77.8401 75.4874 78.2332 77.2564 78.2332Z" fill="url(#paint1_linear_2151_100)"/>
<path d="M66.7901 82.7293L65.4839 84.6264L65.5017 84.6386L65.5196 84.6505L66.7901 82.7293ZM59.9355 73.8845L62.0664 73.0103V73.0103L59.9355 73.8845ZM60.2303 44.9917L62.3434 45.9083L62.3474 45.8991L60.2303 44.9917ZM67.8957 35.5574L69.147 37.4912L69.147 37.4912L67.8957 35.5574ZM85.3641 33.0514L84.7631 35.2749L84.798 35.2843L84.8332 35.2927L85.3641 33.0514ZM90.5972 35.0414L89.4942 37.0635L89.5303 37.0832L89.5671 37.1016L90.5972 35.0414ZM95.0196 38.1371L97.1298 39.0603L97.7732 37.5895L96.616 36.4768L95.0196 38.1371ZM91.9239 45.2129L90.3654 46.9089L92.741 49.0918L94.0341 46.1361L91.9239 45.2129ZM86.1011 41.5276L85.2369 43.6626L85.2589 43.6715L85.2811 43.68L86.1011 41.5276ZM74.087 41.4539L75.0401 43.5507L75.054 43.5444L75.0678 43.5379L74.087 41.4539ZM69.9595 44.8443L71.7874 46.2457L71.7985 46.2313L71.8093 46.2168L69.9595 44.8443ZM67.3798 50.446L65.151 49.8646L65.1466 49.8818L65.1423 49.8991L67.3798 50.446ZM66.569 63.7131V66.0164H68.8723V63.7131H66.569ZM65.6845 63.7131L63.409 63.3562L62.9917 66.0164H65.6845V63.7131ZM68.1168 57.3007L66.2322 55.9764L66.225 55.9869L68.1168 57.3007ZM72.9814 53.1731L73.9697 55.2537L73.9907 55.2437L74.0115 55.2333L72.9814 53.1731ZM87.5015 53.8365L88.711 51.8763L87.5015 53.8365ZM92.7347 77.3487L90.7212 76.2301L90.7176 76.2366L90.7141 76.2431L92.7347 77.3487ZM86.6908 83.54L87.8418 85.5352L87.8537 85.5282L86.6908 83.54ZM81.8999 77.0539L80.7571 75.0541L80.7413 75.0631L80.7256 75.0724L81.8999 77.0539ZM85.0692 73.7371L87.1151 74.7953L87.1223 74.7813L87.1294 74.7672L85.0692 73.7371ZM85.0692 63.7131L83.0234 64.7713L83.0234 64.7713L85.0692 63.7131ZM81.8999 60.3963L80.6726 62.3455L80.7143 62.3717L80.7571 62.3962L81.8999 60.3963ZM72.6129 60.3963L73.7871 62.3778L73.8139 62.362L73.8401 62.3455L72.6129 60.3963ZM69.4435 63.7131L67.4268 62.6004L67.4119 62.6275L67.3977 62.6549L69.4435 63.7131ZM69.4435 73.7371L67.3834 74.7672L67.4043 74.8089L67.4268 74.8498L69.4435 73.7371ZM72.6129 77.0539L71.4387 79.0354L72.6129 77.0539ZM77.7723 85.7512V83.4479C73.8705 83.4479 70.6696 82.5333 68.0606 80.808L66.7901 82.7293L65.5196 84.6505C69.0037 86.9545 73.1243 88.0545 77.7723 88.0545V85.7512ZM66.7901 82.7293L68.0963 80.8321C65.5165 79.0559 63.4932 76.4881 62.0664 73.0103L59.9355 73.8845L57.8045 74.7588C59.5225 78.9464 62.069 82.2751 65.4839 84.6264L66.7901 82.7293ZM59.9355 73.8845L62.0664 73.0103C60.6376 69.5277 59.8802 65.1986 59.8802 59.9541H57.5769H55.2735C55.2735 65.6181 56.0885 70.576 57.8045 74.7588L59.9355 73.8845ZM57.5769 59.9541H59.8802C59.8802 54.2752 60.7337 49.6195 62.3434 45.9083L60.2303 44.9917L58.1172 44.0752C56.189 48.5208 55.2735 53.84 55.2735 59.9541H57.5769ZM60.2303 44.9917L62.3474 45.8991C63.96 42.1362 66.2378 39.3736 69.147 37.4912L67.8957 35.5574L66.6444 33.6236C62.8709 36.0653 60.0384 39.5922 58.1132 44.0844L60.2303 44.9917ZM67.8957 35.5574L69.147 37.4912C72.0549 35.6096 75.6075 34.6176 79.9098 34.6176V32.3143V30.011C74.876 30.011 70.4192 31.1811 66.6444 33.6236L67.8957 35.5574ZM79.9098 32.3143V34.6176C81.5177 34.6176 83.1339 34.8346 84.7631 35.2749L85.3641 33.0514L85.965 30.8278C83.9581 30.2854 81.938 30.011 79.9098 30.011V32.3143ZM85.3641 33.0514L84.8332 35.2927C86.5086 35.6895 88.0597 36.281 89.4942 37.0635L90.5972 35.0414L91.7001 33.0194C89.8916 32.0329 87.9539 31.2977 85.8949 30.8101L85.3641 33.0514ZM90.5972 35.0414L89.5671 37.1016C91.0411 37.8386 92.3219 38.7385 93.4231 39.7974L95.0196 38.1371L96.616 36.4768C95.1621 35.0788 93.4946 33.9149 91.6273 32.9813L90.5972 35.0414ZM95.0196 38.1371L92.9094 37.2139L89.8137 44.2897L91.9239 45.2129L94.0341 46.1361L97.1298 39.0603L95.0196 38.1371ZM91.9239 45.2129L93.4824 43.5169C91.4746 41.6719 89.2881 40.2769 86.9211 39.3751L86.1011 41.5276L85.2811 43.68C87.0417 44.3507 88.737 45.4125 90.3654 46.9089L91.9239 45.2129ZM86.1011 41.5276L86.9653 39.3925C84.6353 38.4494 82.2295 37.9712 79.7624 37.9712V40.2746V42.5779C81.6194 42.5779 83.4394 42.935 85.2369 43.6626L86.1011 41.5276ZM79.7624 40.2746V37.9712C77.3594 37.9712 75.1251 38.4197 73.1063 39.3698L74.087 41.4539L75.0678 43.5379C76.3903 42.9156 77.9396 42.5779 79.7624 42.5779V40.2746ZM74.087 41.4539L73.1339 39.357C71.1338 40.2661 69.4569 41.6561 68.1097 43.4719L69.9595 44.8443L71.8093 46.2168C72.7224 44.9861 73.7971 44.1157 75.0401 43.5507L74.087 41.4539ZM69.9595 44.8443L68.1316 43.4429C66.773 45.215 65.799 47.3808 65.151 49.8646L67.3798 50.446L69.6085 51.0274C70.1399 48.9905 70.8857 47.4219 71.7874 46.2457L69.9595 44.8443ZM67.3798 50.446L65.1423 49.8991C64.5474 52.3328 64.2657 55.1036 64.2657 58.1851H66.569H68.8723C68.8723 55.3702 69.1311 52.9815 69.6172 50.9929L67.3798 50.446ZM66.569 58.1851H64.2657V63.7131H66.569H68.8723V58.1851H66.569ZM66.569 63.7131V61.4098H65.6845V63.7131V66.0164H66.569V63.7131ZM65.6845 63.7131L67.96 64.07C68.3087 61.8471 69.0111 60.051 70.0087 58.6145L68.1168 57.3007L66.225 55.9869C64.7657 58.0882 63.8465 60.567 63.409 63.3562L65.6845 63.7131ZM68.1168 57.3007L70.0014 58.6249C71.0555 57.1248 72.3711 56.013 73.9697 55.2537L72.9814 53.1731L71.9932 51.0926C69.6608 52.2005 67.7333 53.8403 66.2323 55.9764L68.1168 57.3007ZM72.9814 53.1731L74.0115 55.2333C75.6275 54.4253 77.4563 54.0023 79.5413 54.0023V51.699V49.3957C76.8107 49.3957 74.2664 49.9555 71.9514 51.113L72.9814 53.1731ZM79.5413 51.699V54.0023C82.1576 54.0023 84.3835 54.619 86.292 55.7967L87.5015 53.8365L88.711 51.8763C86.0007 50.2039 82.9197 49.3957 79.5413 49.3957V51.699ZM87.5015 53.8365L86.292 55.7967C88.2365 56.9964 89.7763 58.6502 90.9201 60.8107L92.9558 59.733L94.9914 58.6553C93.4818 55.8038 91.3855 53.5265 88.711 51.8763L87.5015 53.8365ZM92.9558 59.733L90.9201 60.8107C92.0472 62.9396 92.6425 65.4347 92.6425 68.3566H94.9458H97.2492C97.2492 64.7923 96.5177 61.5383 94.9914 58.6553L92.9558 59.733ZM94.9458 68.3566H92.6425C92.6425 71.3469 91.9865 73.9525 90.7212 76.2301L92.7347 77.3487L94.7481 78.4673C96.431 75.4381 97.2492 72.049 97.2492 68.3566H94.9458ZM92.7347 77.3487L90.7141 76.2431C89.493 78.4746 87.7777 80.2359 85.5279 81.5518L86.6908 83.54L87.8537 85.5282C90.8124 83.7976 93.1263 81.4314 94.7553 78.4543L92.7347 77.3487ZM86.6908 83.54L85.5397 81.5449C83.3841 82.7886 80.8199 83.4479 77.7723 83.4479V85.7512V88.0545C81.5057 88.0545 84.8872 87.2397 87.8418 85.5351L86.6908 83.54ZM77.2564 78.2332V80.5365C79.3767 80.5365 81.3423 80.0617 83.0741 79.0354L81.8999 77.0539L80.7256 75.0724C79.804 75.6185 78.6739 75.9299 77.2564 75.9299V78.2332ZM81.8999 77.0539L83.0426 79.0537C84.809 78.0444 86.1767 76.6095 87.1151 74.7953L85.0692 73.7371L83.0234 72.6789C82.4876 73.7148 81.7424 74.491 80.7571 75.0541L81.8999 77.0539ZM85.0692 73.7371L87.1294 74.7672C88.0465 72.933 88.4781 70.902 88.4781 68.7251H86.1748H83.8715C83.8715 70.2826 83.5661 71.593 83.0091 72.7071L85.0692 73.7371ZM86.1748 68.7251H88.4781C88.4781 66.5117 88.0512 64.4648 87.1151 62.6549L85.0692 63.7131L83.0234 64.7713C83.5613 65.8114 83.8715 67.1058 83.8715 68.7251H86.1748ZM85.0692 63.7131L87.1151 62.6549C86.1767 60.8408 84.809 59.4059 83.0426 58.3965L81.8999 60.3963L80.7571 62.3962C81.7424 62.9592 82.4876 63.7355 83.0234 64.7713L85.0692 63.7131ZM81.8999 60.3963L83.1271 58.4472C81.3873 57.3517 79.4023 56.84 77.2564 56.84V59.1433V61.4466C78.6483 61.4466 79.7591 61.7703 80.6726 62.3455L81.8999 60.3963ZM77.2564 59.1433V56.84C75.1104 56.84 73.1255 57.3517 71.3857 58.4472L72.6129 60.3963L73.8401 62.3455C74.7537 61.7703 75.8644 61.4466 77.2564 61.4466V59.1433ZM72.6129 60.3963L71.4387 58.4148C69.7389 59.4221 68.4 60.8366 67.4268 62.6004L69.4435 63.7131L71.4603 64.8258C72.0595 63.7396 72.8335 62.943 73.7871 62.3778L72.6129 60.3963ZM69.4435 63.7131L67.3977 62.6549C66.4615 64.4648 66.0346 66.5117 66.0346 68.7251H68.3379H70.6413C70.6413 67.1058 70.9514 65.8114 71.4894 64.7713L69.4435 63.7131ZM68.3379 68.7251H66.0346C66.0346 70.902 66.4663 72.933 67.3834 74.7672L69.4435 73.7371L71.5037 72.7071C70.9467 71.593 70.6413 70.2826 70.6413 68.7251H68.3379ZM69.4435 73.7371L67.4268 74.8498C68.4 76.6136 69.7389 78.0282 71.4387 79.0354L72.6129 77.0539L73.7871 75.0724C72.8335 74.5073 72.0595 73.7106 71.4603 72.6244L69.4435 73.7371ZM72.6129 77.0539L71.4387 79.0354C73.1705 80.0617 75.1361 80.5365 77.2564 80.5365V78.2332V75.9299C75.8388 75.9299 74.7087 75.6185 73.7871 75.0724L72.6129 77.0539Z" fill="#000F3C" mask="url(#path-8-outside-1_2151_100)"/>
<path d="M44.3122 112.735V98.4457H46.481L51.8726 108.398H51.224L56.5953 98.4457H58.7236V112.735H56.3724V102.297H56.8183L52.278 110.567H50.7578L46.177 102.277H46.6634V112.735H44.3122ZM61.8686 112.735V98.4457H71.3749V100.513H64.3617V104.445H70.929V106.513H64.3617V110.668H71.3749V112.735H61.8686ZM78.6903 112.938C77.9471 112.938 77.2309 112.871 76.5418 112.735C75.8661 112.614 75.2378 112.431 74.6567 112.188C74.0892 111.945 73.5825 111.654 73.1366 111.317L73.9271 109.269C74.373 109.58 74.8392 109.85 75.3256 110.08C75.8256 110.296 76.3526 110.465 76.9066 110.587C77.4742 110.695 78.0687 110.749 78.6903 110.749C79.7578 110.749 80.5348 110.573 81.0213 110.222C81.5077 109.857 81.751 109.391 81.751 108.824C81.751 108.513 81.6766 108.249 81.528 108.033C81.3794 107.803 81.1361 107.607 80.7983 107.445C80.4605 107.283 80.0146 107.148 79.4605 107.04L77.2309 106.574C75.9472 106.303 74.9878 105.851 74.3527 105.216C73.7311 104.567 73.4203 103.716 73.4203 102.662C73.4203 101.77 73.6568 100.993 74.1297 100.331C74.6027 99.6686 75.2581 99.1551 76.0959 98.7903C76.9336 98.4254 77.8998 98.243 78.9943 98.243C79.643 98.243 80.2645 98.3106 80.8591 98.4457C81.4672 98.5673 82.0212 98.7565 82.5212 99.0132C83.0347 99.2565 83.4806 99.5538 83.8589 99.9051L83.0684 101.851C82.5009 101.378 81.8793 101.027 81.2037 100.797C80.528 100.554 79.7848 100.432 78.9741 100.432C78.3525 100.432 77.8187 100.52 77.3728 100.696C76.9269 100.871 76.5823 101.121 76.3391 101.446C76.1094 101.756 75.9945 102.128 75.9945 102.56C75.9945 103.047 76.1567 103.439 76.481 103.736C76.8053 104.02 77.3593 104.243 78.143 104.405L80.3524 104.871C81.6901 105.155 82.6833 105.601 83.3319 106.209C83.9941 106.817 84.3251 107.628 84.3251 108.641C84.3251 109.492 84.0954 110.242 83.636 110.891C83.1766 111.54 82.5212 112.046 81.6699 112.411C80.8321 112.762 79.8389 112.938 78.6903 112.938ZM86.5519 112.735V98.4457H96.0581V100.513H89.045V104.445H95.6122V106.513H89.045V110.668H96.0581V112.735H86.5519ZM103.374 112.938C102.63 112.938 101.914 112.871 101.225 112.735C100.549 112.614 99.9211 112.431 99.34 112.188C98.7725 111.945 98.2657 111.654 97.8198 111.317L98.6103 109.269C99.0562 109.58 99.5224 109.85 100.009 110.08C100.509 110.296 101.036 110.465 101.59 110.587C102.157 110.695 102.752 110.749 103.374 110.749C104.441 110.749 105.218 110.573 105.705 110.222C106.191 109.857 106.434 109.391 106.434 108.824C106.434 108.513 106.36 108.249 106.211 108.033C106.063 107.803 105.819 107.607 105.482 107.445C105.144 107.283 104.698 107.148 104.144 107.04L101.914 106.574C100.63 106.303 99.6711 105.851 99.036 105.216C98.4144 104.567 98.1036 103.716 98.1036 102.662C98.1036 101.77 98.3401 100.993 98.813 100.331C99.286 99.6686 99.9413 99.1551 100.779 98.7903C101.617 98.4254 102.583 98.243 103.678 98.243C104.326 98.243 104.948 98.3106 105.542 98.4457C106.15 98.5673 106.704 98.7565 107.204 99.0132C107.718 99.2565 108.164 99.5538 108.542 99.9051L107.752 101.851C107.184 101.378 106.563 101.027 105.887 100.797C105.211 100.554 104.468 100.432 103.657 100.432C103.036 100.432 102.502 100.52 102.056 100.696C101.61 100.871 101.266 101.121 101.022 101.446C100.793 101.756 100.678 102.128 100.678 102.56C100.678 103.047 100.84 103.439 101.164 103.736C101.489 104.02 102.043 104.243 102.826 104.405L105.036 104.871C106.373 105.155 107.367 105.601 108.015 106.209C108.677 106.817 109.008 107.628 109.008 108.641C109.008 109.492 108.779 110.242 108.319 110.891C107.86 111.54 107.204 112.046 106.353 112.411C105.515 112.762 104.522 112.938 103.374 112.938Z" fill="#041E4E"/>
<defs>
<linearGradient id="paint0_linear_2151_100" x1="76.0269" y1="18.9348" x2="76.0269" y2="123.611" gradientUnits="userSpaceOnUse">
<stop stop-color="#002161"/>
<stop offset="1" stop-color="#0F1934"/>
</linearGradient>
<linearGradient id="paint1_linear_2151_100" x1="63.1847" y1="85.0142" x2="98.7441" y2="85.0142" gradientUnits="userSpaceOnUse">
<stop stop-color="#F6D365"/>
<stop offset="1" stop-color="#FFBF23"/>
</linearGradient>
</defs>
</svg>
