<svg width="123" height="166" viewBox="0 0 123 166" fill="none" xmlns="http://www.w3.org/2000/svg">
<path d="M84.1573 165.31L61.0714 152.423L37.9863 165.31V65.578H84.1573V165.31Z" fill="url(#paint0_linear_2151_61)"/>
<path d="M37.9863 0L61.0714 12.89L84.1573 0V99.732H37.9863V0Z" fill="url(#paint1_linear_2151_61)"/>
<path d="M0 82.655C0 48.926 27.342 21.584 61.072 21.584C94.804 21.584 122.144 48.926 122.144 82.655C122.144 116.387 94.804 143.728 61.072 143.728C27.342 143.728 0 116.387 0 82.655Z" fill="#002B68"/>
<path d="M5.85547 82.6549C5.85547 52.1609 30.5755 27.4399 61.0715 27.4399C91.5705 27.4399 116.29 52.1609 116.29 82.6549C116.29 113.154 91.5705 137.874 61.0715 137.874C30.5755 137.873 5.85547 113.154 5.85547 82.6549Z" fill="#3B5FA0"/>
<path d="M8.49219 82.655C8.49219 53.617 32.0322 30.076 61.0722 30.076C90.1152 30.076 113.654 53.617 113.654 82.655C113.654 111.698 90.1152 135.237 61.0722 135.237C32.0322 135.237 8.49219 111.698 8.49219 82.655Z" fill="#002B68"/>
<path d="M13.7031 82.655C13.7031 56.495 34.9111 35.288 61.0721 35.288C87.2351 35.288 108.444 56.495 108.444 82.655C108.444 108.818 87.2351 130.027 61.0721 130.027C34.9111 130.027 13.7031 108.818 13.7031 82.655Z" fill="#F1C40F"/>
<path d="M13.7031 82.655C13.7031 56.495 34.9111 35.288 61.0721 35.288C87.2351 35.288 108.444 56.495 108.444 82.655C108.444 108.818 87.2351 130.027 61.0721 130.027C34.9111 130.027 13.7031 108.818 13.7031 82.655Z" fill="url(#paint2_linear_2151_61)"/>
<mask id="path-7-outside-1_2151_61" maskUnits="userSpaceOnUse" x="43" y="47" width="37" height="51" fill="black">
<rect fill="white" x="43" y="47" width="37" height="51"/>
<path d="M47.504 95L69.328 53.912V56.728H45.52V49.88H76.944V56.024L56.528 95H47.504Z"/>
</mask>
<path d="M47.504 95L69.328 53.912V56.728H45.52V49.88H76.944V56.024L56.528 95H47.504Z" fill="url(#paint3_linear_2151_61)"/>
<path d="M47.504 95L45.4698 93.9195L43.6725 97.3033H47.504V95ZM69.328 53.912H71.6313L67.2938 52.8315L69.328 53.912ZM69.328 56.728V59.0313H71.6313V56.728H69.328ZM45.52 56.728H43.2167V59.0313H45.52V56.728ZM45.52 49.88V47.5767H43.2167V49.88H45.52ZM76.944 49.88H79.2473V47.5767H76.944V49.88ZM76.944 56.024L78.9843 57.0928L79.2473 56.5907V56.024H76.944ZM56.528 95V97.3033H57.9217L58.5683 96.0688L56.528 95ZM47.504 95L49.5382 96.0805L71.3622 54.9925L69.328 53.912L67.2938 52.8315L45.4698 93.9195L47.504 95ZM69.328 53.912H67.0247V56.728H69.328H71.6313V53.912H69.328ZM69.328 56.728V54.4247H45.52V56.728V59.0313H69.328V56.728ZM45.52 56.728H47.8233V49.88H45.52H43.2167V56.728H45.52ZM45.52 49.88V52.1833H76.944V49.88V47.5767H45.52V49.88ZM76.944 49.88H74.6407V56.024H76.944H79.2473V49.88H76.944ZM76.944 56.024L74.9037 54.9552L54.4877 93.9312L56.528 95L58.5683 96.0688L78.9843 57.0928L76.944 56.024ZM56.528 95V92.6967H47.504V95V97.3033H56.528V95Z" fill="#000F3C" mask="url(#path-7-outside-1_2151_61)"/>
<path d="M40.386 116V103.31H45.102C46.518 103.31 47.718 103.556 48.702 104.048C49.698 104.54 50.454 105.26 50.97 106.208C51.498 107.144 51.762 108.29 51.762 109.646C51.762 111.002 51.498 112.154 50.97 113.102C50.454 114.05 49.698 114.77 48.702 115.262C47.718 115.754 46.518 116 45.102 116H40.386ZM42.69 114.092H44.958C46.434 114.092 47.532 113.726 48.252 112.994C48.984 112.25 49.35 111.134 49.35 109.646C49.35 108.158 48.984 107.048 48.252 106.316C47.52 105.584 46.422 105.218 44.958 105.218H42.69V114.092ZM54.0969 116V103.31H56.4009V116H54.0969ZM57.7914 116L63.5334 103.31H65.4234L71.1654 116H68.8254L67.2954 112.436L68.2674 113.066H60.6714L61.6434 112.436L60.1314 116H57.7914ZM64.4514 105.812L61.9314 111.806L61.4634 111.23H67.4754L67.0254 111.806L64.4874 105.812H64.4514ZM76.7873 116.18C76.1273 116.18 75.4913 116.12 74.8793 116C74.2793 115.892 73.7213 115.73 73.2053 115.514C72.7013 115.298 72.2513 115.04 71.8553 114.74L72.5573 112.922C72.9533 113.198 73.3673 113.438 73.7993 113.642C74.2433 113.834 74.7113 113.984 75.2033 114.092C75.7073 114.188 76.2353 114.236 76.7873 114.236C77.7353 114.236 78.4253 114.08 78.8573 113.768C79.2893 113.444 79.5053 113.03 79.5053 112.526C79.5053 112.25 79.4393 112.016 79.3073 111.824C79.1753 111.62 78.9593 111.446 78.6593 111.302C78.3593 111.158 77.9633 111.038 77.4713 110.942L75.4913 110.528C74.3513 110.288 73.4993 109.886 72.9353 109.322C72.3833 108.746 72.1073 107.99 72.1073 107.054C72.1073 106.262 72.3173 105.572 72.7373 104.984C73.1573 104.396 73.7393 103.94 74.4833 103.616C75.2273 103.292 76.0853 103.13 77.0573 103.13C77.6333 103.13 78.1853 103.19 78.7133 103.31C79.2533 103.418 79.7453 103.586 80.1893 103.814C80.6453 104.03 81.0413 104.294 81.3773 104.606L80.6753 106.334C80.1713 105.914 79.6193 105.602 79.0193 105.398C78.4193 105.182 77.7593 105.074 77.0393 105.074C76.4873 105.074 76.0133 105.152 75.6173 105.308C75.2213 105.464 74.9153 105.686 74.6993 105.974C74.4953 106.25 74.3933 106.58 74.3933 106.964C74.3933 107.396 74.5373 107.744 74.8253 108.008C75.1133 108.26 75.6053 108.458 76.3013 108.602L78.2633 109.016C79.4513 109.268 80.3333 109.664 80.9093 110.204C81.4973 110.744 81.7913 111.464 81.7913 112.364C81.7913 113.12 81.5873 113.786 81.1793 114.362C80.7713 114.938 80.1893 115.388 79.4333 115.712C78.6893 116.024 77.8073 116.18 76.7873 116.18Z" fill="url(#paint4_linear_2151_61)"/>
<defs>
<linearGradient id="paint0_linear_2151_61" x1="47.6726" y1="165.31" x2="84.1573" y2="165.31" gradientUnits="userSpaceOnUse">
<stop stop-color="#F6D365"/>
<stop offset="1" stop-color="#FFBF23"/>
</linearGradient>
<linearGradient id="paint1_linear_2151_61" x1="47.6726" y1="99.732" x2="84.1573" y2="99.732" gradientUnits="userSpaceOnUse">
<stop stop-color="#F6D365"/>
<stop offset="1" stop-color="#FFBF23"/>
</linearGradient>
<linearGradient id="paint2_linear_2151_61" x1="61.0736" y1="35.288" x2="61.0736" y2="130.027" gradientUnits="userSpaceOnUse">
<stop stop-color="#002161"/>
<stop offset="1" stop-color="#0F1934"/>
</linearGradient>
<linearGradient id="paint3_linear_2151_61" x1="50.1818" y1="95" x2="81" y2="95" gradientUnits="userSpaceOnUse">
<stop stop-color="#F6D365"/>
<stop offset="1" stop-color="#FFBF23"/>
</linearGradient>
<linearGradient id="paint4_linear_2151_61" x1="48.2308" y1="116" x2="83" y2="116" gradientUnits="userSpaceOnUse">
<stop stop-color="#F6D365"/>
<stop offset="1" stop-color="#FFBF23"/>
</linearGradient>
</defs>
</svg>
