<svg width="50" height="50" viewBox="0 0 50 50" fill="none" xmlns="http://www.w3.org/2000/svg">
<g clip-path="url(#clip0_926_6)">
<path d="M46.8745 44.6654L39.5488 37.3398C41.5068 34.8197 42.4306 31.6481 42.1321 28.4708C41.8337 25.2934 40.3354 22.3493 37.9424 20.2379C35.5494 18.1265 32.4416 17.0065 29.2518 17.1062C26.0621 17.2058 23.0302 18.5174 20.7736 20.774C18.517 23.0306 17.2053 26.0625 17.1057 29.2523C17.0061 32.442 18.126 35.5498 20.2375 37.9429C22.3489 40.3359 25.293 41.8341 28.4703 42.1326C31.6477 42.431 34.8193 41.5072 37.3394 39.5492L44.665 46.875L46.8745 44.6654ZM29.687 39.0625C27.8328 39.0625 26.0203 38.5126 24.4786 37.4825C22.9369 36.4524 21.7352 34.9882 21.0257 33.2751C20.3161 31.5621 20.1304 29.6771 20.4922 27.8585C20.8539 26.0399 21.7468 24.3695 23.0579 23.0583C24.369 21.7472 26.0395 20.8543 27.8581 20.4926C29.6766 20.1309 31.5616 20.3165 33.2747 21.0261C34.9878 21.7357 36.4519 22.9373 37.4821 24.479C38.5122 26.0207 39.062 27.8333 39.062 29.6875C39.0593 32.173 38.0707 34.556 36.3132 36.3136C34.5556 38.0711 32.1726 39.0597 29.687 39.0625Z" fill="#E7ECF6"/>
<path d="M15.625 18.75H3.125V21.875H15.625V18.75Z" fill="#E7ECF6"/>
<path d="M28.125 3.125H3.125V6.25H28.125V3.125Z" fill="#E7ECF6"/>
<path d="M28.125 10.9375H3.125V14.0625H28.125V10.9375Z" fill="#E7ECF6"/>
</g>
<defs>
<clipPath id="clip0_926_6">
<rect width="50" height="50" fill="white"/>
</clipPath>
</defs>
</svg>
