<svg width="32" height="32" viewBox="0 0 32 32" fill="none" xmlns="http://www.w3.org/2000/svg">
<g clip-path="url(#clip0_926_6)">
<path d="M30.0003 28.5859L25.3118 23.8975C26.5649 22.2846 27.1562 20.2548 26.9652 18.2213C26.7742 16.1878 25.8153 14.3036 24.2837 12.9523C22.7522 11.6009 20.7632 10.8842 18.7218 10.9479C16.6803 11.0117 14.7399 11.8512 13.2957 13.2954C11.8515 14.7396 11.012 16.68 10.9483 18.7215C10.8845 20.7629 11.6013 22.7519 12.9526 24.2834C14.3039 25.815 16.1881 26.7739 18.2216 26.9649C20.2551 27.1559 22.2849 26.5646 23.8978 25.3115L28.5862 30L30.0003 28.5859ZM19.0003 25C17.8136 25 16.6536 24.6481 15.6669 23.9888C14.6802 23.3295 13.9111 22.3924 13.457 21.2961C13.0029 20.1997 12.8841 18.9933 13.1156 17.8294C13.3471 16.6656 13.9185 15.5965 14.7577 14.7573C15.5968 13.9182 16.6659 13.3468 17.8298 13.1153C18.9936 12.8838 20.2 13.0026 21.2964 13.4567C22.3928 13.9108 23.3298 14.6799 23.9891 15.6666C24.6484 16.6533 25.0003 17.8133 25.0003 19C24.9985 20.5908 24.3658 22.1159 23.241 23.2407C22.1162 24.3655 20.5911 24.9982 19.0003 25Z" fill="#E7ECF6"/>
<path d="M10 12H2V14H10V12Z" fill="#E7ECF6"/>
<path d="M18 2H2V4H18V2Z" fill="#E7ECF6"/>
<path d="M18 7H2V9H18V7Z" fill="#E7ECF6"/>
</g>
<defs>
<clipPath id="clip0_926_6">
<rect width="32" height="32" fill="white"/>
</clipPath>
</defs>
</svg>
