<svg width="50" height="50" viewBox="0 0 50 50" fill="none" xmlns="http://www.w3.org/2000/svg">
<g clip-path="url(#clip0_926_2)">
<path d="M17.1875 28.125L19.3906 30.3281L23.4375 26.2969V45.3125H26.5625V26.2969L30.6094 30.3281L32.8125 28.125L25 20.3125L17.1875 28.125Z" fill="#E7ECF6"/>
<path d="M36.7189 34.375H35.9376V31.25H36.7189C38.5837 31.3246 40.4018 30.6553 41.7731 29.3895C43.1445 28.1236 43.9568 26.3648 44.0314 24.5C44.106 22.6352 43.4367 20.8171 42.1709 19.4458C40.905 18.0744 39.1462 17.2621 37.2814 17.1875H35.9376L35.7814 15.9063C35.4347 13.2757 34.1437 10.8608 32.1487 9.11154C30.1538 7.36222 27.5909 6.39773 24.9376 6.39773C22.2844 6.39773 19.7215 7.36222 17.7266 9.11154C15.7316 10.8608 14.4405 13.2757 14.0939 15.9063L14.0626 17.1875H12.7189C10.8541 17.2621 9.0953 18.0744 7.82943 19.4458C6.56356 20.8171 5.8943 22.6352 5.9689 24.5C6.04349 26.3648 6.85581 28.1236 8.22717 29.3895C9.59853 30.6553 11.4166 31.3246 13.2814 31.25H14.0626V34.375H13.2814C10.7758 34.3591 8.36447 33.4176 6.51106 31.7314C4.65765 30.0452 3.49298 27.7334 3.24097 25.2404C2.98896 22.7475 3.6674 20.2493 5.14585 18.2263C6.6243 16.2033 8.7984 14.7983 11.2501 14.2813C11.9247 11.1352 13.6577 8.31558 16.16 6.29292C18.6623 4.27026 21.7826 3.16687 25.0001 3.16687C28.2177 3.16687 31.338 4.27026 33.8403 6.29292C36.3426 8.31558 38.0756 11.1352 38.7501 14.2813C41.2019 14.7983 43.376 16.2033 44.8544 18.2263C46.3329 20.2493 47.0113 22.7475 46.7593 25.2404C46.5073 27.7334 45.3426 30.0452 43.4892 31.7314C41.6358 33.4176 39.2245 34.3591 36.7189 34.375Z" fill="#E7ECF6"/>
</g>
<defs>
<clipPath id="clip0_926_2">
<rect width="50" height="50" fill="white"/>
</clipPath>
</defs>
</svg>
