<svg width="25" height="26" viewBox="0 0 25 26" fill="none" xmlns="http://www.w3.org/2000/svg">
<path d="M15.3846 4.07153H3.84619V5.85725H15.3846V4.07153Z" fill="#041E4E"/>
<path d="M15.3846 7.64282H3.84619V9.42853H15.3846V7.64282Z" fill="#041E4E"/>
<path d="M9.61541 11.2144H3.84619V13.0001H9.61541V11.2144Z" fill="#041E4E"/>
<path d="M7.69234 20.1428H3.84619V21.9285H7.69234V20.1428Z" fill="#041E4E"/>
<path d="M24.7184 15.9402L21.8338 13.2616C21.7445 13.1787 21.6385 13.1129 21.5219 13.068C21.4052 13.0231 21.2802 13 21.1539 13C21.0277 13 20.9026 13.0231 20.786 13.068C20.6694 13.1129 20.5634 13.1787 20.4741 13.2616L11.5386 21.5589V25.5H15.7829L24.7184 17.2027C24.8077 17.1198 24.8785 17.0214 24.9269 16.9131C24.9752 16.8048 25.0001 16.6887 25.0001 16.5715C25.0001 16.4542 24.9752 16.3381 24.9269 16.2298C24.8785 16.1215 24.8077 16.0231 24.7184 15.9402ZM14.9865 23.7143H13.4616V22.2983L18.2693 17.834L19.7942 19.25L14.9865 23.7143ZM21.1539 17.9874L19.629 16.5715L21.1539 15.1555L22.6788 16.5715L21.1539 17.9874Z" fill="#041E4E"/>
<path d="M7.6923 25.5H1.92307C1.41321 25.4995 0.924376 25.3112 0.563846 24.9764C0.203315 24.6416 0.000534519 24.1877 0 23.7143V2.28571C0.000534519 1.81226 0.203315 1.35835 0.563846 1.02357C0.924376 0.688793 1.41321 0.500496 1.92307 0.5H17.3077C17.8175 0.500496 18.3064 0.688793 18.6669 1.02357C19.0274 1.35835 19.2302 1.81226 19.2307 2.28571V11.2143H17.3077V2.28571H1.92307V23.7143H7.6923V25.5Z" fill="#041E4E"/>
</svg>
