<svg width="55" height="50" viewBox="0 0 55 50" fill="none" xmlns="http://www.w3.org/2000/svg">
<path d="M45.3447 0.796911C42.8025 1.32262 41.5192 1.64941 41.3114 1.81991C40.1747 2.77186 40.187 4.57631 41.3359 5.38618C41.837 5.74139 42.4481 5.74139 44.0614 5.40039C44.7336 5.25831 45.3081 5.15885 45.3325 5.18726C45.357 5.21568 34.467 23.2744 34.1736 23.6722C34.1492 23.7006 31.5947 22.6634 28.4903 21.3705L22.8314 19.0119L21.9636 19.7791C20.9003 20.6885 20.277 21.1573 19.5559 21.5836L19.0059 21.9104L19.4092 22.1093C20.9736 22.8623 34.5892 28.4036 34.8581 28.4036C35.787 28.4036 35.7625 28.432 42.2281 17.7758C45.5892 12.2204 48.3759 7.67371 48.4125 7.67371C48.4492 7.6595 48.5959 8.46937 48.7547 9.46395C49.0359 11.3963 49.1825 11.7799 49.867 12.3056C50.967 13.1865 52.5559 12.1635 52.5559 10.5722C52.5559 9.59183 51.3459 1.8057 51.0892 1.16633C50.8203 0.470121 50.1236 -0.0271683 49.4759 0.00124741C49.2559 0.0154552 47.3981 0.370663 45.3447 0.796911Z" fill="#E7ECF6"/>
<path d="M22.8314 19.0119L21.9636 19.7791C20.9003 20.6885 20.277 21.1573 19.5559 21.5836L19.0059 21.9104L17 20.5L20 18L22.8314 19.0119Z" fill="#E7ECF6"/>
<path d="M44.9533 20.1769C44.6722 20.3474 44.3911 20.6741 44.2444 21.0151C44 21.5551 44 21.825 44 34.9392C44 48.0535 44 48.3234 44.2444 48.8633C44.4033 49.2328 44.66 49.5311 44.9778 49.7158C45.43 49.9858 45.6867 50 49.5 50C53.3133 50 53.57 49.9858 54.0222 49.7158C54.34 49.5311 54.5967 49.2328 54.7556 48.8633C55 48.3234 55 48.0535 55 34.9392C55 21.825 55 21.5551 54.7556 21.0151C54.5967 20.6457 54.34 20.3474 54.0222 20.1626C53.57 19.8927 53.3133 19.8785 49.4756 19.8785C45.6622 19.8927 45.3811 19.9069 44.9533 20.1769Z" fill="#E7ECF6"/>
<path d="M15.7425 23.3597C15.5348 23.6013 13.0292 24.0133 11.3303 24.0985L9.39921 24.1838L6.8081 26.585C4.13144 29.0572 3.66699 29.6256 3.66699 30.5065C3.66699 32.0268 5.12144 33.1208 6.2581 32.4388C6.56366 32.2541 15.4125 24.127 16.0114 23.4876C16.1581 23.3171 16.1581 23.2887 15.9992 23.2887C15.8892 23.2887 15.7792 23.3171 15.7425 23.3597Z" fill="#E7ECF6"/>
<path d="M15.7425 23.3597C15.5348 23.6013 13.0292 24.0133 11.3303 24.0985L9.39921 24.1838L16.0905 17.4224C16.677 16.8297 17.5697 16.6631 18.3305 17.0043L22.8865 19.0478C21.044 19.794 20.2437 20.4576 19.0365 21.9249C18.483 21.6676 17.8285 21.7735 17.3844 22.1924L16.0114 23.4876C16.1581 23.3171 16.1581 23.2887 15.9992 23.2887C15.8892 23.2887 15.7792 23.3171 15.7425 23.3597Z" fill="#E7ECF6"/>
<path d="M15.6203 30.1226C15.3392 30.2931 15.0581 30.6199 14.9114 30.9609C14.6792 31.5008 14.667 31.785 14.667 39.9121C14.667 48.0393 14.6792 48.3234 14.9114 48.8633C15.0703 49.2328 15.327 49.5311 15.6448 49.7158C16.097 49.9858 16.3537 50 20.167 50C23.9803 50 24.237 49.9858 24.6892 49.7158C25.007 49.5311 25.2637 49.2328 25.4225 48.8633C25.6548 48.3234 25.667 48.0393 25.667 39.9121C25.667 31.785 25.6548 31.5008 25.4225 30.9609C25.2637 30.5915 25.007 30.2931 24.6892 30.1084C24.237 29.8385 23.9803 29.8243 20.1425 29.8243C16.3292 29.8385 16.0481 29.8527 15.6203 30.1226Z" fill="#E7ECF6"/>
<path d="M30.2863 34.3851C30.0052 34.5556 29.7241 34.8824 29.5775 35.2234C29.3452 35.7633 29.333 36.0475 29.333 42.0434C29.333 48.0393 29.3452 48.3234 29.5775 48.8633C29.7363 49.2328 29.993 49.5311 30.3108 49.7158C30.763 49.9858 31.0197 50 34.833 50C38.6463 50 38.903 49.9858 39.3552 49.7158C39.673 49.5311 39.9297 49.2328 40.0886 48.8633C40.3208 48.3234 40.333 48.0393 40.333 42.0434C40.333 36.0475 40.3208 35.7633 40.0886 35.2234C39.9297 34.854 39.673 34.5556 39.3552 34.3709C38.903 34.101 38.6463 34.0867 34.8086 34.0867C30.9952 34.101 30.7141 34.1152 30.2863 34.3851Z" fill="#E7ECF6"/>
<path d="M0.953333 37.2268C0.672222 37.3973 0.391111 37.7241 0.244444 38.0651C0.0122222 38.5908 0 38.8891 0 43.4642C0 48.0393 0.0122222 48.3376 0.244444 48.8633C0.403333 49.2328 0.66 49.5311 0.977778 49.7158C1.43 49.9858 1.68667 50 5.5 50C9.31333 50 9.57 49.9858 10.0222 49.7158C10.34 49.5311 10.5967 49.2328 10.7556 48.8633C10.9878 48.3376 11 48.0393 11 43.4642C11 38.8891 10.9878 38.5908 10.7556 38.0651C10.5967 37.6956 10.34 37.3973 10.0222 37.2126C9.57 36.9426 9.31333 36.9284 5.47556 36.9284C1.66222 36.9426 1.38111 36.9568 0.953333 37.2268Z" fill="#E7ECF6"/>
</svg>
