<svg width="377" height="208" viewBox="0 0 377 208" fill="none" xmlns="http://www.w3.org/2000/svg">
<path fill-rule="evenodd" clip-rule="evenodd" d="M211.396 0.980469H200.989L196.364 2.1377L192.896 4.45215L186.343 7.15234L177.479 11.3955L172.083 14.8672L166.687 19.1104L162.062 24.125L158.208 29.1396L155.125 34.9258L152.427 41.0977L151.656 44.5693L148.187 45.3408L143.177 47.6553L140.479 49.9697L138.937 53.0557V57.6846L140.864 60.7705L145.875 63.4707L144.333 65.3994L140.093 71.5713L135.854 80.4434L133.541 88.1582L132 97.416L132.859 113.786L128.932 116.243L123.041 117.225L117.151 116.734L110.769 115.26L103.864 112.312L104.635 104.745L105.406 100.502V93.9443L103.864 89.3154L101.166 85.8437L98.8538 84.3008V83.5293L101.937 70.7998L107.718 67.7139L111.958 65.0137L115.041 61.542L116.968 58.0703L118.51 51.8984V47.2695L118.125 44.9551L116.198 40.3262L113.885 37.2402L110.802 34.54L108.104 34.9258L107.333 36.4687L105.791 41.0977L103.479 49.1982L101.552 51.127H98.4684L94.2288 49.9697L92.6872 48.4268V44.1836L93.8434 37.2402L94.6143 31.8398L93.8434 30.2969L91.1455 29.9111L88.0622 30.6826L83.8226 32.9971L80.3538 36.4687L77.6559 40.7119L76.1143 46.8838V51.127L76.8851 54.9844L79.1976 59.999L82.6663 64.6279L83.0518 66.5566L80.3538 78.5146L79.9684 81.9863H77.6559L74.958 83.1436L71.8747 85.8437L69.1768 90.0869L67.6351 94.7158V102.045L68.0205 103.588L69.5622 106.674L72.2601 109.374L69.9476 118.246L68.7913 120.561L64.5518 124.418L61.8538 127.89L59.9268 132.519V138.305L61.4684 143.319L64.1663 147.177L68.0205 150.263L72.6455 152.191H79.583L84.208 150.263L87.6768 147.177L89.9893 144.091L91.5309 140.233L91.9163 135.219L91.1455 130.976L89.2184 125.961L88.833 123.261L89.9893 118.632L93.0726 117.475L95.3851 117.86L101.166 116.243L105.406 117.86L110.769 119.682L116.169 121.155L123.041 121.647L128.932 121.155L133.541 119.682L134.698 123.646L136.239 127.89L138.937 133.676L142.406 139.462L146.646 145.248L151.271 149.877L155.896 154.12L161.291 157.978L167.073 161.063L169.385 161.835L169 162.992V173.021L169.385 177.265L170.156 181.122L165.146 179.579L159.75 178.808L155.51 179.193L150.885 180.736L147.031 183.437L143.562 187.294L142.021 190.38L141.635 194.237L142.791 196.166L145.875 197.709L151.271 198.48H165.916L170.541 198.095L175.166 197.323L179.406 195.78L181.333 193.466V190.38L180.948 189.608L178.635 186.137L176.323 181.508L174.781 174.95L174.396 164.149L181.718 166.078L189.041 167.235H201.76L207.541 166.464L215.635 164.535V167.235L217.948 181.508L218.718 184.594H217.948L215.635 188.065L214.479 191.923L214.864 194.237L216.791 196.552L221.031 198.095L226.427 198.866H239.531L244.927 198.095L248.396 196.552L249.552 194.237V191.151L249.166 189.608L247.625 186.522L244.156 183.051L240.302 180.736L235.291 179.193H229.125L223.343 180.736L220.646 162.221L224.114 161.063L229.896 157.978L235.677 153.734L239.916 150.263L244.541 145.248L248.01 141.005L251.864 134.833L255.333 127.504L258.031 119.403L259.573 111.688V108.603L261.114 109.374L265.354 112.46L268.823 116.317L271.521 120.946L273.062 127.118V135.219H269.208L266.896 135.99L262.656 138.69L259.958 142.162L256.104 144.091L252.635 147.948L251.093 151.42L250.708 155.663L251.864 159.135L254.177 161.063V164.535L255.718 167.621L258.416 169.55L263.041 170.321L266.896 171.864H271.906L273.062 171.479L276.916 169.55L280 166.464L282.312 162.606L283.854 156.82V149.491L283.083 145.634L280.385 139.848L277.687 137.147L278.073 134.062V124.804L276.916 120.175L274.218 114.774L270.75 110.146L265.739 105.902L260.343 102.816V98.1875L259.958 93.1728L258.802 85.8437L257.26 80.0576H258.031L259.187 78.9004L260.729 76.5859L261.114 73.1143L260.343 71.1855L258.031 68.0996H257.26L257.646 62.6992V54.5986L256.875 48.041L254.562 39.5547L251.864 33.7686L248.396 27.5967L244.541 22.582L241.458 19.4961L236.448 14.8672L230.281 11.0098L224.114 8.30957L223.343 7.15234L220.646 4.45215L216.021 2.1377L211.396 0.980469ZM77.6559 134.833L74.958 134.062L73.0309 134.833L71.4893 136.762V139.462L72.2601 141.005L74.1872 142.162H76.4997L78.4268 141.005L79.583 138.69L79.1976 136.376L77.6559 134.833Z" fill="#062A3B"/>
<path d="M164.375 57.6846H178.25L189.812 58.4561L201.76 59.999L215.635 62.6992L227.968 66.1709L237.989 69.6426L247.625 73.8857L251.864 76.2002L253.021 79.6719L253.791 80.0576L255.718 87.3867L256.875 96.6445V100.502H254.177L252.25 102.045V104.359L254.177 106.288L256.489 107.06L256.104 112.46L254.177 120.561L251.479 127.89L247.239 135.99L243.385 141.391L239.916 145.248L235.291 149.877L228.354 154.892L220.26 159.135L212.552 161.835L202.916 163.764L197.906 164.149H192.51L185.187 163.378L177.093 161.449L169.771 158.749L162.833 154.892L157.437 151.034L152.427 146.405L149.729 143.705L145.104 137.533L141.635 131.361L138.552 124.418L136.625 117.86L135.468 111.303L135.083 107.06V102.045L135.854 93.5586L138.166 83.915L141.635 75.8145L145.489 69.6426L150.114 63.4707L154.739 59.2275L157.052 58.4561L164.375 57.6846Z" fill="#EAF5F4"/>
<path d="M321.239 90.4727H330.489L333.573 92.0156L335.885 94.7158L338.968 105.902L348.218 139.848L357.083 171.479L357.854 174.179L371.729 178.808L374.041 179.965L375.968 182.279L376.739 186.137L375.583 189.608L374.041 191.151L340.125 203.881L332.802 206.581L329.718 207.353H322.01L315.458 205.424L301.583 200.409L283.083 193.852L277.687 191.923L275.375 189.223L274.989 188.065V184.208L276.146 181.894L278.073 180.351L284.239 178.036L292.718 174.95L299.271 152.963L306.593 128.275L315.458 97.416L317 93.1729L319.312 91.2441L321.239 90.4727Z" fill="#062A3B"/>
<path d="M39.5003 105.131H46.8232L49.9066 106.674L51.4482 108.603L55.3024 122.104L63.7816 152.577L71.1045 178.422L71.4899 179.579L83.4378 183.822L85.3649 185.365L86.5212 188.065L86.1357 191.151L84.9795 193.08L83.4378 194.237L64.9378 201.181L51.4482 206.195L46.8232 207.353H39.5003L32.9482 205.424L3.65658 194.623L1.34408 192.694L0.573242 190.766V187.294L2.50033 184.208L8.28158 181.894L15.2191 179.193L22.1566 154.12L28.7087 130.204L34.1045 110.531L35.6462 107.445L37.5732 105.902L39.5003 105.131Z" fill="#062A3B"/>
<path d="M181.719 66.1709H189.813L195.979 67.7139L201.375 70.4141L204.844 73.1143L207.927 76.2002L211.396 81.2148L213.323 85.458L214.865 90.4727L215.636 96.6445L215.25 103.588L213.709 110.146L210.625 116.703L207.542 120.946L204.073 124.804L199.834 127.89L193.667 130.976L187.115 132.519H180.948L174.782 131.361L169 129.047L165.146 126.347L161.292 122.875L157.823 118.246L154.74 111.688L153.198 104.745V95.873L154.354 90.4727L156.282 85.458L158.594 81.2148L161.292 77.7432L164.375 74.2715L169 70.7998L175.167 67.7139L181.719 66.1709Z" fill="#62CCF6"/>
<path d="M313.917 115.932L321.24 117.089H329.719L338.198 115.932L340.511 124.032L345.907 143.705L349.375 155.663L351.688 164.535L354.386 173.793V174.95L348.604 177.65L342.052 179.579L332.417 181.122H318.157L310.063 179.965L301.969 177.65L296.573 174.95L296.959 172.25L301.584 156.435L313.532 116.317L313.917 115.932Z" fill="#E7621B"/>
<path d="M32.9476 127.89L39.4997 128.661H47.5934L53.3747 127.89L59.1559 147.948L63.0101 161.449L65.708 171.479L67.2497 177.65L61.083 180.736L56.0726 182.279L50.2913 183.051H34.1038L26.3955 181.508L21.7705 179.579L19.458 178.036L19.8434 174.95L23.3122 161.835L32.5622 128.661L32.9476 127.89Z" fill="#E7621C"/>
<path d="M222.187 11.3955L226.042 12.5527L230.667 14.8672L234.906 17.9531L238.76 21.4248L242.615 25.2822L246.854 31.0684L250.323 37.626L253.021 45.7266L254.177 52.2842V65.0137L252.635 64.2422L247.24 60.7705L238.76 56.1416L229.51 52.2842L217.948 48.4268L206.385 45.7266L199.062 44.1836L199.448 41.0977L202.917 30.6826L206 24.5107L208.698 20.2676L212.167 16.4102L216.406 13.3242L220.26 11.7812L222.187 11.3955Z" fill="#F8BC13"/>
<path d="M301.584 156.435L304.282 156.82L311.219 158.749L318.542 159.906L327.792 160.292L336.657 159.521L343.979 157.978L347.834 156.82H349.375L352.073 165.692L354.386 173.793V174.95L348.604 177.65L342.052 179.579L332.417 181.122H318.157L310.063 179.965L301.969 177.65L296.573 174.95L296.959 172.25L301.584 156.435Z" fill="#EAF5F4"/>
<path d="M164.375 45.3408H183.26L194.823 46.498L205.614 48.4268L217.177 51.127L228.739 54.9844L236.833 58.4561L245.698 63.085L250.323 66.1709L253.791 68.8711L255.333 70.7998L257.26 72.7285L257.646 75.043L256.489 76.9717H255.718L254.562 74.6572L252.635 73.1143L243 68.4854L231.437 64.2422L221.416 61.1562L209.468 58.4561L194.823 56.1416L181.333 54.9844L169.385 54.5986L158.593 55.3701L153.198 56.5273L151.271 57.6846L148.573 60.3848L146.26 59.999L143.177 58.0703L142.021 56.9131V53.8271L143.562 51.5127L147.031 49.1982L154.739 46.8838L164.375 45.3408Z" fill="#F8BB13"/>
<path d="M181.333 80.8291H187.115L191.74 82.3721L195.208 85.0723L197.906 88.1582L199.833 92.4014L200.604 95.1016V102.431L199.063 107.445L196.365 111.688L192.51 115.16L188.656 117.089L184.802 117.86H180.948L177.094 116.703L173.24 114.389L170.156 111.303L167.458 105.902L166.688 102.045V98.1875L167.844 92.7871L169.771 88.9297L170.927 87.7725L172.083 92.0156L174.01 93.9443L175.167 94.3301H178.25L180.563 93.1729L182.104 91.2441L182.49 87.7725L180.948 84.6865L178.635 83.5293L176.323 83.1436L176.708 82.3721L181.333 80.8291Z" fill="#06293A"/>
<path d="M90.3747 33.3828H91.1455L90.3747 38.7832L89.6038 43.0264V49.584L90.3747 51.8984L92.3018 52.6699L98.4684 54.5986H101.937L104.635 53.0557L106.177 51.127L107.718 46.1123L109.646 39.1689L110.416 38.3975L113.114 41.4834L114.656 44.9551L115.041 46.498V52.6699L113.5 57.6846L111.187 61.1562L108.104 63.8564L101.552 66.9424L99.6247 68.4854L98.4684 71.5713L95.3851 83.915L92.3018 84.6865L89.2184 87.3867L88.0622 88.5439L86.1351 85.0723L83.0518 82.7578L83.4372 79.2861L86.1351 67.3281V64.6279L84.208 61.1562L81.5101 57.2988L79.9684 53.4414L79.583 51.8984V46.498L81.1247 41.4834L83.8226 37.626L87.2913 34.9258L90.3747 33.3828Z" fill="#B0D4DD"/>
<path d="M202.531 4.06641H209.854L215.25 5.22363L218.718 7.15234L220.26 8.69531L215.25 10.624L211.01 13.3242L207.541 16.7959L204.843 20.6533L201.375 27.2109L198.291 35.3115L195.979 43.4121L195.208 43.7979L183.646 42.6406L176.708 42.2549L177.864 36.8545L180.948 27.5967L184.802 19.4961L188.271 14.0957L191.739 9.4668L195.208 6.38086L198.677 4.83789L202.531 4.06641Z" fill="#F8BC13"/>
<path d="M62.2393 162.221H63.0101L67.2497 176.879L66.8643 178.036L60.3122 181.122L56.0726 182.279L50.2913 183.051H34.1038L26.3955 181.508L21.7705 179.579L19.458 178.036L19.8434 174.95L23.3122 162.606L34.1038 165.307L41.0413 166.078H44.5101L52.9893 164.921L62.2393 162.221Z" fill="#EAF5F4"/>
<path d="M358.625 178.036L362.865 179.193L371.729 182.279L372.886 183.437L373.271 184.594V187.294L371.344 188.837L332.032 203.495L328.177 204.267H323.938L318.542 203.109L293.49 194.237L279.615 189.223L278.073 187.68V184.594L279.615 183.051L291.177 178.808H291.948L291.177 183.822L292.334 186.137L296.188 188.837L303.125 191.537L311.99 193.466L319.698 194.237H331.261L341.282 193.08L348.99 191.151L354.771 188.837L358.625 186.137L359.396 184.979V181.122L358.625 178.036Z" fill="#E7621C"/>
<path fill-rule="evenodd" clip-rule="evenodd" d="M90.3753 100.502L88.4482 99.7305L87.292 103.974L84.9795 107.445L81.8962 109.76L78.4274 110.531H75.3441L73.0316 119.403L71.4899 122.875L66.4795 127.504L64.167 130.59L63.0107 134.447V137.533L63.3962 139.462L65.3232 143.319L68.0212 146.02L70.3337 147.562L74.1878 149.105H78.042L79.5837 148.72L83.4378 146.791L86.9066 142.934L88.4482 138.69V134.447L87.6774 130.976L85.3649 125.575V123.261L89.9899 104.359L90.3753 100.502ZM77.6566 134.833L74.9587 134.062L73.0316 134.833L71.4899 136.762V139.462L72.2607 141.005L74.1878 142.162H76.5003L78.4274 141.005L79.5837 138.69L79.1982 136.376L77.6566 134.833Z" fill="#B1D4DD"/>
<path d="M181.719 66.1709H189.813L195.979 67.7139L201.375 70.4141L204.844 73.1143L207.927 76.2002L211.396 81.2148L213.323 85.458L214.865 90.4727L215.636 96.6445L215.25 103.588L213.709 110.146L210.625 116.703L207.542 120.946L204.073 124.804L199.834 127.89L193.667 130.976L187.115 132.519H180.948L174.782 131.361L169 129.047L165.146 126.347L161.292 122.875L157.823 118.246L154.74 111.688L153.198 104.745V95.873L154.354 90.4727L156.282 85.458L158.594 81.2148L161.292 77.7432L164.375 74.2715L169 70.7998L175.167 67.7139L181.719 66.1709ZM184.032 69.2568L177.865 70.4141L171.698 73.1143L167.844 75.8145L164.375 78.9004L161.292 83.1436L158.209 89.3154L156.667 95.1016L156.282 98.1875V103.202L157.438 109.374L160.136 115.546L163.219 119.789L165.146 122.104L169.771 125.575L174.782 127.89L179.407 129.047H187.5L193.282 127.504L199.063 124.418L202.917 120.946L206.386 117.089L209.469 111.688L211.396 105.902L212.167 101.273V94.7158L211.011 88.9297L208.698 83.1436L206 79.2861L202.532 75.4287L198.677 72.7285L194.438 70.7998L190.198 69.6426L184.032 69.2568Z" fill="#062B3D"/>
<path d="M295.416 174.564L301.198 177.265L309.291 179.579L317.385 180.736H331.646L341.281 179.193L348.989 176.879L352.843 174.95H354L355.927 181.894V183.822L352.843 186.137L348.218 188.065L341.281 189.994L333.958 191.151L327.791 191.537H321.625L312.375 190.766L304.666 189.223L298.114 186.908L294.26 184.594L293.489 183.822V181.122L295.416 174.564Z" fill="#E7621C"/>
<path d="M313.917 115.932L321.24 117.089H329.719L338.198 115.932L340.511 124.032L343.594 135.604L338.584 137.147L331.261 138.305H322.011L313.532 137.147L308.136 135.604L308.907 131.747L313.532 116.317L313.917 115.932Z" fill="#EAF5F4"/>
<path d="M13.2917 183.437H14.4479V188.065L17.5313 190.766L23.3125 193.08L30.25 194.623L37.5729 195.395H46.8229L54.1458 194.623L61.8542 193.08L68.0208 190.766L71.1042 188.451L72.2604 186.908V183.437L82.2813 186.908L83.0521 187.68V190.38L78.4271 192.694L51.4479 202.724L47.9792 203.881L45.6667 204.267H41.4271L37.5729 203.495L23.3125 198.48L5.58333 191.923L3.65625 189.994L4.04167 187.294L7.125 185.751L13.2917 183.437Z" fill="#E7621C"/>
<path fill-rule="evenodd" clip-rule="evenodd" d="M97.3125 87.3867H93.8438L91.9167 88.9297L89.6042 92.7871L89.2188 95.873L90.375 97.0303L92.3021 97.8018L95 95.1016H96.9271L97.3125 96.6445L96.1563 99.3447L93.8438 100.502L91.1458 111.303L90.7604 114.389L91.5313 114.003L95.3854 113.231L100.781 105.902V103.588L101.938 100.116V94.3301L101.552 92.7871L100.01 89.7012L97.3125 87.3867Z" fill="#0C5066"/>
<path d="M269.979 138.69H273.062L275.375 139.848L278.073 142.934L279.615 146.405L280.385 149.877V156.435L279.615 159.906L277.302 164.149L274.604 166.85L271.135 168.393H267.667V166.85L269.208 165.307L269.979 163.764V161.835H267.667L264.198 165.692L262.656 166.464H260.344L258.417 165.307L257.646 163.764V161.835L261.115 159.135L262.656 157.206L262.271 154.506H260.344L258.802 156.049L257.646 157.978H255.719L254.562 156.435V152.191L256.49 148.334L259.573 146.02L262.656 145.248L263.427 143.319L266.51 140.233L269.979 138.69Z" fill="#0C4F66"/>
<path d="M19.0726 177.65L25.2393 180.736L31.4059 182.279L34.1038 182.665H50.2913L57.6143 181.508L63.0101 179.579L67.2497 177.65L68.4059 180.736L69.5622 184.979L69.1768 186.522L66.0934 188.451L61.083 190.38L53.3747 191.923L43.3538 192.694L34.1038 192.309L25.6247 190.766L20.2288 188.837L17.9163 187.294L17.1455 186.522L17.5309 183.051L19.0726 177.65Z" fill="#E7621B"/>
<path d="M32.9482 127.89L39.5003 128.661H47.5941L53.3753 127.89L58.0003 144.091V144.862L51.4482 146.791L45.667 147.562H39.5003L32.1774 146.405L28.3232 145.248L29.0941 141.005L32.5628 128.661L32.9482 127.89Z" fill="#EAF5F4"/>
<path d="M323.552 93.5586L330.49 93.9443L332.032 94.7158L333.188 96.6445L338.198 115.16V115.932L332.417 117.089L329.719 117.475H321.24L314.302 116.317L313.917 114.389L318.927 96.6445L320.469 94.3301L320.854 93.9443L323.552 93.5586Z" fill="#E7621C"/>
<path d="M185.573 11.0098H186.344L185.573 12.5527L180.948 20.6533L177.479 28.7539L174.396 38.7832L173.625 41.8691L160.136 43.0264L155.511 43.7979L155.896 41.0977L158.979 34.1543L162.834 28.3682L167.459 22.9678L171.698 19.1104L176.709 15.6387L181.334 12.9385L185.573 11.0098Z" fill="#F8BB13"/>
<path d="M164.375 57.6846H178.25L189.813 58.4561L201.761 59.999L215.636 62.6992L227.969 66.1709L237.99 69.6426L247.625 73.8857L251.865 76.2002L252.636 78.1289L252.25 79.6719L247.625 77.7432L241.844 75.043L233.75 71.957L222.959 68.4854L209.854 65.0137L197.521 62.6992L185.573 61.542H169.386L163.219 61.9277H153.198L155.125 59.6133L159.75 58.4561V58.0703L164.375 57.6846Z" fill="#B3D5DE"/>
<path d="M42.5837 108.217H45.2816L47.5941 108.988L48.7503 110.531L53.3753 127.118V127.89L47.5941 129.047H39.5003L33.7191 128.275L32.9482 127.89L34.4899 121.332L37.5732 110.146L39.1149 108.603L42.5837 108.217Z" fill="#E7621B"/>
<path d="M156.282 182.665H162.448L167.844 184.208L172.469 186.137L176.323 188.837L177.865 191.537L177.094 193.08L172.469 194.237L165.532 195.009H150.886L145.49 193.852L145.104 191.923L147.802 187.68L151.271 184.594L154.74 183.051L156.282 182.665Z" fill="#0C5067"/>
<path d="M231.052 182.665L236.062 183.051L240.687 184.979L243.771 187.68L245.698 190.766L246.083 193.466L244.541 194.623L239.146 195.395H228.354L222.187 194.623L218.718 193.466L218.333 193.08L218.718 189.994L221.031 186.522L224.885 184.208L227.968 183.051L231.052 182.665Z" fill="#0D4F66"/>
<path d="M77.6566 85.458H81.1253L84.2087 87.7725L85.7503 91.2441V97.8018L84.5941 102.431L83.0524 105.131L81.8962 106.288L79.1982 107.445H76.5003L73.417 105.902L71.4899 102.816L71.1045 101.659V94.7158L73.0316 90.0869L76.5003 86.2295L77.6566 85.458Z" fill="#0C5268"/>
<path d="M208.313 130.976L210.24 131.361L211.01 132.133V134.447L208.313 139.076L205.615 141.776L200.604 144.862L195.594 146.405L193.281 146.791H187.115L181.333 145.248L177.479 142.934L177.094 142.548V140.233L177.865 139.462L180.177 139.848L184.802 141.776L186.729 142.162H194.052L199.063 140.619L202.917 138.305L205.615 135.219L207.542 131.361L208.313 130.976Z" fill="#062C3D"/>
<path fill-rule="evenodd" clip-rule="evenodd" d="M78.042 131.747L74.5732 131.361L71.1045 132.904L69.1774 135.604L68.792 139.462L70.3337 142.548L73.417 144.477H77.2712L78.4274 144.091L80.7399 142.162L81.8962 139.848V136.376L81.1253 134.447L78.042 131.747ZM77.6566 134.833L74.9587 134.062L73.0316 134.833L71.4899 136.762V139.462L72.2607 141.005L74.1878 142.162H76.5003L78.4274 141.005L79.5837 138.69L79.1982 136.376L77.6566 134.833Z" fill="#062D3F"/>
<path d="M175.166 83.1436H178.635L181.333 84.6865L182.875 87.7725L182.489 91.2441L180.177 93.9443L178.25 94.7158H175.166L172.468 93.1729L171.312 91.2441L170.927 87.3867L172.854 84.3008L175.166 83.1436Z" fill="#E8F4F3"/>
<path d="M168.614 75.043L169.385 75.4287L163.604 81.2148L162.833 80.8291L166.302 76.9717L168.614 75.043Z" fill="#0A9099"/>
</svg>
