<svg width="22" height="28" viewBox="0 0 22 28" fill="none" xmlns="http://www.w3.org/2000/svg">
<path d="M2.07143 7.13889H19.9286V23.1894C19.9286 24.2426 19.5132 25.2533 18.7726 26.0022L18.3728 26.4064C17.9971 26.7862 17.4851 27 16.9508 27H5.40634C4.87207 27 4.36002 26.7862 3.98433 26.4064L3.55152 25.9688C2.83055 25.2398 2.41704 24.2618 2.39635 23.2367L2.07143 7.13889Z" fill="#7E1313"/>
<path d="M1 2.80556V4.97222H21V2.80556H15.2857L14.5714 1H7.42857L6.71429 2.80556H1Z" fill="#7E1313"/>
<path d="M2.07143 7.13889H19.9286V23.1894C19.9286 24.2426 19.5132 25.2533 18.7726 26.0022L18.3728 26.4064C17.9971 26.7862 17.4851 27 16.9508 27H5.40634C4.87207 27 4.36002 26.7862 3.98433 26.4064L3.55152 25.9688C2.83055 25.2398 2.41704 24.2618 2.39635 23.2367L2.07143 7.13889Z" stroke="#7E1313"/>
<path d="M1 2.80556V4.97222H21V2.80556H15.2857L14.5714 1H7.42857L6.71429 2.80556H1Z" stroke="#7E1313"/>
</svg>
