<svg width="22" height="28" viewBox="0 0 22 28" fill="none" xmlns="http://www.w3.org/2000/svg">
<g clip-path="url(#clip0_2057_390)">
<path d="M2.07227 7.13892H19.9294V23.1894C19.9294 24.2426 19.514 25.2533 18.7734 26.0022L18.3736 26.4064C17.9979 26.7862 17.4859 27 16.9516 27H5.40718C4.87291 27 4.36086 26.7862 3.98517 26.4064L3.55236 25.9688C2.83139 25.2398 2.41788 24.2618 2.39719 23.2367L2.07227 7.13892Z" fill="#FF0000"/>
<path d="M1 2.80556V4.97222H21V2.80556H15.2857L14.5714 1H7.42857L6.71429 2.80556H1Z" fill="#FF0000"/>
<path d="M2.07227 7.13892H19.9294V23.1894C19.9294 24.2426 19.514 25.2533 18.7734 26.0022L18.3736 26.4064C17.9979 26.7862 17.4859 27 16.9516 27H5.40718C4.87291 27 4.36086 26.7862 3.98517 26.4064L3.55236 25.9688C2.83139 25.2398 2.41788 24.2618 2.39719 23.2367L2.07227 7.13892Z" stroke="#FF0000"/>
<path d="M1 2.80556V4.97222H21V2.80556H15.2857L14.5714 1H7.42857L6.71429 2.80556H1Z" stroke="#FF0000"/>
</g>
<defs>
<clipPath id="clip0_2057_390">
<rect width="22" height="28" fill="white"/>
</clipPath>
</defs>
</svg>
