<svg width="50" height="50" viewBox="0 0 50 50" fill="none" xmlns="http://www.w3.org/2000/svg">
<g clip-path="url(#clip0_1154_9)">
<path d="M43.75 25V34.375H6.25V9.375H23.4375V6.25H6.25C5.4212 6.25 4.62634 6.57924 4.04029 7.16529C3.45424 7.75134 3.125 8.5462 3.125 9.375V34.375C3.125 35.2038 3.45424 35.9987 4.04029 36.5847C4.62634 37.1708 5.4212 37.5 6.25 37.5H18.75V43.75H12.5V46.875H37.5V43.75H31.25V37.5H43.75C44.5788 37.5 45.3737 37.1708 45.9597 36.5847C46.5458 35.9987 46.875 35.2038 46.875 34.375V25H43.75ZM28.125 43.75H21.875V37.5H28.125V43.75Z" fill="#F6F8FE"/>
<path d="M28.125 43.75H21.875V37.5H28.125V43.75Z" fill="#F6F8FE"/>
<path d="M46.875 6.25H28.125V9.375H46.875V6.25Z" fill="#F6F8FE"/>
<path d="M46.875 12.5H28.125V15.625H46.875V12.5Z" fill="#F6F8FE"/>
<path d="M37.5 18.75H28.125V21.875H37.5V18.75Z" fill="#F6F8FE"/>
</g>
<defs>
<clipPath id="clip0_1154_9">
<rect width="50" height="50" fill="white"/>
</clipPath>
</defs>
</svg>
