<svg width="19" height="16" viewBox="0 0 19 16" fill="none" xmlns="http://www.w3.org/2000/svg">
<path d="M0.393474 0.825818C0.112678 1.01384 -0.0465799 1.51308 0.0120939 1.99935C0.0498128 2.30408 0.259362 2.66068 0.447957 2.74497C0.556922 2.79684 3.33555 2.8098 9.47534 2.79684L18.3477 2.77739L18.4608 2.64123C18.6829 2.38837 18.75 2.18089 18.75 1.77243C18.75 1.36396 18.6829 1.15648 18.4608 0.903622L18.3477 0.767466L9.43343 0.754498C2.08663 0.741531 0.498248 0.754498 0.393474 0.825818Z" fill="#1E1E1E"/>
<path d="M3.74601 7.05006C3.46522 7.23809 3.30596 7.73732 3.36463 8.2236C3.40235 8.52833 3.6119 8.88492 3.8005 8.96921C3.90946 9.02108 5.68225 9.03405 9.47509 9.02108C14.9737 9.00163 14.9946 9.00163 15.1078 8.86547C15.3299 8.61261 15.397 8.40514 15.397 7.99667C15.397 7.5882 15.3299 7.38073 15.1078 7.12786C14.9946 6.99171 14.9779 6.99171 9.43318 6.97874C4.87339 6.96577 3.85079 6.97874 3.74601 7.05006Z" fill="#1E1E1E"/>
<path d="M7.09904 13.2743C6.81824 13.4623 6.65899 13.9616 6.71766 14.4478C6.75538 14.7526 6.96493 15.1092 7.15352 15.1935C7.2583 15.2453 8.02944 15.2583 9.47533 15.2453C11.5876 15.2259 11.6421 15.2194 11.7552 15.0897C11.9774 14.8369 12.0444 14.6294 12.0444 14.2209C12.0444 13.8124 11.9774 13.605 11.7552 13.3521C11.6421 13.216 11.5876 13.216 9.43342 13.203C7.66063 13.19 7.19962 13.203 7.09904 13.2743Z" fill="#1E1E1E"/>
</svg>
