<svg width="512" height="512" viewBox="0 0 512 512" fill="none" xmlns="http://www.w3.org/2000/svg">
<g clip-path="url(#clip0_1646_4)">
<path d="M492.373 131.2C480.256 125.12 466.005 126.442 453.995 135.573L405.333 184.661V181.312C405.333 128.384 362.261 85.3115 309.333 85.3115H96C43.072 85.3329 0 128.405 0 181.333V330.666C0 383.594 43.072 426.666 96 426.666H309.333C362.261 426.666 405.333 383.594 405.333 330.666V326.613L455.168 376.256C461.461 380.992 468.928 383.381 476.437 383.381C481.835 383.381 487.296 382.144 492.373 379.605C504.491 373.546 512 361.386 512 347.84V162.986C512 149.44 504.469 137.237 492.373 131.2ZM309.333 405.333H96C54.8267 405.333 21.3333 371.84 21.3333 330.666V181.333C21.3333 140.16 54.8267 106.666 96 106.666H309.333C350.507 106.666 384 140.16 384 181.333V330.666C384 371.84 350.507 405.333 309.333 405.333ZM490.667 347.84C490.667 353.322 487.723 358.08 482.816 360.533C477.888 363.029 472.341 362.496 469.099 360.17L405.333 296.469V214.954L467.968 151.594C472.363 148.309 477.909 147.818 482.837 150.272C487.744 152.725 490.688 157.461 490.688 162.965L490.667 347.84ZM288 256C288 261.888 283.221 266.666 277.333 266.666H213.333V330.666C213.333 336.554 208.555 341.333 202.667 341.333C196.779 341.333 192 336.554 192 330.666V266.666H128C122.112 266.666 117.333 261.888 117.333 256C117.333 250.112 122.112 245.333 128 245.333H192V181.333C192 175.445 196.779 170.666 202.667 170.666C208.555 170.666 213.333 175.445 213.333 181.333V245.333H277.333C283.221 245.333 288 250.112 288 256Z" fill="black"/>
</g>
<defs>
<clipPath id="clip0_1646_4">
<rect width="512" height="512" fill="white"/>
</clipPath>
</defs>
</svg>
