<svg width="512" height="512" viewBox="0 0 512 512" fill="none" xmlns="http://www.w3.org/2000/svg">
<g clip-path="url(#clip0_1646_2)">
<path d="M405.333 0H106.667C78.3873 0.0338743 51.2759 11.2828 31.2794 31.2794C11.2828 51.2759 0.0338743 78.3873 0 106.667L0 405.333C0.0338743 433.613 11.2828 460.724 31.2794 480.721C51.2759 500.717 78.3873 511.966 106.667 512H405.333C433.613 511.966 460.724 500.717 480.721 480.721C500.717 460.724 511.966 433.613 512 405.333V106.667C511.966 78.3873 500.717 51.2759 480.721 31.2794C460.724 11.2828 433.613 0.0338743 405.333 0ZM426.667 234.667H469.333V277.333H426.667V234.667ZM426.667 192V149.333H469.333V192H426.667ZM384 234.667H128V42.6667H384V234.667ZM85.3333 277.333H42.6667V234.667H85.3333V277.333ZM85.3333 192H42.6667V149.333H85.3333V192ZM42.6667 320H85.3333V362.667H42.6667V320ZM128 277.333H384V469.333H128V277.333ZM426.667 320H469.333V362.667H426.667V320ZM469.333 106.667H426.667V46.592C439.102 50.9884 449.875 59.1196 457.513 69.8731C465.15 80.6266 469.279 93.4771 469.333 106.667ZM85.3333 46.592V106.667H42.6667C42.7213 93.4771 46.8498 80.6266 54.4872 69.8731C62.1246 59.1196 72.898 50.9884 85.3333 46.592ZM42.6667 405.333H85.3333V465.408C72.898 461.012 62.1246 452.88 54.4872 442.127C46.8498 431.373 42.7213 418.523 42.6667 405.333ZM426.667 465.408V405.333H469.333C469.279 418.523 465.15 431.373 457.513 442.127C449.875 452.88 439.102 461.012 426.667 465.408Z" fill="black"/>
</g>
<defs>
<clipPath id="clip0_1646_2">
<rect width="512" height="512" fill="white"/>
</clipPath>
</defs>
</svg>
