<svg width="25" height="26" viewBox="0 0 25 26" fill="none" xmlns="http://www.w3.org/2000/svg">
<path d="M10.537 25.418C10.647 25.3628 11.8168 24.4005 13.1372 23.2788C14.8688 21.8139 15.5695 21.1826 15.639 21.0294C15.7316 20.8333 15.7432 20.5574 15.7432 17.9525V15.0963L19.5827 10.628L18.8237 9.97703L14.9848 14.4445L14.7432 14.7256V15.0963V17.9525C14.7432 19.2625 14.7402 19.9621 14.7264 20.3597C14.7232 20.4523 14.7194 20.5213 14.7158 20.5717C14.633 20.6532 14.5118 20.7666 14.3426 20.9188C13.9544 21.268 13.3563 21.7836 12.4913 22.5154L12.4898 22.5167C11.8326 23.075 11.2142 23.5925 10.7479 23.9761C10.5749 24.1184 10.4245 24.241 10.3017 24.3396C10.3007 24.3105 10.2998 24.2795 10.2989 24.2465C10.2819 23.6246 10.2775 22.424 10.2688 20.0101L10.2688 19.9851L10.2688 19.9838L10.2572 15.0939L10.2563 14.7245L10.0154 14.4443L5.68394 9.40636C5.68386 9.40627 5.68378 9.40617 5.6837 9.40608C4.49481 8.02225 3.39746 6.73686 2.58695 5.78117C2.18149 5.30308 1.84883 4.90868 1.61274 4.62618C1.49444 4.48462 1.40209 4.37317 1.33754 4.29414C1.29628 4.24363 1.27571 4.21749 1.2683 4.2083C1.04604 3.84341 0.948891 3.26344 1.02573 2.91268C1.17916 2.22434 1.67096 1.71393 2.16795 1.55531C2.19605 1.55437 2.23118 1.55336 2.27387 1.55231C2.41552 1.54884 2.62128 1.5454 2.8872 1.54207C3.41801 1.53541 4.17614 1.52929 5.11356 1.52393C6.98778 1.51322 9.57183 1.50556 12.4723 1.5025C13.1162 1.50215 13.7208 1.50174 14.2886 1.50136C18.727 1.49839 20.9202 1.49692 22.0689 1.53564C22.7189 1.55755 22.9388 1.59138 23.0171 1.61155C23.033 1.62344 23.0792 1.65457 23.1942 1.7274L23.1947 1.72773C23.7431 2.07444 24.0867 2.83526 23.981 3.49472C23.9172 3.89265 23.8036 4.16814 23.2285 4.84323L23.2279 4.84392C23.0596 5.04192 22.4011 5.80894 21.4975 6.86142C20.7325 7.75247 19.7919 8.84812 18.8243 9.97631L10.537 25.418ZM10.537 25.418C10.1606 25.608 9.69151 25.4609 9.40774 25.0502L10.537 25.418ZM10.0005 24.575C9.99583 24.5782 9.99322 24.5801 9.9931 24.5802C9.99298 24.5803 9.99533 24.5788 10.0005 24.575ZM14.8165 20.4671C14.8232 20.4592 14.8213 20.4606 14.8138 20.4703C14.815 20.4689 14.8159 20.4679 14.8165 20.4671Z" stroke="#041E4E" stroke-width="2"/>
</svg>
