<svg width="51" height="50" viewBox="0 0 51 50" fill="none" xmlns="http://www.w3.org/2000/svg">
<path d="M4.50184 0.127583C2.62552 0.593407 1.06192 2.3096 0.59863 4.39355C0.320656 5.65617 0.644958 7.39689 1.38622 8.54919C1.55995 8.81888 5.59056 13.5752 10.3509 19.116L19.0144 29.1925L19.0375 38.9748C19.0723 48.6468 19.0723 48.7694 19.3155 49.1004C19.883 49.9217 20.8212 50.2159 21.574 49.8359C21.7941 49.7256 24.1337 47.801 26.7744 45.5577C30.2375 42.6279 31.639 41.3653 31.778 41.0588C31.9633 40.6665 31.9864 40.1149 31.9864 34.905V29.1925L39.6654 20.2561C43.8814 15.3404 47.8541 10.7189 48.4795 9.98344C49.7535 8.4879 50.2284 7.60528 50.4369 6.30588C50.7728 4.20967 49.742 1.89281 47.9583 0.765026C46.6611 -0.0562935 48.0857 -0.00725937 25.4425 0.00499725C13.8371 0.0172539 4.75664 0.0662918 4.50184 0.127583Z" fill="#E7ECF6"/>
</svg>
