<svg width="137" height="136" viewBox="0 0 137 136" fill="none" xmlns="http://www.w3.org/2000/svg">
<g opacity="0.9">
<path d="M63.6723 0.0884094C63.1627 0.141632 61.5803 0.327881 60.1856 0.487518C48.6527 1.76468 36.798 6.52745 26.9816 13.8179C23.7899 16.186 17.8894 21.8534 15.261 25.0729C8.90446 32.8424 3.72807 43.2991 1.60924 52.7448C0.295027 58.5453 0 61.3923 0 68.0442C0 74.6961 0.295027 77.5431 1.60924 83.3436C3.72807 92.7893 8.90446 103.273 15.261 111.015C17.7285 114.049 22.6098 118.838 25.6406 121.233C33.3381 127.326 43.7445 132.328 53.0781 134.404C58.6836 135.654 62.0362 136 68.5 136C79.8988 136 88.6423 134.004 98.6733 129.109C109.857 123.681 118.789 115.911 125.762 105.561C129.866 99.4944 133.808 90.4212 135.391 83.3436C136.705 77.5431 137 74.6961 137 68.0442C137 61.3923 136.705 58.5453 135.391 52.7448C133.272 43.2991 128.096 32.8158 121.739 25.0729C119.272 22.0397 114.39 17.2503 111.359 14.8556C102.026 7.45871 90.5198 2.48309 78.6382 0.700378C75.2588 0.194839 66.0057 -0.177673 63.6723 0.0884094ZM73.1936 20.8157C80.4084 22.3324 86.3894 27.2282 89.3665 34.0397C90.6002 36.9133 91.083 39.441 91.083 43.0331C91.0562 49.3125 88.7228 54.6606 84.0828 59.0508C81.6153 61.4189 78.9601 63.042 75.9293 64.0797C62.1167 68.7892 47.4726 59.5298 45.9706 45.1085C44.7905 33.747 52.4612 23.237 63.6991 20.8157C65.9789 20.3368 70.8602 20.3368 73.1936 20.8157ZM87.4086 77.0376C94.3551 78.9533 99.5852 83.2904 102.535 89.6496C105.218 95.3702 105.352 100.905 102.911 104.443C100.899 107.344 93.7383 112.08 87.4086 114.687C76.0903 119.317 61.7948 119.423 50.2619 114.953C43.9591 112.505 35.7788 107.211 33.9818 104.417C31.8898 101.144 31.7825 96.8602 33.6063 91.5387C36.3152 83.7161 43.5568 77.8358 52.0053 76.5852C52.8904 76.4522 60.7488 76.3724 69.4387 76.399C69.478 76.3991 69.5172 76.3993 69.5563 76.3994C84.8896 76.4522 85.3219 76.4537 87.4086 77.0376Z" fill="#696D79"/>
<path d="M87.4086 77.0376C94.3551 78.9533 99.5852 83.2904 102.535 89.6496C105.218 95.3702 105.352 100.905 102.911 104.443C100.899 107.344 93.7383 112.08 87.4086 114.687C76.0903 119.317 61.7948 119.423 50.2619 114.953C43.9591 112.505 35.7788 107.211 33.9818 104.417C31.8898 101.144 31.7825 96.8602 33.6063 91.5387C36.3152 83.7161 43.5568 77.8358 52.0053 76.5852C52.8904 76.4522 60.7488 76.3724 69.4387 76.399L69.5563 76.3994C84.8896 76.4522 85.3219 76.4537 87.4086 77.0376Z" fill="white"/>
<path d="M73.1936 20.8157C80.4084 22.3324 86.3894 27.2282 89.3665 34.0397C90.6002 36.9133 91.083 39.441 91.083 43.0331C91.0562 49.3125 88.7228 54.6606 84.0828 59.0508C81.6153 61.4189 78.9601 63.042 75.9293 64.0797C62.1167 68.7892 47.4726 59.5298 45.9706 45.1085C44.7905 33.747 52.4612 23.237 63.6991 20.8157C65.9789 20.3368 70.8602 20.3368 73.1936 20.8157Z" fill="white"/>
</g>
</svg>
