<svg width="25" height="26" viewBox="0 0 25 26" fill="none" xmlns="http://www.w3.org/2000/svg">
<path d="M13.6365 7.64282H11.3638V14.7857H13.6365V7.64282Z" fill="#041E4E"/>
<path d="M19.3181 11.2144H17.0454V14.7858H19.3181V11.2144Z" fill="#041E4E"/>
<path d="M7.95437 9.42847H5.68164V14.7856H7.95437V9.42847Z" fill="#041E4E"/>
<path d="M22.7273 2.28571H13.6364V0.5H11.3636V2.28571H2.27273C1.66996 2.28571 1.09189 2.47385 0.665666 2.80874C0.239447 3.14362 0 3.59783 0 4.07143V16.5714C0 17.045 0.239447 17.4992 0.665666 17.8341C1.09189 18.169 1.66996 18.3571 2.27273 18.3571H11.3636V23.7143H6.81818V25.5H18.1818V23.7143H13.6364V18.3571H22.7273C23.33 18.3571 23.9081 18.169 24.3343 17.8341C24.7606 17.4992 25 17.045 25 16.5714V4.07143C25 3.59783 24.7606 3.14362 24.3343 2.80874C23.9081 2.47385 23.33 2.28571 22.7273 2.28571ZM22.7273 16.5714H2.27273V4.07143H22.7273V16.5714Z" fill="#041E4E"/>
</svg>
