<svg width="55" height="50" viewBox="0 0 55 50" fill="none" xmlns="http://www.w3.org/2000/svg">
<path d="M6.85035 0.0606079C6.06524 0.187683 5.29089 0.432053 4.34446 0.871918C3.67765 1.18471 3.25821 1.47795 2.46235 2.21107C1.35459 3.21787 0.795338 4.02918 0.300613 5.38788L0.0424955 6.07211L0.0102308 14.322C-0.0220339 23.2562 -0.011279 23.3931 0.558731 24.6931C1.39761 26.5601 3.07538 28.0752 5.18334 28.8474C5.53825 28.9842 5.98995 29.1113 6.18354 29.1504L6.54921 29.2091V31.6137C6.54921 33.8716 6.55996 34.0378 6.77506 34.4484C6.94714 34.7709 7.11922 34.9273 7.45262 35.0642C8.51736 35.504 8.67868 35.4063 12.2493 32.1708L15.3145 29.385H17.3901H19.4551V26.8338C19.4551 25.436 19.5089 23.9698 19.5734 23.5886C20.3262 19.0237 24.1872 15.5146 29.2098 14.8303C29.6292 14.7717 31.2425 14.7228 32.7804 14.7228H35.5874V10.7836C35.5874 6.64882 35.5337 6.05256 35.0927 4.90891C34.2431 2.69981 32.3395 1.04786 29.726 0.24633L28.9732 0.011734L18.1645 0.00196075C12.217 -0.0078125 7.12997 0.0215111 6.85035 0.0606079ZM18.713 6.02324C20.1864 6.27738 21.5415 7.21576 22.1546 8.40829C23.1333 10.3046 22.66 12.2693 20.907 13.7062C20.0036 14.4393 19.6057 15.0845 19.4981 15.9447C19.4013 16.7462 19.1217 17.2154 18.5947 17.4598C17.4332 17.9974 16.2286 17.2643 16.2286 16.0229C16.2286 15.3386 16.5082 14.3807 16.9492 13.5596C17.2396 12.9927 17.5515 12.631 18.2936 11.9468C18.8313 11.458 19.3045 10.9595 19.3583 10.8324C19.7347 9.93316 18.9066 8.85793 17.8419 8.85793C17.0245 8.85793 16.2286 9.58126 16.2286 10.3242C16.2286 11.067 15.4328 11.7904 14.6154 11.7904C14.0454 11.7904 13.4539 11.4385 13.1957 10.9595C12.9806 10.5587 12.9699 10.461 13.0774 9.79631C13.4754 7.25486 16.0135 5.56382 18.713 6.02324ZM18.5947 20.7832C19.0787 21.008 19.4551 21.5652 19.4551 22.0539C19.4551 22.7968 18.6592 23.5201 17.8419 23.5201C17.3041 23.5201 16.6911 23.178 16.4437 22.7381C16.1748 22.2494 16.1748 21.8584 16.4437 21.3697C16.8416 20.6561 17.7773 20.402 18.5947 20.7832Z" fill="#E7ECF6"/>
<path d="M29.7258 17.7138C28.6073 17.9191 28.2524 18.0071 27.6824 18.2221C25.3378 19.1214 23.5202 21.0568 22.8857 23.3246C22.6598 24.1163 22.6598 37.586 22.8857 38.3778C23.5202 40.626 25.3271 42.5712 27.6286 43.4607C28.6718 43.8614 29.2634 43.9592 30.8336 44.0178L32.3608 44.0765V46.4224C32.3608 48.6315 32.3715 48.7977 32.5866 49.2082C32.7587 49.5308 32.9308 49.6872 33.2642 49.8241C33.8234 50.0586 34.1568 50.0586 34.6408 49.8241C34.8667 49.7263 36.4046 48.3872 38.0716 46.8427L41.0937 44.0471H44.2879C46.041 44.0471 47.7833 43.9983 48.1597 43.9396C51.2894 43.4802 53.7738 41.4959 54.7525 38.671L54.9998 37.9379V30.8512V23.7644L54.7525 23.0313C53.7738 20.2064 51.2894 18.2221 48.1597 17.7627C47.5144 17.665 30.242 17.6259 29.7258 17.7138ZM47.6327 26.6578C48.3856 27.039 48.6867 27.8699 48.321 28.5345C48.0952 28.9451 38.6954 37.5274 38.0716 37.8988C37.0499 38.4951 36.5659 38.28 34.2859 36.1687C32.6511 34.6536 32.3608 34.3017 32.3608 33.7738C32.3608 33.07 33.1889 32.3174 33.9632 32.3174C34.5117 32.3174 34.9204 32.5715 36.1035 33.6272L37.2112 34.6047L41.4809 30.7339C43.8255 28.603 45.9227 26.7653 46.127 26.6578C46.611 26.3939 47.1165 26.3939 47.6327 26.6578Z" fill="#E7ECF6"/>
</svg>
