<svg width="50" height="50" viewBox="0 0 50 50" fill="none" xmlns="http://www.w3.org/2000/svg">
<g clip-path="url(#clip0_1214_2)">
<path d="M35.9375 42.5L31.875 38.4375L29.6875 40.625L35.9375 46.875L46.875 35.9375L44.6875 33.75L35.9375 42.5Z" fill="white"/>
<path d="M31.25 28.125H18.75V31.25H31.25V28.125Z" fill="white"/>
<path d="M31.25 20.3125H18.75V23.4375H31.25V20.3125Z" fill="white"/>
<path d="M31.25 12.5H18.75V15.625H31.25V12.5Z" fill="white"/>
<path d="M25 43.75H9.375V37.5H12.5V34.375H9.375V26.5625H12.5V23.4375H9.375V15.625H12.5V12.5H9.375V6.25H37.5V31.25H40.625V6.25C40.625 4.53125 39.2188 3.125 37.5 3.125H9.375C7.65625 3.125 6.25 4.53125 6.25 6.25V12.5H3.125V15.625H6.25V23.4375H3.125V26.5625H6.25V34.375H3.125V37.5H6.25V43.75C6.25 45.4688 7.65625 46.875 9.375 46.875H25V43.75Z" fill="white"/>
</g>
<defs>
<clipPath id="clip0_1214_2">
<rect width="50" height="50" fill="white"/>
</clipPath>
</defs>
</svg>
