<?xml version="1.0" standalone="no"?>
<!DOCTYPE svg PUBLIC "-//W3C//DTD SVG 20010904//EN"
 "http://www.w3.org/TR/2001/REC-SVG-20010904/DTD/svg10.dtd">
<svg version="1.0" xmlns="http://www.w3.org/2000/svg"
 width="512.000000pt" height="512.000000pt" viewBox="0 0 512.000000 512.000000"
 preserveAspectRatio="xMidYMid meet">

<g transform="translate(0.000000,512.000000) scale(0.100000,-0.100000)"
fill="#000000" stroke="none">
<path d="M866 4319 c-62 -15 -153 -68 -197 -116 -22 -24 -55 -74 -72 -111
l-32 -67 0 -1471 0 -1470 37 -76 c45 -91 103 -147 196 -191 l67 -32 1696 0
1695 0 76 37 c91 45 147 103 191 196 l32 67 0 1470 0 1470 -32 67 c-44 93
-100 151 -191 196 l-76 37 -1675 2 c-990 0 -1692 -3 -1715 -8z m3368 -161 c55
-16 138 -99 154 -154 9 -31 12 -303 12 -1125 l0 -1084 -583 583 c-544 544
-585 582 -617 582 -32 0 -57 -23 -337 -302 l-303 -303 -463 463 c-431 431
-465 462 -497 462 -32 0 -64 -29 -457 -422 l-423 -423 0 764 c0 570 3 774 12
805 15 51 99 137 148 153 53 17 3298 17 3354 1z m-2169 -1538 c429 -428 463
-460 495 -460 32 0 58 23 337 302 l303 303 600 -600 600 -600 0 -209 c0 -135
-4 -223 -12 -250 -16 -55 -99 -138 -154 -154 -60 -17 -3288 -17 -3348 0 -55
16 -138 99 -154 154 -9 30 -12 184 -12 570 l0 529 437 437 c241 241 440 438
443 438 3 0 212 -207 465 -460z"/>
<path d="M3426 3910 c-63 -16 -153 -70 -197 -117 -22 -24 -55 -74 -72 -111
-29 -61 -32 -76 -32 -163 0 -90 2 -99 37 -171 45 -91 103 -147 196 -191 61
-29 76 -32 162 -32 86 0 101 3 162 32 93 44 151 100 196 191 35 72 37 81 37
172 0 91 -2 100 -37 172 -68 136 -188 217 -336 224 -42 2 -94 -1 -116 -6z
m168 -162 c86 -26 166 -136 166 -228 0 -124 -116 -240 -240 -240 -63 0 -114
23 -165 75 -102 101 -102 229 0 330 70 71 145 90 239 63z"/>
</g>
</svg>
