<svg width="131" height="30" viewBox="0 0 131 30" fill="none" xmlns="http://www.w3.org/2000/svg">
<path d="M6.92278 29.1056C5.54345 29.1056 4.32997 28.8281 3.28235 28.2732C2.24791 27.7061 1.43901 26.9229 0.855402 25.9241C0.285217 24.913 0 23.7292 0 22.3727C0 21.0161 0.285217 19.8386 0.855402 18.8397C1.43901 17.8285 2.24791 17.0455 3.28235 16.4906C4.31679 15.9357 5.53027 15.6582 6.92278 15.6582C8.31529 15.6582 9.52877 15.9357 10.5632 16.4906C11.6108 17.0455 12.42 17.8285 12.9902 18.8397C13.5738 19.8386 13.8655 21.0101 13.8655 22.3542C13.8655 23.7107 13.5738 24.8945 12.9902 25.9056C12.42 26.9167 11.6108 27.7061 10.5632 28.2732C9.52877 28.8281 8.31529 29.1056 6.92278 29.1056ZM6.92278 26.664C8.08975 26.664 8.99837 26.2878 9.64813 25.5357C10.3113 24.771 10.6428 23.7167 10.6428 22.3727C10.6428 21.0161 10.3178 19.968 9.66802 19.2281C9.01826 18.4759 8.10318 18.0998 6.92278 18.0998C5.76898 18.0998 4.86062 18.4759 4.19743 19.2281C3.54768 19.968 3.22268 21.0161 3.22268 22.3727C3.22268 23.7167 3.54768 24.771 4.19743 25.5357C4.86062 26.2878 5.76898 26.664 6.92278 26.664ZM16.2506 28.9021V15.8617H25.7197V18.0998H19.3341V21.2813H25.2821V23.5195H19.3341V28.9021H16.2506ZM31.1709 28.9021V18.2293H26.5358V15.8617H38.8894V18.2293H34.2543V28.9021H31.1709ZM40.398 28.9021V15.8617H43.4815V26.479H49.9666V28.9021H40.398ZM51.8017 28.9021V15.8617H61.4101V18.0998H54.7459V21.1518H60.9724V23.4085H54.7459V26.664H61.4101V28.9021H51.8017ZM68.6651 29.1056C67.5642 29.1056 66.5233 28.9761 65.5419 28.7172C64.5738 28.4582 63.7647 28.1068 63.1149 27.6628L64.0101 25.4062C64.6335 25.8131 65.3429 26.1338 66.1387 26.368C66.9476 26.6022 67.7898 26.7195 68.6651 26.7195C69.6199 26.7195 70.303 26.5838 70.7141 26.3125C71.1385 26.0288 71.3506 25.6774 71.3506 25.2582C71.3506 24.9005 71.2047 24.617 70.913 24.4073C70.6213 24.1976 70.1106 24.0189 69.3812 23.8709L67.1333 23.427C64.6268 22.9338 63.3735 21.7253 63.3735 19.8016C63.3735 18.9754 63.6122 18.254 64.0897 17.6374C64.5671 17.0085 65.2303 16.5214 66.079 16.1761C66.9411 15.8309 67.9357 15.6582 69.0629 15.6582C70.031 15.6582 70.9396 15.7877 71.7883 16.0466C72.637 16.3056 73.3399 16.6694 73.8969 17.138L73.0018 19.2466C71.9144 18.4451 70.5947 18.0443 69.043 18.0443C68.2075 18.0443 67.5578 18.1985 67.0935 18.5068C66.6427 18.8027 66.4172 19.1912 66.4172 19.6721C66.4172 20.0298 66.5564 20.3195 66.8349 20.5414C67.1134 20.7634 67.5976 20.9421 68.2871 21.0779L70.535 21.5218C73.1079 22.0397 74.3943 23.2113 74.3943 25.0362C74.3943 25.8501 74.1556 26.5653 73.6781 27.1819C73.2139 27.7861 72.5509 28.261 71.6888 28.6062C70.8401 28.9391 69.832 29.1056 68.6651 29.1056ZM81.4091 29.1056C80.3082 29.1056 79.2673 28.9761 78.2858 28.7172C77.3178 28.4582 76.5087 28.1068 75.8589 27.6628L76.7541 25.4062C77.3775 25.8131 78.0869 26.1338 78.8826 26.368C79.6915 26.6022 80.5338 26.7195 81.4091 26.7195C82.3639 26.7195 83.047 26.5838 83.458 26.3125C83.8825 26.0288 84.0946 25.6774 84.0946 25.2582C84.0946 24.9005 83.9486 24.617 83.657 24.4073C83.3653 24.1976 82.8545 24.0189 82.1252 23.8709L79.8773 23.427C77.3708 22.9338 76.1175 21.7253 76.1175 19.8016C76.1175 18.9754 76.3562 18.254 76.8337 17.6374C77.3111 17.0085 77.9743 16.5214 78.823 16.1761C79.6851 15.8309 80.6797 15.6582 81.8069 15.6582C82.775 15.6582 83.6836 15.7877 84.5323 16.0466C85.381 16.3056 86.0839 16.6694 86.6409 17.138L85.7457 19.2466C84.6583 18.4451 83.3387 18.0443 81.787 18.0443C80.9515 18.0443 80.3018 18.1985 79.8375 18.5068C79.3867 18.8027 79.1611 19.1912 79.1611 19.6721C79.1611 20.0298 79.3004 20.3195 79.5789 20.5414C79.8574 20.7634 80.3415 20.9421 81.0311 21.0779L83.279 21.5218C85.8519 22.0397 87.1383 23.2113 87.1383 25.0362C87.1383 25.8501 86.8995 26.5653 86.4221 27.1819C85.9578 27.7861 85.2949 28.261 84.4328 28.6062C83.5841 28.9391 82.576 29.1056 81.4091 29.1056ZM95.645 29.1056C94.2657 29.1056 93.0522 28.8281 92.0046 28.2732C90.9702 27.7061 90.1612 26.9229 89.5776 25.9241C89.0075 24.913 88.7222 23.7292 88.7222 22.3727C88.7222 21.0161 89.0075 19.8386 89.5776 18.8397C90.1612 17.8285 90.9702 17.0455 92.0046 16.4906C93.039 15.9357 94.2525 15.6582 95.645 15.6582C97.0375 15.6582 98.251 15.9357 99.2854 16.4906C100.333 17.0455 101.142 17.8285 101.712 18.8397C102.296 19.8386 102.588 21.0101 102.588 22.3542C102.588 23.7107 102.296 24.8945 101.712 25.9056C101.142 26.9167 100.333 27.7061 99.2854 28.2732C98.251 28.8281 97.0375 29.1056 95.645 29.1056ZM95.645 26.664C96.812 26.664 97.7206 26.2878 98.3704 25.5357C99.0335 24.771 99.365 23.7167 99.365 22.3727C99.365 21.0161 99.04 19.968 98.3903 19.2281C97.7405 18.4759 96.8254 18.0998 95.645 18.0998C94.4912 18.0998 93.5829 18.4759 92.9197 19.2281C92.2699 19.968 91.9449 21.0161 91.9449 22.3727C91.9449 23.7167 92.2699 24.771 92.9197 25.5357C93.5829 26.2878 94.4912 26.664 95.645 26.664ZM104.973 28.9021V15.8617H107.261L114.263 24.1669V15.8617H117.128V28.9021H114.86L107.837 20.5784V28.9021H104.973ZM124.964 29.1056C123.863 29.1056 122.822 28.9761 121.841 28.7172C120.873 28.4582 120.063 28.1068 119.414 27.6628L120.309 25.4062C120.932 25.8131 121.642 26.1338 122.437 26.368C123.246 26.6022 124.089 26.7195 124.964 26.7195C125.919 26.7195 126.602 26.5838 127.013 26.3125C127.437 26.0288 127.649 25.6774 127.649 25.2582C127.649 24.9005 127.503 24.617 127.212 24.4073C126.92 24.1976 126.409 24.0189 125.68 23.8709L123.432 23.427C120.926 22.9338 119.672 21.7253 119.672 19.8016C119.672 18.9754 119.911 18.254 120.388 17.6374C120.866 17.0085 121.529 16.5214 122.378 16.1761C123.24 15.8309 124.235 15.6582 125.362 15.6582C126.33 15.6582 127.238 15.7877 128.087 16.0466C128.936 16.3056 129.639 16.6694 130.196 17.138L129.301 19.2466C128.213 18.4451 126.894 18.0443 125.342 18.0443C124.506 18.0443 123.857 18.1985 123.392 18.5068C122.942 18.8027 122.716 19.1912 122.716 19.6721C122.716 20.0298 122.855 20.3195 123.134 20.5414C123.412 20.7634 123.896 20.9421 124.586 21.0779L126.834 21.5218C129.407 22.0397 130.693 23.2113 130.693 25.0362C130.693 25.8501 130.454 26.5653 129.977 27.1819C129.513 27.7861 128.85 28.261 127.988 28.6062C127.139 28.9391 126.131 29.1056 124.964 29.1056Z" fill="white"/>
<path fill-rule="evenodd" clip-rule="evenodd" d="M96.7315 0C95.6329 0 94.7422 0.828139 94.7422 1.84971V10.1734C94.7422 11.195 95.6329 12.0231 96.7315 12.0231H128.312C129.41 12.0231 130.301 11.195 130.301 10.1734V1.84971C130.301 0.828139 129.41 0 128.312 0H96.7315ZM102.005 8.76557L102.84 10.0234L103.89 9.57205L103.286 8.66939C103.127 8.41783 102.925 8.2575 102.681 8.18846C103.127 7.98129 103.474 7.67054 103.723 7.25621C103.978 6.83692 104.105 6.34368 104.105 5.77644C104.105 5.23877 103.989 4.7702 103.755 4.37066C103.527 3.96617 103.203 3.65297 102.784 3.43101C102.371 3.20904 101.885 3.09806 101.328 3.09806C100.771 3.09806 100.286 3.20904 99.8721 3.43101C99.4583 3.65297 99.1348 3.96617 98.9013 4.37066C98.6733 4.7702 98.5592 5.24125 98.5592 5.78384C98.5592 6.32148 98.6733 6.79253 98.9013 7.19702C99.1348 7.60148 99.4583 7.91471 99.8721 8.13667C100.286 8.35864 100.769 8.47207 101.32 8.47702C101.639 8.47702 101.867 8.5732 102.005 8.76557ZM102.418 7.04904C102.159 7.34992 101.795 7.50037 101.328 7.50037C100.867 7.50037 100.503 7.34992 100.238 7.04904C99.9783 6.74321 99.8482 6.32148 99.8482 5.78384C99.8482 5.24125 99.9783 4.82199 100.238 4.52603C100.503 4.22513 100.867 4.07471 101.328 4.07471C101.8 4.07471 102.167 4.22513 102.426 4.52603C102.686 4.82199 102.816 5.24125 102.816 5.78384C102.816 6.32148 102.684 6.74321 102.418 7.04904ZM105.012 5.96881V6.84927H107.471V5.96881H105.012ZM108.564 3.17945V8.39563H111.222C111.821 8.39563 112.293 8.26737 112.638 8.01089C112.988 7.74946 113.163 7.38691 113.163 6.92326C113.163 6.61251 113.076 6.35108 112.901 6.13898C112.731 5.92687 112.487 5.77889 112.169 5.69505C112.434 5.59639 112.641 5.44842 112.789 5.25112C112.938 5.04888 113.012 4.80964 113.012 4.53343C113.012 4.11415 112.848 3.78368 112.519 3.54199C112.195 3.30028 111.734 3.17945 111.134 3.17945H108.564ZM110.919 5.32511H109.742V4.03031H110.919C111.524 4.03031 111.826 4.24488 111.826 4.67401C111.826 5.10807 111.524 5.32511 110.919 5.32511ZM111.055 7.54476H109.742V6.17598H111.055C111.373 6.17598 111.606 6.23269 111.755 6.34615C111.903 6.45958 111.978 6.62976 111.978 6.85667C111.978 7.08849 111.903 7.26113 111.755 7.37459C111.606 7.48802 111.373 7.54476 111.055 7.54476ZM114.542 8.32164C114.765 8.42523 115.022 8.47702 115.314 8.47702C115.585 8.47702 115.813 8.42028 115.998 8.30684C116.19 8.19339 116.325 8.04049 116.404 7.84812V8.39563H117.526V6.24997C117.526 5.71725 117.378 5.32511 117.081 5.07355C116.784 4.81704 116.333 4.68881 115.728 4.68881C115.532 4.68881 115.325 4.70853 115.107 4.748C114.89 4.78252 114.68 4.83431 114.479 4.90338C114.282 4.97242 114.115 5.04888 113.977 5.13274L114.304 5.88002C114.537 5.75669 114.771 5.66546 115.004 5.60627C115.242 5.54213 115.468 5.51008 115.68 5.51008C115.935 5.51008 116.115 5.55692 116.221 5.65066C116.327 5.73944 116.381 5.89235 116.381 6.10939V6.23517H116.094C115.542 6.23517 115.099 6.26969 114.765 6.33875C114.431 6.40287 114.19 6.51385 114.041 6.6717C113.892 6.82953 113.818 7.03917 113.818 7.3006C113.818 7.52257 113.882 7.72233 114.009 7.89991C114.142 8.07748 114.319 8.21806 114.542 8.32164ZM116.15 7.51517C115.996 7.6582 115.808 7.72973 115.585 7.72973C115.388 7.72973 115.237 7.68534 115.131 7.59655C115.03 7.50777 114.98 7.39431 114.98 7.25621C114.98 7.09343 115.065 6.97998 115.235 6.91586C115.404 6.8468 115.694 6.81228 116.102 6.81228H116.381V6.96025C116.381 7.18714 116.304 7.37212 116.15 7.51517ZM118.423 4.7628V8.39563H119.624V6.36835C119.624 6.12171 119.699 5.92442 119.847 5.77644C120.001 5.62846 120.205 5.55447 120.46 5.55447C120.656 5.55447 120.805 5.61119 120.905 5.72465C121.006 5.83316 121.056 6.0132 121.056 6.26476V8.39563H122.258V6.21297C122.258 5.69505 122.144 5.31276 121.916 5.06615C121.688 4.81459 121.343 4.68881 120.881 4.68881C120.606 4.68881 120.356 4.7406 120.133 4.84418C119.911 4.94777 119.733 5.0982 119.6 5.29551V4.7628H118.423ZM123.155 3.17945V8.39563H124.356V6.82708H124.372L125.868 8.39563H127.317L125.582 6.50153L127.237 4.7628H125.813L124.372 6.26476H124.356V3.17945H123.155Z" fill="url(#paint0_linear_3009_7637)"/>
<defs>
<linearGradient id="paint0_linear_3009_7637" x1="102.202" y1="12.0231" x2="130.301" y2="12.0231" gradientUnits="userSpaceOnUse">
<stop stop-color="#F6D365"/>
<stop offset="1" stop-color="#FFBF23"/>
</linearGradient>
</defs>
</svg>
