<svg width="748" height="173" viewBox="0 0 748 173" fill="none" xmlns="http://www.w3.org/2000/svg">
<path fill-rule="evenodd" clip-rule="evenodd" d="M103.015 158.189C141.797 151.113 167.8 112.833 161.094 72.6885C154.388 32.5437 117.513 5.73586 78.7304 12.8114C57.2421 16.7318 39.677 30.2319 29.4251 48.3209C39.7121 33.2005 55.8908 22.0008 75.2969 18.4603C113.016 11.5787 148.645 36.2386 154.876 73.5398C161.107 110.841 135.58 146.658 97.8609 153.54C77.0119 157.344 56.8017 151.511 41.8416 139.233C57.6095 154.637 79.9756 162.392 103.015 158.189Z" fill="url(#paint0_linear_871_158)"/>
<ellipse cx="50.7264" cy="75.1636" rx="3.72641" ry="3.66115" fill="white"/>
<ellipse cx="61.1605" cy="75.1636" rx="3.72641" ry="3.66115" fill="white"/>
<ellipse cx="71.5946" cy="64.9124" rx="3.72641" ry="3.66115" fill="white"/>
<ellipse cx="71.5946" cy="54.6611" rx="3.72641" ry="3.66115" fill="white"/>
<ellipse cx="82.0287" cy="54.6611" rx="3.72641" ry="3.66115" fill="white"/>
<ellipse cx="61.1605" cy="64.9124" rx="3.72641" ry="3.66115" fill="white"/>
<ellipse cx="122.273" cy="64.9124" rx="3.72641" ry="3.66115" fill="white"/>
<ellipse cx="111.84" cy="64.9124" rx="3.72641" ry="3.66115" fill="white"/>
<ellipse cx="101.406" cy="64.9124" rx="3.72641" ry="3.66115" fill="white"/>
<ellipse cx="101.406" cy="54.6611" rx="3.72641" ry="3.66115" fill="white"/>
<path d="M81.2832 128.268C82.1596 128.938 83.337 129 84.4399 129H105.557C106.267 129 106.981 128.971 107.665 128.78C108.082 128.664 108.539 128.496 108.859 128.268C109.417 127.868 109.886 127.044 110.141 126.526C110.289 126.227 110.421 125.921 110.565 125.62L114.742 116.901C115.775 114.743 116.312 112.354 116.312 109.962V94.5031C116.312 93.1224 116.093 91.4599 114.821 90.9242C114.018 90.5862 113.388 90.5862 112.585 90.9242C111.313 91.4599 111.095 93.1224 111.095 94.5031V96.782H108.113V91.5741C108.113 90.1935 107.895 88.531 106.623 87.9952C105.82 87.6573 105.19 87.6573 104.387 87.9952C103.115 88.531 102.896 90.1935 102.896 91.5741V96.782H99.9153V89.3774C99.9153 87.9968 99.6972 86.3343 98.4247 85.7986C97.6222 85.4606 96.9915 85.4606 96.1889 85.7986C94.9165 86.3343 94.6983 87.9968 94.6983 89.3774V96.782H91.7172V89.4597V73.9938C91.7172 72.6208 91.4589 71.0271 90.2266 70.4217C89.1853 69.9102 88.2868 69.9102 87.2455 70.4217C86.0132 71.0271 85.7549 72.6208 85.7549 73.9938V89.4597V99.7498C85.7549 100.212 85.7763 100.673 85.8014 101.134C85.8436 101.911 85.8817 103.183 85.7549 104.104C85.7126 104.412 85.6409 104.761 85.5582 105.107C85.2498 106.401 84.8021 107.841 83.6199 108.45C83.5864 108.468 83.5527 108.484 83.5191 108.498C82.7165 108.836 82.0858 108.836 81.2832 108.498C79.9918 107.954 79.6008 106.346 79.2611 104.987C79.1841 104.679 79.1099 104.374 79.0474 104.104C78.8937 103.441 78.7212 102.599 78.5808 101.89C78.3904 100.928 78.3021 99.9499 78.3021 98.9695V96.782V96.6929C78.3021 95.3199 78.0438 93.7262 76.8115 93.1209C75.7702 92.6093 74.8717 92.6093 73.8304 93.1209C72.5981 93.7262 72.3398 95.3199 72.3398 96.6929V103.981C72.3398 105.517 72.5916 107.043 73.0851 108.498L79.69 125.802C79.7585 125.982 79.8294 126.16 79.9125 126.332C80.1394 126.805 80.6651 127.796 81.2832 128.268Z" fill="white" stroke="white"/>
<path d="M219.84 140.88C214.293 140.88 209.413 139.68 205.2 137.28C201.04 134.827 197.787 131.44 195.44 127.12C193.147 122.747 192 117.627 192 111.76C192 105.893 193.147 100.8 195.44 96.48C197.787 92.1067 201.04 88.72 205.2 86.32C209.36 83.92 214.24 82.72 219.84 82.72C225.44 82.72 230.32 83.92 234.48 86.32C238.693 88.72 241.947 92.1067 244.24 96.48C246.587 100.8 247.76 105.867 247.76 111.68C247.76 117.547 246.587 122.667 244.24 127.04C241.947 131.413 238.693 134.827 234.48 137.28C230.32 139.68 225.44 140.88 219.84 140.88ZM219.84 130.32C224.533 130.32 228.187 128.693 230.8 125.44C233.467 122.133 234.8 117.573 234.8 111.76C234.8 105.893 233.493 101.36 230.88 98.16C228.267 94.9067 224.587 93.28 219.84 93.28C215.2 93.28 211.547 94.9067 208.88 98.16C206.267 101.36 204.96 105.893 204.96 111.76C204.96 117.573 206.267 122.133 208.88 125.44C211.547 128.693 215.2 130.32 219.84 130.32ZM257.352 140V83.6H295.432V93.28H269.752V107.04H293.672V116.72H269.752V140H257.352ZM317.354 140V93.84H298.714V83.6H348.394V93.84H329.754V140H317.354ZM354.461 140V83.6H366.861V129.52H392.941V140H354.461ZM400.321 140V83.6H438.961V93.28H412.161V106.48H437.201V116.24H412.161V130.32H438.961V140H400.321ZM468.137 140.88C463.71 140.88 459.524 140.32 455.577 139.2C451.684 138.08 448.43 136.56 445.817 134.64L449.417 124.88C451.924 126.64 454.777 128.027 457.977 129.04C461.23 130.053 464.617 130.56 468.137 130.56C471.977 130.56 474.724 129.973 476.377 128.8C478.084 127.573 478.937 126.053 478.937 124.24C478.937 122.693 478.35 121.467 477.177 120.56C476.004 119.653 473.95 118.88 471.017 118.24L461.977 116.32C451.897 114.187 446.857 108.96 446.857 100.64C446.857 97.0667 447.817 93.9467 449.737 91.28C451.657 88.56 454.324 86.4533 457.737 84.96C461.204 83.4667 465.204 82.72 469.737 82.72C473.63 82.72 477.284 83.28 480.697 84.4C484.11 85.52 486.937 87.0933 489.177 89.12L485.577 98.24C481.204 94.7733 475.897 93.04 469.657 93.04C466.297 93.04 463.684 93.7067 461.817 95.04C460.004 96.32 459.097 98 459.097 100.08C459.097 101.627 459.657 102.88 460.777 103.84C461.897 104.8 463.844 105.573 466.617 106.16L475.657 108.08C486.004 110.32 491.177 115.387 491.177 123.28C491.177 126.8 490.217 129.893 488.297 132.56C486.43 135.173 483.764 137.227 480.297 138.72C476.884 140.16 472.83 140.88 468.137 140.88ZM519.387 140.88C514.96 140.88 510.774 140.32 506.827 139.2C502.934 138.08 499.68 136.56 497.067 134.64L500.667 124.88C503.174 126.64 506.027 128.027 509.227 129.04C512.48 130.053 515.867 130.56 519.387 130.56C523.227 130.56 525.974 129.973 527.627 128.8C529.334 127.573 530.187 126.053 530.187 124.24C530.187 122.693 529.6 121.467 528.427 120.56C527.254 119.653 525.2 118.88 522.267 118.24L513.227 116.32C503.147 114.187 498.107 108.96 498.107 100.64C498.107 97.0667 499.067 93.9467 500.987 91.28C502.907 88.56 505.574 86.4533 508.987 84.96C512.454 83.4667 516.454 82.72 520.987 82.72C524.88 82.72 528.534 83.28 531.947 84.4C535.36 85.52 538.187 87.0933 540.427 89.12L536.827 98.24C532.454 94.7733 527.147 93.04 520.907 93.04C517.547 93.04 514.934 93.7067 513.067 95.04C511.254 96.32 510.347 98 510.347 100.08C510.347 101.627 510.907 102.88 512.027 103.84C513.147 104.8 515.094 105.573 517.867 106.16L526.907 108.08C537.254 110.32 542.427 115.387 542.427 123.28C542.427 126.8 541.467 129.893 539.547 132.56C537.68 135.173 535.014 137.227 531.547 138.72C528.134 140.16 524.08 140.88 519.387 140.88ZM576.637 140.88C571.09 140.88 566.21 139.68 561.997 137.28C557.837 134.827 554.584 131.44 552.237 127.12C549.944 122.747 548.797 117.627 548.797 111.76C548.797 105.893 549.944 100.8 552.237 96.48C554.584 92.1067 557.837 88.72 561.997 86.32C566.157 83.92 571.037 82.72 576.637 82.72C582.237 82.72 587.117 83.92 591.277 86.32C595.49 88.72 598.744 92.1067 601.037 96.48C603.384 100.8 604.557 105.867 604.557 111.68C604.557 117.547 603.384 122.667 601.037 127.04C598.744 131.413 595.49 134.827 591.277 137.28C587.117 139.68 582.237 140.88 576.637 140.88ZM576.637 130.32C581.33 130.32 584.984 128.693 587.597 125.44C590.264 122.133 591.597 117.573 591.597 111.76C591.597 105.893 590.29 101.36 587.677 98.16C585.064 94.9067 581.384 93.28 576.637 93.28C571.997 93.28 568.344 94.9067 565.677 98.16C563.064 101.36 561.757 105.893 561.757 111.76C561.757 117.573 563.064 122.133 565.677 125.44C568.344 128.693 571.997 130.32 576.637 130.32ZM614.149 140V83.6H623.349L651.509 119.52V83.6H663.029V140H653.909L625.669 104V140H614.149ZM694.543 140.88C690.116 140.88 685.93 140.32 681.983 139.2C678.09 138.08 674.836 136.56 672.223 134.64L675.823 124.88C678.33 126.64 681.183 128.027 684.383 129.04C687.636 130.053 691.023 130.56 694.543 130.56C698.383 130.56 701.13 129.973 702.783 128.8C704.49 127.573 705.343 126.053 705.343 124.24C705.343 122.693 704.756 121.467 703.583 120.56C702.41 119.653 700.356 118.88 697.423 118.24L688.383 116.32C678.303 114.187 673.263 108.96 673.263 100.64C673.263 97.0667 674.223 93.9467 676.143 91.28C678.063 88.56 680.73 86.4533 684.143 84.96C687.61 83.4667 691.61 82.72 696.143 82.72C700.036 82.72 703.69 83.28 707.103 84.4C710.516 85.52 713.343 87.0933 715.583 89.12L711.983 98.24C707.61 94.7733 702.303 93.04 696.063 93.04C692.703 93.04 690.09 93.7067 688.223 95.04C686.41 96.32 685.503 98 685.503 100.08C685.503 101.627 686.063 102.88 687.183 103.84C688.303 104.8 690.25 105.573 693.023 106.16L702.063 108.08C712.41 110.32 717.583 115.387 717.583 123.28C717.583 126.8 716.623 129.893 714.703 132.56C712.836 135.173 710.17 137.227 706.703 138.72C703.29 140.16 699.236 140.88 694.543 140.88Z" fill="white"/>
<path fill-rule="evenodd" clip-rule="evenodd" d="M579 12C574.582 12 571 15.5817 571 20V59C571 63.4183 574.582 67 579 67H708C712.418 67 716 63.4183 716 59V20C716 15.5817 712.418 12 708 12H579ZM601.213 52.0443L604.573 57.4843L608.797 55.5323L606.365 51.6283C605.725 50.5403 604.914 49.847 603.933 49.5483C605.725 48.6523 607.122 47.3083 608.125 45.5163C609.149 43.703 609.661 41.5697 609.661 39.1163C609.661 36.791 609.192 34.7643 608.253 33.0363C607.336 31.287 606.034 29.9323 604.349 28.9723C602.685 28.0123 600.733 27.5323 598.493 27.5323C596.253 27.5323 594.301 28.0123 592.637 28.9723C590.973 29.9323 589.672 31.287 588.733 33.0363C587.816 34.7643 587.357 36.8017 587.357 39.1483C587.357 41.4737 587.816 43.511 588.733 45.2603C589.672 47.0097 590.973 48.3643 592.637 49.3243C594.301 50.2843 596.242 50.775 598.461 50.7963C599.741 50.7963 600.658 51.2123 601.213 52.0443ZM602.877 44.6203C601.832 45.9217 600.37 46.5723 598.493 46.5723C596.637 46.5723 595.176 45.9217 594.109 44.6203C593.064 43.2977 592.541 41.4737 592.541 39.1483C592.541 36.8017 593.064 34.9883 594.109 33.7083C595.176 32.407 596.637 31.7563 598.493 31.7563C600.392 31.7563 601.864 32.407 602.909 33.7083C603.954 34.9883 604.477 36.8017 604.477 39.1483C604.477 41.4737 603.944 43.2977 602.877 44.6203ZM613.306 39.9483V43.7563H623.194V39.9483H613.306ZM627.591 27.8843V50.4443H638.279C640.69 50.4443 642.589 49.8897 643.975 48.7803C645.383 47.6497 646.087 46.0817 646.087 44.0763C646.087 42.7323 645.735 41.6017 645.031 40.6843C644.349 39.767 643.367 39.127 642.087 38.7643C643.154 38.3377 643.986 37.6977 644.583 36.8443C645.181 35.9697 645.479 34.935 645.479 33.7403C645.479 31.927 644.818 30.4977 643.495 29.4523C642.194 28.407 640.338 27.8843 637.927 27.8843H627.591ZM637.063 37.1643H632.327V31.5643H637.063C639.495 31.5643 640.711 32.4923 640.711 34.3483C640.711 36.2257 639.495 37.1643 637.063 37.1643ZM637.607 46.7643H632.327V40.8443H637.607C638.887 40.8443 639.826 41.0897 640.423 41.5803C641.021 42.071 641.319 42.807 641.319 43.7883C641.319 44.791 641.021 45.5377 640.423 46.0283C639.826 46.519 638.887 46.7643 637.607 46.7643ZM651.633 50.1243C652.529 50.5723 653.564 50.7963 654.737 50.7963C655.825 50.7963 656.743 50.551 657.489 50.0603C658.257 49.5697 658.801 48.9083 659.121 48.0763V50.4443H663.633V41.1643C663.633 38.8603 663.036 37.1643 661.841 36.0763C660.647 34.967 658.833 34.4123 656.401 34.4123C655.612 34.4123 654.78 34.4977 653.905 34.6683C653.031 34.8177 652.188 35.0417 651.377 35.3403C650.588 35.639 649.916 35.9697 649.361 36.3323L650.673 39.5643C651.612 39.031 652.551 38.6363 653.489 38.3803C654.449 38.103 655.356 37.9643 656.209 37.9643C657.233 37.9643 657.959 38.167 658.385 38.5723C658.812 38.9563 659.025 39.6177 659.025 40.5563V41.1003H657.873C655.655 41.1003 653.873 41.2497 652.529 41.5483C651.185 41.8257 650.215 42.3057 649.617 42.9883C649.02 43.671 648.721 44.5777 648.721 45.7083C648.721 46.6683 648.977 47.5323 649.489 48.3003C650.023 49.0683 650.737 49.6763 651.633 50.1243ZM658.097 46.6363C657.479 47.255 656.721 47.5643 655.825 47.5643C655.036 47.5643 654.428 47.3723 654.001 46.9883C653.596 46.6043 653.393 46.1137 653.393 45.5163C653.393 44.8123 653.735 44.3217 654.417 44.0443C655.1 43.7457 656.263 43.5963 657.905 43.5963H659.025V44.2363C659.025 45.2177 658.716 46.0177 658.097 46.6363ZM667.238 34.7323V50.4443H672.07V41.6763C672.07 40.6097 672.369 39.7563 672.966 39.1163C673.585 38.4763 674.406 38.1563 675.43 38.1563C676.219 38.1563 676.817 38.4017 677.222 38.8923C677.627 39.3617 677.83 40.1403 677.83 41.2283V50.4443H682.662V41.0043C682.662 38.7643 682.203 37.111 681.286 36.0443C680.369 34.9563 678.982 34.4123 677.126 34.4123C676.017 34.4123 675.014 34.6363 674.118 35.0843C673.222 35.5323 672.507 36.183 671.974 37.0363V34.7323H667.238ZM686.269 27.8843V50.4443H691.101V43.6603H691.165L697.181 50.4443H703.005L696.029 42.2523L702.685 34.7323H696.957L691.165 41.2283H691.101V27.8843H686.269Z" fill="url(#paint1_linear_871_158)"/>
<defs>
<linearGradient id="paint0_linear_871_158" x1="78.7305" y1="12.8115" x2="105.181" y2="157.793" gradientUnits="userSpaceOnUse">
<stop stop-color="#16233A"/>
<stop offset="0.695" stop-color="#3B5FA0"/>
</linearGradient>
<linearGradient id="paint1_linear_871_158" x1="601.42" y1="67" x2="716" y2="67" gradientUnits="userSpaceOnUse">
<stop stop-color="#F6D365"/>
<stop offset="1" stop-color="#FFBF23"/>
</linearGradient>
</defs>
</svg>
