<svg width="748" height="173" viewBox="0 0 748 173" fill="none" xmlns="http://www.w3.org/2000/svg">
<path fill-rule="evenodd" clip-rule="evenodd" d="M103.015 158.189C141.797 151.113 167.8 112.833 161.094 72.6885C154.388 32.5437 117.513 5.73586 78.7304 12.8114C57.2421 16.7318 39.677 30.2319 29.4251 48.3209C39.7121 33.2005 55.8908 22.0008 75.2969 18.4603C113.016 11.5787 148.645 36.2386 154.876 73.5398C161.107 110.841 135.58 146.658 97.8609 153.54C77.0119 157.344 56.8017 151.511 41.8416 139.233C57.6095 154.637 79.9756 162.392 103.015 158.189Z" fill="url(#paint0_linear_871_158)"/>
<ellipse cx="50.7264" cy="75.1636" rx="3.72641" ry="3.66115" fill="#E7ECF6"/>
<ellipse cx="61.1605" cy="75.1636" rx="3.72641" ry="3.66115" fill="#E7ECF6"/>
<ellipse cx="71.5946" cy="64.9124" rx="3.72641" ry="3.66115" fill="#E7ECF6"/>
<ellipse cx="71.5946" cy="54.6611" rx="3.72641" ry="3.66115" fill="#E7ECF6"/>
<ellipse cx="82.0287" cy="54.6611" rx="3.72641" ry="3.66115" fill="#E7ECF6"/>
<ellipse cx="61.1605" cy="64.9124" rx="3.72641" ry="3.66115" fill="#E7ECF6"/>
<ellipse cx="122.273" cy="64.9124" rx="3.72641" ry="3.66115" fill="#E7ECF6"/>
<ellipse cx="111.84" cy="64.9124" rx="3.72641" ry="3.66115" fill="#E7ECF6"/>
<ellipse cx="101.406" cy="64.9124" rx="3.72641" ry="3.66115" fill="#E7ECF6"/>
<ellipse cx="101.406" cy="54.6611" rx="3.72641" ry="3.66115" fill="#E7ECF6"/>
<path d="M81.2832 128.268C82.1596 128.938 83.337 129 84.4399 129H105.557C106.267 129 106.981 128.971 107.665 128.78C108.082 128.664 108.539 128.496 108.859 128.268C109.417 127.868 109.886 127.044 110.141 126.526C110.289 126.227 110.421 125.921 110.565 125.62L114.742 116.901C115.775 114.743 116.312 112.354 116.312 109.962V94.5031C116.312 93.1224 116.093 91.4599 114.821 90.9242C114.018 90.5862 113.388 90.5862 112.585 90.9242C111.313 91.4599 111.095 93.1224 111.095 94.503V96.782H108.113V91.5741C108.113 90.1935 107.895 88.531 106.623 87.9952C105.82 87.6573 105.19 87.6573 104.387 87.9952C103.115 88.531 102.896 90.1935 102.896 91.5741V96.782H99.9153V89.3774C99.9153 87.9968 99.6972 86.3343 98.4247 85.7986C97.6222 85.4606 96.9915 85.4606 96.1889 85.7986C94.9165 86.3343 94.6983 87.9968 94.6983 89.3774V96.782H91.7172V89.4597V73.9938C91.7172 72.6208 91.4589 71.0271 90.2266 70.4217C89.1853 69.9102 88.2868 69.9102 87.2455 70.4217C86.0132 71.0271 85.7549 72.6208 85.7549 73.9938V89.4597V99.7498C85.7549 100.212 85.7763 100.673 85.8014 101.134C85.8436 101.911 85.8817 103.183 85.7549 104.104C85.7126 104.412 85.6409 104.761 85.5582 105.107C85.2498 106.401 84.8021 107.841 83.6199 108.45C83.5864 108.468 83.5527 108.484 83.5191 108.498C82.7165 108.836 82.0858 108.836 81.2832 108.498C79.9918 107.954 79.6008 106.346 79.2611 104.987C79.1841 104.679 79.1099 104.374 79.0474 104.104C78.8937 103.441 78.7212 102.599 78.5808 101.89C78.3904 100.928 78.3021 99.9499 78.3021 98.9695V96.782V96.6929C78.3021 95.3199 78.0438 93.7262 76.8115 93.1209C75.7702 92.6093 74.8717 92.6093 73.8304 93.1209C72.5981 93.7262 72.3398 95.3199 72.3398 96.6929V103.981C72.3398 105.517 72.5916 107.043 73.0851 108.498L79.69 125.802C79.7585 125.982 79.8294 126.16 79.9125 126.332C80.1394 126.805 80.6651 127.796 81.2832 128.268Z" fill="#E7ECF6" stroke="#E7ECF6"/>
<path d="M219.84 140.88C214.293 140.88 209.413 139.68 205.2 137.28C201.04 134.827 197.787 131.44 195.44 127.12C193.147 122.747 192 117.627 192 111.76C192 105.893 193.147 100.8 195.44 96.48C197.787 92.1067 201.04 88.72 205.2 86.32C209.36 83.92 214.24 82.72 219.84 82.72C225.44 82.72 230.32 83.92 234.48 86.32C238.693 88.72 241.947 92.1067 244.24 96.48C246.587 100.8 247.76 105.867 247.76 111.68C247.76 117.547 246.587 122.667 244.24 127.04C241.947 131.413 238.693 134.827 234.48 137.28C230.32 139.68 225.44 140.88 219.84 140.88ZM219.84 130.32C224.533 130.32 228.187 128.693 230.8 125.44C233.467 122.133 234.8 117.573 234.8 111.76C234.8 105.893 233.493 101.36 230.88 98.16C228.267 94.9067 224.587 93.28 219.84 93.28C215.2 93.28 211.547 94.9067 208.88 98.16C206.267 101.36 204.96 105.893 204.96 111.76C204.96 117.573 206.267 122.133 208.88 125.44C211.547 128.693 215.2 130.32 219.84 130.32ZM257.352 140V83.6H295.432V93.28H269.752V107.04H293.672V116.72H269.752V140H257.352ZM317.354 140V93.84H298.714V83.6H348.394V93.84H329.754V140H317.354ZM354.461 140V83.6H366.861V129.52H392.941V140H354.461ZM400.321 140V83.6H438.961V93.28H412.161V106.48H437.201V116.24H412.161V130.32H438.961V140H400.321ZM468.137 140.88C463.71 140.88 459.524 140.32 455.577 139.2C451.684 138.08 448.43 136.56 445.817 134.64L449.417 124.88C451.924 126.64 454.777 128.027 457.977 129.04C461.23 130.053 464.617 130.56 468.137 130.56C471.977 130.56 474.724 129.973 476.377 128.8C478.084 127.573 478.937 126.053 478.937 124.24C478.937 122.693 478.35 121.467 477.177 120.56C476.004 119.653 473.95 118.88 471.017 118.24L461.977 116.32C451.897 114.187 446.857 108.96 446.857 100.64C446.857 97.0667 447.817 93.9467 449.737 91.28C451.657 88.56 454.324 86.4533 457.737 84.96C461.204 83.4667 465.204 82.72 469.737 82.72C473.63 82.72 477.284 83.28 480.697 84.4C484.11 85.52 486.937 87.0933 489.177 89.12L485.577 98.24C481.204 94.7733 475.897 93.04 469.657 93.04C466.297 93.04 463.684 93.7067 461.817 95.04C460.004 96.32 459.097 98 459.097 100.08C459.097 101.627 459.657 102.88 460.777 103.84C461.897 104.8 463.844 105.573 466.617 106.16L475.657 108.08C486.004 110.32 491.177 115.387 491.177 123.28C491.177 126.8 490.217 129.893 488.297 132.56C486.43 135.173 483.764 137.227 480.297 138.72C476.884 140.16 472.83 140.88 468.137 140.88ZM519.387 140.88C514.96 140.88 510.774 140.32 506.827 139.2C502.934 138.08 499.68 136.56 497.067 134.64L500.667 124.88C503.174 126.64 506.027 128.027 509.227 129.04C512.48 130.053 515.867 130.56 519.387 130.56C523.227 130.56 525.974 129.973 527.627 128.8C529.334 127.573 530.187 126.053 530.187 124.24C530.187 122.693 529.6 121.467 528.427 120.56C527.254 119.653 525.2 118.88 522.267 118.24L513.227 116.32C503.147 114.187 498.107 108.96 498.107 100.64C498.107 97.0667 499.067 93.9467 500.987 91.28C502.907 88.56 505.574 86.4533 508.987 84.96C512.454 83.4667 516.454 82.72 520.987 82.72C524.88 82.72 528.534 83.28 531.947 84.4C535.36 85.52 538.187 87.0933 540.427 89.12L536.827 98.24C532.454 94.7733 527.147 93.04 520.907 93.04C517.547 93.04 514.934 93.7067 513.067 95.04C511.254 96.32 510.347 98 510.347 100.08C510.347 101.627 510.907 102.88 512.027 103.84C513.147 104.8 515.094 105.573 517.867 106.16L526.907 108.08C537.254 110.32 542.427 115.387 542.427 123.28C542.427 126.8 541.467 129.893 539.547 132.56C537.68 135.173 535.014 137.227 531.547 138.72C528.134 140.16 524.08 140.88 519.387 140.88ZM576.637 140.88C571.09 140.88 566.21 139.68 561.997 137.28C557.837 134.827 554.584 131.44 552.237 127.12C549.944 122.747 548.797 117.627 548.797 111.76C548.797 105.893 549.944 100.8 552.237 96.48C554.584 92.1067 557.837 88.72 561.997 86.32C566.157 83.92 571.037 82.72 576.637 82.72C582.237 82.72 587.117 83.92 591.277 86.32C595.49 88.72 598.744 92.1067 601.037 96.48C603.384 100.8 604.557 105.867 604.557 111.68C604.557 117.547 603.384 122.667 601.037 127.04C598.744 131.413 595.49 134.827 591.277 137.28C587.117 139.68 582.237 140.88 576.637 140.88ZM576.637 130.32C581.33 130.32 584.984 128.693 587.597 125.44C590.264 122.133 591.597 117.573 591.597 111.76C591.597 105.893 590.29 101.36 587.677 98.16C585.064 94.9067 581.384 93.28 576.637 93.28C571.997 93.28 568.344 94.9067 565.677 98.16C563.064 101.36 561.757 105.893 561.757 111.76C561.757 117.573 563.064 122.133 565.677 125.44C568.344 128.693 571.997 130.32 576.637 130.32ZM614.149 140V83.6H623.349L651.509 119.52V83.6H663.029V140H653.909L625.669 104V140H614.149ZM694.543 140.88C690.116 140.88 685.93 140.32 681.983 139.2C678.09 138.08 674.836 136.56 672.223 134.64L675.823 124.88C678.33 126.64 681.183 128.027 684.383 129.04C687.636 130.053 691.023 130.56 694.543 130.56C698.383 130.56 701.13 129.973 702.783 128.8C704.49 127.573 705.343 126.053 705.343 124.24C705.343 122.693 704.756 121.467 703.583 120.56C702.41 119.653 700.356 118.88 697.423 118.24L688.383 116.32C678.303 114.187 673.263 108.96 673.263 100.64C673.263 97.0667 674.223 93.9467 676.143 91.28C678.063 88.56 680.73 86.4533 684.143 84.96C687.61 83.4667 691.61 82.72 696.143 82.72C700.036 82.72 703.69 83.28 707.103 84.4C710.516 85.52 713.343 87.0933 715.583 89.12L711.983 98.24C707.61 94.7733 702.303 93.04 696.063 93.04C692.703 93.04 690.09 93.7067 688.223 95.04C686.41 96.32 685.503 98 685.503 100.08C685.503 101.627 686.063 102.88 687.183 103.84C688.303 104.8 690.25 105.573 693.023 106.16L702.063 108.08C712.41 110.32 717.583 115.387 717.583 123.28C717.583 126.8 716.623 129.893 714.703 132.56C712.836 135.173 710.17 137.227 706.703 138.72C703.29 140.16 699.236 140.88 694.543 140.88Z" fill="white"/>
<path fill-rule="evenodd" clip-rule="evenodd" d="M581 15C576.582 15 573 18.5817 573 23V59C573 63.4183 576.582 67 581 67H708C712.418 67 716 63.4183 716 59V23C716 18.5817 712.418 15 708 15H581ZM602.206 52.9111L605.566 58.3511L609.79 56.3991L607.358 52.4951C606.718 51.4071 605.907 50.7137 604.926 50.4151C606.718 49.5191 608.115 48.1751 609.118 46.3831C610.142 44.5697 610.654 42.4364 610.654 39.9831C610.654 37.6577 610.185 35.6311 609.246 33.9031C608.329 32.1537 607.027 30.7991 605.342 29.8391C603.678 28.8791 601.726 28.3991 599.486 28.3991C597.246 28.3991 595.294 28.8791 593.63 29.8391C591.966 30.7991 590.665 32.1537 589.726 33.9031C588.809 35.6311 588.35 37.6684 588.35 40.0151C588.35 42.3404 588.809 44.3777 589.726 46.1271C590.665 47.8764 591.966 49.2311 593.63 50.1911C595.294 51.1511 597.235 51.6417 599.454 51.6631C600.734 51.6631 601.651 52.0791 602.206 52.9111ZM603.87 45.4871C602.825 46.7884 601.363 47.4391 599.486 47.4391C597.63 47.4391 596.169 46.7884 595.102 45.4871C594.057 44.1644 593.534 42.3404 593.534 40.0151C593.534 37.6684 594.057 35.8551 595.102 34.5751C596.169 33.2737 597.63 32.6231 599.486 32.6231C601.385 32.6231 602.857 33.2737 603.902 34.5751C604.947 35.8551 605.47 37.6684 605.47 40.0151C605.47 42.3404 604.937 44.1644 603.87 45.4871ZM614.299 40.8151V44.6231H624.187V40.8151H614.299ZM628.584 28.7511V51.3111H639.272C641.683 51.3111 643.582 50.7564 644.968 49.6471C646.377 48.5164 647.081 46.9484 647.081 44.9431C647.081 43.5991 646.729 42.4684 646.025 41.5511C645.342 40.6337 644.361 39.9937 643.081 39.6311C644.147 39.2044 644.979 38.5644 645.576 37.7111C646.174 36.8364 646.473 35.8017 646.473 34.6071C646.473 32.7937 645.811 31.3644 644.489 30.3191C643.187 29.2737 641.331 28.7511 638.921 28.7511H628.584ZM638.057 38.0311H633.32V32.4311H638.057C640.489 32.4311 641.704 33.3591 641.704 35.2151C641.704 37.0924 640.489 38.0311 638.057 38.0311ZM638.601 47.6311H633.32V41.7111H638.601C639.881 41.7111 640.819 41.9564 641.417 42.4471C642.014 42.9377 642.312 43.6737 642.312 44.6551C642.312 45.6577 642.014 46.4044 641.417 46.8951C640.819 47.3857 639.881 47.6311 638.601 47.6311ZM652.627 50.9911C653.522 51.4391 654.557 51.6631 655.73 51.6631C656.818 51.6631 657.736 51.4177 658.482 50.9271C659.251 50.4364 659.795 49.7751 660.115 48.9431V51.3111H664.627V42.0311C664.627 39.7271 664.029 38.0311 662.835 36.9431C661.64 35.8337 659.826 35.2791 657.395 35.2791C656.605 35.2791 655.773 35.3644 654.898 35.5351C654.024 35.6844 653.181 35.9084 652.37 36.2071C651.581 36.5057 650.909 36.8364 650.354 37.1991L651.667 40.4311C652.605 39.8977 653.544 39.5031 654.482 39.2471C655.442 38.9697 656.349 38.8311 657.202 38.8311C658.227 38.8311 658.952 39.0337 659.379 39.4391C659.805 39.8231 660.019 40.4844 660.019 41.4231V41.9671H658.867C656.648 41.9671 654.867 42.1164 653.522 42.4151C652.178 42.6924 651.208 43.1724 650.61 43.8551C650.013 44.5377 649.715 45.4444 649.715 46.5751C649.715 47.5351 649.97 48.3991 650.482 49.1671C651.016 49.9351 651.73 50.5431 652.627 50.9911ZM659.09 47.5031C658.472 48.1217 657.715 48.4311 656.818 48.4311C656.029 48.4311 655.421 48.2391 654.994 47.8551C654.589 47.4711 654.386 46.9804 654.386 46.3831C654.386 45.6791 654.728 45.1884 655.41 44.9111C656.093 44.6124 657.256 44.4631 658.898 44.4631H660.019V45.1031C660.019 46.0844 659.709 46.8844 659.09 47.5031ZM668.231 35.5991V51.3111H673.063V42.5431C673.063 41.4764 673.362 40.6231 673.959 39.9831C674.578 39.3431 675.399 39.0231 676.423 39.0231C677.212 39.0231 677.81 39.2684 678.215 39.7591C678.62 40.2284 678.823 41.0071 678.823 42.0951V51.3111H683.655V41.8711C683.655 39.6311 683.196 37.9777 682.279 36.9111C681.362 35.8231 679.975 35.2791 678.119 35.2791C677.01 35.2791 676.007 35.5031 675.111 35.9511C674.215 36.3991 673.5 37.0497 672.967 37.9031V35.5991H668.231ZM687.262 28.7511V51.3111H692.094V44.5271H692.158L698.174 51.3111H703.998L697.022 43.1191L703.678 35.5991H697.95L692.158 42.0951H692.094V28.7511H687.262Z" fill="url(#paint1_linear_871_158)"/>
<defs>
<linearGradient id="paint0_linear_871_158" x1="78.7305" y1="12.8115" x2="105.181" y2="157.793" gradientUnits="userSpaceOnUse">
<stop stop-color="#16233A"/>
<stop offset="0.695" stop-color="#3B5FA0"/>
</linearGradient>
<linearGradient id="paint1_linear_871_158" x1="603" y1="67" x2="716" y2="67" gradientUnits="userSpaceOnUse">
<stop stop-color="#F6D365"/>
<stop offset="1" stop-color="#FFBF23"/>
</linearGradient>
</defs>
</svg>
