<svg width="268" height="55" viewBox="0 0 268 55" fill="none" xmlns="http://www.w3.org/2000/svg">
<ellipse cx="2.76639" cy="16.7286" rx="2.76639" ry="2.53464" fill="white" fill-opacity="0.95"/>
<ellipse cx="10.5115" cy="16.7286" rx="2.76639" ry="2.53464" fill="white" fill-opacity="0.95"/>
<ellipse cx="18.2586" cy="9.63163" rx="2.76639" ry="2.53464" fill="white" fill-opacity="0.95"/>
<ellipse cx="18.2586" cy="2.53464" rx="2.76639" ry="2.53464" fill="white" fill-opacity="0.95"/>
<ellipse cx="26.0037" cy="2.53464" rx="2.76639" ry="2.53464" fill="white" fill-opacity="0.95"/>
<ellipse cx="10.5115" cy="9.63163" rx="2.76639" ry="2.53464" fill="white" fill-opacity="0.95"/>
<ellipse cx="55.8806" cy="9.63163" rx="2.76639" ry="2.53464" fill="white" fill-opacity="0.95"/>
<ellipse cx="48.1336" cy="9.63163" rx="2.76639" ry="2.53464" fill="white" fill-opacity="0.95"/>
<ellipse cx="40.3885" cy="9.63163" rx="2.76639" ry="2.53464" fill="white" fill-opacity="0.95"/>
<ellipse cx="40.3885" cy="2.53464" rx="2.76639" ry="2.53464" fill="white" fill-opacity="0.95"/>
<path d="M25.4509 53.4931C26.1095 53.9624 26.9694 54 27.7782 54H43.268C43.9302 54 44.5997 53.9839 45.2337 53.7922C45.4838 53.7166 45.7349 53.6181 45.9221 53.4931C46.2818 53.2529 46.5916 52.7908 46.7912 52.4387C46.9634 52.135 47.1085 51.8168 47.268 51.5063L50.2969 45.6091C51.0579 44.1274 51.4549 42.4856 51.4549 40.8198V30.1719C51.4549 29.183 51.2689 28.0012 50.3483 27.6397C49.7525 27.4058 49.2843 27.4058 48.6885 27.6397C47.7679 28.0012 47.5819 29.183 47.5819 30.1719V31.6951H45.3688V28.1442C45.3688 27.1552 45.1828 25.9735 44.2623 25.612C43.6665 25.378 43.1982 25.378 42.6025 25.612C41.6819 25.9735 41.4959 27.1552 41.4959 28.1442V31.6951H39.2828V26.6234C39.2828 25.6345 39.0968 24.4527 38.1762 24.0912C37.5804 23.8573 37.1122 23.8573 36.5164 24.0912C35.5958 24.4527 35.4098 25.6345 35.4098 26.6234V31.6951H33.1967V26.6259V15.9731C33.1967 14.9898 32.9842 13.8553 32.0902 13.4457C31.3172 13.0916 30.6501 13.0916 29.8771 13.4457C28.9831 13.8553 28.7705 14.9898 28.7705 15.9731V26.6259V33.4865C28.7705 33.9817 28.7966 34.4763 28.8185 34.9711C28.842 35.5043 28.8505 36.222 28.7705 36.7644C28.7443 36.9418 28.703 37.139 28.6545 37.3387C28.4164 38.3181 28.0489 39.4376 27.1107 39.806C26.5149 40.0399 26.0466 40.0399 25.4509 39.806C24.5147 39.4384 24.1968 38.301 23.9373 37.3293C23.8846 37.1318 23.8341 36.9378 23.791 36.7644C23.7171 36.4667 23.6372 36.1171 23.5618 35.7743C23.3364 34.7492 23.2377 33.7011 23.2377 32.6515V31.6951C23.2377 30.7118 23.0252 29.57 22.1312 29.1605C21.3582 28.8064 20.6911 28.8064 19.9181 29.1605C19.0241 29.57 18.8115 30.7045 18.8115 31.6879V36.6669C18.8115 37.7375 18.9988 38.7999 19.3648 39.806L24.2298 51.6925C24.3061 51.879 24.3849 52.0645 24.48 52.2421C24.6674 52.5922 25.0303 53.1933 25.4509 53.4931Z" fill="white" fill-opacity="0.95" stroke="white"/>
<ellipse cx="82.5699" cy="44.25" rx="10.0318" ry="9.75" fill="white" fill-opacity="0.95"/>
<ellipse cx="82.5697" cy="44.25" rx="5.40173" ry="5.25" fill="#151F37"/>
<ellipse cx="216.84" cy="44.25" rx="10.0318" ry="9.75" fill="white" fill-opacity="0.95"/>
<ellipse cx="216.84" cy="44.25" rx="5.40173" ry="5.25" fill="#121B34"/>
<path d="M97.2314 35.25V54H101.862V46.5H107.263V42.75H101.862V39H109.578V35.25H97.2314Z" fill="white" fill-opacity="0.95"/>
<path d="M114.98 35.25V39H119.61V54H124.24V39H128.87V35.25H114.98Z" fill="white" fill-opacity="0.95"/>
<path d="M133.5 35.25V54H145.075V49.5H138.13V35.25H133.5Z" fill="white" fill-opacity="0.95"/>
<path d="M150.477 35.25V54H163.596V49.5H154.335V45.75H160.509V42.75H154.335V39H163.596V35.25H150.477Z" fill="white" fill-opacity="0.95"/>
<path d="M231.503 54V35.25H236.133L242.307 45V35.25H246.937V54H242.307L236.133 43.5V54H231.503Z" fill="white" fill-opacity="0.95"/>
<path d="M97.2314 35.25V54H101.862V46.5H107.263V42.75H101.862V39H109.578V35.25H97.2314Z" stroke="white" stroke-width="0.8"/>
<path d="M114.98 35.25V39H119.61V54H124.24V39H128.87V35.25H114.98Z" stroke="white" stroke-width="0.8"/>
<path d="M133.5 35.25V54H145.075V49.5H138.13V35.25H133.5Z" stroke="white" stroke-width="0.8"/>
<path d="M150.477 35.25V54H163.596V49.5H154.335V45.75H160.509V42.75H154.335V39H163.596V35.25H150.477Z" stroke="white" stroke-width="0.8"/>
<path d="M231.503 54V35.25H236.133L242.307 45V35.25H246.937V54H242.307L236.133 43.5V54H231.503Z" stroke="white" stroke-width="0.8"/>
<path d="M169.85 47.6847L168.226 50.787C168.226 50.787 170.301 53.444 173.099 53.8893C174.177 54.0609 175.698 53.996 176.539 53.9391C176.954 53.9111 177.365 53.8545 177.769 53.7573C179.075 53.4429 182.09 52.5419 182.847 50.787C183.451 49.3867 183.158 48.3942 182.847 46.9092C182.518 45.3404 181.296 44.1239 179.837 43.4611C179.476 43.2971 179.113 43.1454 178.785 43.0313C177.557 42.6032 176.274 42.6704 175.171 42C174.414 41.5401 173.863 41.3265 173.627 40.5C173.623 40.4834 173.618 40.4667 173.615 40.4499C173.272 38.9004 175.592 38.1413 177.161 38.3778C178.152 38.5272 178.693 38.7402 179.598 39.1534C180.629 39.6246 182.034 40.7046 182.034 40.7046L183.659 37.6023L182.872 36.9698C180.952 35.4254 178.407 35.25 175.942 35.25C173.999 35.25 171.804 35.2301 170.562 36.7243C170.555 36.733 170.547 36.7416 170.541 36.75C170.18 37.1932 169.86 37.6819 169.609 38.1022C169.2 38.7865 168.905 39.5346 168.786 40.3225C168.658 41.1699 168.608 42.2923 169.038 43.0313C169.474 43.7802 169.695 44.0314 170.382 44.5824C170.651 44.7979 171.01 44.9541 171.379 45.0672C172.479 45.4038 173.582 45.8463 174.724 45.9825C174.799 45.9914 174.876 46.0043 174.955 46.0203C176.457 46.3258 177.976 47.9384 177.161 49.2359C176.93 49.6032 176.733 49.7911 176.348 50.0115C175.532 50.479 174.83 50.2505 173.912 50.0115C173.227 49.8333 172.903 49.5719 172.287 49.2359C170.91 48.4845 169.85 47.6847 169.85 47.6847Z" fill="white" fill-opacity="0.95" stroke="white" stroke-width="0.8"/>
<path d="M188.371 47.6847L186.746 50.787C186.746 50.787 188.821 53.444 191.62 53.8893C192.698 54.0609 194.218 53.996 195.06 53.9391C195.474 53.9111 195.886 53.8545 196.29 53.7573C197.596 53.4429 200.611 52.5419 201.367 50.787C201.971 49.3867 201.678 48.3942 201.367 46.9092C201.039 45.3404 199.817 44.1239 198.357 43.4611C197.996 43.2971 197.633 43.1454 197.306 43.0313C196.077 42.6032 194.795 42.6704 193.691 42C192.934 41.5401 192.384 41.3265 192.148 40.5C192.143 40.4834 192.139 40.4667 192.135 40.4499C191.792 38.9004 194.112 38.1413 195.681 38.3778C196.672 38.5272 197.213 38.7402 198.118 39.1534C199.15 39.6246 200.555 40.7046 200.555 40.7046L202.18 37.6023L201.393 36.9698C199.472 35.4254 196.927 35.25 194.463 35.25C192.519 35.25 190.325 35.2301 189.082 36.7243C189.075 36.733 189.068 36.7416 189.061 36.75C188.7 37.1932 188.38 37.6819 188.129 38.1022C187.721 38.7865 187.426 39.5346 187.307 40.3225C187.178 41.1699 187.128 42.2923 187.558 43.0313C187.994 43.7802 188.215 44.0314 188.902 44.5824C189.171 44.7979 189.53 44.9541 189.9 45.0672C190.999 45.4038 192.103 45.8463 193.244 45.9825C193.319 45.9914 193.397 46.0043 193.476 46.0203C194.977 46.3258 196.497 47.9384 195.681 49.2359C195.45 49.6032 195.254 49.7911 194.869 50.0115C194.053 50.479 193.35 50.2505 192.432 50.0115C191.748 49.8333 191.423 49.5719 190.808 49.2359C189.43 48.4845 188.371 47.6847 188.371 47.6847Z" fill="white" fill-opacity="0.95" stroke="white" stroke-width="0.8"/>
<path d="M253.191 47.6847L251.566 50.787C251.566 50.787 253.641 53.444 256.44 53.8893C257.518 54.0609 259.039 53.996 259.88 53.9391C260.295 53.9111 260.706 53.8545 261.11 53.7573C262.416 53.4429 265.431 52.5419 266.188 50.787C266.792 49.3867 266.499 48.3942 266.188 46.9092C265.859 45.3404 264.637 44.1239 263.178 43.4611C262.817 43.2971 262.454 43.1454 262.126 43.0313C260.897 42.6032 259.615 42.6704 258.511 42C257.755 41.5401 257.204 41.3265 256.968 40.5C256.963 40.4834 256.959 40.4667 256.955 40.4499C256.613 38.9004 258.932 38.1413 260.502 38.3778C261.492 38.5272 262.033 38.7402 262.938 39.1534C263.97 39.6246 265.375 40.7046 265.375 40.7046L267 37.6023L266.213 36.9698C264.292 35.4254 261.748 35.25 259.283 35.25C257.34 35.25 255.145 35.2301 253.903 36.7243C253.895 36.733 253.888 36.7416 253.881 36.75C253.52 37.1932 253.2 37.6819 252.95 38.1022C252.541 38.7865 252.246 39.5346 252.127 40.3225C251.999 41.1699 251.949 42.2923 252.379 43.0313C252.814 43.7802 253.036 44.0314 253.723 44.5824C253.991 44.7979 254.351 44.9541 254.72 45.0672C255.819 45.4038 256.923 45.8463 258.065 45.9825C258.14 45.9914 258.217 46.0043 258.296 46.0203C259.798 46.3258 261.317 47.9384 260.502 49.2359C260.271 49.6032 260.074 49.7911 259.689 50.0115C258.873 50.479 258.171 50.2505 257.252 50.0115C256.568 49.8333 256.244 49.5719 255.628 49.2359C254.251 48.4845 253.191 47.6847 253.191 47.6847Z" fill="white" fill-opacity="0.95" stroke="white" stroke-width="0.8"/>
</svg>
