<svg width="175" height="173" viewBox="0 0 175 173" fill="none" xmlns="http://www.w3.org/2000/svg">
<ellipse cx="71.3808" cy="73.6957" rx="71.3808" ry="73.6957" transform="matrix(0.983762 -0.179481 0.16476 0.986334 8.50879 25.623)" fill="url(#paint0_linear_865_169)"/>
<ellipse cx="50.7264" cy="75.1636" rx="3.72641" ry="3.66115" fill="#E7ECF6"/>
<ellipse cx="61.1605" cy="75.1636" rx="3.72641" ry="3.66115" fill="#E7ECF6"/>
<ellipse cx="71.5946" cy="64.9124" rx="3.72641" ry="3.66115" fill="#E7ECF6"/>
<ellipse cx="71.5946" cy="54.6611" rx="3.72641" ry="3.66115" fill="#E7ECF6"/>
<ellipse cx="82.0287" cy="54.6611" rx="3.72641" ry="3.66115" fill="#E7ECF6"/>
<ellipse cx="61.1605" cy="64.9124" rx="3.72641" ry="3.66115" fill="#E7ECF6"/>
<ellipse cx="122.273" cy="64.9124" rx="3.72641" ry="3.66115" fill="#E7ECF6"/>
<ellipse cx="111.84" cy="64.9124" rx="3.72641" ry="3.66115" fill="#E7ECF6"/>
<ellipse cx="101.406" cy="64.9124" rx="3.72641" ry="3.66115" fill="#E7ECF6"/>
<ellipse cx="101.406" cy="54.6611" rx="3.72641" ry="3.66115" fill="#E7ECF6"/>
<path d="M81.2832 128.268C82.1596 128.938 83.337 129 84.4399 129H105.557C106.267 129 106.981 128.971 107.665 128.78C108.082 128.664 108.539 128.496 108.859 128.268C109.417 127.868 109.886 127.044 110.141 126.526C110.289 126.227 110.421 125.921 110.565 125.62L114.742 116.901C115.775 114.743 116.312 112.354 116.312 109.962V94.5031C116.312 93.1224 116.093 91.4599 114.821 90.9242C114.018 90.5862 113.388 90.5862 112.585 90.9242C111.313 91.4599 111.095 93.1224 111.095 94.503V96.782H108.113V91.5741C108.113 90.1935 107.895 88.531 106.623 87.9952C105.82 87.6573 105.19 87.6573 104.387 87.9952C103.115 88.531 102.896 90.1935 102.896 91.5741V96.782H99.9153V89.3774C99.9153 87.9968 99.6972 86.3343 98.4247 85.7986C97.6222 85.4606 96.9915 85.4606 96.1889 85.7986C94.9165 86.3343 94.6983 87.9968 94.6983 89.3774V96.782H91.7172V89.4597V73.9938C91.7172 72.6208 91.4589 71.0271 90.2266 70.4217C89.1853 69.9102 88.2868 69.9102 87.2455 70.4217C86.0132 71.0271 85.7549 72.6208 85.7549 73.9938V89.4597V99.7498C85.7549 100.212 85.7763 100.673 85.8014 101.134C85.8436 101.911 85.8817 103.183 85.7549 104.104C85.7126 104.412 85.6409 104.761 85.5582 105.107C85.2498 106.401 84.8021 107.841 83.6199 108.45C83.5864 108.468 83.5527 108.484 83.5191 108.498C82.7165 108.836 82.0858 108.836 81.2832 108.498C79.9918 107.954 79.6008 106.346 79.2611 104.987C79.1841 104.679 79.1099 104.374 79.0474 104.104C78.8937 103.441 78.7212 102.599 78.5808 101.89C78.3904 100.928 78.3021 99.9499 78.3021 98.9695V96.782V96.6929C78.3021 95.3199 78.0438 93.7262 76.8115 93.1209C75.7702 92.6093 74.8717 92.6093 73.8304 93.1209C72.5981 93.7262 72.3398 95.3199 72.3398 96.6929V103.981C72.3398 105.517 72.5916 107.043 73.0851 108.498L79.69 125.802C79.7585 125.982 79.8294 126.16 79.9125 126.332C80.1394 126.805 80.6651 127.796 81.2832 128.268Z" fill="#E7ECF6" stroke="#E7ECF6"/>
<defs>
<linearGradient id="paint0_linear_865_169" x1="60.1046" y1="147.391" x2="84.2476" y2="0.260997" gradientUnits="userSpaceOnUse">
<stop stop-color="#05245C"/>
<stop offset="1" stop-color="#0F1934"/>
</linearGradient>
</defs>
</svg>
