<svg width="24" height="20" viewBox="0 0 24 20" fill="none" xmlns="http://www.w3.org/2000/svg">
<path d="M21.4902 0.950195C21.9034 0.950205 22.3002 1.1096 22.5928 1.39355C22.8852 1.67748 23.0497 2.06273 23.0498 2.46484V17.5352C23.0497 17.9373 22.8852 18.3225 22.5928 18.6064C22.3002 18.8904 21.9034 19.0498 21.4902 19.0498H14.8701C14.7386 19.0498 14.6094 19.0136 14.498 18.9453C14.3866 18.8769 14.2969 18.7791 14.2402 18.6631C13.8076 17.7764 13.1242 17.0269 12.2695 16.502C11.4148 15.977 10.4239 15.6983 9.41211 15.6982C8.40025 15.6982 7.4085 15.9769 6.55371 16.502C5.69916 17.0269 5.01564 17.7764 4.58301 18.6631C4.52636 18.779 4.43742 18.8769 4.32617 18.9453C4.21484 19.0137 4.08561 19.0497 3.9541 19.0498H2.50977C2.09657 19.0498 1.69984 18.8904 1.40723 18.6064C1.11477 18.3225 0.950269 17.9373 0.950195 17.5352V2.46484C0.95027 2.06273 1.11477 1.67748 1.40723 1.39355C1.69984 1.1096 2.09657 0.950205 2.50977 0.950195H21.4902ZM2.50977 2.30566C2.46559 2.30567 2.42349 2.32278 2.39258 2.35254C2.36173 2.38247 2.34382 2.42318 2.34375 2.46484V17.5352C2.34382 17.5768 2.36173 17.6175 2.39258 17.6475C2.42349 17.6772 2.46558 17.6943 2.50977 17.6943H3.53125C4.27796 16.4072 5.44859 15.4025 6.85449 14.8408C6.19396 14.3384 5.70423 13.6541 5.45312 12.875C5.19312 12.068 5.20117 11.2016 5.47656 10.3994C5.75195 9.59727 6.28002 8.89937 6.98633 8.40527C7.69263 7.91118 8.54175 7.64551 9.41211 7.64551C10.2823 7.64558 11.1307 7.91133 11.8369 8.40527C12.5432 8.89936 13.0713 9.5973 13.3467 10.3994C13.6221 11.2016 13.6311 12.068 13.3711 12.875C13.12 13.6543 12.6285 14.3374 11.9678 14.8398C13.3743 15.4014 14.545 16.4068 15.292 17.6943H21.4902C21.5344 17.6943 21.5765 17.6772 21.6074 17.6475C21.6383 17.6175 21.6562 17.5768 21.6562 17.5352V2.46484C21.6562 2.42318 21.6383 2.38247 21.6074 2.35254C21.5765 2.32278 21.5344 2.30567 21.4902 2.30566H2.50977ZM18.9023 4.29883C19.0866 4.29893 19.2638 4.3702 19.3945 4.49707C19.5252 4.62402 19.5986 4.79644 19.5986 4.97656V15.0234C19.5986 15.2036 19.5252 15.376 19.3945 15.5029C19.2638 15.6298 19.0866 15.7011 18.9023 15.7012H17.1768C16.9924 15.7012 16.8154 15.6298 16.6846 15.5029C16.5537 15.376 16.4795 15.2037 16.4795 15.0234C16.4795 14.8432 16.5537 14.67 16.6846 14.543C16.8154 14.4163 16.9926 14.3457 17.1768 14.3457H18.2051V5.6543H5.79492V6.65137C5.79487 6.83144 5.72146 7.00393 5.59082 7.13086C5.45999 7.25782 5.28205 7.3291 5.09766 7.3291C4.9134 7.329 4.73621 7.25773 4.60547 7.13086C4.47476 7.00392 4.40142 6.83149 4.40137 6.65137V4.97656C4.40142 4.79644 4.47476 4.62402 4.60547 4.49707C4.73621 4.3702 4.9134 4.29893 5.09766 4.29883H18.9023ZM9.94922 9.05469C9.41476 8.95155 8.86078 9.00471 8.35742 9.20703C7.85403 9.40937 7.42352 9.75219 7.12109 10.1914C6.81887 10.6305 6.6582 11.1471 6.6582 11.6748C6.65831 12.3825 6.94768 13.0616 7.46387 13.5625C7.98022 14.0636 8.68125 14.3457 9.41211 14.3457C9.95699 14.3456 10.4896 14.1881 10.9424 13.8945C11.3951 13.6009 11.7478 13.184 11.9561 12.6963C12.1643 12.2084 12.2194 11.6711 12.1133 11.1533C12.0071 10.6356 11.7444 10.1597 11.3594 9.78613C10.9744 9.41259 10.4836 9.15784 9.94922 9.05469Z" fill="#E7ECF6" stroke="#E7ECF6" stroke-width="0.1"/>
</svg>
