<svg version="1.1" xmlns="http://www.w3.org/2000/svg" xmlns:xlink="http://www.w3.org/1999/xlink" width="24" height="20" viewBox="0,0,256,213.32813"><g fill="#405377" fill-rule="nonzero" stroke="#041e4e" stroke-width="0.1" stroke-linecap="butt" stroke-linejoin="miter" stroke-miterlimit="10" stroke-dasharray="" stroke-dashoffset="0" font-family="none" font-weight="none" font-size="none" text-anchor="none" style="mix-blend-mode: normal"><g transform="translate(0.00003,-0.00258) scale(10.66667,10.66667)"><path d="M21.4902,0.9502c0.4132,0.00001 0.81,0.1594 1.1026,0.44336c0.2924,0.28393 0.4569,0.66918 0.457,1.07129v15.07036c-0.0001,0.4021 -0.1646,0.7873 -0.457,1.0712c-0.2926,0.284 -0.6894,0.4434 -1.1026,0.4434h-6.6201c-0.1315,0 -0.2607,-0.0362 -0.3721,-0.1045c-0.1114,-0.0684 -0.2011,-0.1662 -0.2578,-0.2822c-0.4326,-0.8867 -1.116,-1.6362 -1.9707,-2.1611c-0.8547,-0.525 -1.8456,-0.8037 -2.85739,-0.8038c-1.01186,0 -2.00361,0.2787 -2.8584,0.8038c-0.85455,0.5249 -1.53807,1.2744 -1.9707,2.1611c-0.05665,0.1159 -0.14559,0.2138 -0.25684,0.2822c-0.11133,0.0684 -0.24056,0.1044 -0.37207,0.1045h-1.44433c-0.4132,0 -0.80993,-0.1594 -1.10254,-0.4434c-0.29246,-0.2839 -0.45696,-0.6691 -0.45703,-1.0712v-15.07036c0.00007,-0.40211 0.16458,-0.78736 0.45704,-1.07129c0.29261,-0.28395 0.68934,-0.44335 1.10254,-0.44336zM2.50977,2.30566c-0.04418,0.00001 -0.08628,0.01712 -0.11719,0.04688c-0.03085,0.02993 -0.04876,0.07064 -0.04883,0.1123v15.07036c0.00007,0.0416 0.01798,0.0823 0.04883,0.1123c0.03091,0.0297 0.073,0.0468 0.11719,0.0468h1.02148c0.74671,-1.2871 1.91734,-2.2918 3.32324,-2.8535c-0.66053,-0.5024 -1.15026,-1.1867 -1.40137,-1.9658c-0.26,-0.807 -0.25195,-1.6734 0.02344,-2.4756c0.27539,-0.80213 0.80346,-1.50003 1.50977,-1.99413c0.7063,-0.49409 1.55542,-0.75976 2.42578,-0.75976c0.87019,0.00007 1.71859,0.26582 2.42479,0.75976c0.7063,0.49409 1.2344,1.19203 1.5098,1.99413c0.2754,0.8022 0.2844,1.6686 0.0244,2.4756c-0.2511,0.7793 -0.7426,1.4624 -1.4033,1.9648c1.4065,0.5616 2.5772,1.567 3.3242,2.8545h6.1982c0.0442,0 0.0863,-0.0171 0.1172,-0.0468c0.0309,-0.03 0.0488,-0.0707 0.0488,-0.1123v-15.07036c0,-0.04166 -0.0179,-0.08237 -0.0488,-0.1123c-0.0309,-0.02976 -0.073,-0.04687 -0.1172,-0.04688zM18.9023,4.29883c0.1843,0.0001 0.3615,0.07137 0.4922,0.19824c0.1307,0.12695 0.2041,0.29937 0.2041,0.47949v10.04684c0,0.1802 -0.0734,0.3526 -0.2041,0.4795c-0.1307,0.1269 -0.3079,0.1982 -0.4922,0.1983h-1.7255c-0.1844,0 -0.3614,-0.0714 -0.4922,-0.1983c-0.1309,-0.1269 -0.2051,-0.2992 -0.2051,-0.4795c0,-0.1802 0.0742,-0.3534 0.2051,-0.4804c0.1308,-0.1267 0.308,-0.1973 0.4922,-0.1973h1.0283v-8.6914h-12.41018v0.99707c-0.00005,0.18007 -0.07346,0.35256 -0.2041,0.47949c-0.13083,0.12696 -0.30877,0.19824 -0.49316,0.19824c-0.18426,-0.0001 -0.36145,-0.07137 -0.49219,-0.19824c-0.13071,-0.12694 -0.20405,-0.29937 -0.2041,-0.47949v-1.67481c0.00005,-0.18012 0.07339,-0.35254 0.2041,-0.47949c0.13074,-0.12687 0.30793,-0.19814 0.49219,-0.19824zM9.94922,9.05469c-0.53446,-0.10314 -1.08844,-0.04998 -1.5918,0.15234c-0.50339,0.20234 -0.9339,0.54516 -1.23633,0.98437c-0.30222,0.4391 -0.46289,0.9557 -0.46289,1.4834c0.00011,0.7077 0.28948,1.3868 0.80567,1.8877c0.51635,0.5011 1.21738,0.7832 1.94824,0.7832c0.54488,-0.0001 1.07749,-0.1576 1.53029,-0.4512c0.4527,-0.2936 0.8054,-0.7105 1.0137,-1.1982c0.2082,-0.4879 0.2633,-1.0252 0.1572,-1.543c-0.1062,-0.5177 -0.3689,-0.9936 -0.7539,-1.36717c-0.385,-0.37354 -0.8758,-0.62829 -1.41018,-0.73144z"></path></g></g></svg>