<svg width="36" height="30" viewBox="0 0 36 30" fill="none" xmlns="http://www.w3.org/2000/svg">
<path d="M5.43189 0.0370045C5.14516 0.155878 5.07182 0.372646 5.07182 1.09987V1.77814L3.6182 1.79912C2.21126 1.8201 2.15791 1.82709 1.83785 2.00191C1.46445 2.1977 1.11104 2.63823 1.00436 3.02981C0.964348 3.20462 0.937676 7.4351 0.937676 15.917C0.937676 29.6504 0.917672 28.8322 1.30441 29.3637C1.39777 29.4895 1.63114 29.6853 1.81785 29.7972L2.17125 30H11.8398H21.5084L21.8618 29.7972C22.2152 29.5944 22.4752 29.3007 22.6219 28.9371C22.6886 28.7903 22.7153 27.8533 22.7419 25.3919L22.7753 22.0425L23.5421 21.56C24.2022 21.1475 24.3556 21.0146 24.6423 20.609C24.909 20.2314 29.1232 14.7073 34.0308 8.28819C34.4242 7.77074 34.811 7.22533 34.8843 7.07848C35.171 6.5051 35.1043 5.67998 34.7376 5.14155C34.4442 4.722 33.504 3.96681 33.1173 3.84793C32.6972 3.71508 32.5172 3.71508 32.0704 3.85493C31.7904 3.94583 31.6303 4.05072 31.3436 4.36538C31.1436 4.58215 29.1298 7.18337 26.8761 10.1482L22.7753 15.5325L22.7419 9.27414L22.7086 3.00883L22.5219 2.68018C22.4219 2.49837 22.2418 2.26762 22.1218 2.17672C21.6884 1.83409 21.435 1.78514 19.9681 1.78514H18.6078V1.09288C18.6078 0.456556 18.5945 0.379639 18.4478 0.204824C18.2477 -0.0469055 17.8743 -0.0678825 17.6543 0.16287C17.5276 0.302721 17.5076 0.407608 17.4876 1.05092L17.4609 1.78514H14.9404H12.4199L12.3932 1.05092C12.3732 0.407608 12.3532 0.302721 12.2265 0.16287C12.1265 0.0649738 11.9932 0.00903511 11.8398 0.00903511C11.6864 0.00903511 11.5531 0.0649738 11.4531 0.16287C11.3264 0.302721 11.3064 0.407608 11.2864 1.05092L11.2597 1.78514H8.7392H6.21871L6.19203 1.05092C6.1787 0.428587 6.15203 0.302721 6.03867 0.183847C5.87197 0.0160275 5.61859 -0.0469055 5.43189 0.0370045ZM5.07182 3.81996C5.07182 4.65907 5.07182 4.66606 5.26519 4.86884C5.50523 5.12057 5.73194 5.12757 5.98533 4.90381C6.17203 4.73598 6.17203 4.722 6.19203 3.85493L6.21871 2.97387H8.74587H11.273V3.81996C11.273 4.65907 11.273 4.66606 11.4664 4.86884C11.5864 4.98772 11.7331 5.07163 11.8398 5.07163C11.9465 5.07163 12.0932 4.98772 12.2132 4.86884C12.4066 4.66606 12.4066 4.65907 12.4066 3.81996V2.97387H14.9337H17.4609L17.4876 3.85493C17.5076 4.722 17.5076 4.73598 17.6943 4.90381C17.9477 5.12757 18.1744 5.12057 18.4144 4.86884C18.6078 4.66606 18.6078 4.65907 18.6078 3.81996V2.97387H19.9547C21.2416 2.97387 21.3083 2.98086 21.455 3.1277L21.6084 3.27455V10.1692V17.0638L21.235 17.5533C21.0283 17.819 20.8349 18.0987 20.7949 18.1686C20.6949 18.3714 19.5413 22.1194 19.5413 22.2523C19.5413 22.511 19.8147 22.9515 20.0681 23.0984C20.4281 23.3151 20.6949 23.2942 21.1883 23.0075L21.6084 22.7627V25.6576V28.5595L21.435 28.6994L21.255 28.8462H11.8398H2.42463L2.2446 28.6994L2.07123 28.5595V15.924V3.29552L2.21793 3.1347C2.35795 2.97387 2.38462 2.97387 3.71822 2.97387H5.07182V3.81996ZM33.284 5.2814C33.8708 5.77088 33.9441 5.87577 33.9441 6.2254C33.9441 6.48412 33.8908 6.596 33.5307 7.09247C33.2973 7.40014 33.0839 7.65187 33.0573 7.65886C32.9906 7.65886 31.3436 6.26735 31.3436 6.21141C31.3436 6.1275 32.0904 5.13456 32.2371 5.03666C32.5105 4.82689 32.8239 4.90381 33.284 5.2814ZM31.517 7.88262C31.9704 8.27421 32.3371 8.60985 32.3305 8.63782C32.2838 8.7497 27.9163 14.4416 27.8696 14.4416C27.8496 14.4416 27.7096 14.3437 27.5695 14.2248C27.2161 13.9312 27.0561 13.8752 26.8094 13.9591C26.5693 14.05 26.476 14.2039 26.476 14.5185C26.476 14.7003 26.5427 14.8052 26.8227 15.0779C27.1495 15.3926 27.1695 15.4276 27.0628 15.5325C26.9628 15.6443 26.9361 15.6373 26.696 15.4416C26.1826 15.015 25.9292 14.994 25.6758 15.3297C25.4491 15.6303 25.5025 15.8331 25.9025 16.2247C26.2226 16.5394 26.2493 16.5953 26.1693 16.7072C26.0759 16.847 26.0626 16.8401 25.6158 16.4834C25.3758 16.2946 25.2758 16.2527 25.1157 16.2876C24.8423 16.3436 24.6756 16.5673 24.6756 16.875C24.6756 17.0848 24.729 17.1757 25.0224 17.4554L25.3624 17.784L25.0957 18.1267C24.949 18.3085 24.6156 18.749 24.3622 19.1056L23.8888 19.749L23.0153 18.9798L22.1418 18.2106L26.3626 12.6865C28.6764 9.65174 30.5968 7.16939 30.6301 7.16939C30.6568 7.16939 31.0569 7.49104 31.517 7.88262ZM22.8086 20.3084C22.9353 20.4202 23.0287 20.5251 23.0086 20.5391C22.962 20.5881 20.7949 21.9236 20.7749 21.9236C20.7549 21.9236 21.4483 19.707 21.575 19.3504C21.6084 19.2595 21.8084 19.4203 22.8086 20.3084Z" fill="#041E4E"/>
<path d="M4.50488 8.25327C4.29817 8.46305 4.2915 8.76373 4.47821 9.01546L4.61157 9.19727H11.8396H19.0677L19.2011 9.01546C19.3878 8.76373 19.3811 8.46305 19.1744 8.25327L19.0144 8.07846H11.8396H4.66491L4.50488 8.25327Z" fill="#041E4E"/>
<path d="M4.50508 11.8894C4.39839 11.9943 4.33838 12.1411 4.33838 12.274C4.33838 12.4068 4.39839 12.5537 4.50508 12.6586L4.66511 12.8334H11.8398H19.0146L19.1746 12.6586C19.3946 12.4348 19.3946 12.1131 19.1746 11.8894L19.0146 11.7146H11.8398H4.66511L4.50508 11.8894Z" fill="#041E4E"/>
<path d="M4.47821 15.5325C4.2915 15.7842 4.29817 16.0849 4.50488 16.2947L4.66491 16.4695H11.8396H19.0144L19.1744 16.2947C19.3811 16.0849 19.3878 15.7842 19.2011 15.5325L19.0677 15.3507H11.8396H4.61157L4.47821 15.5325Z" fill="#041E4E"/>
<path d="M4.47821 19.1686C4.2915 19.4203 4.29817 19.721 4.50488 19.9308L4.66491 20.1056H11.8396H19.0144L19.1744 19.9308C19.3811 19.721 19.3878 19.4203 19.2011 19.1686L19.0677 18.9868H11.8396H4.61157L4.47821 19.1686Z" fill="#041E4E"/>
<path d="M4.73848 22.6018C4.3584 22.7487 4.21838 23.2242 4.46509 23.5388L4.59178 23.7067H11.8399H19.0879L19.2146 23.5388C19.3947 23.3011 19.3813 22.9655 19.168 22.7557L18.9946 22.5879L11.9199 22.5739C8.02579 22.5669 4.79182 22.5809 4.73848 22.6018Z" fill="#041E4E"/>
</svg>
