<svg width="134" height="135" viewBox="0 0 134 135" fill="none" xmlns="http://www.w3.org/2000/svg">
<g clip-path="url(#clip0_458_6)">
<path d="M6.40001 5.33381C1.86668 8.80048 -0.533324 14.9338 0.533343 20.2671C1.06668 23.3338 8.53334 32.9338 25.3333 52.6672L49.3333 80.6672L49.6 107.334L50 134L53.7333 134.4C57.6 134.934 64.6667 129.734 78.2667 116.8L84 111.467V96.0005V80.6672L108 52.6672C121.6 36.6671 132.267 23.2005 132.8 21.0671C134 15.2005 132.133 9.73382 127.733 6.00048L123.733 2.66715H66.8C12 2.66715 9.60001 2.80048 6.40001 5.33381ZM122.267 16.6671C122.533 18.4005 114.667 28.6671 98 48.0005L73.3333 76.6672V92.1338V107.734L67.4667 112.534C64.2667 115.2 61.2 117.334 60.8 117.334C60.4 117.334 60 108.134 60 96.9338V76.6672L37.2 50.0005C11.4667 20.1338 10 18.1338 11.2 15.3338C11.8667 13.6005 18.8 13.3338 66.9333 13.6005C120.933 14.0005 122 14.0005 122.267 16.6671Z" fill="#041E4E"/>
</g>
<defs>
<clipPath id="clip0_458_6">
<rect width="133.333" height="134.667" fill="white"/>
</clipPath>
</defs>
</svg>
