<svg width="25" height="26" viewBox="0 0 25 26" fill="none" xmlns="http://www.w3.org/2000/svg">
<path d="M23.2143 0.5H1.78571C1.31226 0.500473 0.85833 0.688762 0.523546 1.02355C0.188762 1.35833 0.000472747 1.81226 0 2.28571V23.7143C0.000543512 24.1877 0.188855 24.6416 0.523624 24.9764C0.858392 25.3111 1.31228 25.4995 1.78571 25.5H23.2143C23.6877 25.4994 24.1415 25.311 24.4763 24.9763C24.811 24.6415 24.9994 24.1877 25 23.7143V2.28571C24.9995 1.81228 24.8111 1.35839 24.4764 1.02362C24.1416 0.688855 23.6877 0.500544 23.2143 0.5ZM23.2143 8.53572H10.7143V2.28571H23.2143V8.53572ZM8.92857 2.28571V8.53572H1.78571V2.28571H8.92857ZM1.78571 23.7143V10.3214H23.2149L23.2161 23.7143H1.78571Z" fill="#041E4E"/>
<path d="M21.4288 17.4644H19.6431V21.9286H21.4288V17.4644Z" fill="#041E4E"/>
<path d="M17.857 13H16.0713V21.9286H17.857V13Z" fill="#041E4E"/>
<path d="M8.03557 21.9286C6.852 21.9272 5.7173 21.4564 4.88039 20.6195C4.04347 19.7826 3.57268 18.6479 3.57129 17.4643H5.357C5.357 17.9941 5.5141 18.5119 5.80842 18.9524C6.10275 19.3929 6.52109 19.7362 7.01053 19.939C7.49997 20.1417 8.03855 20.1947 8.55814 20.0914C9.07773 19.988 9.55501 19.7329 9.92961 19.3583C10.3042 18.9837 10.5593 18.5064 10.6627 17.9868C10.766 17.4673 10.713 16.9287 10.5103 16.4392C10.3075 15.9498 9.9642 15.5315 9.52371 15.2371C9.08322 14.9428 8.56535 14.7857 8.03557 14.7857V13C9.21958 13 10.3551 13.4703 11.1923 14.3076C12.0295 15.1448 12.4999 16.2803 12.4999 17.4643C12.4999 18.6483 12.0295 19.7838 11.1923 20.621C10.3551 21.4582 9.21958 21.9286 8.03557 21.9286Z" fill="#041E4E"/>
</svg>
