<svg width="32" height="32" viewBox="0 0 32 32" fill="none" xmlns="http://www.w3.org/2000/svg">
<g clip-path="url(#clip0_911_15)">
<path d="M13.76 10.463L10.463 13.76C9.84567 14.3773 9.84567 15.3827 10.463 16L22.4674 28H28V22.4674L16 10.463C15.3827 9.84567 14.3773 9.84567 13.76 10.463ZM26 23.2958V26H23.2958L15.8549 18.5591L18.5591 15.8549L26 23.2958ZM17.145 14.4409L14.4409 17.145L12.1737 14.8778L14.8779 12.1736L17.145 14.4409Z" fill="white"/>
<path d="M28 2V10H20V8H24.92C22.67 5.47 19.46 4 16 4C9.39 4 4 9.38 4 16C4 22.61 9.39 28 16 28H17V30H16C8.28 30 2 23.72 2 16C2 8.28 8.28 2 16 2C19.83 2 23.4 3.5499 26 6.23V2H28Z" fill="white"/>
</g>
<defs>
<clipPath id="clip0_911_15">
<rect width="32" height="32" fill="white"/>
</clipPath>
</defs>
</svg>
