<svg width="43" height="50" viewBox="0 0 43 50" fill="none" xmlns="http://www.w3.org/2000/svg">
<path d="M19.3186 0.172966C17.9012 0.413677 16.7624 0.786777 15.345 1.49687C8.70627 4.81868 6.04108 12.8825 9.3968 19.5261C10.0025 20.7176 10.4023 21.3073 11.3351 22.3785C12.7768 24.0514 15.1027 25.5679 17.3318 26.29C22.6137 28.0111 28.5741 26.2299 32.0631 21.8971C36.1699 16.794 36.0245 9.58474 31.6996 4.60204C28.7437 1.19598 23.7767 -0.585272 19.3186 0.172966ZM22.9893 3.97619C28.1864 4.77053 31.8329 9.65695 31.0818 14.7961C30.0642 21.6684 22.3715 25.2791 16.4475 21.6564C13.0554 19.5863 11.2382 15.5664 11.9772 11.7632C12.9948 6.56382 17.7679 3.16981 22.9893 3.97619Z" fill="#E7ECF6"/>
<path d="M22.9893 3.97619C28.1864 4.77053 31.8329 9.65695 31.0818 14.7961C30.0642 21.6684 22.3715 25.2791 16.4475 21.6564C13.0554 19.5863 11.2382 15.5664 11.9772 11.7632C12.9948 6.56382 17.7679 3.16981 22.9893 3.97619Z" fill="#E7ECF6"/>
<path d="M17.7445 28.9496C11.663 29.6357 6.5628 32.7168 3.29188 37.6634C1.42624 40.4917 0.287478 44.1505 0.251134 47.376C0.23902 48.9647 0.311707 49.1934 1.07492 49.747L1.40201 49.9998H21.5H41.598L41.9251 49.747C42.6883 49.1934 42.761 48.9647 42.7489 47.376C42.7125 44.2347 41.6949 40.8528 39.8898 37.9642C37.0672 33.4509 32.5242 30.3458 27.1333 29.2265C26.0793 29.0098 25.413 28.9737 22.0452 28.9376C19.913 28.9135 17.9747 28.9256 17.7445 28.9496ZM26.7092 33.0658C32.1123 34.3415 36.1949 37.9161 38.0363 42.959C38.3271 43.7774 38.8116 45.679 38.8238 46.0521C38.8238 46.1725 35.2742 46.2086 21.5 46.2086C7.72579 46.2086 4.17624 46.1725 4.17624 46.0521C4.18835 45.691 4.67293 43.7774 4.96368 42.959C6.96258 37.4467 11.9416 33.5231 17.8656 32.801C18.0958 32.7769 19.9493 32.7649 21.9846 32.789C25.1949 32.813 25.8128 32.8491 26.7092 33.0658Z" fill="#E7ECF6"/>
<path d="M26.7092 33.0658C32.1123 34.3415 36.1949 37.9161 38.0363 42.959C38.3271 43.7774 38.8116 45.679 38.8238 46.0521C38.8238 46.1725 35.2742 46.2086 21.5 46.2086C7.72579 46.2086 4.17624 46.1725 4.17624 46.0521C4.18835 45.691 4.67293 43.7774 4.96368 42.959C6.96258 37.4467 11.9416 33.5231 17.8656 32.801C18.0958 32.7769 19.9493 32.7649 21.9846 32.789C25.1949 32.813 25.8128 32.8491 26.7092 33.0658Z" fill="#E7ECF6"/>
</svg>
