<svg width="25" height="28" viewBox="0 0 25 28" fill="none" xmlns="http://www.w3.org/2000/svg">
<path d="M11.2164 0.0968418C10.3827 0.231639 9.71282 0.440576 8.87906 0.838229C4.9739 2.69844 3.40614 7.21416 5.3801 10.9346C5.73641 11.6018 5.97157 11.9321 6.52029 12.5319C7.3683 13.4688 8.73653 14.318 10.0477 14.7224C13.1548 15.6862 16.6609 14.6887 18.7132 12.2623C21.129 9.40463 21.0435 5.36743 18.4994 2.57712C16.7606 0.669731 13.8389 -0.327771 11.2164 0.0968418ZM13.3757 2.22665C16.4328 2.67148 18.5778 5.40787 18.136 8.28581C17.5374 12.1343 13.0122 14.1562 9.52754 12.1275C7.53221 10.9683 6.46328 8.71716 6.89797 6.58735C7.49657 3.67572 10.3043 1.77507 13.3757 2.22665Z" fill="#041E4E"/>
<path d="M10.2909 16.2119C6.71354 16.5961 3.71341 18.3215 1.78934 21.0916C0.691907 22.6755 0.0220458 24.7244 0.000667225 26.5307C-0.00645896 27.4204 0.0362982 27.5484 0.485248 27.8585L0.677655 28H12.5H24.3223L24.5148 27.8585C24.9637 27.5484 25.0065 27.4204 24.9993 26.5307C24.978 24.7716 24.3794 22.8777 23.3176 21.2601C21.6572 18.7327 18.9848 16.9938 15.8137 16.367C15.1937 16.2456 14.8018 16.2254 12.8207 16.2052C11.5665 16.1917 10.4263 16.1985 10.2909 16.2119ZM15.5643 18.517C18.7425 19.2314 21.1441 21.2332 22.2272 24.0572C22.3983 24.5155 22.6833 25.5804 22.6904 25.7893C22.6904 25.8567 20.6025 25.8769 12.5 25.8769C4.39752 25.8769 2.30955 25.8567 2.30955 25.7893C2.31668 25.5871 2.60173 24.5155 2.77275 24.0572C3.94857 20.9703 6.87744 18.7731 10.3621 18.3687C10.4975 18.3552 11.5878 18.3485 12.785 18.362C14.6735 18.3754 15.0369 18.3957 15.5643 18.517Z" fill="#041E4E"/>
</svg>
