<svg width="43" height="51" viewBox="0 0 43 51" fill="none" xmlns="http://www.w3.org/2000/svg">
<g clip-path="url(#clip0_458_9)">
<path d="M18.2177 0.875021C15.9063 1.50002 13.396 2.95002 11.8054 4.60002C5.36826 11.2 7.18259 21.875 15.4341 25.975C18.3419 27.425 20.7279 27.75 23.7601 27.15C32.8317 25.35 37.4794 15.75 33.2294 7.62502C32.1358 5.57502 29.6007 3.07502 27.5627 2.07502C24.5305 0.575019 21.0013 0.125021 18.2177 0.875021Z" fill="#E7ECF6"/>
<path d="M14.6639 30.025C6.66096 32.125 0.820312 39.1 0.323236 47.15C0.198967 49.3 0.223821 49.45 0.770605 49.95L1.34224 50.5H21.3744H41.4066L41.9782 49.95C42.525 49.45 42.5498 49.3 42.4256 47.15C41.9285 39.1 36.2121 32.25 28.0849 30C25.4256 29.275 17.4475 29.275 14.6639 30.025Z" fill="#E7ECF6"/>
</g>
<defs>
<clipPath id="clip0_458_9">
<rect width="42.5" height="50" fill="white" transform="translate(0 0.5)"/>
</clipPath>
</defs>
</svg>
