<svg width="50" height="50" viewBox="0 0 50 50" fill="none" xmlns="http://www.w3.org/2000/svg">
<path d="M43.5429 12.9123V25.8247H42.7358H41.9287V14.5264V3.22808H38.7001H35.4716V10.804V18.3799L35.1487 18.1378C34.9671 17.9966 34.6039 17.7646 34.3416 17.6132L33.8573 17.3308V12.7005V8.07021H30.6288H27.4003L27.3801 12.1658L27.3498 16.2615L26.4216 16.4935C24.5551 16.9676 22.8399 17.9764 21.4577 19.429C18.3301 22.6773 17.644 27.3177 19.682 31.3729C20.2369 32.4725 20.8322 33.2594 21.8512 34.2278C22.9106 35.2466 24.3231 36.1243 25.5136 36.5076C25.7154 36.5782 25.8869 36.6488 25.8869 36.669C25.8869 36.6892 25.7355 36.9313 25.5438 37.2138C25.1605 37.7787 24.9789 38.4546 24.9789 39.3322V39.9173L23.1325 41.0572C21.145 42.298 20.2773 42.7116 18.885 43.1151C17.5734 43.4984 17.5633 43.4984 17.412 42.7419C16.8873 40.0182 15.5152 37.4559 13.346 35.1458L12.8718 34.6313L12.892 32.6339L12.9223 30.6365L13.457 30.5054C14.1834 30.3137 14.5366 30.1221 15.0612 29.5975C15.7876 28.8712 16.0298 28.2155 16.0903 26.7931L16.1508 25.5927L17.3414 25.1891L18.5218 24.7957V24.2308C18.5117 23.0808 18.0476 21.4869 17.1597 19.6005L16.625 18.4707L17.1194 18.3093C19.107 17.6435 20.4085 15.5049 20.0654 13.4672C19.7426 11.5908 18.3604 10.1382 16.5443 9.78513C16.1206 9.70443 14.8998 9.67416 12.5086 9.70443C9.20948 9.74478 9.05814 9.75487 8.09967 10.0171C4.98212 10.8544 2.50018 12.8619 1.10787 15.6865C0.805198 16.3018 0.441988 17.2501 0.29065 17.8049C0.0585995 18.7027 0.028332 18.9953 0.028332 20.4782C0.028332 21.951 0.0585995 22.2536 0.29065 23.1212C1.0877 26.1071 2.95419 28.4778 5.67827 29.9808L6.41478 30.3843V31.0199V31.6554L5.89014 31.8269C4.19516 32.3817 2.49009 33.6528 1.48117 35.1357C1.01707 35.8216 0.42181 37.1431 0.199848 37.9804C-0.0826489 39.0497 -0.0624706 41.1581 0.240205 42.1971C0.875822 44.4366 2.08652 46.0708 4.14471 47.473C5.77916 48.5928 7.62548 49.3695 9.64331 49.8033C10.8742 50.0656 16.2618 50.0656 17.7651 49.8033C20.5194 49.3191 22.8904 48.4616 25.1705 47.1199C25.453 46.9485 25.7053 46.8072 25.7255 46.8072C25.7456 46.8072 25.786 47.009 25.8163 47.2612C25.9575 48.2699 26.5729 49.1274 27.5213 49.6419C28.1065 49.9546 28.2276 49.9849 29.0145 49.9849C29.8015 49.9849 29.9225 49.9546 30.5077 49.6419C31.214 49.2585 31.5166 48.9458 31.9202 48.1792L32.1926 47.6647V42.9739C32.1926 38.6664 32.1724 38.2427 32.011 37.8392C31.9101 37.587 31.7386 37.2642 31.6276 37.1129L31.4359 36.8405L32.011 36.669C34.7452 35.8822 37.2473 33.7032 38.4983 31.04C38.9322 30.112 39.2752 28.9922 39.3862 28.0843L39.4568 27.4892L44.7335 27.4589L50 27.4387V13.7194V-1.72388e-06H46.7715H43.5429V12.9123ZM48.3857 13.7194V25.8247H46.7715H45.1572V13.7194V1.61404H46.7715H48.3857V13.7194ZM40.3144 15.3435V25.8348L39.8907 25.8045L39.4568 25.7742L39.3862 25.169C39.1945 23.676 38.3773 21.6483 37.4692 20.4479L37.0859 19.9334V12.3878V4.84212H38.7001H40.3144V15.3435ZM32.2431 13.1746C32.2431 16.4632 32.233 16.665 32.0715 16.5944C31.7083 16.4632 30.4674 16.2312 29.751 16.1707L29.0145 16.1102V12.9022V9.68425H30.6288H32.2431V13.1746ZM16.6048 11.4597C17.3615 11.6816 18.1081 12.4483 18.3604 13.2553C18.7942 14.6172 18.209 15.979 16.9075 16.6549C16.514 16.8667 16.282 16.897 15.0713 16.9273L13.679 16.9676V17.7545V18.5312L14.0825 18.5917C14.7686 18.6825 15.0713 18.9953 15.6565 20.2159C16.2215 21.4062 16.8066 23.0203 16.8066 23.4238C16.8066 23.6356 16.6956 23.6962 15.6464 24.0391L14.4861 24.4225V25.9558C14.4861 27.6203 14.3751 28.0541 13.8707 28.5181C13.3763 28.9721 12.9828 29.0528 11.2576 29.0528H9.64331V29.8598V30.6668H10.4504H11.2576V32.0387V33.4107L10.9246 33.1988C10.3899 32.8458 9.01778 32.1194 8.51333 31.9177L8.02905 31.726V28.6089V25.4817L7.22191 24.6545C6.50558 23.9282 6.41478 23.7869 6.41478 23.4641C6.41478 22.8891 6.7679 22.5966 7.47414 22.5966H8.02905V21.2347C8.02905 20.3067 8.0694 19.7619 8.17029 19.54C8.34181 19.1062 8.85636 18.6825 9.29019 18.6018L9.64331 18.5413V17.7343V16.9273L9.16912 16.9979C8.11985 17.1492 7.18156 17.8553 6.72754 18.8137C6.54594 19.1869 6.47531 19.5602 6.43496 20.2461C6.3946 20.9725 6.35424 21.1843 6.24326 21.1843C6.16255 21.1843 5.85987 21.4264 5.56729 21.7089C4.94176 22.3444 4.73998 22.8992 4.83078 23.7668C4.9014 24.4427 5.21417 24.9975 5.90023 25.6734L6.41478 26.1677V27.358V28.5585L5.82961 28.1852C4.41712 27.2773 3.20642 25.9256 2.49009 24.4124C0.331007 19.8931 2.18741 14.5062 6.66701 12.2869C8.38217 11.4294 9.0985 11.3185 12.9324 11.3084C15.5152 11.2983 16.1609 11.3286 16.6048 11.4597ZM30.5783 17.9058C32.3339 18.2185 33.9784 19.086 35.2698 20.3773C38.7405 23.8374 38.7405 29.4361 35.2799 32.8962C31.8193 36.3563 26.2602 36.3563 22.7693 32.8962C19.2785 29.4361 19.2684 23.8576 22.7592 20.3773C24.8376 18.2992 27.6727 17.4014 30.5783 17.9058ZM8.07949 36.326C8.79582 37.9905 9.41126 39.3725 9.44153 39.3927C9.4718 39.4129 10.0671 38.7067 10.7531 37.819C11.4392 36.9414 12.0344 36.2151 12.0748 36.2151C12.1656 36.2151 12.8517 36.9817 13.3864 37.6778C14.0725 38.5756 14.5467 39.4028 15.0108 40.462C15.374 41.2993 15.8986 43.0647 15.8986 43.4379C15.8986 43.7103 14.1734 43.5691 12.6499 43.1756C10.9145 42.7318 9.0077 41.6826 7.68601 40.4519L7.01004 39.8164L6.44505 40.3813C5.76907 41.0471 5.72871 40.9361 7.08066 42.0559C10.7027 45.062 15.495 45.9699 19.9444 44.487C21.1752 44.0734 22.1135 43.5993 23.9901 42.419L25.6347 41.38L26.5931 42.3383L27.5516 43.2866L27.0169 43.7708C24.2928 46.2423 20.3076 47.9471 16.3627 48.3305C14.7081 48.4919 10.7531 48.391 9.7442 48.1691C7.29254 47.6243 5.24443 46.5349 3.64026 44.941C2.97437 44.2752 2.74232 43.9625 2.35893 43.1756C0.986803 40.3712 1.48117 37.2138 3.64026 35.055C4.45748 34.248 6.04148 33.3098 6.62665 33.2896C6.73763 33.2896 7.15129 34.1471 8.07949 36.326ZM9.16912 34.0059C9.6534 34.258 10.7531 35.0247 10.7531 35.1155C10.7531 35.2769 9.90563 36.3159 9.82492 36.2352C9.75429 36.1646 8.83618 34.0462 8.83618 33.9554C8.83618 33.8646 8.92698 33.8848 9.16912 34.0059ZM29.3979 37.2743C30.1647 37.5971 30.6187 38.3032 30.6288 39.1809C30.6288 39.8668 30.3665 40.341 29.4786 41.3094L28.7219 42.1164L27.6626 41.0572L26.5931 39.998V39.3625C26.5931 38.3436 26.9664 37.6778 27.7534 37.3146C28.2477 37.0826 28.8935 37.0725 29.3979 37.2743ZM30.5279 47.3318C30.2353 48.3507 28.8329 48.7441 27.9955 48.048C27.5415 47.6647 27.4003 47.241 27.4003 46.3331L27.4103 45.5463L27.9451 45.1125C28.2477 44.8805 28.9641 44.1945 29.5291 43.5993L30.5783 42.5199L30.6086 44.7392C30.6288 46.1011 30.5985 47.0998 30.5279 47.3318Z" fill="#080808"/>
<path d="M10.4915 16.8869C10.5621 17.704 10.774 18.5111 11.0564 19.0659C11.2683 19.4896 12.156 20.6799 12.2468 20.6799C12.3275 20.6799 13.3766 19.7014 13.3766 19.6308C13.3766 19.6005 13.195 19.3383 12.9731 19.0457C12.4687 18.39 12.1963 17.6637 12.1056 16.8062L12.0349 16.1404H11.2279H10.4209L10.4915 16.8869Z" fill="#080808"/>
<path d="M27.7427 19.4693C26.2898 19.7316 25.0488 20.4075 23.9189 21.5373C23.0007 22.4553 22.466 23.3027 22.0826 24.4628C21.8506 25.179 21.8203 25.4312 21.8203 26.6316C21.8203 27.8321 21.8506 28.0843 22.0826 28.8005C22.466 29.9606 23.0007 30.808 23.9189 31.726C24.837 32.644 25.6845 33.1786 26.8447 33.5619C27.5611 33.794 27.8133 33.8242 29.0139 33.8242C30.2145 33.8242 30.4667 33.794 31.1831 33.5619C32.3433 33.1786 33.1908 32.644 34.1089 31.726C35.027 30.808 35.5618 29.9606 35.9452 28.8005C36.1772 28.0843 36.2075 27.8321 36.2075 26.6316C36.2075 25.4312 36.1772 25.179 35.9452 24.4628C35.5618 23.3027 35.027 22.4553 34.1089 21.5373C32.7065 20.125 31.2436 19.4895 29.3166 19.4189C28.7314 19.3987 28.0252 19.4189 27.7427 19.4693ZM30.0833 21.0935C31.7178 21.386 33.322 22.6167 34.0585 24.1501C35.5819 27.3176 34.0282 30.8887 30.6282 32.0387C29.8614 32.301 28.1664 32.301 27.3996 32.0387C24.6655 31.1207 23.0411 28.5685 23.4447 25.8145C23.707 23.9987 24.8672 22.415 26.5219 21.5979C27.7124 21.0128 28.7919 20.8614 30.0833 21.0935Z" fill="#080808"/>
<path d="M35.4727 39.5441V40.3511H36.2797H37.0867V39.5441V38.737H36.2797H35.4727V39.5441Z" fill="#080808"/>
<path d="M38.7002 39.5441V40.3511H43.543H48.3858V39.5441V38.737H43.543H38.7002V39.5441Z" fill="#080808"/>
<path d="M35.4727 42.7721V43.5791H36.2797H37.0867V42.7721V41.9651H36.2797H35.4727V42.7721Z" fill="#080808"/>
<path d="M38.7002 42.7721V43.5791H43.543H48.3858V42.7721V41.9651H43.543H38.7002V42.7721Z" fill="#080808"/>
<path d="M35.4727 46.0002V46.8073H36.2797H37.0867V46.0002V45.1932H36.2797H35.4727V46.0002Z" fill="#080808"/>
<path d="M38.7002 46.0002V46.8073H43.543H48.3858V46.0002V45.1932H43.543H38.7002V46.0002Z" fill="#080808"/>
</svg>
