<svg width="26" height="26" viewBox="0 0 26 26" fill="none" xmlns="http://www.w3.org/2000/svg">
<path d="M2.50092 0.563791C1.56276 0.796703 0.780959 1.6548 0.549315 2.69677C0.410328 3.32809 0.572479 4.19844 0.94311 4.7746C1.02998 4.90944 3.04528 7.28759 5.42543 10.058L9.75718 15.0963L9.76876 19.9874C9.78613 24.8234 9.78613 24.8847 9.90774 25.0502C10.1915 25.4609 10.6606 25.608 11.037 25.418C11.147 25.3628 12.3168 24.4005 13.6372 23.2788C15.3688 21.8139 16.0695 21.1826 16.139 21.0294C16.2316 20.8333 16.2432 20.5574 16.2432 17.9525V15.0963L20.0827 10.628C22.1907 8.17021 24.177 5.85947 24.4898 5.49172C25.1268 4.74395 25.3642 4.30264 25.4684 3.65294C25.6364 2.60484 25.121 1.44641 24.2292 0.882513C23.5805 0.471853 24.2929 0.49637 12.9712 0.502499C7.16855 0.508627 2.62832 0.533146 2.50092 0.563791Z" fill="#E2E1DC"/>
</svg>
