<svg width="17" height="20" viewBox="0 0 17 20" fill="none" xmlns="http://www.w3.org/2000/svg">
<path d="M1.94686 0.0649529C1.31977 0.232929 0.773258 0.807178 0.577073 1.50643L0.5 1.77989V8.71384V15.6478L0.577073 15.9212C0.675165 16.2728 0.87135 16.6088 1.12008 16.8588C1.3443 17.0854 5.42565 19.73 5.78298 19.8785C6.71837 20.273 7.83592 19.6714 8.18275 18.5854C8.26332 18.3315 8.27383 18.2339 8.28785 17.5541L8.30186 16.8041L9.9379 16.7924L11.5704 16.7807L11.8297 16.6752C12.4358 16.4291 12.8667 15.9134 13.0523 15.2181C13.1189 14.9603 13.1574 12.3742 13.0979 12.1203C12.9858 11.6593 12.5339 11.4757 12.2045 11.7648C12.0259 11.921 12.0259 11.9249 12.0084 13.4406L11.9908 14.8704L11.8998 15.0618C11.8017 15.2806 11.5985 15.4603 11.3918 15.5111C11.3182 15.5306 10.5895 15.5501 9.77675 15.5501H8.29485V10.5772C8.29485 5.116 8.30186 5.31132 8.08115 4.81129C7.92 4.44409 7.62222 4.13157 7.12125 3.80733C6.89003 3.65498 5.9091 3.02604 4.93869 2.40101L3.18003 1.27205L7.24736 1.26033C9.99746 1.25642 11.3602 1.26423 11.4513 1.29158C11.623 1.34236 11.8122 1.52987 11.9138 1.73691C11.9873 1.89317 11.9908 1.94396 12.0084 3.51826C12.0294 5.33085 12.0189 5.25663 12.2851 5.42461C12.5444 5.58868 12.8527 5.50664 13.0173 5.22538L13.1119 5.06521V3.4245C13.1119 1.83458 13.1084 1.77207 13.0348 1.50643C12.8351 0.799366 12.2886 0.229023 11.651 0.0610466C11.3322 -0.0209885 2.25516 -0.0209904 1.94686 0.0649529ZM4.23452 3.39325C5.62884 4.29174 6.81646 5.0574 6.86901 5.09646C6.92156 5.13943 7.00914 5.25272 7.06169 5.35038L7.15628 5.53008L7.16679 11.7413C7.1773 18.7417 7.19482 18.2339 6.91105 18.5112C6.64129 18.7769 6.30498 18.8159 6.00019 18.6245C3.68801 17.144 1.91884 15.9916 1.85578 15.9252C1.81024 15.8822 1.73667 15.7728 1.69813 15.6869L1.62106 15.5306V8.7529C1.62106 2.82291 1.63157 1.76035 1.68762 1.76035C1.69463 1.76035 2.84021 2.49477 4.23452 3.39325Z" fill="white"/>
<path d="M13.8579 5.82303C13.7878 5.866 13.7002 5.95976 13.6582 6.03007C13.5706 6.19024 13.5601 6.47932 13.6337 6.63557C13.6617 6.69417 13.8824 6.95981 14.1241 7.22936C14.3659 7.4989 14.5656 7.72938 14.5656 7.74501C14.5656 7.76454 13.3779 7.77626 11.9241 7.77626H9.28607L9.17046 7.8622C8.97077 8.01455 8.90771 8.14347 8.90771 8.40129C8.90771 8.67865 8.98128 8.81147 9.2055 8.93648L9.35964 9.02632H11.9696H14.5831L14.1417 9.52244C13.8964 9.7998 13.6722 10.0654 13.6407 10.1201C13.5706 10.2412 13.5671 10.5537 13.6372 10.7022C13.7107 10.8624 13.8824 11.0108 14.026 11.0421C14.3098 11.1007 14.3764 11.046 15.3783 9.93262C15.8968 9.36228 16.3557 8.831 16.4048 8.74897C16.5134 8.58099 16.5309 8.2841 16.4468 8.1044C16.3663 7.93642 14.4605 5.83475 14.3448 5.78787C14.1977 5.72537 14.0015 5.741 13.8579 5.82303Z" fill="white"/>
</svg>
