<svg width="50" height="50" viewBox="0 0 50 50" fill="none" xmlns="http://www.w3.org/2000/svg">
<g clip-path="url(#clip0_1214_22)">
<path d="M18.75 25H9.375V28.125H18.75V25Z" fill="white"/>
<path d="M25 18.75H9.375V21.875H25V18.75Z" fill="white"/>
<path d="M25 12.5H9.375V15.625H25V12.5Z" fill="white"/>
<path d="M21.875 40.625H6.25V9.375H43.75V25H46.875V9.375C46.875 8.5462 46.5458 7.75134 45.9597 7.16529C45.3737 6.57924 44.5788 6.25 43.75 6.25H6.25C5.4212 6.25 4.62634 6.57924 4.04029 7.16529C3.45424 7.75134 3.125 8.5462 3.125 9.375V40.625C3.125 41.4538 3.45424 42.2487 4.04029 42.8347C4.62634 43.4208 5.4212 43.75 6.25 43.75H21.875V40.625Z" fill="white"/>
<path d="M34.375 39.9844L30.3281 35.9375L28.125 38.1406L34.375 44.3906L46.875 31.8906L44.6719 29.6875L34.375 39.9844Z" fill="white"/>
</g>
<defs>
<clipPath id="clip0_1214_22">
<rect width="50" height="50" fill="white"/>
</clipPath>
</defs>
</svg>
