<svg width="102" height="150" viewBox="0 0 102 150" fill="none" xmlns="http://www.w3.org/2000/svg">
<path d="M52.2791 6.64319C52.3639 24.4211 52.4491 42.1993 52.5335 59.9772H95.3452L38.3033 142.662C41.108 123.636 43.9126 104.61 46.7168 85.5839C33.361 85.5839 20.0061 85.5839 6.65039 85.5839C21.8598 59.2703 37.0697 32.9563 52.2791 6.64319Z" fill="url(#paint0_linear_2151_113)"/>
<path d="M52.2811 6.65377C52.3659 24.4317 52.4511 42.21 52.5359 59.9878H95.3471L38.3053 142.673C41.1099 123.647 43.9146 104.621 46.7188 85.5946C33.363 85.5946 20.0081 85.5946 6.65233 85.5946C21.8622 59.281 37.0721 32.967 52.2811 6.65377ZM52.2806 0C49.9479 0 47.7309 1.23162 46.5213 3.32439L23.7072 42.7946L0.892997 82.2648C-0.29663 84.323 -0.29787 86.8599 0.890509 88.919C2.07889 90.978 4.27562 92.2467 6.65279 92.2467H39.0134L35.9303 113.163L31.7235 141.702C31.2723 144.762 32.9897 147.729 35.8679 148.863C36.6625 149.176 37.4878 149.326 38.3032 149.326C40.4409 149.326 42.51 148.293 43.7815 146.45L100.823 63.765C102.228 61.7297 102.387 59.0839 101.237 56.8946C100.088 54.7054 97.8195 53.3341 95.3471 53.3341H59.1568L59.0612 33.2879L58.934 6.62091C58.9195 3.61627 56.8932 0.994187 53.9892 0.222446C53.4216 0.0727553 52.8474 0 52.2806 0Z" fill="#A35A00"/>
<path d="M89.8723 67.9063C78.8683 72.6661 66.0166 75.4079 52.2787 75.4079C39.2647 75.4079 27.0487 72.9446 16.4418 68.6402C13.1782 74.2869 9.91407 79.9335 6.65039 85.5798C20.0061 85.5798 33.361 85.5798 46.7164 85.5798C43.9118 104.606 41.1075 123.632 38.3029 142.659L89.8723 67.9063Z" fill="#E39200"/>
<path d="M52.2787 6.64319C45.3858 20.2946 38.4929 33.946 31.6001 47.5974C23.2831 60.2596 14.967 72.9218 6.65039 85.5836L52.2787 6.64319Z" fill="url(#paint1_linear_2151_113)"/>
<defs>
<linearGradient id="paint0_linear_2151_113" x1="25.2577" y1="142.662" x2="95.3452" y2="142.662" gradientUnits="userSpaceOnUse">
<stop stop-color="#F6D365"/>
<stop offset="1" stop-color="#FFBF23"/>
</linearGradient>
<linearGradient id="paint1_linear_2151_113" x1="-1.67775" y1="77.2558" x2="60.6068" y2="14.9713" gradientUnits="userSpaceOnUse">
<stop offset="0.1339" stop-color="white"/>
<stop offset="0.1836" stop-color="white"/>
<stop offset="0.5714" stop-color="white"/>
<stop offset="0.9928" stop-color="white"/>
<stop offset="1" stop-color="white"/>
</linearGradient>
</defs>
</svg>
