<svg width="81" height="45" viewBox="0 0 81 45" fill="none" xmlns="http://www.w3.org/2000/svg">
<g opacity="0.6">
<path opacity="0.1" d="M53.952 23.5189C54.0541 24.0294 55.5848 27.346 58.1365 27.6269C60.6881 27.9078 61.5044 26.989 63.7499 27.0912C65.9954 27.1933 68.5639 27.4995 70.0353 27.1933C71.5066 26.8872 72.0364 25.3333 73.7618 25.5997C75.4872 25.8666 77.6891 24.9478 79.0374 24.5395C80.3862 24.1312 80.9616 18.4501 80.9616 18.4501C80.9616 18.4501 73.7798 17.3197 69.8365 16.8473C65.8932 16.3748 52.727 14.8438 51.1964 14.8438C49.6653 14.8438 44.7274 18.0794 44.8977 18.3587C45.068 18.638 45.9616 22.6005 47.5071 23.4171C49.0526 24.2338 51.7064 24.846 52.4209 24.5399C53.1357 24.2334 53.952 23.5189 53.952 23.5189Z" fill="black"/>
<path d="M78.1727 13.4311C78.4427 12.9254 78.6102 12.3568 78.6102 11.7437C78.6102 9.75186 76.9954 8.13663 75.0031 8.13663C74.5459 8.13663 74.1124 8.2304 73.7097 8.38587C74.0755 7.91505 74.2935 7.35806 74.2935 6.75661C74.2935 5.08769 72.6594 3.73494 70.6443 3.73494C70.3694 3.73494 70.1042 3.76459 69.8465 3.81228C69.0026 1.5944 66.7042 0 63.9935 0C61.1185 0 58.7074 1.79274 58.0046 4.22178C56.1121 4.31034 54.4308 5.06886 53.2968 6.22968C52.9546 5.88909 52.527 5.67713 52.0558 5.67713C50.9507 5.67713 50.0551 6.79509 50.0551 8.1739C50.0551 8.40911 50.0896 8.63189 50.1381 8.84747C46.6596 9.49901 44.0526 12.1609 44.0526 15.35C44.0526 19.0273 47.5163 22.0081 51.7889 22.0081C52.858 22.0081 53.8762 21.8213 54.8022 21.484C55.8152 23.3071 57.7586 24.5425 59.9921 24.5425C61.2142 24.5425 62.3494 24.1722 63.2934 23.5391C64.2808 24.1614 65.5742 24.5425 66.9947 24.5425C69.2126 24.5425 71.1235 23.6197 72.0311 22.2845C72.9315 22.7826 73.9917 23.0751 75.1309 23.0751C78.3722 23.0751 81 20.7463 81 17.8732C81 15.9892 79.8656 14.3439 78.1727 13.4311Z" fill="#253C66"/>
<path d="M74.5642 19.511C73.4527 19.511 72.4068 19.2289 71.4944 18.7328C70.2607 20.0227 68.393 20.8445 66.303 20.8445C65.1934 20.8445 64.1492 20.6085 63.2268 20.1986C62.4054 20.6065 61.4501 20.8445 60.4255 20.8445C57.6058 20.8445 55.2849 19.0694 54.9643 16.783C53.4201 17.8825 51.459 18.5437 49.3209 18.5437C47.4905 18.5437 45.7899 18.0585 44.369 17.2294C45.3111 19.9922 48.2735 22.0118 51.7884 22.0118C52.8575 22.0118 53.8756 21.825 54.8017 21.4876C55.8146 23.3108 57.758 24.5462 59.9915 24.5462C61.2137 24.5462 62.3489 24.1759 63.2929 23.5428C64.2802 24.1651 65.5737 24.5462 66.9942 24.5462C69.212 24.5462 71.123 23.6234 72.0306 22.2882C72.931 22.7863 73.9912 23.0788 75.1304 23.0788C78.3717 23.0788 80.9994 20.7499 80.9994 17.8769C80.9994 17.0924 80.7935 16.3539 80.4417 15.6875C79.4399 17.939 77.1876 19.511 74.5642 19.511Z" fill="#0F1934"/>
<path d="M78.1323 11.9797C78.1323 10.2671 76.3856 8.87826 74.2307 8.87826C73.9037 8.87826 73.5911 8.91995 73.2878 8.98005C73.2778 8.65148 73.2053 8.33851 73.0839 8.046C73.4449 7.65612 73.6637 7.20174 73.6637 6.71088C73.6637 5.2928 71.9282 4.14318 69.7873 4.14318C69.6382 4.14318 69.4968 4.16122 69.3525 4.17204C69.07 3.65233 68.6645 3.20396 68.1621 2.86216C67.9922 1.47093 66.3429 0.375 64.3105 0.375C62.5114 0.375 61.0124 1.2349 60.5704 2.39653C59.0593 2.68142 57.9346 3.69439 57.8717 4.92174C57.5776 4.87566 57.2746 4.84362 56.9573 4.84362C55.344 4.84362 53.9825 5.48193 53.4604 6.37068C53.1518 6.23044 52.808 6.1439 52.439 6.1439C51.1776 6.1439 50.1546 7.06629 50.1546 8.20428C50.1546 8.56331 50.2656 8.89548 50.4443 9.1896C48.8166 9.50695 47.6246 10.4302 47.54 11.5469C47.0828 11.9628 46.8143 12.4525 46.8143 12.9786C46.8143 14.4776 48.9581 15.6926 51.6023 15.6926C52.9671 15.6926 54.1952 15.3672 55.0672 14.8483C55.7776 16.3513 57.5187 17.4152 59.5582 17.4152C60.9154 17.4152 62.1399 16.9432 63.0183 16.1858C63.8177 16.8077 64.8194 17.182 65.9109 17.182C66.9936 17.182 67.9882 16.8133 68.7847 16.1998C69.645 16.9383 70.9858 17.4152 72.4968 17.4152C75.0938 17.4152 77.1986 16.0119 77.1986 14.2805C77.1986 14.1831 77.1898 14.0874 77.1766 13.9924C77.7644 13.4491 78.1323 12.7518 78.1323 11.9797Z" fill="#3B5FA0"/>
</g>
<g opacity="0.6">
<path opacity="0.1" d="M15.5773 37.6508C15.7381 38.4541 18.1467 43.6729 22.1618 44.1149C26.177 44.5569 27.4614 43.1111 30.9948 43.2719C34.5282 43.4327 38.5699 43.9144 40.8852 43.4327C43.2005 42.951 44.034 40.5058 46.749 40.9251C49.4641 41.345 52.9288 39.8992 55.0505 39.2567C57.1728 38.6142 58.0783 29.6747 58.0783 29.6747C58.0783 29.6747 46.7774 27.896 40.5724 27.1526C34.3675 26.4092 13.6498 24 11.2412 24C8.83195 24 1.06203 29.0914 1.33001 29.5309C1.59798 29.9704 3.00404 36.2056 5.43596 37.4906C7.86789 38.7757 12.0438 39.7391 13.1681 39.2574C14.2929 38.775 15.5773 37.6508 15.5773 37.6508Z" fill="black"/>
<path d="M53.6896 21.7751C54.1146 20.9794 54.3781 20.0847 54.3781 19.12C54.3781 15.9857 51.8371 13.444 48.7022 13.444C47.9827 13.444 47.3005 13.5916 46.6668 13.8362C47.2425 13.0954 47.5855 12.2189 47.5855 11.2725C47.5855 8.64636 45.0142 6.51775 41.8433 6.51775C41.4108 6.51775 40.9934 6.5644 40.588 6.63944C39.2601 3.1495 35.6434 0.640625 31.3779 0.640625C26.8539 0.640625 23.0601 3.46159 21.9541 7.28381C18.9762 7.42316 16.3305 8.61673 14.5461 10.4433C14.0077 9.90741 13.3349 9.57388 12.5934 9.57388C10.8544 9.57388 9.44522 11.333 9.44522 13.5027C9.44522 13.8728 9.49944 14.2233 9.57574 14.5626C4.10217 15.5878 0 19.7764 0 24.7947C0 30.581 5.45023 35.2714 12.1735 35.2714C13.8557 35.2714 15.4579 34.9776 16.915 34.4467C18.509 37.3156 21.567 39.2595 25.0815 39.2595C27.0046 39.2595 28.7909 38.6769 30.2764 37.6806C31.83 38.6598 33.8653 39.2595 36.1005 39.2595C39.5905 39.2595 42.5974 37.8074 44.0256 35.7065C45.4423 36.4902 47.1107 36.9505 48.9033 36.9505C54.0036 36.9505 58.1385 33.2859 58.1385 28.7651C58.1385 25.8004 56.3535 23.2115 53.6896 21.7751Z" fill="#253C66"/>
<path d="M48.0117 31.3367C46.2626 31.3367 44.6169 30.8929 43.1812 30.1123C41.2399 32.1419 38.301 33.4351 35.0122 33.4351C33.2663 33.4351 31.6231 33.0638 30.1717 32.4187C28.8791 33.0606 27.3759 33.4351 25.7637 33.4351C21.3267 33.4351 17.6747 30.6419 17.1703 27.0442C14.7403 28.7743 11.6545 29.8147 8.29004 29.8147C5.40981 29.8147 2.73388 29.0511 0.498047 27.7466C1.9804 32.094 6.64186 35.2719 12.1728 35.2719C13.855 35.2719 15.4572 34.978 16.9143 34.4471C18.5083 37.316 21.5663 39.2599 25.0808 39.2599C27.0039 39.2599 28.7902 38.6773 30.2757 37.6811C31.8293 38.6603 33.8646 39.2599 36.0998 39.2599C39.5898 39.2599 42.5967 37.8078 44.0249 35.7069C45.4417 36.4907 47.11 36.9509 48.9026 36.9509C54.0029 36.9509 58.1378 33.2863 58.1378 28.7655C58.1378 27.5309 57.8138 26.3689 57.2602 25.3203C55.6839 28.8632 52.1397 31.3367 48.0117 31.3367Z" fill="#0F1934"/>
<path d="M53.626 19.4793C53.626 16.7844 50.8776 14.5991 47.4866 14.5991C46.9721 14.5991 46.4803 14.6647 46.003 14.7592C45.9873 14.2422 45.8731 13.7497 45.6821 13.2895C46.2502 12.676 46.5945 11.961 46.5945 11.1886C46.5945 8.95715 43.8637 7.14817 40.4948 7.14817C40.2602 7.14817 40.0377 7.17656 39.8107 7.19359C39.3662 6.3758 38.7281 5.67026 37.9374 5.13242C37.6701 2.94325 35.0748 1.21875 31.8768 1.21875C29.0458 1.21875 26.687 2.57184 25.9915 4.39972C23.6138 4.84802 21.844 6.44199 21.745 8.37327C21.2822 8.30076 20.8055 8.25036 20.3061 8.25036C17.7676 8.25036 15.6251 9.25476 14.8035 10.6533C14.318 10.4326 13.7771 10.2964 13.1963 10.2964C11.2115 10.2964 9.60173 11.7478 9.60173 13.5385C9.60173 14.1035 9.77638 14.6262 10.0576 15.089C7.49642 15.5883 5.62061 17.0411 5.48757 18.7983C4.76815 19.4528 4.3457 20.2233 4.3457 21.0512C4.3457 23.41 7.71899 25.3217 11.8798 25.3217C14.0274 25.3217 15.9599 24.8097 17.3319 23.9932C18.4498 26.3583 21.1895 28.0323 24.3988 28.0323C26.5344 28.0323 28.4613 27.2896 29.8434 26.0979C31.1013 27.0765 32.6776 27.6654 34.3951 27.6654C36.0988 27.6654 37.6637 27.0853 38.9172 26.1199C40.271 27.282 42.3807 28.0323 44.7584 28.0323C48.8448 28.0323 52.1569 25.8242 52.1569 23.0998C52.1569 22.9465 52.1431 22.7959 52.1222 22.6464C53.0472 21.7914 53.626 20.6943 53.626 19.4793Z" fill="#3B5FA0"/>
</g>
</svg>
