<svg width="88" height="111" viewBox="0 0 88 111" fill="none" xmlns="http://www.w3.org/2000/svg">
<g opacity="0.5">
<path d="M9.72859 92.1768C9.72859 92.1768 11.4832 87.8097 17.09 85.0021C22.6968 82.1946 36.171 76.7068 42.5352 77.4232C48.8993 78.1397 57.6335 79.3877 61.3763 80.6351C65.1197 81.8831 70.422 83.4029 70.422 87.9459C70.422 92.4889 68.5503 95.2959 63.2474 99.9751C57.9444 104.654 55.2143 105.902 43.9463 107.15C32.6784 108.398 27.4202 110.581 18.5076 109.957C9.5949 109.334 2.73242 107.773 2.73242 103.095C2.73306 98.4156 9.72859 92.1768 9.72859 92.1768Z" fill="#173155"/>
<path d="M85.3818 41.4806C85.3818 37.2785 82.6785 33.5697 78.5474 31.3058C79.7475 29.7277 80.4364 27.9398 80.4364 26.0393C80.4364 21.4797 76.5241 17.554 70.8732 15.7085C70.5035 11.3325 64.7988 7.85325 57.795 7.85325C55.0693 7.85325 52.5387 8.38037 50.4419 9.28168C46.2788 6.87265 40.5652 5.38281 34.2548 5.38281C22.5774 5.38281 12.9528 10.4785 11.4329 17.0819C6.22276 18.9178 2.61816 22.8089 2.61816 27.327C2.61816 30.5855 4.49882 33.5159 7.49572 35.5904C5.20119 37.5395 3.78174 40.2274 3.78174 43.1968C3.78174 47.9247 7.38441 51.9316 12.388 53.3824C12.6343 58.2389 17.034 62.13 22.5288 62.3526C24.3775 64.4022 27.7128 65.7756 31.5323 65.7756C32.8097 65.7756 34.0283 65.615 35.1618 65.3342C37.3419 66.0621 39.662 66.4619 42.0729 66.4619C46.6486 66.4619 50.8999 65.0342 54.4661 62.6002C56.7542 65.5856 60.6882 67.5596 65.1641 67.5596C72.2332 67.5596 77.9641 62.6437 77.9641 56.5789C77.9641 55.1032 77.6193 53.6978 77.0039 52.4127C81.9972 50.2832 85.3818 46.188 85.3818 41.4806Z" fill="#0F1934"/>
<path d="M61.5299 90.9799C58.5407 88.1564 54.7205 79.0224 54.8868 75.5348C55.0531 72.0473 56.376 63.5773 58.2055 59.9235C60.035 56.2696 66.678 45.6407 66.678 45.6407L64.5191 42.6515C64.5191 42.6515 61.3585 46.6373 60.7796 48.4643C60.2006 50.2912 56.8794 54.7753 56.3811 54.277C55.8828 53.7787 56.5474 49.2946 58.208 46.8037C59.8686 44.3127 64.6848 34.0158 63.5225 33.8495C62.3602 33.6832 58.0417 32.3546 58.0417 32.3546C58.0417 32.3546 55.5399 40.9909 54.8811 42.9835C54.2222 44.9767 53.0593 47.6339 51.0667 47.1356C49.0734 46.6373 49.0734 47.966 47.9111 44.1464C46.7488 40.3269 46.2505 34.0158 44.091 32.3552C41.932 30.6946 36.7833 32.3552 36.7833 32.3552C36.7833 32.3552 40.6028 36.8394 41.2674 39.4966C41.932 42.1538 43.2607 46.1397 42.928 48.1329C42.596 50.1255 42.596 54.6097 40.4371 52.949C38.2782 51.2884 34.2924 45.8077 33.794 45.8077C33.2957 45.8077 30.6385 47.3026 30.9705 47.8003C31.3025 48.2986 36.1186 53.613 36.9496 56.6023C37.7799 59.5915 40.1051 67.8958 40.1051 72.2136C40.1051 76.5315 39.4405 83.3409 38.7765 85.3335C38.1125 87.3267 35.621 90.9799 35.621 90.9799C35.621 90.9799 39.6068 90.3153 40.9354 92.1422C42.264 93.9691 45.7234 93.9691 48.8099 93.3045C51.897 92.6399 55.8828 90.9793 56.3805 90.8136C56.8801 90.6479 61.5299 90.9799 61.5299 90.9799Z" fill="#9B985F"/>
<path d="M38.5283 89.8918C39.3586 89.3104 41.5175 87.4835 41.6007 85.242C41.6838 83 41.8495 77.104 41.6007 75.1114C41.3518 73.1182 40.7358 68.1363 40.13 65.728C39.5243 63.3196 38.8603 58.6698 38.1131 57.3411C37.366 56.0125 35.3728 51.6947 34.3761 50.1998C33.3795 48.7048 32.3087 47.2291 32.7155 46.6291C33.1224 46.029 34.1273 47.5425 35.5391 49.0375C36.9508 50.5324 39.4418 53.9368 40.3552 54.5182C41.2687 55.0997 42.5973 54.8502 43.0956 53.2728C43.5939 51.6953 44.0922 49.2038 44.1754 47.2937C44.2585 45.3836 44.0091 43.8893 43.0956 40.8995C42.1821 37.9102 41.2687 36.0001 41.767 35.253C42.2653 34.5059 43.624 32.679 44.1901 34.0907C44.7562 35.5025 45.504 40.4843 46.4168 44.0556C47.3303 47.6263 47.0527 48.7061 48.8105 48.955C50.569 49.2038 51.8976 49.6189 52.8104 48.7886C53.7239 47.9583 54.0559 47.9583 54.6373 45.7162C55.2188 43.4742 55.9659 41.2321 56.5474 39.7372C57.1289 38.2422 58.5407 34.8379 58.7063 34.589C58.8726 34.3402 60.6996 34.589 60.7821 35.6688C60.8652 36.7486 59.7855 41.6472 58.3743 43.6405C56.9626 45.6337 54.97 48.8718 54.4717 50.4499C53.9733 52.028 53.475 54.934 53.475 55.8475C53.475 56.7609 53.9733 58.4216 55.7171 57.3424C57.4609 56.2626 62.0282 49.2876 62.0282 49.2876C62.0282 49.2876 61.3636 52.7751 60.1181 54.7683C58.8726 56.7616 55.302 60.7468 54.7205 62.6569C54.139 64.567 53.6407 69.1342 53.3919 71.6251C53.143 74.1161 52.8104 77.1059 53.5582 79.9288C54.3053 82.7524 55.3851 86.5719 55.634 87.9005C55.8834 89.2292 55.7888 91.0401 54.9207 91.3644C54.0527 91.6887 50.5619 92.8778 49.6862 93.0877C48.8105 93.2975 45.0876 93.6941 43.9253 93.7037C42.763 93.7133 41.5079 92.1896 40.4614 91.6676C39.4149 91.145 37.7722 90.8693 37.7722 90.8693L38.5283 89.8918Z" fill="#BCB880"/>
<path d="M36.6185 52.1132C36.6185 52.1132 37.9471 53.857 38.8606 56.0991C39.7741 58.3412 39.1926 60.3856 40.6044 63.6396C42.0161 66.8937 41.7667 69.0526 42.4313 72.3744C43.0959 75.6963 43.4279 77.9377 43.3447 80.5124C43.2616 83.0865 42.8464 87.2387 42.4313 88.3178C42.0161 89.3976 40.2672 91.8117 40.9363 92.1373C41.6055 92.4629 41.7916 93.2325 43.3569 93.5152C44.9222 93.7979 47.3965 93.6886 49.2758 93.1691C51.1546 92.6491 54.0472 92.1827 54.0933 91.662C54.1393 91.1413 52.3956 88.6498 51.6484 84.332C50.9013 80.0141 50.071 77.8552 50.071 74.2845C50.071 70.7138 50.3198 67.4751 51.8979 64.1539C53.4753 60.8321 55.8006 58.5075 55.8006 58.5075C55.8006 58.5075 52.977 59.5872 52.4794 59.1721C51.981 58.7569 51.7322 58.0098 51.7322 55.5183C51.7322 53.0267 52.5625 51.0341 52.8945 50.4526C53.2265 49.8712 51.4827 50.7021 49.739 50.8678C47.9952 51.0341 46.0851 51.4493 46.2099 49.6223C46.3346 47.7954 46.1683 46.55 45.8363 44.723C45.5043 42.8961 44.3414 36.8345 44.0925 36.5019C43.8437 36.1699 42.7639 35.2564 43.0127 36.5019C43.2616 37.7473 43.7599 41.0692 44.175 42.481C44.5902 43.8927 44.5902 45.3045 44.5902 48.3769C44.5902 51.4493 44.2582 54.7711 44.0919 55.6846C43.9256 56.598 43.0121 57.262 42.0161 56.93C41.0195 56.5981 39.6077 55.0199 39.1926 54.3559C38.7781 53.6913 36.6185 52.1132 36.6185 52.1132Z" fill="#D8D29E"/>
<path d="M45.5041 52.2804C45.5041 52.6955 45.5873 56.7645 45.5041 57.678C45.421 58.5914 42.4318 57.5948 42.0166 58.7577C41.6015 59.92 43.1328 64.7368 43.7789 67.5597C44.425 70.3833 44.425 70.5489 44.6738 75.6146C44.9233 80.6802 46.2423 81.6762 45.5412 84.1677C44.8402 86.6593 42.1375 93.1981 42.7478 93.358C43.358 93.5179 42.442 93.603 44.8862 93.6599C47.3311 93.7169 47.9228 93.509 49.2763 93.1712C50.6299 92.8335 51.4832 92.804 51.4832 92.4714C51.4832 92.1394 49.9883 89.9805 49.49 85.4963C48.9917 81.0122 48.4102 78.5213 48.1614 74.8674C47.9125 71.2136 47.6343 67.8092 48.8113 65.2351C49.9883 62.6611 51.0674 61.9964 50.7354 60.5853C50.4034 59.1735 49.9883 55.354 50.0714 54.0254C50.1546 52.6968 48.826 51.9497 47.8294 52.2816C46.8327 52.6124 45.5041 52.2804 45.5041 52.2804Z" fill="#EDE6B9"/>
<path d="M87.0543 44.5883C87.0543 39.8656 83.8949 35.9604 79.7632 35.235C80.2922 34.1961 80.6178 33.0101 80.6178 31.7276C80.6178 28.8874 79.1248 26.4547 76.9819 25.3161C78.8325 23.6209 79.9634 21.4038 79.9634 18.9692C79.9634 13.6541 74.6151 9.3452 68.0181 9.3452C67.7245 9.3452 67.4372 9.36375 67.1488 9.38038C65.6206 7.0238 62.229 5.38113 58.2815 5.38113C54.9827 5.38113 52.0721 6.52871 50.3111 8.28015C48.9128 5.6178 44.5163 3.67188 39.2997 3.67188C36.1569 3.67188 33.3116 4.37872 31.2384 5.52247C30.4766 5.05231 29.5375 4.7632 28.5083 4.7632C26.7504 4.7632 25.2427 5.58583 24.4866 6.77563C22.5989 6.94259 20.8532 7.5586 19.3692 8.5098C19.1517 8.49125 18.9348 8.46947 18.709 8.46947C16.0883 8.46947 13.9633 9.7642 13.9633 11.3621C13.9633 11.6513 14.0541 11.9244 14.1833 12.188C14.1085 12.1867 14.0387 12.1758 13.9633 12.1758C10.5896 12.1758 7.85432 13.6969 7.85432 15.5725C7.85432 16.3388 8.32768 17.038 9.09721 17.606C5.01862 19.488 2.18164 23.603 2.18164 28.3904C2.18164 31.9061 3.71751 35.0558 6.14445 37.2314C3.96507 39.2713 2.6179 42.0373 2.6179 45.0918C2.6179 50.371 6.62805 54.7951 12.0513 56.0616C11.4685 56.7723 11.1269 57.6269 11.1269 58.5468C11.1269 61.0172 13.5769 63.0194 16.5994 63.0194C19.6219 63.0194 22.0725 61.0166 22.0725 58.5468C22.0725 58.0805 21.9605 57.6391 21.7987 57.2169C21.8914 57.2201 21.9791 57.238 22.0725 57.238C25.6272 57.238 28.5089 55.04 28.5089 52.3291C28.5089 52.1289 28.4622 51.9376 28.4315 51.7438C29.1499 52.1084 30.0262 52.3291 30.9819 52.3291C33.3916 52.3291 35.3458 50.9615 35.3458 49.2746C35.3458 48.2857 34.6639 47.4164 33.6232 46.8579C34.4061 45.8274 34.8699 44.5992 34.8699 43.2744C39.443 43.2744 43.1499 40.889 43.4972 37.8698C44.2757 38.6387 45.2276 39.2758 46.3189 39.7517C46.292 39.9244 46.2555 40.0952 46.2555 40.2743C46.2555 41.5307 46.9496 42.6405 48.0185 43.3909C47.6571 43.9327 47.4364 44.5596 47.4364 45.2383C47.4364 47.2264 49.223 48.8384 51.4273 48.8384C53.6317 48.8384 55.4183 47.2264 55.4183 45.2383C55.4183 44.4534 55.1324 43.7331 54.6603 43.142C55.5322 42.4038 56.0727 41.3925 56.0727 40.275C56.0727 39.9877 56.0356 39.7069 55.9678 39.4364C56.1149 39.3583 56.2448 39.2637 56.3855 39.1792C58.1414 40.1291 60.2895 40.6953 62.6179 40.6953C63.484 40.6953 64.322 40.6095 65.1286 40.463C64.931 41.0925 64.7992 41.7558 64.7992 42.4569C64.7992 45.1122 66.3396 47.369 68.5081 48.285C67.3656 49.48 66.6543 51.0913 66.6543 52.8754C66.6543 56.5503 69.6339 59.53 73.3089 59.53C73.9479 59.53 74.5537 59.411 75.139 59.2434C75.6744 59.4212 76.2482 59.53 76.8546 59.53C79.5355 59.53 81.7091 57.625 81.7091 55.2754C81.7091 54.6498 81.546 54.0607 81.2697 53.5253C84.6376 52.221 87.0543 48.7175 87.0543 44.5883Z" fill="#253C66"/>
<path d="M83.2747 37.1551C83.2977 36.9639 83.3451 36.7784 83.3451 36.582C83.3451 34.2599 81.6838 32.2712 79.2985 31.3379C80.0469 30.3739 80.4927 29.232 80.4927 28C80.4927 26.1117 79.4513 24.4428 77.8445 23.3086C79.3253 22.0683 80.2465 20.3962 80.2465 18.5456C80.2465 15.4687 77.7159 12.8921 74.2431 11.9978C74.2444 11.9498 74.2546 11.9031 74.2546 11.8545C74.2546 7.79768 69.1749 4.50911 62.9093 4.50911C61.1648 4.50911 59.5196 4.77134 58.0432 5.22679C56.7223 4.07921 54.8314 3.34551 52.7076 3.34551C52.5266 3.34551 52.3571 3.37686 52.1793 3.38709C50.6786 1.35419 48.0725 0 45.091 0C41.8369 0 39.046 1.62159 37.6387 3.97113C36.1918 3.22783 34.3642 2.76404 32.3447 2.76404C28.0525 2.76404 24.5547 4.78671 24.0615 7.38509C23.0176 7.12985 21.8694 6.98209 20.654 6.98209C15.9945 6.98209 12.2179 9.06616 12.2179 11.6364C12.2179 11.8814 12.2825 12.1162 12.3484 12.3509C8.50581 13.1435 5.67204 15.699 5.67204 18.7637C5.67204 19.326 5.79485 19.8633 5.97396 20.3853C3.01545 21.7427 1.01773 24.2937 1.01773 27.2241C1.01773 29.7809 2.54208 32.046 4.89355 33.4859C3.84511 34.7768 3.19968 36.3664 3.19968 38.1095C3.19968 38.7754 3.31866 39.41 3.48945 40.026C1.43864 40.903 0 42.9372 0 45.3091C0 48.4826 2.57215 51.0547 5.7456 51.0547C8.74633 51.0547 11.181 48.7468 11.44 45.8138C11.4573 45.8138 11.4733 45.8189 11.4906 45.8189C16.0137 45.8189 19.6759 42.4472 19.7654 38.2618C23.7545 37.9189 26.9094 34.0815 26.9094 29.3459C26.9094 29.0082 26.855 28.6877 26.8243 28.3589C28.3499 28.9807 30.1442 29.3459 32.0735 29.3459C35.2393 29.3459 38.0539 28.3755 39.8789 26.8678C41.4007 28.0672 43.3658 28.9007 45.558 29.2077C45.5253 29.4092 45.4882 29.6094 45.4882 29.818C45.4882 32.2276 47.7117 34.1819 50.4541 34.1819C52.9565 34.1819 55.0054 32.5494 55.3489 30.434C56.7268 30.9662 58.2793 31.2726 59.9283 31.2726C62.1819 31.2726 64.2577 30.7065 65.9445 29.7591C66.5868 31.5445 68.1431 32.9998 70.1933 33.7072C69.6022 34.558 69.2376 35.5303 69.2376 36.582C69.2376 39.2328 71.4004 41.4442 74.3403 42.1459C74.3039 42.4222 74.2559 42.6954 74.2559 42.982C74.2559 46.5168 77.121 49.382 80.6559 49.382C84.1907 49.382 87.0559 46.5168 87.0559 42.982C87.0539 40.3829 85.4995 38.1575 83.2747 37.1551Z" fill="#3B5FA0"/>
<path d="M10.588 23.2939C10.027 22.3491 9.6797 21.2943 9.6797 20.1588C9.6797 16.3508 13.2434 13.2631 17.6392 13.2631C19.0235 13.2631 20.3054 13.5964 21.4396 14.135C21.7204 11.6498 23.2409 9.74488 25.0902 9.74488C25.5342 9.74488 25.9538 9.87281 26.3478 10.073C29.4605 7.32433 33.424 5.67204 37.7444 5.67204C38.7544 5.67204 39.7389 5.7846 40.7035 5.95795C42.4178 4.07729 44.951 2.85681 47.8174 2.85681C51.4156 2.85681 54.5027 4.76048 56.0641 7.52006C57.5834 6.90021 59.2235 6.54519 60.9442 6.54519C66.8478 6.54519 71.8732 10.5477 73.8517 16.1685C76.4046 16.631 78.5744 18.1419 79.9549 20.2215C80.1263 19.6823 80.2453 19.1277 80.2453 18.5456C80.2453 15.4687 77.7147 12.8921 74.2419 11.9978C74.2432 11.9498 74.2534 11.9031 74.2534 11.8545C74.2534 7.79768 69.1737 4.50911 62.9081 4.50911C61.1636 4.50911 59.5184 4.77134 58.042 5.22679C56.7211 4.07921 54.8302 3.34551 52.7064 3.34551C52.5254 3.34551 52.3559 3.37686 52.1781 3.38709C50.6774 1.35419 48.0713 0 45.0898 0C41.8357 0 39.0448 1.62159 37.6375 3.97113C36.1906 3.22783 34.363 2.76404 32.3435 2.76404C28.0513 2.76404 24.5535 4.78671 24.0603 7.38509C23.0164 7.12985 21.8681 6.98208 20.6528 6.98208C15.9933 6.98208 12.2167 9.06616 12.2167 11.6364C12.2167 11.8814 12.2813 12.1162 12.3472 12.3509C8.50461 13.1435 5.67083 15.699 5.67083 18.7637C5.67083 19.326 5.79365 19.8633 5.97276 20.3853C3.01424 21.7427 1.01653 24.2937 1.01653 27.2241C1.01653 27.2625 1.0242 27.2989 1.02484 27.3367C3.65008 25.2021 6.94187 23.7449 10.588 23.2939Z" fill="#041E4E"/>
</g>
</svg>
