<svg width="119" height="102" viewBox="0 0 119 102" fill="none" xmlns="http://www.w3.org/2000/svg">
<g opacity="0.66">
<path d="M82.0729 92.287C81.6983 91.987 81.5482 91.5376 80.9482 89.9635C80.3482 88.3895 80.4982 89.2889 79.8988 85.9907C79.2988 82.6926 79.1495 82.0925 78.9241 79.8437C78.6994 77.595 78.7741 76.5456 78.9241 74.8962C79.0741 73.2467 78.7152 72.1227 78.7823 70.9233C78.8494 69.7239 79.3741 68.1499 76.1507 67.5498C72.9272 66.9498 71.7278 66.8005 69.479 66.0504C67.2302 65.301 63.032 64.7764 63.032 64.7764C63.032 64.7764 64.0814 69.1992 64.0814 70.6986C64.0814 72.1981 64.3814 72.0481 63.7814 75.6462C63.1813 79.2444 63.1067 81.2685 62.282 83.2926C61.4573 85.3167 61.3073 88.5402 59.6585 90.0389C58.0091 91.5383 56.5104 91.5383 56.6597 91.763C56.8097 91.9876 56.7871 93.05 58.9681 92.9425C61.1497 92.835 62.5067 91.0883 63.706 91.3883C64.9054 91.6883 66.1795 92.4884 67.3042 92.9507C68.4289 93.4124 69.692 94.8056 70.4524 94.9118C71.2134 95.018 71.5771 93.7124 72.3264 92.8877C73.0758 92.063 75.5499 90.939 75.7746 90.939C75.9993 90.939 75.9246 92.1383 78.1734 92.513C80.4235 92.887 82.0729 92.287 82.0729 92.287Z" fill="#6D4A03"/>
<path d="M83.447 75.1252C84.2464 74.2258 85.9458 72.5298 86.1458 71.5305C86.3458 70.5311 86.9452 67.5357 86.9452 67.5357H86.1458C86.1458 67.5357 85.3711 69.257 85.1711 69.7563C84.9711 70.2564 82.897 73.9779 81.6976 74.8772C81.5948 74.9539 81.475 75.0765 81.3482 75.1485C81.39 72.6367 81.4688 70.4934 81.5476 69.7036C81.7476 67.7049 81.3476 62.3196 80.1482 61.7202C78.9488 61.1202 66.1555 59.3276 61.9573 59.3276C57.7591 59.3276 61.358 61.7299 61.9573 64.1286C62.5573 66.5274 62.5574 68.3282 62.5574 70.5269C62.5574 71.5133 62.5498 72.6319 62.4957 73.8059C62.1765 73.7553 61.8655 73.6682 61.5826 73.5271C60.4832 72.9771 58.9715 71.301 58.7715 70.1016C58.5715 68.9022 58.2591 65.726 58.2591 65.726H56.9597C56.9597 65.726 57.2598 67.7275 57.5598 68.9268C57.8598 70.1262 58.4592 72.2764 58.1591 72.2764C57.8591 72.2764 57.1597 72.5517 55.9604 71.4524C54.761 70.353 52.6622 66.2431 52.6622 66.2431L50.2881 64.7876C50.2881 64.7876 52.5622 69.4324 53.9616 70.7318C55.361 72.0312 56.4104 73.4066 58.0345 73.8676C59.6585 74.3286 61.184 74.6635 61.758 75.3273C61.9128 75.5067 62.1162 75.7266 62.3293 75.952C62.2416 76.7356 62.1286 77.5281 61.958 78.3254C61.3586 81.1242 61.5436 81.9235 59.9517 85.3217C58.3598 88.7199 54.7617 91.918 54.7617 91.918C54.7617 91.918 56.9604 92.9674 59.5092 92.9674C62.058 92.9674 63.5574 92.068 64.1568 92.2181C64.7568 92.3681 69.4043 94.0168 70.4537 94.9169C71.5031 95.8162 73.4525 92.8181 73.9019 92.6681C74.3519 92.5181 75.2513 93.2674 77.6501 93.4174C80.0488 93.5674 82.8977 92.6681 82.8977 92.6681L86.1458 91.9187C84.7464 91.3194 81.9476 88.5206 81.5483 85.5217C81.3462 84.008 81.2976 80.507 81.3243 77.1541C82.175 76.3808 83.073 75.5458 83.447 75.1252Z" fill="#4C3204"/>
<path d="M57.495 92.7609C57.495 92.7609 59.4342 91.9129 60.6335 90.6382C61.8329 89.3641 62.0576 87.4147 62.5823 85.9906C63.107 84.5666 63.3317 84.4166 63.9317 81.5677C64.531 78.7189 64.9064 78.4943 64.9811 76.0208C65.0557 73.5474 65.2058 72.1227 64.9811 70.1739C64.7564 68.2252 63.9475 64.9009 64.3023 64.9557C64.6564 65.0105 68.7354 65.8606 70.015 66.2243C71.2945 66.588 72.9275 67.2504 73.9768 67.7005C75.0262 68.1505 74.8762 67.4004 75.8509 69.7992C76.8256 72.198 77.3503 73.7721 77.3503 76.5455C77.3503 79.319 76.9757 81.1184 77.8004 84.4919C78.6251 87.8654 80.4539 92.5992 80.6478 92.578C80.8416 92.5568 79.0744 93.0376 78.1751 92.5129C77.2757 91.9883 76.3763 89.6641 75.7016 90.1142C75.0269 90.5642 73.0028 90.4142 72.5535 90.4888C72.1041 90.5635 71.1294 92.1102 70.5294 92.7609C69.93 93.4123 70.3157 93.9007 69.7047 94.0117C69.0937 94.1226 67.3805 91.7629 67.3805 91.7629C67.3805 91.7629 66.0311 90.6382 65.5818 90.4135C65.1318 90.1888 63.8522 90.5128 63.5577 90.9382C63.2632 91.3636 60.7089 91.9876 60.1842 92.2129C59.6588 92.4376 57.495 92.7609 57.495 92.7609Z" fill="#84550B"/>
<path d="M65.1664 65.1274C65.1664 65.1274 66.3295 71.8991 66.2549 74.1479C66.1802 76.3966 65.6199 78.7208 65.7124 80.6695C65.8048 82.6183 66.4446 83.5183 65.7124 85.167C64.9801 86.8164 60.9326 91.464 60.9326 91.464C60.9326 91.464 63.0314 89.8146 64.1561 89.2152C65.2808 88.6159 65.1308 87.3411 66.7049 88.5405C68.279 89.7399 69.0037 92.1387 69.0037 92.1387C69.0037 92.1387 69.1037 89.4399 70.9778 88.2405C72.8519 87.0411 70.1531 87.2658 74.0512 87.8658C77.9494 88.4652 78.9234 91.014 78.9234 91.014C78.9234 91.014 76.5247 87.2658 76.0746 85.467C75.6246 83.6676 75.9246 82.1689 75.2499 80.9695C74.5752 79.7701 73.2258 79.9948 73.2258 80.8195C73.2258 81.6442 73.0012 83.6683 71.4271 81.8689C69.853 80.0694 68.7283 77.5213 69.9277 76.0966C71.1271 74.6725 72.5512 75.1219 72.9265 76.3966C73.3012 77.6707 73.8259 79.2947 74.4259 78.6331C75.026 77.9714 75.4753 76.5466 74.8759 75.5719C74.2766 74.5972 73.6766 74.5972 73.3765 72.4984C73.0765 70.3997 72.7854 68.6201 72.6272 67.8509C72.4683 67.081 72.3553 66.594 71.5538 66.7351C70.7524 66.8769 65.1664 65.1274 65.1664 65.1274Z" fill="#A8640B"/>
<path d="M71.727 80.3234C71.0277 79.4987 70.7023 77.5178 71.0023 77.2088C71.3023 76.8999 72.3517 77.9082 72.3764 78.7658C72.4017 79.6234 71.727 80.3234 71.727 80.3234Z" fill="#A8640B"/>
<path d="M67.4796 66.8505C67.4049 67.3505 68.1789 69.474 68.2543 71.0487C68.3289 72.6228 68.5543 72.5482 68.0043 74.0222C67.4549 75.4963 66.8795 76.9957 67.2049 78.2451C67.5296 79.4945 68.6543 82.0179 68.679 81.6932C68.7036 81.3685 67.6542 77.9697 68.3043 76.4457C68.9536 74.9216 69.6037 74.7216 69.6537 73.3722C69.7037 72.0228 69.4037 70.9734 69.2037 69.9487C69.0037 68.9239 68.6653 66.6252 68.3844 66.4505C68.1043 66.2758 67.3542 66.0258 67.2796 66.0758C67.2042 66.1258 67.4796 66.8505 67.4796 66.8505Z" fill="#84550B"/>
<path d="M69.0041 90.1424C68.7794 90.0178 68.1047 88.9184 68.1047 87.9183C68.1047 86.9189 68.2294 86.5442 68.7294 85.4695C69.2295 84.3948 69.2685 83.7955 69.3617 83.0461C69.4541 82.2967 69.3617 80.7473 69.3617 80.7473C69.3617 80.7473 69.5651 81.5467 69.6596 82.2714C69.7541 82.9961 69.8151 84.3455 69.6596 85.2948C69.5041 86.2442 68.8294 87.419 68.8048 87.9683C68.7794 88.5183 69.0041 90.1424 69.0041 90.1424Z" fill="#84550B"/>
<path opacity="0.2" d="M62.2571 63.5271L62.5516 69.3254C62.5516 69.3254 62.9421 71.2618 66.1984 71.2235C69.4548 71.1851 70.1048 70.1981 72.3776 71.8105C74.651 73.4222 75.2182 74.0422 76.2497 74.5216C77.2813 75.0018 81.348 75.1936 81.348 75.1936C81.348 75.1936 81.5473 69.9241 81.5473 68.3247C81.5473 66.7253 79.3486 61.4283 77.9492 60.5283C76.5498 59.6289 73.2283 60.7283 70.8912 61.4277C68.5541 62.1284 62.2571 63.5271 62.2571 63.5271Z" fill="black"/>
<path d="M16.1425 25.8065C14.6869 23.8509 14.0218 21.509 14.4958 19.1726C15.4986 14.2257 21.1811 11.2022 27.1884 12.4208C28.5631 12.6996 29.8289 13.1838 30.9619 13.8126C33.1511 4.96619 42.975 -0.473181 53.2818 1.61668C57.3813 2.44823 60.9391 4.35453 63.6612 6.90674C65.8688 6.17725 68.4855 6.00053 71.1849 6.54783C74.4365 7.20746 77.1778 8.7815 78.9772 10.7871C81.7698 9.69183 85.1262 9.37401 88.5737 10.0734C95.0426 11.3851 99.8168 15.8669 100.643 20.8542C101.949 20.8172 103.281 20.909 104.625 21.1816C113.469 22.9749 119.286 31.0973 117.618 39.3245C117.443 40.1869 117.177 41.0075 116.859 41.7993C118.588 43.9878 119.391 46.7948 118.816 49.6279C118.13 53.0089 115.66 55.5995 112.487 56.7503C112.46 57.2818 112.407 57.8154 112.299 58.3517C111.116 64.1863 105.388 67.9681 99.3565 67.0242C96.8112 70.6723 91.6088 72.6033 86.1646 71.4991C81.3349 70.5196 77.6066 67.4153 76.1804 63.689C73.3392 65.3049 69.9088 65.994 66.3853 65.4446C63.4858 67.9071 58.3355 68.9613 52.8434 67.8475C49.563 67.1824 46.6992 65.8487 44.5531 64.1616C42.3331 65.7542 39.4884 66.4639 36.5999 65.8782C31.0893 64.761 27.5281 59.3881 28.6453 53.8781C28.648 53.8637 28.6528 53.8507 28.6563 53.8364C28.3994 53.8069 28.1425 53.7761 27.885 53.724C24.7649 53.0918 22.3394 50.8773 21.1168 47.9798C20.2482 48.2121 19.3303 48.2682 18.4056 48.0812C14.9664 47.3839 12.7909 43.7947 13.5478 40.065C13.8759 38.4471 14.7191 37.0922 15.8301 36.1065C14.6396 34.04 14.154 31.6679 14.6362 29.291C14.8958 28.0081 15.4239 26.8422 16.1425 25.8065Z" fill="#041E4E"/>
<path d="M118.034 51.8958C116.24 52.1438 114.379 52.2205 112.469 52.063C111.133 55.5714 107.909 57.9215 104.356 57.6585C100.773 61.0559 94.9906 62.9986 88.6607 62.4451C83.631 62.0053 79.2122 60.0751 76.1339 57.3098C72.9323 59.4976 68.2841 60.6642 63.2345 60.2224C58.8116 59.8353 54.9114 58.2846 52.1461 56.0858C49.6083 56.8091 46.8074 57.1098 43.884 56.8543C37.9973 56.3399 32.9559 53.7384 29.8735 50.1169C27.833 50.4039 25.6931 50.4731 23.4964 50.2813C23.1067 50.2471 22.7286 50.1847 22.345 50.1354C23.6855 51.9472 25.5952 53.2678 27.8843 53.7315C28.1419 53.7836 28.3988 53.8144 28.6556 53.8439C28.6529 53.8583 28.6474 53.8713 28.6447 53.8856C27.5275 59.3963 31.0887 64.7685 36.5993 65.8857C39.4878 66.4714 42.3332 65.7624 44.5525 64.1692C46.6985 65.8562 49.5624 67.1899 52.8427 67.855C58.3342 68.9688 63.4852 67.9146 66.3847 65.4521C69.9082 66.0015 73.3392 65.3117 76.1798 63.6965C77.6059 67.4228 81.3342 70.5271 86.164 71.5066C91.6082 72.6101 96.8099 70.6798 99.3559 67.0317C105.388 67.9756 111.116 64.1938 112.298 58.3592C112.407 57.8229 112.459 57.2893 112.486 56.7578C114.907 55.8796 116.912 54.1603 118.034 51.8958Z" fill="#0F1934"/>
<path d="M33.0967 14.0065C35.2976 15.5073 34.553 15.8018 54.7077 23.6729C74.8623 31.5439 85.637 36.1168 95.578 33.392C104.829 30.8569 99.8783 21.0576 101.873 20.4542C101.863 20.4542 101.852 20.4542 101.843 20.4542C101.017 15.0217 96.2418 10.5878 89.7735 9.27607C86.3261 8.57671 82.9697 8.6959 80.177 9.79118C78.3776 7.78557 75.637 6.11151 72.3848 5.45256C69.6853 4.90527 67.0687 5.03265 64.861 5.76215C62.139 3.21062 58.5812 1.27833 54.4816 0.447452C44.1748 -1.6424 34.3509 3.78464 32.1618 12.6311C31.9878 12.5345 31.7905 12.4605 31.6104 12.3708C31.9768 12.964 32.3672 13.5085 33.0967 14.0065Z" fill="#3B5FA0"/>
<path d="M116.87 37.2555C117.184 33.6662 115.128 30.3345 111.818 28.3433C110.716 25.2164 106.439 22.6163 101.12 22.1512C100.946 22.1361 100.776 22.1327 100.603 22.1224C99.2662 17.955 93.7659 14.4863 86.8997 13.8862C84.2187 13.652 81.6706 13.8911 79.4314 14.4911C78.1526 11.2875 74.4893 8.77291 69.9685 8.37768C67.2601 8.14068 64.7271 8.71195 62.7352 9.83325C60.8645 6.31933 56.1594 3.56505 50.4426 3.0657C43.5182 2.46019 37.4891 5.36861 35.9931 9.74148C34.4992 10.4997 33.4443 11.843 33.3025 13.4616C33.2923 13.5807 33.3135 13.6951 33.3128 13.8129C32.6272 14.6198 32.097 15.5446 31.7778 16.5604C30.3346 15.4206 28.4981 14.6534 26.446 14.474C21.358 14.0294 16.9132 17.3255 16.5193 21.8368C16.2275 25.1712 18.2338 28.231 21.3532 29.7831C21.1429 30.3256 20.9983 30.8942 20.9463 31.4908C20.5826 35.6554 24.452 39.3947 29.5893 39.8441C31.014 39.9687 32.3819 39.8187 33.6299 39.4605C33.9307 43.7881 38.6385 47.5425 44.7115 48.0733C46.7568 48.2521 48.7138 48.0439 50.4502 47.5288C52.588 50.2632 56.8999 52.3626 62.0256 52.8106C66.9786 53.2435 71.446 52.0229 74.0695 49.8453C75.923 51.079 78.2999 51.9304 80.948 52.1619C85.8407 52.5893 90.1999 50.792 92.1411 47.8925C93.6159 48.998 95.5304 49.7528 97.6723 49.9398C101.61 50.2844 105.128 48.6179 106.66 45.9882C112.082 45.5684 116.456 41.9832 116.87 37.2555Z" fill="#253C66"/>
<path opacity="0.2" d="M97.3256 87.81C97.8647 87.1531 98.1723 86.4422 98.1723 85.6949C98.1723 82.4652 92.6391 79.8465 85.814 79.8465C85.3304 79.8465 84.855 79.863 84.3858 79.889C83.6583 79.6342 82.7816 79.4849 81.8377 79.4849C81.3322 79.4849 80.8472 79.5294 80.3924 79.6081C78.9615 76.3614 71.9069 73.8948 63.4126 73.8948C57.117 73.8948 51.6112 75.2497 48.5993 77.2731C48.1733 77.1881 47.7294 77.1374 47.2698 77.1374C44.669 77.1374 42.5058 78.5882 42.0359 80.5068C37.1781 81.1377 33.5888 83.3234 33.5888 85.9298C33.5888 87.9518 35.7533 89.719 38.9885 90.7068C39.2926 92.2535 40.668 93.4946 42.4592 93.883C44.173 97.1312 49.9364 99.5203 56.7868 99.5203C58.0355 99.5203 59.2466 99.4402 60.4056 99.2909C63.753 100.51 67.8676 101.231 72.3193 101.231C80.8664 101.231 88.1758 98.5799 91.178 94.8269C92.4137 95.7283 94.2309 96.301 96.2619 96.301C99.9847 96.301 103.002 94.3872 103.002 92.0254C103.001 89.8965 100.541 88.1347 97.3256 87.81Z" fill="#3B5FA0"/>
</g>
<g opacity="0.66">
<g opacity="0.6">
<path opacity="0.1" d="M29.9209 89.4863C29.9776 89.7694 30.8264 91.6087 32.2415 91.7645C33.6566 91.9203 34.1093 91.4107 35.3546 91.4674C36.5999 91.5241 38.0243 91.6938 38.8403 91.5241C39.6563 91.3543 39.95 90.4925 40.9069 90.6403C41.8638 90.7883 43.0849 90.2787 43.8326 90.0523C44.5806 89.8259 44.8997 86.6753 44.8997 86.6753C44.8997 86.6753 40.9169 86.0484 38.7301 85.7864C36.5432 85.5244 29.2416 84.6753 28.3927 84.6753C27.5436 84.6753 24.8052 86.4697 24.8997 86.6246C24.9941 86.7795 25.4896 88.977 26.3467 89.4299C27.2038 89.8828 28.6756 90.2223 29.0718 90.0525C29.4682 89.8825 29.9209 89.4863 29.9209 89.4863Z" fill="black"/>
<path d="M43.3526 83.8924C43.5024 83.6119 43.5952 83.2966 43.5952 82.9566C43.5952 81.852 42.6997 80.9562 41.5948 80.9562C41.3413 80.9562 41.1008 81.0082 40.8775 81.0944C41.0804 80.8333 41.2013 80.5244 41.2013 80.1909C41.2013 79.2654 40.2951 78.5152 39.1775 78.5152C39.0251 78.5152 38.878 78.5316 38.7351 78.558C38.2671 77.3281 36.9925 76.4438 35.4892 76.4438C33.8948 76.4438 32.5577 77.4381 32.1679 78.7851C31.1184 78.8343 30.1859 79.2549 29.5571 79.8987C29.3673 79.7098 29.1302 79.5922 28.8688 79.5922C28.256 79.5922 27.7593 80.2122 27.7593 80.9769C27.7593 81.1073 27.7784 81.2309 27.8053 81.3504C25.8762 81.7118 24.4305 83.188 24.4305 84.9566C24.4305 86.9959 26.3513 88.649 28.7208 88.649C29.3137 88.649 29.8784 88.5454 30.3919 88.3583C30.9537 89.3694 32.0315 90.0545 33.2701 90.0545C33.9479 90.0545 34.5774 89.8492 35.1009 89.498C35.6485 89.8432 36.3658 90.0545 37.1536 90.0545C38.3836 90.0545 39.4433 89.5427 39.9466 88.8023C40.446 89.0785 41.034 89.2407 41.6657 89.2407C43.4632 89.2407 44.9205 87.9492 44.9205 86.3559C44.9205 85.311 44.2914 84.3986 43.3526 83.8924Z" fill="#253C66"/>
<path d="M41.3515 87.2637C40.7351 87.2637 40.1551 87.1073 39.6491 86.8322C38.9649 87.5475 37.9292 88.0033 36.7701 88.0033C36.1548 88.0033 35.5757 87.8724 35.0641 87.645C34.6086 87.8713 34.0788 88.0033 33.5106 88.0033C31.9468 88.0033 30.6597 87.0188 30.482 85.7509C29.6255 86.3606 28.538 86.7273 27.3523 86.7273C26.3372 86.7273 25.3941 86.4582 24.6061 85.9984C25.1285 87.5306 26.7714 88.6506 28.7207 88.6506C29.3135 88.6506 29.8782 88.547 30.3917 88.3599C30.9535 89.371 32.0313 90.0561 33.2699 90.0561C33.9477 90.0561 34.5772 89.8508 35.1008 89.4997C35.6483 89.8448 36.3656 90.0561 37.1534 90.0561C38.3834 90.0561 39.4431 89.5443 39.9465 88.8039C40.4458 89.0801 41.0338 89.2423 41.6655 89.2423C43.4631 89.2423 44.9204 87.9508 44.9204 86.3575C44.9204 85.9224 44.8062 85.5129 44.611 85.1433C44.0555 86.392 42.8064 87.2637 41.3515 87.2637Z" fill="#0F1934"/>
<path d="M43.3299 83.0885C43.3299 82.1387 42.3612 81.3685 41.1661 81.3685C40.9848 81.3685 40.8115 81.3916 40.6432 81.425C40.6377 81.2428 40.5975 81.0692 40.5301 80.907C40.7303 80.6908 40.8517 80.4388 40.8517 80.1665C40.8517 79.3801 39.8893 78.7426 38.7019 78.7426C38.6193 78.7426 38.5408 78.7526 38.4608 78.7586C38.3042 78.4704 38.0793 78.2217 37.8006 78.0321C37.7064 77.2606 36.7918 76.6528 35.6647 76.6528C34.6669 76.6528 33.8356 77.1297 33.5905 77.7739C32.7525 77.9319 32.1287 78.4937 32.0938 79.1743C31.9307 79.1488 31.7627 79.131 31.5867 79.131C30.6921 79.131 29.937 79.485 29.6474 79.9779C29.4763 79.9001 29.2857 79.8521 29.081 79.8521C28.3815 79.8521 27.8141 80.3637 27.8141 80.9948C27.8141 81.1939 27.8757 81.3781 27.9748 81.5412C27.0722 81.7172 26.4111 82.2292 26.3642 82.8485C26.1106 83.0792 25.9617 83.3507 25.9617 83.6425C25.9617 84.4738 27.1506 85.1476 28.617 85.1476C29.3739 85.1476 30.055 84.9671 30.5385 84.6793C30.9325 85.5129 31.8981 86.1029 33.0292 86.1029C33.7818 86.1029 34.4609 85.8411 34.948 85.4211C35.3913 85.766 35.9469 85.9736 36.5522 85.9736C37.1526 85.9736 37.7042 85.7691 38.146 85.4289C38.6231 85.8384 39.3666 86.1029 40.2046 86.1029C41.6448 86.1029 42.8121 85.3247 42.8121 84.3645C42.8121 84.3105 42.8072 84.2574 42.7999 84.2047C43.1259 83.9034 43.3299 83.5167 43.3299 83.0885Z" fill="#3B5FA0"/>
</g>
<g opacity="0.6">
<path opacity="0.1" d="M8.6393 97.3253C8.72846 97.7707 10.0642 100.665 12.2909 100.91C14.5176 101.155 15.2299 100.353 17.1895 100.443C19.149 100.532 21.3904 100.799 22.6744 100.532C23.9584 100.265 24.4207 98.9086 25.9264 99.1411C27.432 99.374 29.3535 98.5722 30.5301 98.2159C31.7071 97.8596 32.2092 92.9019 32.2092 92.9019C32.2092 92.9019 25.9421 91.9155 22.501 91.5032C19.0599 91.091 7.57035 89.7549 6.23461 89.7549C4.89851 89.7549 0.589516 92.5785 0.738126 92.8222C0.886736 93.0659 1.6665 96.5238 3.01518 97.2365C4.36387 97.9491 6.67974 98.4834 7.3032 98.2162C7.92702 97.9487 8.6393 97.3253 8.6393 97.3253Z" fill="black"/>
<path d="M29.7749 88.5214C30.0106 88.0801 30.1567 87.584 30.1567 87.049C30.1567 85.3107 28.7475 83.9012 27.009 83.9012C26.61 83.9012 26.2316 83.983 25.8802 84.1187C26.1995 83.7079 26.3897 83.2218 26.3897 82.6969C26.3897 81.2406 24.9637 80.0601 23.2052 80.0601C22.9654 80.0601 22.7339 80.086 22.509 80.1276C21.7726 78.1921 19.7669 76.8008 17.4014 76.8008C14.8925 76.8008 12.7885 78.3652 12.1752 80.4849C10.5237 80.5622 9.05649 81.2241 8.06692 82.2371C7.7683 81.9399 7.3952 81.7549 6.98398 81.7549C6.01959 81.7549 5.23808 82.7305 5.23808 83.9337C5.23808 84.139 5.26815 84.3334 5.31046 84.5215C2.27496 85.0901 0 87.413 0 90.196C0 93.4049 3.02256 96.0061 6.7511 96.0061C7.68403 96.0061 8.57254 95.8432 9.38063 95.5488C10.2646 97.1398 11.9605 98.2178 13.9096 98.2178C14.9761 98.2178 15.9667 97.8947 16.7905 97.3422C17.6521 97.8853 18.7808 98.2178 20.0204 98.2178C21.9559 98.2178 23.6234 97.4125 24.4155 96.2474C25.2012 96.6821 26.1264 96.9373 27.1205 96.9373C29.949 96.9373 32.2422 94.905 32.2422 92.3979C32.2422 90.7537 31.2522 89.318 29.7749 88.5214Z" fill="#253C66"/>
<path d="M26.6261 93.8241C25.6562 93.8241 24.7435 93.5779 23.9473 93.145C22.8707 94.2706 21.2409 94.9878 19.417 94.9878C18.4487 94.9878 17.5375 94.7819 16.7325 94.4241C16.0157 94.7801 15.1821 94.9878 14.288 94.9878C11.8274 94.9878 9.80206 93.4388 9.52232 91.4436C8.17468 92.4031 6.46339 92.98 4.59755 92.98C3.00025 92.98 1.51624 92.5566 0.276306 91.8331C1.09838 94.2441 3.68351 96.0064 6.75082 96.0064C7.68375 96.0064 8.57226 95.8435 9.38035 95.549C10.2643 97.14 11.9602 98.2181 13.9093 98.2181C14.9758 98.2181 15.9664 97.895 16.7902 97.3425C17.6518 97.8855 18.7806 98.2181 20.0202 98.2181C21.9556 98.2181 23.6232 97.4128 24.4152 96.2477C25.2009 96.6823 26.1261 96.9376 27.1202 96.9376C29.9487 96.9376 32.2419 94.9053 32.2419 92.3981C32.2419 91.7135 32.0621 91.0691 31.7551 90.4875C30.8809 92.4524 28.9154 93.8241 26.6261 93.8241Z" fill="#0F1934"/>
<path d="M29.7395 87.2479C29.7395 85.7534 28.2153 84.5415 26.3348 84.5415C26.0494 84.5415 25.7767 84.5778 25.512 84.6303C25.5033 84.3436 25.44 84.0705 25.334 83.8152C25.6491 83.475 25.84 83.0784 25.84 82.6501C25.84 81.4126 24.3256 80.4094 22.4573 80.4094C22.3272 80.4094 22.2038 80.4251 22.0779 80.4346C21.8314 79.9811 21.4775 79.5898 21.039 79.2915C20.8907 78.0775 19.4515 77.1211 17.678 77.1211C16.1079 77.1211 14.7998 77.8715 14.4141 78.8852C13.0955 79.1338 12.114 80.0178 12.0591 81.0888C11.8024 81.0486 11.5381 81.0206 11.2611 81.0206C9.85336 81.0206 8.66518 81.5777 8.20956 82.3532C7.94032 82.2308 7.6403 82.1553 7.31825 82.1553C6.21749 82.1553 5.32477 82.9603 5.32477 83.9533C5.32477 84.2666 5.42163 84.5565 5.57758 84.8132C4.15722 85.0901 3.11694 85.8957 3.04316 86.8703C2.64419 87.2332 2.40991 87.6605 2.40991 88.1197C2.40991 89.4278 4.28065 90.488 6.58813 90.488C7.77911 90.488 8.85086 90.204 9.61174 89.7512C10.2317 91.0628 11.751 91.9912 13.5309 91.9912C14.7152 91.9912 15.7838 91.5793 16.5503 90.9184C17.2479 91.4611 18.122 91.7877 19.0746 91.7877C20.0194 91.7877 20.8873 91.466 21.5824 90.9307C22.3331 91.5751 23.5031 91.9912 24.8218 91.9912C27.088 91.9912 28.9248 90.7667 28.9248 89.2557C28.9248 89.1708 28.9171 89.0872 28.9056 89.0043C29.4185 88.5302 29.7395 87.9217 29.7395 87.2479Z" fill="#3B5FA0"/>
</g>
</g>
</svg>
