<svg width="51" height="25" viewBox="0 0 51 25" fill="none" xmlns="http://www.w3.org/2000/svg">
<g opacity="0.5">
<path opacity="0.2" d="M46.8294 15.1809C47.2255 14.7003 47.4514 14.1801 47.4514 13.6334C47.4514 11.2704 43.386 9.35453 38.3714 9.35453C38.0161 9.35453 37.6668 9.36656 37.3221 9.3856C36.7876 9.19917 36.1434 9.08991 35.4499 9.08991C35.0785 9.08991 34.7222 9.12248 34.388 9.18011C33.3367 6.80465 28.1535 5 21.9124 5C17.2869 5 13.2416 5.99128 11.0287 7.47169C10.7157 7.40954 10.3895 7.37246 10.0518 7.37246C8.14093 7.37246 6.55159 8.4339 6.20634 9.83763C2.63714 10.2992 0 11.8984 0 13.8053C0 15.2847 1.59035 16.5776 3.9673 17.3003C4.19075 18.4319 5.20131 19.34 6.51737 19.6241C7.77655 22.0006 12.0111 23.7486 17.0443 23.7486C17.9618 23.7486 18.8515 23.69 19.7031 23.5808C22.1626 24.4728 25.1857 25 28.4565 25C34.7363 25 40.1067 23.0605 42.3125 20.3147C43.2204 20.9742 44.5556 21.3932 46.0478 21.3932C48.7831 21.3932 51 19.993 51 18.265C50.999 16.7074 49.1917 15.4185 46.8294 15.1809Z" fill="#3B5FA0"/>
<path d="M12.9717 11.5854C12.1437 11.3384 11.7267 12.3384 12.1967 12.9174C12.9317 13.8224 13.7717 14.6434 14.4227 15.6144C15.0497 16.5504 15.5107 17.4144 16.5427 17.9414C16.7507 18.0474 17.0757 18.0154 17.1837 17.7734C18.3197 15.2144 15.2517 12.2634 12.9717 11.5854Z" fill="#3B5FA0"/>
<path d="M22.5979 15.6964C20.9669 13.9694 21.4349 10.8754 21.3889 8.72838C21.3329 6.09038 21.2849 3.46838 21.0789 0.837375C20.9909 -0.279625 19.4329 -0.278625 19.3449 0.837375C19.0189 4.95038 18.5809 9.46238 19.0839 13.5694C19.3179 15.4764 20.3389 16.9604 22.3649 16.5774C22.7729 16.5014 22.8509 15.9644 22.5979 15.6964Z" fill="#3B5FA0"/>
<path d="M29.6652 8.90047C28.4692 9.47347 27.8652 10.5295 27.2102 11.6395C26.5272 12.7985 25.7792 13.9745 25.2812 15.2245C24.9532 16.0495 26.1862 16.7125 26.7502 16.0795C27.6482 15.0715 28.3352 13.8565 29.0842 12.7355C29.7962 11.6715 30.4322 10.6365 30.4052 9.32547C30.3982 8.93047 29.9992 8.74047 29.6652 8.90047Z" fill="#3B5FA0"/>
<path d="M40.0477 6.30721C37.9207 6.96021 36.5837 8.78021 35.2717 10.4752C33.7737 12.4112 32.5957 14.4852 31.7057 16.7622C31.3527 17.6652 32.7557 18.1862 33.2267 17.4032C34.2717 15.6662 35.3687 13.9632 36.5717 12.3312C37.8817 10.5542 39.7637 9.13921 40.6437 7.08121C40.8117 6.68921 40.5377 6.15721 40.0477 6.30721Z" fill="#3B5FA0"/>
</g>
</svg>
