<svg width="83" height="45" viewBox="0 0 83 45" fill="none" xmlns="http://www.w3.org/2000/svg">
<g opacity="0.4">
<path d="M61.285 20.8714C61.285 23.9374 58.799 26.4244 55.7299 26.4244H33.14C30.072 26.4244 27.585 23.9384 27.585 20.8714V14.5764C27.585 11.5084 30.071 9.02344 33.14 9.02344H55.7299C58.798 9.02344 61.285 11.5074 61.285 14.5764V20.8714Z" fill="#CCCCCC"/>
<path d="M82.0497 17.726C82.0497 27.517 74.1127 35.454 64.3207 35.454C54.5307 35.454 46.5938 27.517 46.5938 17.726C46.5938 7.937 54.5307 0 64.3207 0C74.1127 0 82.0497 7.937 82.0497 17.726Z" fill="#11AACC"/>
<path d="M77.98 17.7253C77.98 25.2693 71.865 31.3823 64.322 31.3823C56.78 31.3823 50.666 25.2693 50.666 17.7253C50.666 10.1823 56.78 4.07031 64.322 4.07031C71.864 4.07031 77.98 10.1823 77.98 17.7253Z" fill="#4DBFD9"/>
<path d="M62.4573 19.4706V25.2246H59.2773V10.2266H63.6473C65.6863 10.2266 67.1944 10.5946 68.1714 11.3396C69.1484 12.0826 69.6383 13.2046 69.6383 14.7196C69.6383 15.6016 69.3953 16.3866 68.9103 17.0746C68.4253 17.7616 67.7364 18.2996 66.8474 18.6886C69.1044 22.0606 70.5743 24.2406 71.2593 25.2236H67.7293L64.1504 19.4696H62.4573V19.4706ZM62.4573 16.8866H63.4824C64.4884 16.8866 65.2314 16.7156 65.7104 16.3826C66.1894 16.0476 66.4273 15.5206 66.4273 14.8026C66.4273 14.0896 66.1853 13.5866 65.6953 13.2826C65.2053 12.9816 64.4483 12.8306 63.4233 12.8306H62.4573V16.8866Z" fill="#11AACC"/>
<path d="M42.376 17.726C42.376 27.517 34.438 35.454 24.649 35.454C14.859 35.454 6.91998 27.517 6.91998 17.726C6.91998 7.937 14.858 0 24.649 0C34.439 0 42.376 7.937 42.376 17.726Z" fill="#E6E6E6"/>
<path d="M38.3062 17.7253C38.3062 25.2693 32.1912 31.3823 24.6492 31.3823C17.1072 31.3823 10.9922 25.2693 10.9922 17.7253C10.9922 10.1823 17.1072 4.07031 24.6492 4.07031C32.1912 4.07031 38.3062 10.1823 38.3062 17.7253Z" fill="#F2F2F2"/>
<path d="M21.9102 24.2783V9.28125H25.0912V21.6533H31.1742V24.2783H21.9102Z" fill="#CCCCCC"/>
<path d="M51.225 31.6719C51.225 38.9459 44.877 44.8429 37.05 44.8429C29.221 44.8429 22.873 38.9469 22.873 31.6719H51.225Z" fill="#95D8E9"/>
<path d="M47.91 35.4186C47.91 36.5596 46.985 37.4826 45.845 37.4826H34.475C33.331 37.4826 32.408 36.5586 32.408 35.4186C32.408 34.2776 33.332 33.3516 34.475 33.3516H45.845C46.985 33.3516 47.91 34.2786 47.91 35.4186Z" fill="white"/>
<path d="M20.047 18.6719C25.19 23.8159 24.872 32.4719 19.336 38.0079C13.799 43.5439 5.143 43.8619 0 38.7189L20.047 18.6719Z" fill="#95D8E9"/>
<path d="M20.352 23.6601C21.158 24.4671 21.158 25.7741 20.352 26.5811L12.312 34.6231C11.504 35.4291 10.197 35.4281 9.38796 34.6231C8.58296 33.8151 8.57996 32.5071 9.38796 31.7001L17.428 23.6591C18.235 22.8531 19.545 22.8531 20.352 23.6601Z" fill="white"/>
</g>
</svg>
