<svg width="403" height="3373" viewBox="0 0 403 3373" fill="none" xmlns="http://www.w3.org/2000/svg">
<g filter="url(#filter0_dn_1302_7206)">
<path d="M298.882 44.3982H25V5.41406H290C338.601 5.41406 378 44.813 378 93.4141V125.849C378 174.45 338.601 213.849 290 213.849H104.483C82.392 213.849 64.4834 231.757 64.4834 253.849V311.314C64.4834 333.406 82.3921 351.314 104.483 351.314H290C338.601 351.314 378 390.713 378 439.314V471.849C378 520.45 338.601 559.849 290 559.849H104.483C82.392 559.849 64.4834 577.757 64.4834 599.849V657.314C64.4834 679.406 82.3921 697.314 104.483 697.314H290C338.601 697.314 378 736.713 378 785.314V817.849C378 866.45 338.601 905.849 290 905.849H104.483C82.392 905.849 64.4834 923.757 64.4834 945.849V1003.31C64.4834 1025.41 82.3921 1043.31 104.483 1043.31H290C338.601 1043.31 378 1082.71 378 1131.31V1163.85C378 1212.45 338.601 1251.85 290 1251.85H104.483C82.392 1251.85 64.4834 1269.76 64.4834 1291.85V1349.31C64.4834 1371.41 82.3921 1389.31 104.483 1389.31H290C338.601 1389.31 378 1428.71 378 1477.31V1509.85C378 1558.45 338.601 1597.85 290 1597.85H104.483C82.392 1597.85 64.4834 1615.76 64.4834 1637.85V1695.31C64.4834 1717.41 82.3921 1735.31 104.483 1735.31H290C338.601 1735.31 378 1774.71 378 1823.31V1855.85C378 1904.45 338.601 1943.85 290 1943.85H104.483C82.392 1943.85 64.4834 1961.76 64.4834 1983.85V2041.31C64.4834 2063.41 82.3921 2081.31 104.483 2081.31H290C338.601 2081.31 378 2120.71 378 2169.31V2201.85C378 2250.45 338.601 2289.85 290 2289.85H104.483C82.392 2289.85 64.4834 2307.76 64.4834 2329.85V2387.31C64.4834 2409.41 82.3921 2427.31 104.483 2427.31L290 2427.41C338.601 2427.41 378 2466.81 378 2515.41V2547.85C378 2596.45 338.601 2635.85 290 2635.85H104.483C82.392 2635.85 64.4834 2653.76 64.4834 2675.85V2733.31C64.4834 2755.41 82.3921 2773.31 104.483 2773.31H290C338.601 2773.31 378 2812.71 378 2861.31V2893.85C378 2942.45 338.601 2981.85 290 2981.85H104.483C82.392 2981.85 64.4834 2999.76 64.4834 3021.85V3079.31C64.4834 3101.41 82.3921 3119.31 104.483 3119.31H290C338.601 3119.31 378 3158.71 378 3207.31V3239.85C378 3288.45 338.601 3327.85 290 3327.85H200.483V3289.36H298.882C320.974 3289.36 338.882 3271.46 338.882 3249.36V3198.3C338.882 3176.21 320.974 3158.3 298.882 3158.3H113C64.3989 3158.3 25 3118.9 25 3070.3V3031.36C25 2982.76 64.3989 2943.36 113 2943.36H298.882C320.974 2943.36 338.882 2925.46 338.882 2903.36V2852.3C338.882 2830.21 320.974 2812.3 298.882 2812.3H113C64.3989 2812.3 25 2772.9 25 2724.3V2685.36C25 2636.76 64.3989 2597.36 113 2597.36H298.882C320.974 2597.36 338.882 2579.46 338.882 2557.36V2506.4C338.882 2484.31 320.974 2466.4 298.882 2466.4L113 2466C64.3989 2466 25 2426.9 25 2378.3V2339.36C25 2290.76 64.3989 2251.36 113 2251.36H298.882C320.974 2251.36 338.882 2233.46 338.882 2211.36V2160.3C338.882 2138.21 320.974 2120.3 298.882 2120.3H113C64.3989 2120.3 25 2080.9 25 2032.3V1993.36C25 1944.76 64.3989 1905.36 113 1905.36H298.882C320.974 1905.36 338.882 1887.46 338.882 1865.36V1814.3C338.882 1792.21 320.974 1774.3 298.882 1774.3H113C64.3989 1774.3 25 1734.9 25 1686.3V1647.36C25 1598.76 64.3989 1559.36 113 1559.36H298.882C320.974 1559.36 338.882 1541.46 338.882 1519.36V1468.3C338.882 1446.21 320.974 1428.3 298.882 1428.3H113C64.3989 1428.3 25 1388.9 25 1340.3V1301.36C25 1252.76 64.3989 1213.36 113 1213.36H298.882C320.974 1213.36 338.882 1195.46 338.882 1173.36V1122.3C338.882 1100.21 320.974 1082.3 298.882 1082.3H113C64.3989 1082.3 25 1042.9 25 994.298V955.365C25 906.764 64.3989 867.365 113 867.365H298.882C320.974 867.365 338.882 849.456 338.882 827.365V776.298C338.882 754.207 320.974 736.298 298.882 736.298H113C64.3989 736.298 25 696.899 25 648.298V609.365C25 560.764 64.3989 521.365 113 521.365H298.882C320.974 521.365 338.882 503.456 338.882 481.365V430.298C338.882 408.207 320.974 390.298 298.882 390.298H113C64.3989 390.298 25 350.9 25 302.298V263.365C25 214.764 64.3989 175.365 113 175.365H298.882C320.974 175.365 338.882 157.456 338.882 135.365V84.3982C338.882 62.3068 320.974 44.3982 298.882 44.3982Z" fill="#3B5FA0" fill-opacity="0.6" shape-rendering="crispEdges"/>
</g>
<defs>
<filter id="filter0_dn_1302_7206" x="0" y="0.414062" width="403" height="3372.43" filterUnits="userSpaceOnUse" color-interpolation-filters="sRGB">
<feFlood flood-opacity="0" result="BackgroundImageFix"/>
<feColorMatrix in="SourceAlpha" type="matrix" values="0 0 0 0 0 0 0 0 0 0 0 0 0 0 0 0 0 0 127 0" result="hardAlpha"/>
<feOffset dy="20"/>
<feGaussianBlur stdDeviation="12.5"/>
<feComposite in2="hardAlpha" operator="out"/>
<feColorMatrix type="matrix" values="0 0 0 0 0.187223 0 0 0 0 0.271513 0 0 0 0 0.519231 0 0 0 0.5 0"/>
<feBlend mode="normal" in2="BackgroundImageFix" result="effect1_dropShadow_1302_7206"/>
<feBlend mode="normal" in="SourceGraphic" in2="BackgroundImageFix" result="shape"/>
<feTurbulence type="fractalNoise" baseFrequency="2 2" stitchTiles="stitch" numOctaves="3" result="noise" seed="6241" />
<feColorMatrix in="noise" type="luminanceToAlpha" result="alphaNoise" />
<feComponentTransfer in="alphaNoise" result="coloredNoise1">
<feFuncA type="discrete" tableValues="0 0 0 0 0 0 0 0 0 1 1 1 1 1 1 1 1 1 1 1 1 1 1 1 1 1 1 1 1 1 1 1 1 1 1 1 1 1 1 1 0 0 0 0 0 0 0 0 0 0 0 0 0 0 0 0 0 0 0 0 0 0 0 0 0 0 0 0 0 0 0 0 0 0 0 0 0 0 0 0 0 0 0 0 0 0 0 0 0 0 0 0 0 0 0 0 0 0 0 0 "/>
</feComponentTransfer>
<feComposite operator="in" in2="shape" in="coloredNoise1" result="noise1Clipped" />
<feFlood flood-color="rgba(255, 255, 255, 0.1)" result="color1Flood" />
<feComposite operator="in" in2="noise1Clipped" in="color1Flood" result="color1" />
<feMerge result="effect2_noise_1302_7206">
<feMergeNode in="shape" />
<feMergeNode in="color1" />
</feMerge>
<feBlend mode="normal" in="effect2_noise_1302_7206" in2="effect1_dropShadow_1302_7206" result="effect2_noise_1302_7206"/>
</filter>
</defs>
</svg>
