<svg width="113" height="231" viewBox="0 0 113 231" fill="none" xmlns="http://www.w3.org/2000/svg">
<path opacity="0.1" d="M59.4247 204.83C58.9383 195.957 60.458 190.676 64.9383 183.094C70.4186 175.447 75.0309 172.389 82.3308 169.947C86.3375 186.967 85.1914 207.279 89.1102 230.112C85.7874 208.238 87.3069 204.456 85.7474 187.025C90.1993 190.764 93.8747 191.67 92.7038 198.326C90.8588 209.089 103.549 215.308 112.162 223.42C105.351 216.838 103.199 216.478 97.415 210.403C89.566 200.725 94.4918 198.736 93.296 194.25C92.3378 190.511 88.2338 188.438 85.6689 186.142C80.4414 129.87 57.7405 150.141 41.5788 98.1407C38.5592 88.4259 37.5078 79.3644 36.9331 70.8234C39.8581 76.951 39.3162 83.9531 46.0901 92.0972C60.2248 109.01 87.716 106.662 97.3525 126.15C93.0015 116.682 84.5625 112.133 75.4132 108.086C82.7791 109.42 87.9257 108.204 96.8093 106.448C100.253 106.31 101.739 108.458 104.566 109.295C102.459 108.612 100.989 107.092 98.9045 106.501C94.1926 105.142 85.9478 110.947 70.409 105.916C64.4163 103.33 58.3801 100.623 53.2076 96.6097C39.0211 85.6617 43.6928 74.8293 36.633 65.7454C36.1178 56.0668 35.8403 47.0527 33.4785 38.5028C43.5046 45.6069 52.09 47.9116 65.6362 49.3324C71.3609 50.7865 72.0104 55.9819 75.9377 62.0029C73.2481 57.4418 72.3385 53.0137 68.8004 50.0038C66.4358 47.7927 64.8311 49.2707 51.9189 45.6562C41.332 42.7013 34.3703 36.4204 32.1785 34.4812C26.101 17.8912 11.195 6.50549 -5.57565 0.976946L-7.09215 5.72767C27.7318 16.4705 30.7276 45.1841 30.331 41.1467C31.7358 46.5569 32.2714 51.7864 32.6344 57.2666C23.6242 69.0984 12.3236 68.7804 8.03398 83.8165C12.6916 69.2413 23.318 69.8064 32.7396 58.9548C33.546 72.3587 33.7369 87.4919 43.1308 110.489C45.8557 117.148 49.1166 122.419 52.5549 126.878C42.873 139.361 35.0149 153.165 44.7102 165.58C35.5408 153.117 43.4161 139.959 53.3338 127.864C64.7656 142.186 76.4867 146.742 82.0397 168.745C75.7355 171.05 70.5806 174.746 66.7704 179.448C57.7638 181.651 51.358 184.01 50.1575 193.201C51.5861 184.144 57.934 182.031 66.1303 180.221C61.0843 186.859 58.6495 195.384 59.4247 204.83Z" fill="#E3E3E3"/>
</svg>
