<svg width="165" height="163" viewBox="0 0 165 163" fill="none" xmlns="http://www.w3.org/2000/svg">
<path opacity="0.1" d="M94.4667 121.4C94.464 121.349 94.4653 121.333 94.4667 121.4V121.4ZM159.876 127.571C155.329 126.511 154.533 125.049 150.231 125.265C150.535 115.393 149.371 115.428 147.007 111.789C148.607 112.661 151.269 112.603 152.955 112.527C159.703 111.963 157.168 109.397 164.62 112.912C158.205 109.725 159.053 111.304 155.347 111.988C153.113 112.464 147.488 112.7 146.297 110.636C144.289 100.755 137.689 96.92 134.232 89.2386C132.515 85.8466 133.04 81.4586 130.487 80.8853C122.595 79.0413 127.148 81.1333 112.22 88.0679C112.215 88.0679 112.209 88.0666 112.205 88.0666V88.0759C107.12 90.4359 101.048 92.4266 94.9093 92.3973C89.784 93.0786 89.24 100.76 83.7413 101.167C81.636 99.764 78.6227 97.5919 74.788 96.4479C76.9213 95.3119 78.9466 93.8546 81.1493 91.6173C85.2986 87.4293 90.548 78.7066 90.9067 78.0306C93.8027 74.292 109.347 81.98 108.441 64.2053C108.228 59.1786 107.413 53.1066 110.677 50.6973C113.463 48.5906 117.196 49.7226 121.745 49.0693C126.371 48.444 129.088 43.968 142.82 53.5613C143.049 53.8493 143.567 54.5026 144.261 55.3746C147.04 58.9893 140.271 59.82 140.053 67.2413C140.493 59.1786 148.044 59.6626 143.941 54.3533C145.673 55.5946 147.045 56.6319 147.803 57.0319C148.868 57.6239 151.019 57.0973 152.125 55.3C152.888 54.056 152.659 53.3132 152.636 51.9799C152.244 49.0452 155.065 47.0746 158.091 47.6119C155.028 47.0066 152.384 48.8173 152.473 51.9839C152.472 53.2733 152.685 54.0026 151.933 55.1799C151.316 56.1519 150.16 56.9479 148.865 56.9653C147.856 57.0186 147.181 56.1893 143.049 53.1973C143.04 53.184 143.031 53.1733 143.021 53.1599L143.009 53.1679C129.205 43.1786 126.64 47.6066 121.629 48.1879C117.336 48.7239 111.904 47.2852 108.977 50.7826C109.421 46.5172 109.168 43.4546 109.335 38.6772C109.803 31.0932 110.099 33.2226 112.056 28.1519C112.732 26.3039 112.976 25.2879 112.809 23.2093C112.999 27.4586 111.059 29.1639 109.667 32.7679C108.06 37.7799 109.192 45.7892 107.28 54.5852L107.288 54.5879C106.473 58.3946 107.299 63.8506 106.993 67.0906C105.917 79.8893 93.1507 71.8546 89.3213 76.9413C84.0587 84.6946 80.708 91.3693 71.696 95.2333C71.616 86.8253 81.56 84.5026 82.7213 77.0466C84.3867 67.9119 74.348 56.8053 72.9253 48.0906L72.9866 48.0799C70.568 35.1666 87.1787 40.3466 87.8293 31.4173C88.0587 25.6279 83.7547 21.8039 86.0387 16.2533C87.952 11.7733 92.6373 6.12796 92.376 -3.05176e-05C92.5413 8.24397 84.2973 14.5053 84.8506 20.2093C85.0973 23.0079 86.4973 26.0466 86.972 29.0426C88.7187 39.4799 74.324 33.9119 71.8786 43.7039C70.2066 39.0119 66.224 35.2679 61.9253 32.7093C59.8 30.0186 58.5293 28.1973 57.832 26.8826H57.8347C58.6533 23.5546 62.216 25.9666 63.7013 23.0426C62.1507 25.8679 58.7653 23.4239 57.6813 26.5906C55.7346 22.6439 59.3947 23.5599 59.6987 17.7399C59.1333 25.1999 53.016 21.3466 61.0347 32.1906C55.6933 29.1666 47.956 26.0973 45.8333 28.6346C50.116 25.9346 58.1973 30.8759 62.372 33.6159C69.0427 38.6799 70.688 42.0893 71.588 47.1266C72.076 56.8826 80.564 64.0146 80.8333 74.6733C80.9227 81.6666 73.8506 83.8813 70.7187 89.4373C69.0213 79.6346 65.9227 70.4946 56.528 67.536C54.24 62.9693 57.744 63.2413 58.5093 60.672C57.564 63.2133 53.9107 62.8106 56.1333 67.956C66.3093 71.7186 68.1347 82.328 69.1173 93.772C64.564 88.1213 61.5 79.8906 50.8347 84.1039C43.0133 87.1759 42.496 91.2706 32.4227 90.2693C28.7453 89.8826 26.82 88.5586 26.0213 84.7413C24.3213 76.512 26.9587 68.864 34.792 63.1693L34.7413 63.2C36.104 62.4533 37.312 60.868 37.0947 58.836C36.0867 53.808 29.152 55.1719 26.5253 53.4212C18.2173 47.8626 15.628 46.7533 7.35732 47.0679C14.4653 46.9453 16.9853 47.2693 26.2813 53.7733L26.252 53.7492C28.088 55.3692 35.5053 54.7253 36.3227 58.4239C36.7933 59.7519 35.9853 61.676 34.3907 62.4973C31.52 63.9746 22.328 71.8346 24.7333 85C25.58 89.4813 28 91.2346 32.2453 91.784C37.6613 92.4173 39.872 91.8573 42.6133 90.5519C46.84 88.5386 51.036 85.0079 56.156 85.0346C61.812 84.9359 64.1333 91.7599 68.2427 96.4506C52.2667 101.073 62.5253 116.469 38.4733 107.645C35.1667 106.431 29.336 104.657 26.3826 106.571C25.56 107.121 24.8947 107.907 24.2973 108.843C14.9787 109.383 12.404 107.243 5.05199 109.973C12.3947 107.589 14.5053 109.727 23.816 109.655C21.048 114.615 19.3413 122.653 8.30934 124.181C9.09201 125.764 7.91865 128.553 4.81598 128.585C2.97865 129.54 4.288 133.923 0 129.767C4.21333 134.076 3.24267 129.593 4.86934 128.776C8.03067 128.815 9.30798 125.915 8.84798 124.477C20.504 123.057 22.1173 113.517 25.42 109.011C29.6027 103.115 39.6787 111.135 47.5333 111.819C44.2467 114.861 44.9067 117.457 45.232 119.245C41.0453 120.757 35.5333 126.14 32.4826 129.176C35.88 126.096 41.56 120.988 46.0733 119.779C45.8947 118.163 45.8907 117.96 45.788 116.627C45.788 116.627 46.4467 113.483 49.3587 111.911C61.212 112.064 57.016 102.033 68.7093 98.8106C61.016 122.229 77.4347 121.405 72.3067 131.415C68.9293 138.187 56.9507 137.075 53.7667 142.12C53.4867 143.097 53.7626 144.06 54.4826 144.82C55.7813 146.188 57.2933 146.225 53.4146 150.237C50.0613 153.037 41.88 150.661 41.492 155.685C41.2187 158.3 44.4266 160.149 45.4493 162.975C44.852 161.177 43.4413 159.832 42.452 158.277C41.1333 156.229 41.708 154.255 43.0173 153.477C46.6333 151.215 52.7307 154.141 56.236 147.777C57.788 144.888 53.9106 144.864 54.548 142.476C58.1893 137.18 73.7133 140.321 74.7813 127.341C75.332 120.567 64.664 120.101 70.584 100.876C75.2466 108.257 92.348 118.828 94.468 121.496C94.468 127.684 88.9653 128.285 90.748 133.188C91.0453 137.739 91.1707 141.184 87.16 148.411C86.9853 148.728 86.492 149.551 86.4947 149.912C86.448 153.659 85.2653 151.177 82.9267 154.465C85.2587 151.403 86.404 153.548 86.6773 150.428C86.8613 147.961 91.7573 143.879 91.5826 134.741C95.0013 139.481 104.821 142 104.471 147.788C104.165 152.359 98.012 156.967 97.688 162.429C98.164 157.028 104.509 152.505 104.917 147.823C110.387 160.289 109.647 159.123 116.148 161.56C109.552 158.929 110.469 160.185 104.923 146.821C104.447 141.613 96.5787 139.072 92.924 134.82C88.4307 129.403 95.6053 129.095 95.8933 121.408C95.9013 121.427 95.8867 121.143 95.8347 121.027C94.8253 118.661 73.4533 104.299 71.856 98.2959C76.7773 98.8186 81.0453 102.1 82.82 103.131C83.2733 103.399 83.56 103.345 84.0506 103.32C90.2853 102.885 91.3947 94.8066 95.0907 94.2373C101.54 94.1039 107.744 91.9226 112.969 89.3399C115.639 89.5519 117.679 90.5333 119.023 91.8586C121.005 93.8346 120.516 95.5759 120.495 99.1772C120.643 104.517 122.589 102.14 122.769 105.516C122.991 109.239 120.348 108.503 118.569 110.075C115.461 112.813 119.679 118.796 119.128 122.484C118.928 123.869 118.428 124.941 117.8 126.151C117.695 126.425 117.587 126.315 117.741 126.8C118.053 127.615 119.339 128.623 119.999 129.236C117.397 126.693 117.489 126.916 118.227 125.583C121.173 119.924 117.489 117.119 117.911 112.8C119.1 116.937 121.488 118.803 125.479 121.121C119.525 117.396 118.695 115.091 118.072 111.892C119.041 108.464 123.623 110.719 123.463 105.488C123.441 104.699 123.336 103.74 122.677 103.056C122.371 102.736 122.095 102.519 121.913 102.249C119.871 99.5266 125.108 90.8239 114.763 88.4186C119.6 85.8426 123.433 83.0732 125.547 81.6159C126.717 81.1612 128.607 81.9373 130.232 81.9306C131.569 82.1706 131.767 85.0746 132.553 87.4772C135.252 95.9599 143.543 100.084 145.933 110.805C145.939 110.816 145.951 110.824 145.957 110.835L145.945 110.843C149.144 116.243 150.172 114.255 150.001 126.215C149.779 139.824 152.235 138.841 154.388 140.669C153.229 139.66 152.001 139.491 151.159 137.423C149.905 134.525 150.088 129.835 150.224 125.508C154.476 125.185 155.329 126.625 159.876 127.571Z" fill="#E3E3E3"/>
</svg>
