<svg width="14" height="8" viewBox="0 0 14 8" fill="none" xmlns="http://www.w3.org/2000/svg">
<path d="M0.0557451 7.09357C0.102252 7.21087 0.176116 7.29885 0.430537 7.54945C0.821744 7.93335 0.914758 7.984 1.21295 7.98667C1.37162 7.98667 1.4619 7.97334 1.54123 7.93602C1.6151 7.90136 2.51241 7.04825 4.32619 5.28337L6.99897 2.68138L9.6745 5.28604C11.7536 7.31218 12.3746 7.90402 12.4704 7.94401C12.5525 7.98134 12.6537 8 12.7713 8C13.0531 8 13.1899 7.92269 13.5674 7.55212C13.8328 7.29085 13.893 7.21354 13.9422 7.08557C14.0188 6.89095 14.0188 6.73633 13.9449 6.54171C13.8902 6.39242 13.7507 6.25379 10.6812 3.26256C7.13576 -0.195212 7.36009 0.00206995 6.99897 0.00206995C6.63786 0.00206995 6.86219 -0.195212 3.31671 3.26256C0.244509 6.25645 0.107723 6.39242 0.053009 6.54171C-0.0181198 6.73366 -0.0181189 6.90428 0.0557451 7.09357Z" fill="#041E4E"/>
</svg>
