<svg width="32" height="33" viewBox="0 0 32 33" fill="none" xmlns="http://www.w3.org/2000/svg">
<path d="M14.6067 25.6925L6.41421 17.5001H28.3333C28.8856 17.5001 29.3333 17.0524 29.3333 16.5001C29.3333 15.9477 28.8856 15.5001 28.3333 15.5001H6.41421L14.6067 7.30769C14.9972 6.91717 14.9972 6.284 14.6067 5.89348C14.5579 5.84467 14.5052 5.80195 14.4497 5.76533C14.0616 5.50905 13.5341 5.55178 13.1924 5.89348L3.29289 15.7929C2.90237 16.1835 2.90237 16.8167 3.29289 17.2072L13.1924 27.1067C13.2412 27.1555 13.2938 27.1983 13.3493 27.2348C13.7375 27.4911 14.2649 27.4484 14.6067 27.1067C14.9972 26.7161 14.9972 26.0829 14.6067 25.6925Z" fill="#3B5FA0" stroke="#3B5FA0"/>
</svg>
