<svg width="53" height="53" viewBox="0 0 53 53" fill="none" xmlns="http://www.w3.org/2000/svg">
<rect x="0.5" y="0.5" width="52" height="52" rx="26" fill="#A92417" fill-opacity="0.25"/>
<g clip-path="url(#clip0_172_236)">
<path d="M25.2685 31.8393C25.2685 32.1661 25.3983 32.4795 25.6294 32.7105C25.8605 32.9416 26.1739 33.0714 26.5007 33.0714C26.8274 33.0714 27.1408 32.9416 27.3719 32.7105C27.603 32.4795 27.7328 32.1661 27.7328 31.8393C27.7328 31.5125 27.603 31.1991 27.3719 30.968C27.1408 30.737 26.8274 30.6071 26.5007 30.6071C26.1739 30.6071 25.8605 30.737 25.6294 30.968C25.3983 31.1991 25.2685 31.5125 25.2685 31.8393ZM25.6792 24.0357V28.7589C25.6792 28.8719 25.7716 28.9643 25.8846 28.9643H27.1167C27.2297 28.9643 27.3221 28.8719 27.3221 28.7589V24.0357C27.3221 23.9228 27.2297 23.8304 27.1167 23.8304H25.8846C25.7716 23.8304 25.6792 23.9228 25.6792 24.0357ZM37.8903 35.3304L27.2117 16.8482C27.0525 16.5735 26.7779 16.4375 26.5007 16.4375C26.2234 16.4375 25.9462 16.5735 25.7896 16.8482L15.111 35.3304C14.7953 35.8797 15.1906 36.5625 15.8221 36.5625H37.1792C37.8107 36.5625 38.206 35.8797 37.8903 35.3304ZM17.7781 34.6142L26.5007 19.5153L35.2232 34.6142H17.7781Z" fill="#A92417"/>
</g>
<defs>
<clipPath id="clip0_172_236">
<rect width="23" height="23" fill="white" transform="translate(15 15)"/>
</clipPath>
</defs>
</svg>
