<svg width="24" height="24" viewBox="0 0 24 24" fill="none" xmlns="http://www.w3.org/2000/svg">
<path d="M21 2H8C6.346 2 5 3.346 5 5V18H24V5C24 3.346 22.654 2 21 2ZM17 16H12V15C12 14.448 12.449 14 13 14H16C16.551 14 17 14.448 17 15V16ZM22 16H19V15C19 13.346 17.654 12 16 12H13C11.346 12 10 13.346 10 15V16H7V5C7 4.448 7.449 4 8 4H21C21.551 4 22 4.448 22 5V16ZM2 20H19V22H0V9C0 7.346 1.346 6 3 6V8C2.449 8 2 8.448 2 9V20ZM17 8.5C17 9.879 15.879 11 14.5 11C13.121 11 12 9.879 12 8.5C12 7.121 13.121 6 14.5 6C15.879 6 17 7.121 17 8.5Z" fill="#E7ECF6"/>
</svg>
