<svg width="24" height="23" viewBox="0 0 24 23" fill="none" xmlns="http://www.w3.org/2000/svg">
<path d="M16.1565 8.56782L10.5094 4.82314C10.403 4.75255 10.2794 4.71202 10.1517 4.70589C10.0239 4.69976 9.89693 4.72826 9.78422 4.78834C9.67151 4.84842 9.57733 4.93783 9.51173 5.04701C9.44613 5.1562 9.41158 5.28105 9.41176 5.40825V12.8976C9.41158 13.0248 9.44613 13.1497 9.51173 13.2588C9.57733 13.368 9.67151 13.4574 9.78422 13.5175C9.89693 13.5776 10.0239 13.6061 10.1517 13.6C10.2794 13.5938 10.403 13.5533 10.5094 13.4827L16.1565 9.73803C16.2535 9.67399 16.3332 9.58704 16.3883 9.48495C16.4433 9.38286 16.4722 9.26879 16.4722 9.15293C16.4722 9.03706 16.4433 8.923 16.3883 8.82091C16.3332 8.71881 16.2535 8.63187 16.1565 8.56782ZM10.8235 11.5858V6.72006L14.4918 9.15293L10.8235 11.5858ZM21.4118 0.0252686H2.58824C1.90179 0.0252686 1.24346 0.296506 0.758076 0.779313C0.272688 1.26212 0 1.91695 0 2.59974V15.7061C0 16.3889 0.272688 17.0437 0.758076 17.5265C1.24346 18.0094 1.90179 18.2806 2.58824 18.2806H21.4118C22.0982 18.2806 22.7565 18.0094 23.2419 17.5265C23.7273 17.0437 24 16.3889 24 15.7061V2.59974C24 1.91695 23.7273 1.26212 23.2419 0.779313C22.7565 0.296506 22.0982 0.0252686 21.4118 0.0252686ZM22.5882 15.7061C22.5882 16.0165 22.4643 16.3141 22.2437 16.5336C22.023 16.753 21.7238 16.8763 21.4118 16.8763H2.58824C2.27622 16.8763 1.97698 16.753 1.75634 16.5336C1.53571 16.3141 1.41176 16.0165 1.41176 15.7061V2.59974C1.41176 2.28938 1.53571 1.99173 1.75634 1.77227C1.97698 1.55281 2.27622 1.42952 2.58824 1.42952H21.4118C21.7238 1.42952 22.023 1.55281 22.2437 1.77227C22.4643 1.99173 22.5882 2.28938 22.5882 2.59974V15.7061ZM16.4706 21.3231C16.4706 21.5094 16.3962 21.6879 16.2638 21.8196C16.1315 21.9513 15.9519 22.0253 15.7647 22.0253H8.23529C8.04808 22.0253 7.86854 21.9513 7.73616 21.8196C7.60378 21.6879 7.52941 21.5094 7.52941 21.3231C7.52941 21.1369 7.60378 20.9583 7.73616 20.8267C7.86854 20.695 8.04808 20.621 8.23529 20.621H15.7647C15.9519 20.621 16.1315 20.695 16.2638 20.8267C16.3962 20.9583 16.4706 21.1369 16.4706 21.3231Z" fill="#041E4E"/>
</svg>
