<svg width="24" height="24" viewBox="0 0 24 24" fill="none" xmlns="http://www.w3.org/2000/svg">
<path d="M21.5 2H6.5C5.122 2 4 3.121 4 4.5V18H24V4.5C24 3.121 22.878 2 21.5 2ZM18 17H10V15.5C10 14.673 10.673 14 11.5 14H16.5C17.327 14 18 14.673 18 15.5V17ZM23 17H19V15.5C19 14.121 17.878 13 16.5 13H11.5C10.122 13 9 14.121 9 15.5V17H5V4.5C5 3.673 5.673 3 6.5 3H21.5C22.327 3 23 3.673 23 4.5V17ZM1 21H20V22H0V8.5C0 7.293 0.86 6.283 2 6.051V7.093C1.419 7.3 1 7.85 1 8.501V21ZM14 5C12.346 5 11 6.346 11 8C11 9.654 12.346 11 14 11C15.654 11 17 9.654 17 8C17 6.346 15.654 5 14 5ZM14 10C12.897 10 12 9.103 12 8C12 6.897 12.897 6 14 6C15.103 6 16 6.897 16 8C16 9.103 15.103 10 14 10Z" fill="#041E4E"/>
</svg>
