<svg width="50" height="50" viewBox="0 0 50 50" fill="none" xmlns="http://www.w3.org/2000/svg">
<g clip-path="url(#clip0_1451_8)">
<path d="M29.1667 39.5833V50H0V39.5833C0 36.1375 2.80417 33.3333 6.25 33.3333H22.9167C26.3625 33.3333 29.1667 36.1375 29.1667 39.5833ZM14.5833 29.1667C19.1792 29.1667 22.9167 25.4292 22.9167 20.8333C22.9167 16.2375 19.1792 12.5 14.5833 12.5C9.9875 12.5 6.25 16.2375 6.25 20.8333C6.25 25.4292 9.9875 29.1667 14.5833 29.1667ZM50 6.25V37.5H33.1229C32.2146 33.0438 28.4375 29.6604 23.8187 29.2583C25.8479 27.0354 27.0833 24.0792 27.0833 20.8333C27.0833 13.9292 21.4875 8.33333 14.5833 8.33333C13.1229 8.33333 11.7208 8.58542 10.4167 9.04583V6.25C10.4167 2.80417 13.2208 0 16.6667 0H43.75C47.1958 0 50 2.80417 50 6.25ZM45.8333 29.1667H35.4167V33.3333H45.8333V29.1667Z" fill="#E7ECF6"/>
</g>
<defs>
<clipPath id="clip0_1451_8">
<rect width="50" height="50" fill="white"/>
</clipPath>
</defs>
</svg>
