<svg width="35" height="35" viewBox="0 0 35 35" fill="none" xmlns="http://www.w3.org/2000/svg">
<path d="M24.3805 22.6488L21.8731 20.14V28.4375C21.8731 28.7276 21.7579 29.0058 21.5528 29.2109C21.3476 29.416 21.0694 29.5312 20.7794 29.5312C20.4893 29.5312 20.2111 29.416 20.006 29.2109C19.8008 29.0058 19.6856 28.7276 19.6856 28.4375V20.14L17.1782 22.6488C17.0766 22.7505 16.9559 22.8311 16.8231 22.8861C16.6904 22.9411 16.5481 22.9694 16.4044 22.9694C16.2606 22.9694 16.1183 22.9411 15.9856 22.8861C15.8528 22.8311 15.7321 22.7505 15.6305 22.6488C15.5289 22.5472 15.4483 22.4266 15.3933 22.2938C15.3383 22.161 15.31 22.0187 15.31 21.875C15.31 21.7313 15.3383 21.589 15.3933 21.4562C15.4483 21.3234 15.5289 21.2028 15.6305 21.1012L20.0055 16.7262C20.1071 16.6245 20.2277 16.5438 20.3605 16.4888C20.4933 16.4337 20.6356 16.4054 20.7794 16.4054C20.9231 16.4054 21.0654 16.4337 21.1982 16.4888C21.331 16.5438 21.4516 16.6245 21.5532 16.7262L25.9282 21.1012C26.0298 21.2028 26.1104 21.3234 26.1654 21.4562C26.2204 21.589 26.2487 21.7313 26.2487 21.875C26.2487 22.0187 26.2204 22.161 26.1654 22.2938C26.1104 22.4266 26.0298 22.5472 25.9282 22.6488C25.8266 22.7505 25.7059 22.8311 25.5731 22.8861C25.4404 22.9411 25.2981 22.9694 25.1544 22.9694C25.0106 22.9694 24.8683 22.9411 24.7356 22.8861C24.6028 22.8311 24.4821 22.7505 24.3805 22.6488ZM21.8731 5.46875C19.6385 5.47044 17.4485 6.09385 15.548 7.26925C13.6475 8.44465 12.1115 10.1257 11.112 12.1242C9.92187 11.9493 8.70848 12.0217 7.54761 12.3368C6.38673 12.652 5.3033 13.203 4.36497 13.9557C3.42664 14.7083 2.65358 15.6464 2.09406 16.7112C1.53454 17.776 1.20058 18.9448 1.11304 20.1445C1.02551 21.3442 1.18627 22.549 1.5853 23.6838C1.98432 24.8186 2.61303 25.8589 3.43217 26.7398C4.25131 27.6207 5.24327 28.3232 6.34611 28.8035C7.44895 29.2838 8.63897 29.5315 9.84185 29.5312H15.3106C15.6007 29.5312 15.8789 29.416 16.084 29.2109C16.2891 29.0058 16.4044 28.7276 16.4044 28.4375C16.4044 28.1474 16.2891 27.8692 16.084 27.6641C15.8789 27.459 15.6007 27.3438 15.3106 27.3438H9.84185C8.10137 27.3438 6.43217 26.6523 5.20147 25.4216C3.97076 24.1909 3.27935 22.5217 3.27935 20.7812C3.27935 19.0408 3.97076 17.3716 5.20147 16.1409C6.43217 14.9102 8.10137 14.2188 9.84185 14.2188C9.99224 14.2188 10.1426 14.2188 10.2917 14.2352C9.99267 15.2977 9.84132 16.3962 9.84185 17.5C9.84185 17.7901 9.95709 18.0683 10.1622 18.2734C10.3673 18.4785 10.6455 18.5938 10.9356 18.5938C11.2257 18.5938 11.5039 18.4785 11.709 18.2734C11.9141 18.0683 12.0294 17.7901 12.0294 17.5C12.0296 15.7253 12.5096 13.9837 13.4186 12.4595C14.3276 10.9353 15.6317 9.68522 17.193 8.84147C18.7542 7.99773 20.5146 7.59174 22.2877 7.66647C24.0607 7.74121 25.7807 8.29389 27.2654 9.26603C28.7501 10.2382 29.9444 11.5936 30.7219 13.1889C31.4994 14.7842 31.8311 16.56 31.6821 18.3284C31.533 20.0968 30.9086 21.792 29.875 23.2346C28.8415 24.6772 27.4371 25.8136 25.8106 26.5234C25.5796 26.6236 25.3903 26.8003 25.2745 27.0238C25.1587 27.2473 25.1235 27.5039 25.1749 27.7503C25.2263 27.9967 25.3612 28.2179 25.5567 28.3764C25.7522 28.535 25.9964 28.6213 26.2481 28.6207C26.3988 28.6206 26.5479 28.5889 26.6856 28.5277C29.2195 27.4224 31.2954 25.4783 32.5642 23.0222C33.8331 20.5662 34.2175 17.7481 33.6527 15.042C33.0879 12.3359 31.6084 9.90678 29.4631 8.16329C27.3178 6.4198 24.6375 5.46827 21.8731 5.46875Z" fill="#EDEDED"/>
</svg>
