<svg width="134" height="134" viewBox="0 0 134 134" fill="none" xmlns="http://www.w3.org/2000/svg">
<path d="M60.0014 1.24065C52.9583 1.90614 43.9464 4.48494 37.2915 7.72922C30.8584 10.8626 23.3161 16.3252 18.6577 21.2332C1.29937 39.5343 -4.41279 64.8507 3.46222 88.5312C10.0894 108.441 25.5622 123.913 45.4438 130.54C73.7827 139.968 104.451 129.681 121.366 105.113C136.894 82.5418 136.894 52.4282 121.366 29.8569C107.584 9.83662 84.292 -1.03311 60.0014 1.24065ZM96.2431 45.191C98.4614 46.3278 99.7924 48.6016 99.7924 51.319C99.7647 54.5079 101.068 53.0937 77.332 75.8037C66.9614 85.7306 62.7189 89.6126 61.8038 90.0286C60.1678 90.7495 57.8941 90.7773 56.258 90.0286C55.4262 89.6681 52.0987 86.812 46.2756 81.4603C34.9623 71.0897 33.9917 70.1192 33.5758 68.7051C33.1321 67.18 33.1599 64.9062 33.6313 63.7693C34.6295 61.3569 37.4579 59.4436 40.0366 59.4436C42.5322 59.4436 43.6414 60.22 51.4887 67.4573C55.4816 71.1452 58.8646 74.1399 59.0032 74.0845C59.1141 74.029 65.8522 67.6236 73.9768 59.8595C82.0736 52.0677 89.1722 45.4682 89.6991 45.191C91.8342 44.0541 93.9693 44.0541 96.2431 45.191Z" fill="#3F9318"/>
<path d="M96.2431 45.191C98.4614 46.3278 99.7924 48.6016 99.7924 51.319C99.7647 54.5079 101.068 53.0937 77.332 75.8037C66.9614 85.7306 62.7189 89.6126 61.8038 90.0286C60.1678 90.7495 57.8941 90.7773 56.258 90.0286C55.4262 89.6681 52.0987 86.812 46.2756 81.4603C34.9623 71.0897 33.9917 70.1192 33.5758 68.7051C33.1321 67.18 33.1599 64.9062 33.6313 63.7693C34.6295 61.3569 37.4579 59.4436 40.0366 59.4436C42.5322 59.4436 43.6414 60.22 51.4887 67.4573C55.4816 71.1452 58.8646 74.1399 59.0032 74.0845C59.1141 74.029 65.8522 67.6236 73.9768 59.8595C82.0736 52.0677 89.1722 45.4682 89.6991 45.191C91.8342 44.0541 93.9693 44.0541 96.2431 45.191Z" fill="white"/>
</svg>
