<svg width="29" height="29" viewBox="0 0 29 29" fill="none" xmlns="http://www.w3.org/2000/svg">
<rect x="1" y="1" width="27" height="27" rx="13.5" stroke="#D8D8D8" stroke-width="2"/>
<path d="M20.4941 8.5416C20.1863 8.64925 20.1745 8.65904 16.2571 13.0176L12.4012 17.3044L10.6565 15.3633C9.03502 13.5657 8.8972 13.4189 8.71541 13.3243C8.24918 13.0829 7.75364 13.1579 7.38418 13.5298C7.09096 13.8234 6.94728 14.2932 7.01765 14.7173C7.09096 15.1545 7.04404 15.099 9.47778 17.797C11.6066 20.159 11.7385 20.2993 11.9174 20.3874C12.1461 20.4983 12.4599 20.5309 12.671 20.4689C13.0287 20.3613 12.8762 20.5211 17.4476 15.4351C22.1802 10.163 21.9104 10.486 21.9837 10.0195C22.0834 9.37025 21.7169 8.7406 21.1275 8.5416C20.9633 8.48613 20.6525 8.48613 20.4941 8.5416Z" fill="#D8D8D8"/>
</svg>
