<svg width="67" height="40" viewBox="0 0 67 40" fill="none" xmlns="http://www.w3.org/2000/svg">
<path opacity="0.4" d="M59.4448 30.5H30.7781C29.8576 30.5 29.1114 28.5701 29.1114 26.1892V13.8108C29.1114 11.4299 29.8576 9.5 30.7781 9.5H59.4448C60.3653 9.5 61.1114 11.4299 61.1114 13.8108V26.1892C61.1114 28.5701 60.3653 30.5 59.4448 30.5Z" fill="black"/>
<path d="M12.1114 4.5H60.1114C63.4251 4.5 66.1114 7.18629 66.1114 10.5V29.5C66.1114 32.8137 63.4251 35.5 60.1114 35.5H12.1114V4.5Z" fill="#F6F8FE"/>
<path d="M12.1114 6.5H60.1114C62.3206 6.5 64.1114 8.29086 64.1114 10.5V29.5C64.1114 31.7091 62.3206 33.5 60.1114 33.5H12.1114V6.5Z" fill="url(#paint0_linear_1_6)"/>
<path opacity="0.4" d="M28.1114 15.5C28.1114 13.2909 29.9023 11.5 32.1114 11.5H57.1114C59.3206 11.5 61.1114 13.2909 61.1114 15.5V25.5C61.1114 27.7091 59.3206 29.5 57.1114 29.5H32.1114C29.9023 29.5 28.1114 27.7091 28.1114 25.5V15.5Z" fill="black"/>
<path d="M14.005 1.78013C14.0277 6.5423 14.0506 11.3046 14.0732 16.0668H25.5412L10.2613 38.2157C11.0126 33.1191 11.7639 28.0226 12.515 22.926C8.93742 22.926 5.36004 22.926 1.78243 22.926C5.85659 15.8774 9.93085 8.82866 14.005 1.78013Z" fill="url(#paint1_linear_1_6)"/>
<path d="M14.0046 1.78235C14.0273 6.54452 14.0501 11.3068 14.0728 16.069H25.5407L10.2609 38.2179C11.0121 33.1213 11.7634 28.0248 12.5146 22.9283C8.93697 22.9283 5.35958 22.9283 1.78196 22.9283C5.85623 15.8796 9.93052 8.83087 14.0046 1.78235ZM14.0044 0C13.3796 0 12.7857 0.329915 12.4617 0.890505L6.35045 11.4634L0.239208 22.0363C-0.0794586 22.5876 -0.0797906 23.2672 0.238541 23.8188C0.556873 24.3703 1.14531 24.7102 1.78209 24.7102H10.4506L9.62466 30.3129L8.49779 37.9578C8.37694 38.7775 8.83696 39.5723 9.60795 39.8759C9.8208 39.9598 10.0419 40 10.2603 40C10.8329 40 11.3872 39.7234 11.7278 39.2297L27.0076 17.0808C27.3837 16.5355 27.4264 15.8268 27.1185 15.2404C26.8107 14.654 26.203 14.2866 25.5407 14.2866H15.8464L15.8208 8.91685L15.7867 1.77354C15.7828 0.968693 15.24 0.266313 14.4621 0.0595868C14.3101 0.019489 14.1563 0 14.0044 0Z" fill="#A35A00"/>
<path d="M24.0751 18.192C21.1275 19.467 17.6849 20.2014 14.0049 20.2014C10.5188 20.2014 7.24653 19.5416 4.40527 18.3886C3.53102 19.9011 2.65667 21.4137 1.78243 22.9262C5.36004 22.9262 8.93743 22.9262 12.5149 22.9262C11.7637 28.0227 11.0125 33.1194 10.2612 38.2159L24.0751 18.192Z" fill="#E39200"/>
<path d="M14.0049 1.78013C12.1585 5.43694 10.3121 9.09375 8.46572 12.7506C6.23784 16.1424 4.01019 19.5342 1.78243 22.9259L14.0049 1.78013Z" fill="url(#paint2_linear_1_6)"/>
<defs>
<linearGradient id="paint0_linear_1_6" x1="23.0205" y1="33.5" x2="64.1114" y2="33.5" gradientUnits="userSpaceOnUse">
<stop stop-color="#F6D365"/>
<stop offset="1" stop-color="#FFBF23"/>
</linearGradient>
<linearGradient id="paint1_linear_1_6" x1="6.76677" y1="38.2157" x2="25.5412" y2="38.2157" gradientUnits="userSpaceOnUse">
<stop stop-color="#F6D365"/>
<stop offset="1" stop-color="#FFBF23"/>
</linearGradient>
<linearGradient id="paint2_linear_1_6" x1="-0.448436" y1="20.6952" x2="16.2358" y2="4.01097" gradientUnits="userSpaceOnUse">
<stop offset="0.1339" stop-color="white"/>
<stop offset="0.1836" stop-color="white"/>
<stop offset="0.5714" stop-color="white"/>
<stop offset="0.9928" stop-color="white"/>
<stop offset="1" stop-color="white"/>
</linearGradient>
</defs>
</svg>
