<svg width="20" height="20" viewBox="0 0 20 20" fill="none" xmlns="http://www.w3.org/2000/svg">
<g clip-path="url(#clip0_3_217)">
<path d="M19.7852 10C19.7852 15.5228 15.308 20 9.78516 20C4.26231 20 -0.214844 15.5228 -0.214844 10C-0.214844 4.47715 4.26231 0 9.78516 0C15.308 0 19.7852 4.47715 19.7852 10Z" fill="#28A745"/>
<path d="M14.0303 6.96772C14.3232 7.26061 14.3232 7.73548 14.0303 8.02838L9.0303 13.0284C8.73741 13.3213 8.26253 13.3213 7.96964 13.0284L5.96964 11.0284C5.67675 10.7355 5.67675 10.2606 5.96964 9.96772C6.26253 9.67482 6.73741 9.67482 7.0303 9.96772L8.49997 11.4374L10.7348 9.20255L12.9696 6.96772C13.2625 6.67482 13.7374 6.67482 14.0303 6.96772Z" fill="#F6F8FE"/>
</g>
<defs>
<clipPath id="clip0_3_217">
<rect width="20" height="20" fill="white"/>
</clipPath>
</defs>
</svg>
