<svg width="14" height="19" viewBox="0 0 14 19" fill="none" xmlns="http://www.w3.org/2000/svg">
<path d="M5.14894 8.00495C5.3742 8.00495 5.59726 7.96058 5.80538 7.87438C6.01349 7.78817 6.20259 7.66182 6.36187 7.50254C6.52116 7.34325 6.64751 7.15415 6.73371 6.94604C6.81992 6.73792 6.86429 6.51487 6.86429 6.2896C6.86429 6.06434 6.81992 5.84128 6.73371 5.63317C6.64751 5.42505 6.52116 5.23595 6.36187 5.07667C6.20259 4.91739 6.01349 4.79103 5.80538 4.70483C5.59726 4.61863 5.3742 4.57426 5.14894 4.57426C4.694 4.57426 4.2577 4.75498 3.93601 5.07667C3.61432 5.39836 3.43359 5.83467 3.43359 6.2896C3.43359 6.74454 3.61432 7.18085 3.93601 7.50254C4.2577 7.82423 4.694 8.00495 5.14894 8.00495Z" fill="white" fill-opacity="0.4"/>
<path d="M13.7228 16.0099C13.7228 16.6165 13.4818 17.1982 13.0529 17.6271C12.624 18.0561 12.0422 18.297 11.4356 18.297H2.28713C1.68054 18.297 1.0988 18.0561 0.669884 17.6271C0.240965 17.1982 0 16.6165 0 16.0099V2.28713C0 1.68054 0.240965 1.0988 0.669884 0.669885C1.0988 0.240965 1.68054 0 2.28713 0L8.57673 0L13.7228 5.14604V16.0099ZM2.28713 1.14356C1.98384 1.14356 1.69297 1.26405 1.47851 1.47851C1.26405 1.69297 1.14356 1.98384 1.14356 2.28713V13.7228L3.68685 11.1795C3.77698 11.0896 3.89454 11.0323 4.02091 11.0168C4.14727 11.0012 4.2752 11.0283 4.38443 11.0937L6.86139 12.5792L9.32805 9.12564C9.37632 9.05814 9.4387 9.00196 9.51086 8.96099C9.58302 8.92002 9.66323 8.89525 9.74593 8.88839C9.82862 8.88154 9.91182 8.89277 9.98974 8.92129C10.0677 8.94982 10.1384 8.99497 10.1972 9.0536L12.5792 11.4356V5.14604H10.2921C9.83714 5.14604 9.40084 4.96532 9.07915 4.64363C8.75746 4.32194 8.57673 3.88563 8.57673 3.43069V1.14356H2.28713Z" fill="white" fill-opacity="0.4"/>
</svg>
