<svg version="1.2" xmlns="http://www.w3.org/2000/svg" viewBox="0 0 512 512" width="512" height="512">
	<title>file</title>
	<style>
		.s0 { fill: #000000 } 
	</style>
	<path id="Path 0" fill-rule="evenodd" class="s0" d="m124.5 22.2l348-0.2 6.5 2.5c3.6 1.4 8.3 3.6 10.5 4.9 2.2 1.3 6.3 4.8 9.1 7.7 2.8 3 6.3 7.8 7.7 10.7 1.5 2.8 3.4 7.8 4.2 11 1.3 4.9 1.5 22.9 1.5 133.7 0 113-0.2 128.7-1.6 134-0.8 3.3-2.7 8.3-4.1 11-1.4 2.8-4.2 7-6.2 9.4-2 2.4-6.3 6.1-9.6 8.3-3.3 2.1-8.9 4.8-12.5 5.9-6.4 1.9-10.4 1.9-179 1.9-116.8 0-174-0.4-177-1.1-2.5-0.6-6.8-2.1-9.5-3.4-2.8-1.3-7.4-4.5-10.4-7.2-3-2.6-7.7-8.2-10.4-12.3-4.5-6.7-5.1-8.3-5.8-15-0.4-4.1-0.8-63.5-0.8-132-0.1-106.4 0.2-125.5 1.4-131.5 0.8-3.8 2.6-9.2 4-12 1.3-2.7 4.4-7.2 6.8-10 2.4-2.7 6.8-6.6 9.8-8.5 3-1.9 8.1-4.5 11.4-5.6zm1.5 34c-1.9 1.3-4.6 3.8-6 5.8l-2.5 3.5c-0.4 170.8-0.2 220.5 0.2 220.4 0.5 0 17.2-16.3 37.3-36.3 31.2-31.1 37.4-36.8 42.5-39.2 5.3-2.5 7.2-2.9 15.5-2.9 8.3 0 10.3 0.3 15.5 2.7 4.8 2.2 9 5.8 21 17.8 8.3 8.2 15.3 15 15.8 15 0.4 0 18.6-21.5 40.5-47.8 21.9-26.3 41.6-49.3 43.8-51.2 2.1-1.9 6.4-4.5 9.4-6 4.7-2.1 6.9-2.5 15-2.5 7.8 0 10.3 0.4 14.3 2.2 2.6 1.2 6.8 4.2 9.5 6.7 2.6 2.4 22 24.6 43.2 49.4l38.5 44.9c0.4-131.2 0.3-170.7 0-172.5-0.3-1.8-1.7-4.7-3.2-6.4-1.6-1.8-4.3-3.8-6-4.5-2.7-1.1-33.7-1.3-172.1-1.3h-168.7zm147.8 225.4c-1.5 0.7-4.6 1.3-6.8 1.3-2.2 0-5.2-0.5-6.7-1-1.5-0.6-12.6-10.8-24.5-22.5-20.1-19.9-22-21.4-24-20.4-1.3 0.6-21.8 20.5-45.5 44.3-23.8 23.7-43.3 43.5-43.3 43.9 0 0.4 1.4 1.4 3 2.2 2.6 1.3 23.9 1.5 172.8 1.6h169.7c5.3-3.6 7.8-5.8 8.9-7.4 1.9-2.5 2.1-4.4 2.4-19l0.3-16.2c-77.7-90.7-101.3-118-102.6-119.2-1.4-1.3-3.4-2.3-4.5-2.3-1.4 0-15.7 16.4-49.2 56.7-26 31.1-48.5 57.2-50 58zm-220.4-89.7c3.7 0 6.1 0.7 8.6 2.4 1.9 1.2 4.3 3.9 5.3 6 0.9 2 1.7 5.2 1.7 7.1 0 1.9-8.3 35.4-18.5 74.3-10.1 38.9-18.5 72.1-18.5 73.7 0 1.7 1.1 4.8 2.3 6.9 1.2 2.2 3.3 4.7 4.7 5.7 1.4 1 25.5 8 53.5 15.4 28.1 7.5 63.4 17 78.5 21.1 15.1 4 67.1 17.9 115.5 30.9 48.4 12.9 89.8 23.5 92 23.5 2.2 0 5.5-0.9 7.3-2 1.8-1.1 4.1-3.4 5.2-5.2 1.1-1.8 4.5-13.6 7.6-26.3 3.1-12.6 6.2-24.3 6.9-26 0.6-1.6 2.6-4.2 4.3-5.7 1.8-1.5 4.7-3.1 6.5-3.4 1.8-0.3 4.9-0.3 7 0 2.2 0.4 5 1.9 7.1 3.9 2 1.9 3.9 5.1 4.7 7.7 1.2 4.3 0.9 5.8-5.2 30.5-3.7 15-7.7 28.6-9.4 32-1.8 3.8-5.3 8.5-9.4 12.5-3.8 3.8-8.9 7.7-12.1 9.2-3 1.4-8.3 3.3-11.7 4.2-3.5 0.9-7.7 1.6-9.5 1.6-1.8 0-6.7-0.9-10.8-1.9-4.1-1.1-36.1-9.6-71-18.9-34.9-9.4-108.3-29-163-43.6-71.9-19.3-101.4-27.6-106.5-30-4.8-2.3-8.7-5.2-12.5-9.2-3-3.2-7-8.8-8.8-12.4-1.7-3.6-3.7-9-4.3-12-0.6-3-0.9-8.4-0.6-12 0.3-3.7 8.4-36.7 19.1-78 10.3-39.3 19.5-72.8 20.5-74.5 0.9-1.6 3.2-4 5.1-5.2 2.4-1.6 4.9-2.3 8.4-2.3zm138.1-105.9c2.8-0.1 7.7 0.6 11 1.5 3.3 0.8 8.2 2.8 10.9 4.2 2.7 1.5 7.1 5.2 9.8 8.2 2.8 3 6 7.8 7.3 10.5 1.3 2.8 2.9 8.2 3.5 12 0.9 5.6 0.8 8.4-0.3 14-0.8 3.9-2.5 9-3.7 11.5-1.3 2.5-4.6 6.9-7.4 9.8-2.8 3-6.9 6.4-9.1 7.7-2.2 1.3-6.5 3-9.5 3.9-3 0.9-8.4 1.6-12 1.6-3.6 0-9-0.7-12-1.6-3-0.9-7.3-2.6-9.5-3.9-2.2-1.3-6.3-4.8-9.2-7.9-2.9-3.1-6.4-7.9-7.7-10.8-1.4-2.9-3-8.2-3.6-11.8-0.9-4.9-0.8-8.1 0-13 0.7-3.6 2.4-9 3.8-12 1.4-3 5.1-8 8.1-11.1 3.1-3 7.5-6.5 9.9-7.7 2.3-1.2 6.6-2.8 9.5-3.6 2.9-0.8 7.5-1.5 10.2-1.5zm-9.5 39.4c-0.7 2.6-0.6 4.4 0.3 6.8 0.7 1.8 2.4 4 3.8 5 1.3 0.9 4 1.8 5.9 1.8 2 0 4.7-0.9 6.3-2 1.5-1.2 3.2-3.7 3.7-5.6 0.8-2.6 0.7-4.3-0.5-7-0.8-2-2.8-4.1-4.5-5-1.6-0.8-4-1.5-5.2-1.5-1.3 0-3.7 0.9-5.5 2-2.1 1.3-3.6 3.3-4.3 5.5z"/>
</svg>