<svg width="24" height="24" viewBox="0 0 24 24" fill="none" xmlns="http://www.w3.org/2000/svg">
<g clip-path="url(#clip0_964_4782)">
<path d="M7.06287 1.27677C6.51874 1.42384 5.81488 1.93096 5.55529 2.35695C5.48042 2.47359 5.39555 2.49387 3.63336 2.74744C2.61998 2.89451 1.68647 3.04664 1.56167 3.09228C1.17229 3.22921 0.857794 3.43206 0.543296 3.75155C0.044093 4.26375 -0.230469 4.92301 -0.230469 5.60765C-0.230469 5.90682 1.68647 19.9695 1.82125 20.6693C2.05588 21.8712 3.1691 22.7992 4.38217 22.7992C4.56187 22.7992 6.30908 22.571 8.26595 22.2921C10.2228 22.0081 11.9052 21.7799 12 21.7799C12.0948 21.7748 12.5791 21.8357 13.0733 21.9067C17.8207 22.5913 19.3483 22.7992 19.6328 22.7992C20.7211 22.7992 21.7195 22.069 22.0839 21.004C22.2037 20.6642 24.2305 6.11475 24.2305 5.60765C24.2305 4.50209 23.4866 3.46249 22.4383 3.09228C22.3135 3.04664 21.38 2.88943 20.3666 2.74744C18.6045 2.49387 18.5196 2.47359 18.4447 2.35695C18.2949 2.11353 17.8107 1.67233 17.5112 1.51512C16.8972 1.18549 17.0969 1.19563 11.9751 1.2007C8.08625 1.2007 7.28751 1.21592 7.06287 1.27677ZM16.9521 2.42795C17.2616 2.58008 17.5262 2.84886 17.7009 3.18357L17.8157 3.40163V11.186V18.9704L17.7009 19.1885C17.5262 19.5232 17.2616 19.792 16.9521 19.9441C16.6875 20.076 16.6126 20.0861 15.9587 20.1013L15.2498 20.1216L15.3546 19.8224C15.5892 19.1682 15.5993 19.2646 14.496 11.3128C13.9469 7.32172 13.4627 3.92904 13.4227 3.76169C13.3129 3.33064 13.0633 2.88943 12.7388 2.54966L12.4543 2.25553L14.5609 2.27074L16.6675 2.28595L16.9521 2.42795ZM11.5258 2.97564C11.8452 3.12778 12.1448 3.43206 12.2896 3.75155C12.3894 3.95947 12.5691 5.19179 13.4277 11.3838C14.1616 16.6427 14.4461 18.8487 14.4311 19.0516C14.3762 19.7108 13.902 20.2991 13.288 20.4665C13.1981 20.4918 11.1813 20.791 8.8051 21.1257C5.84982 21.5517 4.40711 21.7343 4.23239 21.719C3.91791 21.6886 3.52853 21.4908 3.28392 21.2423C2.88955 20.8417 2.95445 21.1967 1.83623 13.1537C1.11738 7.98097 0.817857 5.69893 0.832835 5.50113C0.87776 4.9433 1.20724 4.45138 1.69645 4.20796C1.94106 4.08625 2.41031 4.01018 6.27413 3.44727C10.9317 2.77279 11.0765 2.75758 11.5258 2.97564ZM19.9373 3.78198C22.1588 4.07611 22.3185 4.12175 22.6929 4.5021C22.9425 4.75059 23.0673 4.99401 23.1422 5.36928C23.1921 5.60765 23.0973 6.34297 22.1638 13.0878C21.0356 21.217 21.1055 20.8518 20.7111 21.2525C20.5064 21.4604 20.127 21.6582 19.8225 21.714C19.5929 21.7545 16.1633 21.2778 16.2582 21.217C16.2932 21.1967 16.413 21.1764 16.5228 21.1764C16.6376 21.1764 16.8772 21.1308 17.0519 21.075C17.9605 20.791 18.7292 19.9035 18.889 18.9451C18.9239 18.7118 18.9389 16.3891 18.929 11.1201L18.914 3.62984L19.0388 3.65013C19.1087 3.66534 19.513 3.72619 19.9373 3.78198Z" fill="#3B5FA0"/>
</g>
<defs>
<clipPath id="clip0_964_4782">
<rect width="24" height="24" fill="white"/>
</clipPath>
</defs>
</svg>
