<svg width="56" height="49" viewBox="0 0 56 49" fill="none" xmlns="http://www.w3.org/2000/svg">
<path d="M16.6971 0.305553C15.4514 0.636982 13.84 1.77984 13.2457 2.73984C13.0743 3.0027 12.88 3.04841 8.84571 3.61984C6.52571 3.95127 4.38857 4.29413 4.10286 4.39698C3.21143 4.70556 2.49143 5.1627 1.77143 5.8827C0.628572 7.03698 0 8.52269 0 10.0656C0 10.7398 4.38857 42.4313 4.69714 44.0084C5.23429 46.717 7.78286 48.8084 10.56 48.8084C10.9714 48.8084 14.9714 48.2941 19.4514 47.6656C23.9314 47.0256 27.7829 46.5113 28 46.5113C28.2171 46.4998 29.3257 46.637 30.4571 46.797C41.3257 48.3398 44.8229 48.8084 45.4743 48.8084C47.9657 48.8084 50.2514 47.1627 51.0857 44.7627C51.36 43.997 56 11.2084 56 10.0656C56 7.57412 54.2971 5.23127 51.8971 4.39698C51.6114 4.29413 49.4743 3.93984 47.1543 3.61984C43.12 3.04841 42.9257 3.0027 42.7543 2.73984C42.4114 2.19127 41.3029 1.19698 40.6171 0.842697C39.2114 0.09984 39.6686 0.122696 27.9429 0.134125C19.04 0.134125 17.2114 0.168411 16.6971 0.305553ZM39.3371 2.89984C40.0457 3.24269 40.6514 3.84841 41.0514 4.6027L41.3143 5.09412V22.637V40.1798L41.0514 40.6713C40.6514 41.4256 40.0457 42.0313 39.3371 42.3741C38.7314 42.6713 38.56 42.6941 37.0629 42.7284L35.44 42.7741L35.68 42.0998C36.2171 40.6256 36.24 40.8427 33.7143 22.9227C32.4571 13.9284 31.3486 6.2827 31.2571 5.90556C31.0057 4.93413 30.4343 3.93984 29.6914 3.17413L29.04 2.51127L33.8629 2.54556L38.6857 2.57984L39.3371 2.89984ZM26.9143 4.13412C27.6457 4.47698 28.3314 5.1627 28.6629 5.8827C28.8914 6.35127 29.3029 9.12841 31.2686 23.0827C32.9486 34.9341 33.6 39.9056 33.5657 40.3627C33.44 41.8484 32.3543 43.1741 30.9486 43.5513C30.7429 43.6084 26.1257 44.2827 20.6857 45.037C13.92 45.997 10.6171 46.4084 10.2171 46.3741C9.49714 46.3056 8.60571 45.8598 8.04571 45.2998C7.14286 44.397 7.29143 45.197 4.73143 27.0713C3.08571 15.4141 2.4 10.2713 2.43429 9.82555C2.53714 8.56841 3.29143 7.45984 4.41143 6.91127C4.97143 6.63698 6.04571 6.46555 14.8914 5.19698C25.5543 3.67698 25.8857 3.6427 26.9143 4.13412ZM46.1714 5.95127C51.2571 6.61412 51.6229 6.71698 52.48 7.57413C53.0514 8.13413 53.3371 8.6827 53.5086 9.52841C53.6229 10.0656 53.4057 11.7227 51.2686 26.9227C48.6857 45.2427 48.8457 44.4198 47.9429 45.3227C47.4743 45.7913 46.6057 46.237 45.9086 46.3627C45.3829 46.4541 37.5314 45.3798 37.7486 45.2427C37.8286 45.197 38.1029 45.1513 38.3543 45.1513C38.6171 45.1513 39.1657 45.0484 39.5657 44.9227C41.6457 44.2827 43.4057 42.2827 43.7714 40.1227C43.8514 39.597 43.8857 34.3627 43.8629 22.4884L43.8286 5.60841L44.1143 5.65413C44.2743 5.68841 45.2 5.82555 46.1714 5.95127Z" fill="#E7ECF6"/>
<path d="M6.07144 11.1084L23.0857 8.53693L23.3429 10.3369L6.32859 12.8655L6.07144 11.1084Z" fill="#E7ECF6"/>
<path d="M6.7143 14.8798L20.3 12.8655L20.5572 14.6655L6.97144 16.6369L6.7143 14.8798Z" fill="#E7ECF6"/>
<path d="M10.8303 42.6501C10.6831 41.974 11.1308 41.3121 11.8131 41.1969L14.7731 40.6976C15.4192 40.5886 16.0366 41.0078 16.1736 41.6486V41.6486C16.32 42.3336 15.8626 43.0016 15.1709 43.1128L12.2071 43.5891C11.5717 43.6913 10.9672 43.279 10.8303 42.6501V42.6501Z" fill="#E7ECF6"/>
<path d="M17.8335 40.8877C17.7503 40.5052 18.0035 40.1308 18.3895 40.0657L22.4018 39.3888C22.7638 39.3277 23.1097 39.5626 23.1865 39.9216L23.4126 40.9795C23.4947 41.3633 23.2384 41.7375 22.8508 41.7998L18.8357 42.4452C18.4763 42.5029 18.1343 42.2697 18.0569 41.914L17.8335 40.8877Z" fill="#E7ECF6"/>
</svg>
