<svg width="26" height="23" viewBox="0 0 26 23" fill="none" xmlns="http://www.w3.org/2000/svg">
<path d="M8.12069 0.578988C7.56457 0.728778 6.8452 1.2453 6.57989 1.67917C6.50337 1.79797 6.41663 1.81863 4.6156 2.07689C3.57989 2.22668 2.62581 2.38164 2.49826 2.42812C2.1003 2.56758 1.77887 2.77419 1.45744 3.0996C0.947238 3.62128 0.666626 4.29275 0.666626 4.99007C0.666626 5.29478 2.62581 19.6178 2.76356 20.3306C3.00336 21.5548 4.14112 22.5 5.38091 22.5C5.56457 22.5 7.35029 22.2676 9.35029 21.9835C11.3503 21.6943 13.0697 21.4618 13.1666 21.4618C13.2635 21.4566 13.7585 21.5186 14.2635 21.5909C19.1156 22.2882 20.6768 22.5 20.9677 22.5C22.0799 22.5 23.1003 21.7562 23.4727 20.6715C23.5952 20.3255 25.6666 5.50656 25.6666 4.99007C25.6666 3.86404 24.9064 2.80518 23.835 2.42812C23.7074 2.38164 22.7534 2.22152 21.7177 2.07689C19.9166 1.81863 19.8299 1.79797 19.7534 1.67917C19.6003 1.43124 19.1054 0.981871 18.7993 0.821752C18.1717 0.486015 18.3758 0.496345 13.1411 0.501511C9.16663 0.501511 8.35029 0.517006 8.12069 0.578988ZM18.2278 1.75148C18.5442 1.90644 18.8146 2.18019 18.9931 2.5211L19.1105 2.7432V10.6718V18.6003L18.9931 18.8224C18.8146 19.1633 18.5442 19.4371 18.2278 19.592C17.9574 19.7263 17.8809 19.7366 17.2126 19.7521L16.4881 19.7728L16.5952 19.468C16.835 18.8018 16.8452 18.8999 15.7177 10.8009C15.1564 6.73588 14.6615 3.28038 14.6207 3.10993C14.5085 2.67089 14.2534 2.22152 13.9217 1.87545L13.6309 1.57587L15.784 1.59137L17.937 1.60686L18.2278 1.75148ZM12.6819 2.30932C13.0085 2.46428 13.3146 2.77419 13.4626 3.0996C13.5646 3.31137 13.7483 4.56651 14.6258 10.8732C15.3758 16.2295 15.6666 18.4764 15.6513 18.6829C15.5952 19.3544 15.1105 19.9536 14.483 20.124C14.3911 20.1498 12.3299 20.4546 9.90131 20.7955C6.88091 21.2294 5.4064 21.4153 5.22783 21.3998C4.90642 21.3689 4.50846 21.1674 4.25846 20.9143C3.8554 20.5063 3.92173 20.8678 2.77887 12.6759C2.04418 7.40734 1.73805 5.08304 1.75336 4.88158C1.79928 4.31341 2.13601 3.81239 2.63601 3.56446C2.88601 3.4405 3.3656 3.36302 7.31457 2.78968C12.0748 2.10272 12.2227 2.08722 12.6819 2.30932ZM21.2789 3.13059C23.5493 3.43016 23.7126 3.47665 24.0952 3.86404C24.3503 4.11714 24.4778 4.36507 24.5544 4.74729C24.6054 4.99007 24.5085 5.739 23.5544 12.6087C22.4013 20.8885 22.4727 20.5166 22.0697 20.9246C21.8605 21.1364 21.4727 21.3378 21.1615 21.3947C20.9268 21.436 17.4217 20.9504 17.5187 20.8885C17.5544 20.8678 17.6768 20.8472 17.7891 20.8472C17.9064 20.8472 18.1513 20.8007 18.3299 20.7438C19.2585 20.4546 20.0442 19.5507 20.2074 18.5745C20.2431 18.3369 20.2585 15.9712 20.2483 10.6046L20.233 2.97563L20.3605 2.99629C20.4319 3.01179 20.8452 3.07377 21.2789 3.13059Z" fill="#F6F8FE"/>
</svg>
