<svg width="28" height="28" viewBox="0 0 28 28" fill="none" xmlns="http://www.w3.org/2000/svg">
<path d="M26.25 22.9687H24.2812V14.3467L24.9112 14.9767C25.0347 15.098 25.2012 15.1657 25.3743 15.1649C25.5474 15.1641 25.7132 15.0949 25.8355 14.9724C25.9579 14.8499 26.0269 14.684 26.0275 14.5109C26.0281 14.3378 25.9602 14.1714 25.8388 14.0481L15.0828 3.29108C14.9406 3.14887 14.7718 3.03607 14.586 2.9591C14.4002 2.88214 14.2011 2.84253 14 2.84253C13.7989 2.84253 13.5998 2.88214 13.414 2.9591C13.2282 3.03607 13.0594 3.14887 12.9172 3.29108L2.16125 14.0481C2.03976 14.1714 1.97192 14.3378 1.97253 14.5109C1.97313 14.684 2.04211 14.8499 2.16446 14.9724C2.2868 15.0949 2.4526 15.1641 2.62572 15.1649C2.79884 15.1657 2.96527 15.098 3.08875 14.9767L3.71875 14.3467V22.9687H1.75C1.57595 22.9687 1.40903 23.0379 1.28596 23.1609C1.16289 23.284 1.09375 23.4509 1.09375 23.625C1.09375 23.799 1.16289 23.966 1.28596 24.089C1.40903 24.2121 1.57595 24.2812 1.75 24.2812H26.25C26.424 24.2812 26.591 24.2121 26.714 24.089C26.8371 23.966 26.9062 23.799 26.9062 23.625C26.9062 23.4509 26.8371 23.284 26.714 23.1609C26.591 23.0379 26.424 22.9687 26.25 22.9687ZM5.03125 13.0342L13.8447 4.21967C13.865 4.19917 13.8892 4.18289 13.9159 4.17179C13.9425 4.16068 13.9711 4.15496 14 4.15496C14.0289 4.15496 14.0575 4.16068 14.0841 4.17179C14.1108 4.18289 14.135 4.19917 14.1553 4.21967L22.9688 13.0342V22.9687H17.2812V16.625C17.2812 16.4509 17.2121 16.284 17.089 16.1609C16.966 16.0379 16.799 15.9687 16.625 15.9687H11.375C11.201 15.9687 11.034 16.0379 10.911 16.1609C10.7879 16.284 10.7188 16.4509 10.7188 16.625V22.9687H5.03125V13.0342ZM15.9688 22.9687H12.0312V17.2812H15.9688V22.9687Z" fill="#041E4E" stroke="#041E4E" stroke-width="0.4"/>
</svg>
