<svg width="27" height="26" viewBox="0 0 27 26" fill="none" xmlns="http://www.w3.org/2000/svg">
<path d="M7.81208 25.3883L7.7346 25.5168C7.63991 25.4596 7.58273 25.3518 7.54539 25.2585C7.50502 25.1575 7.47396 25.0366 7.44966 24.9143C7.40088 24.6689 7.37511 24.3958 7.36216 24.2156C7.34765 24.0137 7.50837 23.8499 7.7043 23.8483L12.35 23.81V21.9262V20.7256V19.675L11.0951 19.675L11.0947 19.675L6.66517 19.6638L6.66498 19.6638L2.22986 19.6471L2.19262 19.647L2.15976 19.6294L1.91974 19.5012C1.91968 19.5012 1.91961 19.5012 1.91954 19.5011C1.52554 19.2925 1.20496 18.9745 1.02182 18.5969C1.02175 18.5967 1.02168 18.5966 1.02162 18.5965L0.865408 18.279L0.85 18.2477V18.2128V10.0041V1.79551V1.76005L0.865878 1.72834L1.0057 1.44914C1.26451 0.932327 1.75761 0.521797 2.30672 0.387777L2.30798 0.38748C2.32693 0.383026 2.35041 0.382046 2.35758 0.38166C2.37191 0.380888 2.39058 0.380182 2.41294 0.379515C2.45786 0.378172 2.52101 0.376894 2.60103 0.375669C2.76123 0.373217 2.99131 0.370945 3.28334 0.368851C3.86752 0.36466 4.70094 0.361168 5.72204 0.358376C7.76432 0.352793 10.5581 0.35 13.6119 0.35H13.612L24.7138 0.361168L24.7498 0.361204L24.7818 0.37756L25.0322 0.505316C25.4615 0.713964 25.7198 0.959183 25.9418 1.37244C25.9419 1.37254 25.9419 1.37264 25.942 1.37274L26.132 1.72418L26.15 1.75756V1.79551V10.0041V18.2128V18.2477L26.1346 18.279L25.9784 18.5965C25.9783 18.5966 25.9782 18.5968 25.9782 18.5969C25.795 18.9746 25.4743 19.2926 25.0803 19.5012L24.8402 19.6294L24.8074 19.647L24.7701 19.6471L20.3406 19.6638L20.3404 19.6638L15.9053 19.675H15.9049H14.65V20.7256V21.9262V23.8088H19.2705C19.4648 23.8088 19.6256 23.9687 19.6161 24.1684C19.6073 24.3528 19.5876 24.6365 19.5438 24.8915C19.5219 25.0186 19.4932 25.1442 19.4544 25.2488C19.4189 25.3448 19.3628 25.458 19.2654 25.5168L19.1879 25.3883M7.81208 25.3883L7.73379 25.5163C7.79877 25.556 7.87167 25.5793 8.00062 25.5956C8.12672 25.6116 8.31947 25.6225 8.63233 25.6303C9.24495 25.6455 10.3402 25.6491 12.35 25.6499V25.65L12.5 25.65L12.5 25.65L12.65 25.65V25.65H13.5H14.35V25.65L14.5 25.65L14.5 25.65L14.65 25.65V25.6499C16.6598 25.6491 17.755 25.6455 18.3677 25.6303C18.6805 25.6225 18.8733 25.6116 18.9994 25.5956C19.1283 25.5793 19.2012 25.556 19.2662 25.5163L19.1879 25.3883M7.81208 25.3883C7.96987 25.4849 8.27946 25.4983 12.35 25.4999V23.9588V23.96L7.70553 23.9983C7.59294 23.9992 7.5037 24.0925 7.51177 24.2049C7.53738 24.561 7.61276 25.2681 7.81208 25.3883ZM19.1879 25.3883C19.3889 25.2671 19.4488 24.526 19.4662 24.1613C19.4716 24.0499 19.382 23.9588 19.2705 23.9588H14.65V25.5V25.4999C18.7205 25.4983 19.0301 25.4849 19.1879 25.3883ZM24.7036 8.65865C24.7035 9.07862 24.7035 9.5247 24.7035 9.99855C24.7035 13.3046 24.7007 15.261 24.6895 16.4111C24.6839 16.9865 24.6762 17.3583 24.6659 17.5957C24.6607 17.7146 24.6549 17.7975 24.6487 17.8545C24.6429 17.9075 24.6376 17.9278 24.6367 17.9314C24.6366 17.9319 24.6365 17.9321 24.6365 17.9321C24.6217 17.9671 24.6134 17.9986 24.6077 18.0213L24.6054 18.0303C24.6006 18.0495 24.5988 18.0564 24.5964 18.0628C24.5937 18.0646 24.5879 18.0682 24.5771 18.0727C24.5363 18.0899 24.4548 18.1096 24.2917 18.1268C24.1318 18.1437 23.9055 18.1571 23.5832 18.1675C22.4659 18.2037 20.2363 18.2033 15.7481 18.2026C15.0542 18.2025 14.3062 18.2024 13.5 18.2024C12.6938 18.2024 11.9458 18.2025 11.2519 18.2026C6.76367 18.2033 4.53414 18.2037 3.41677 18.1675C3.09455 18.1571 2.86823 18.1437 2.70834 18.1268C2.5452 18.1096 2.46372 18.0899 2.42292 18.0727C2.41206 18.0682 2.40626 18.0646 2.40362 18.0628C2.40117 18.0564 2.39943 18.0495 2.39461 18.0303C2.39392 18.0275 2.39316 18.0245 2.39234 18.0213C2.38662 17.9986 2.3783 17.9671 2.36346 17.9321C2.36346 17.932 2.36341 17.9318 2.3633 17.9314C2.36235 17.9278 2.3571 17.9075 2.35131 17.8545C2.34511 17.7975 2.33933 17.7146 2.33414 17.5957C2.32377 17.3583 2.3161 16.9865 2.31051 16.4111C2.29933 15.261 2.29653 13.3046 2.29653 9.99855C2.29653 9.51239 2.29646 9.05547 2.2964 8.62599C2.29587 5.24699 2.29561 3.56721 2.33205 2.71632C2.34229 2.47709 2.35531 2.30729 2.37143 2.18543C2.38782 2.06154 2.40621 1.99772 2.42185 1.96395C2.43334 1.93915 2.44076 1.93506 2.44814 1.93099L2.44877 1.93065C2.45718 1.92599 2.46792 1.92135 2.48917 1.9128L2.49344 1.91109L24.7036 8.65865ZM24.7036 8.65865C24.7041 5.2477 24.7044 3.55946 24.6666 2.70818M24.7036 8.65865L24.6666 2.70818M24.6666 2.70818C24.656 2.46969 24.6425 2.30099 24.6259 2.18031M24.6666 2.70818L24.6259 2.18031M24.6259 2.18031C24.6091 2.05753 24.5902 1.99545 24.5746 1.96326M24.6259 2.18031L24.5746 1.96326M24.5746 1.96326C24.5633 1.93997 24.5562 1.93627 24.5473 1.93164M24.5746 1.96326L24.5473 1.93164M24.5473 1.93164L24.547 1.93149M24.5473 1.93164L24.547 1.93149M24.547 1.93149C24.5377 1.92665 24.5263 1.92202 24.5039 1.91347M24.547 1.93149L24.5039 1.91347M24.5039 1.91347C24.4836 1.90568 24.4556 1.8951 24.4253 1.88061M24.5039 1.91347L24.4253 1.88061M24.4253 1.88061L24.4899 1.74525M24.4253 1.88061L24.4899 1.74525M24.4899 1.74525L24.4266 1.88122C24.4269 1.88136 24.4268 1.88135 24.4264 1.88121M24.4899 1.74525C24.5134 1.75648 24.5354 1.76491 24.556 1.77279L24.5561 1.7728L24.5561 1.77282C24.5815 1.78255 24.6047 1.79146 24.626 1.80378C24.8546 1.93624 24.8545 2.46337 24.8536 8.65523V8.65525V8.65526V8.65528L24.8535 9.99855L24.4264 1.88121M24.4264 1.88121C24.4237 1.88033 24.405 1.87441 24.3506 1.8679M24.4264 1.88121L24.3506 1.8679M24.3506 1.8679C24.2912 1.8608 24.2011 1.85414 24.063 1.84817M24.3506 1.8679L24.063 1.84817M24.063 1.84817C23.7874 1.83626 23.3328 1.82754 22.5766 1.82126M24.063 1.84817L22.5766 1.82126M22.5766 1.82126C21.0652 1.8087 18.3577 1.80591 13.4888 1.80591M22.5766 1.82126L13.4888 1.80591M13.4888 1.80591C8.63675 1.80591 5.93056 1.8087 4.41707 1.82126M13.4888 1.80591L4.41707 1.82126M4.41707 1.82126C3.65989 1.82754 3.20329 1.83626 2.92637 1.84817M4.41707 1.82126L2.92637 1.84817M2.92637 1.84817C2.78761 1.85414 2.69697 1.8608 2.63746 1.86791M2.92637 1.84817L2.63746 1.86791M2.63746 1.86791C2.58027 1.87474 2.56343 1.88087 2.56337 1.8807M2.63746 1.86791L2.56337 1.8807M2.56337 1.8807C2.56337 1.8807 2.56337 1.8807 2.56338 1.88069L2.56337 1.8807ZM12.5 23.8088V21.9262V20.7256V19.675V23.8088Z" fill="#041E4E" stroke="#041E4E" stroke-width="0.3"/>
<path d="M10.112 4.24687L9.92188 4.43673V8.18366C9.92188 10.9645 9.93865 11.9641 9.98899 12.0702C10.0673 12.2489 10.3022 12.3773 10.5371 12.3773C10.7664 12.3773 18.0427 8.74766 18.1657 8.56897C18.2161 8.50196 18.2552 8.36235 18.2552 8.26184C18.2552 7.84303 18.3838 7.92121 14.385 5.9221C11.8738 4.67127 10.593 4.05702 10.4756 4.05702C10.3525 4.05702 10.2463 4.11286 10.112 4.24687ZM13.6579 6.87698C15.0337 7.56941 16.1915 8.15574 16.2362 8.18366C16.2921 8.22275 15.5874 8.59689 13.7362 9.52385C12.3156 10.233 11.1411 10.8138 11.1243 10.8138C11.1076 10.8138 11.0964 9.6467 11.0964 8.21717C11.0964 6.78764 11.1132 5.62056 11.1299 5.62056C11.1467 5.62056 12.2876 6.18456 13.6579 6.87698Z" fill="#041E4E"/>
<path d="M13.6579 6.87698C15.0337 7.56941 16.1915 8.15574 16.2362 8.18366C16.2921 8.22275 15.5874 8.59689 13.7362 9.52385C12.3156 10.233 11.1411 10.8138 11.1243 10.8138C11.1076 10.8138 11.0964 9.6467 11.0964 8.21717C11.0964 6.78764 11.1132 5.62056 11.1299 5.62056C11.1467 5.62056 12.2876 6.18456 13.6579 6.87698Z" fill="#041E4E"/>
<path d="M7.99242 13.7679C7.62889 13.9354 7.20943 14.343 7.11435 14.6167L7.05842 14.7786H5.7497C4.27319 14.7786 4.16133 14.8009 4.01591 15.1527C3.90965 15.3928 3.98795 15.6721 4.20048 15.8396C4.33471 15.9457 4.42419 15.9513 5.67699 15.9513H7.01368L7.12553 16.1746C7.545 17.0011 8.60764 17.3808 9.4186 17.0067C9.86043 16.8 10.1177 16.5543 10.3246 16.1299C10.4812 15.8172 10.5036 15.7056 10.5036 15.3649C10.4924 14.0694 9.15014 13.215 7.99242 13.7679ZM9.0271 14.8735C9.35149 15.0634 9.40741 15.5213 9.14455 15.7893C8.74187 16.1858 8.04835 15.8228 8.15462 15.27C8.22732 14.8624 8.66916 14.6613 9.0271 14.8735Z" fill="#041E4E"/>
<path d="M11.3984 14.8847C11.1523 15.0355 11.0628 15.3147 11.1691 15.5771C11.3425 15.9792 10.8894 15.9512 17.0863 15.9512C22.5897 15.9512 22.6624 15.9512 22.8022 15.8396C23.0147 15.672 23.093 15.3928 22.9868 15.1527C22.8246 14.7562 23.1769 14.7786 17.0695 14.7786C11.7451 14.7786 11.5662 14.7842 11.3984 14.8847Z" fill="#041E4E"/>
</svg>
