<svg width="20" height="20" viewBox="0 0 20 20" fill="none" xmlns="http://www.w3.org/2000/svg">
<path fill-rule="evenodd" clip-rule="evenodd" d="M17.3632 6.80326L7.15482 17.0116C6.84226 17.3241 6.41834 17.4997 5.97631 17.4997H3.33333C2.8731 17.4997 2.5 17.1266 2.5 16.6664V14.0235C2.5 13.5814 2.67559 13.1575 2.98816 12.845L13.1965 2.63659C13.8473 1.98572 14.9027 1.98572 15.5535 2.63659L17.3632 4.44624C18.014 5.09711 18.014 6.15239 17.3632 6.80326ZM11.993 5.60785L14.3919 8.00675L6.27094 16.1277C6.1928 16.2059 6.08682 16.2497 5.97631 16.2497H3.75V14.0235C3.75 13.913 3.7939 13.807 3.87204 13.7288L11.993 5.60785ZM12.8769 4.72396L15.2758 7.12287L16.4793 5.91938C16.642 5.75666 16.642 5.49284 16.4793 5.33012L14.6697 3.52048C14.5069 3.35775 14.2431 3.35775 14.0804 3.52048L12.8769 4.72396Z" fill="#3B5FA0"/>
</svg>
