<svg width="20" height="20" viewBox="0 0 20 20" fill="none" xmlns="http://www.w3.org/2000/svg">
<path d="M8.3335 8.33398C8.67866 8.33398 8.9585 8.61382 8.9585 8.95898V13.5423C8.9585 13.8875 8.67866 14.1673 8.3335 14.1673C7.98832 14.1673 7.7085 13.8875 7.7085 13.5423V8.95898C7.7085 8.61382 7.98832 8.33398 8.3335 8.33398Z" fill="#DC624B"/>
<path d="M12.2915 8.95898C12.2915 8.61382 12.0117 8.33398 11.6665 8.33398C11.3213 8.33398 11.0415 8.61382 11.0415 8.95898V13.5423C11.0415 13.8875 11.3213 14.1673 11.6665 14.1673C12.0117 14.1673 12.2915 13.8875 12.2915 13.5423V8.95898Z" fill="#DC624B"/>
<path fill-rule="evenodd" clip-rule="evenodd" d="M6.24984 4.16667V2.91667C6.24984 1.99619 6.99603 1.25 7.9165 1.25H12.0832C13.0037 1.25 13.7498 1.99619 13.7498 2.91667V4.16667H17.7082C18.0533 4.16667 18.3332 4.44649 18.3332 4.79167C18.3332 5.13684 18.0533 5.41667 17.7082 5.41667H16.593L15.9254 16.7645C15.8737 17.6455 15.1441 18.3333 14.2617 18.3333H5.73801C4.85555 18.3333 4.12605 17.6455 4.07422 16.7645L3.4067 5.41667H2.2915C1.94633 5.41667 1.6665 5.13684 1.6665 4.79167C1.6665 4.44649 1.94633 4.16667 2.2915 4.16667H6.24984ZM7.9165 2.5H12.0832C12.3133 2.5 12.4998 2.68655 12.4998 2.91667V4.16667H7.49984V2.91667C7.49984 2.68655 7.68639 2.5 7.9165 2.5ZM4.65886 5.41667L5.32206 16.6912C5.33502 16.9113 5.5174 17.0833 5.73801 17.0833H14.2617C14.4823 17.0833 14.6647 16.9113 14.6776 16.6912L15.3408 5.41667H4.65886Z" fill="#DC624B"/>
</svg>
