<svg width="44" height="48" viewBox="0 0 44 48" fill="none" xmlns="http://www.w3.org/2000/svg">
<path d="M27.1068 3.78165L29.8944 3.76L29.8759 1.38287C29.8726 1.01569 29.7213 0.658142 29.4596 0.401042C29.1974 0.143073 28.8382 -0.00271379 28.471 3.82706e-05L14.7271 0.107368C14.3616 0.1107 14.0032 0.261991 13.7452 0.523074C13.4873 0.784592 13.3427 1.14446 13.3452 1.51186L13.3646 3.88898L16.1505 3.86755L16.1425 2.88405L27.0988 2.79837L27.1068 3.78165Z" fill="#A02334" fill-opacity="0.4"/>
<path d="M3.33072 12.8333C2.89162 12.8371 2.47613 13.0352 2.19752 13.3749C1.91898 13.7144 1.806 14.1607 1.88791 14.5916L8.05926 46.7994C8.19411 47.5013 8.81006 48.0068 9.5243 48.0014L34.4619 47.8062C35.1723 47.8008 35.7803 47.2903 35.9072 46.5916L41.792 14.2899C41.8715 13.8581 41.7513 13.4086 41.469 13.0723C41.1866 12.7357 40.764 12.5412 40.3249 12.545L3.33072 12.8333ZM13.9639 45.815C13.1627 45.9426 12.409 45.3968 12.2825 44.5967L8.0455 18.0493C7.91731 17.2469 8.46265 16.4948 9.26553 16.3673C10.0663 16.2393 10.8196 16.7842 10.9469 17.5859L15.1835 44.1328C15.3117 44.9334 14.7651 45.6871 13.9639 45.815ZM22.0868 45.9203C21.2747 45.927 20.6113 45.2741 20.6063 44.4624L20.3954 17.5806C20.3903 16.7687 21.0427 16.1063 21.8528 16.1003C22.6657 16.0935 23.3291 16.746 23.3346 17.5575L23.5455 44.4395C23.5506 45.251 22.8981 45.9142 22.0868 45.9203ZM35.6908 17.8331L31.8701 44.4435C31.7537 45.2458 31.01 45.8035 30.2064 45.6879C29.4026 45.5732 28.8447 44.8284 28.9611 44.0255L32.7818 17.4149C32.8977 16.6122 33.6422 16.0549 34.4459 16.1707C35.2492 16.2862 35.8072 17.0296 35.6908 17.8331Z" fill="#A02334" fill-opacity="0.4"/>
<path d="M0.0349073 11.4568L43.5984 11.1167L43.5635 6.67986L39.5227 6.71115L39.505 4.37769C39.502 4.19533 39.4281 4.01768 39.2982 3.89101C39.1685 3.76268 38.9886 3.6904 38.8079 3.69142L29.8939 3.76116L27.1063 3.78281L16.15 3.86871L13.3641 3.89014L5.05379 3.95482C4.8723 3.95634 4.69414 4.0313 4.56777 4.16151C4.43914 4.2905 4.36643 4.46945 4.36773 4.65181L4.38533 6.98606L0 7.0201L0.0349073 11.4568Z" fill="#A02334"/>
<path d="M21.853 16.0997C21.0429 16.1057 20.3905 16.7681 20.3955 17.58L20.6064 44.4618C20.6115 45.2735 21.2749 45.9264 22.087 45.9197C22.8982 45.9136 23.5508 45.2504 23.5456 44.4389L23.3347 17.5569C23.3293 16.7454 22.6659 16.0929 21.853 16.0997Z" fill="#A02334"/>
<path d="M32.7819 17.4118L28.9612 44.0224C28.8448 44.8253 29.4027 45.5702 30.2065 45.6849C31.0101 45.8004 31.7538 45.2427 31.8702 44.4404L35.6909 17.8301C35.8073 17.0265 35.2493 16.2831 34.446 16.1675C33.6423 16.0519 32.8978 16.6092 32.7819 17.4118Z" fill="#A02334"/>
<path d="M9.26554 16.3643C8.46267 16.4919 7.9174 17.2439 8.04551 18.0463L12.2825 44.5937C12.409 45.3939 13.1627 45.9396 13.9639 45.8121C14.7651 45.6842 15.3117 44.9304 15.1836 44.1298L10.9469 17.5829C10.8197 16.7813 10.0664 16.2364 9.26554 16.3643Z" fill="#A02334"/>
</svg>
