<svg width="50" height="50" viewBox="0 0 50 50" fill="none" xmlns="http://www.w3.org/2000/svg">
<g clip-path="url(#clip0_1656_2)">
<mask id="mask0_1656_2" style="mask-type:luminance" maskUnits="userSpaceOnUse" x="0" y="0" width="50" height="50">
<path d="M50 0H0V50H50V0Z" fill="white"/>
</mask>
<g mask="url(#mask0_1656_2)">
<path d="M25 34.375C26.7258 34.375 28.125 32.9758 28.125 31.25C28.125 29.5242 26.7258 28.125 25 28.125C23.2742 28.125 21.875 29.5242 21.875 31.25C21.875 32.9758 23.2742 34.375 25 34.375Z" fill="#E7ECF6"/>
<path fill-rule="evenodd" clip-rule="evenodd" d="M25 4.16667C28.4519 4.16667 31.25 6.9649 31.25 10.4167V11.4583C31.25 12.6089 32.1827 13.5417 33.3333 13.5417C34.484 13.5417 35.4167 12.6089 35.4167 11.4583V10.4167C35.4167 4.66371 30.7529 0 25 0C19.247 0 14.5833 4.66371 14.5833 10.4167V18.7501H10.4167C8.11548 18.7501 6.25 20.6155 6.25 22.9167V39.5833C6.25 41.8846 8.11548 43.75 10.4167 43.75H39.5833C41.8846 43.75 43.75 41.8846 43.75 39.5833V22.9167C43.75 20.6155 41.8846 18.7501 39.5833 18.7501L18.75 18.75V10.4167C18.75 6.9649 21.5481 4.16667 25 4.16667ZM10.4167 22.9167V39.5833H39.5833V22.9167H10.4167Z" fill="#E7ECF6"/>
</g>
</g>
<defs>
<clipPath id="clip0_1656_2">
<rect width="50" height="50" fill="white"/>
</clipPath>
</defs>
</svg>
