<svg width="228" height="258" viewBox="0 0 228 258" fill="none" xmlns="http://www.w3.org/2000/svg">
<path d="M84.8265 6.8333C151.137 -5.26451 214.186 40.5724 225.652 109.212C237.117 177.851 192.658 243.301 126.348 255.399C86.9514 262.587 48.7059 249.324 21.7455 222.98C47.325 243.977 81.8832 253.955 117.535 247.45C182.028 235.684 225.673 174.444 215.019 110.667C204.365 46.8894 143.448 4.72565 78.9557 16.4917C45.7737 22.5455 18.1106 41.6968 0.522144 67.5513C18.0504 36.6208 48.0844 13.5367 84.8265 6.8333Z" fill="#070707"/>
<ellipse cx="36.9456" cy="113.443" rx="6.37141" ry="6.25982" fill="#070707"/>
<ellipse cx="54.7855" cy="113.443" rx="6.37141" ry="6.25982" fill="#070707"/>
<ellipse cx="72.6263" cy="95.9156" rx="6.37141" ry="6.25982" fill="#070707"/>
<ellipse cx="72.6263" cy="78.388" rx="6.37141" ry="6.25982" fill="#070707"/>
<ellipse cx="90.4661" cy="78.388" rx="6.37141" ry="6.25982" fill="#070707"/>
<ellipse cx="54.7855" cy="95.9156" rx="6.37141" ry="6.25982" fill="#070707"/>
<ellipse cx="159.277" cy="95.9156" rx="6.37141" ry="6.25982" fill="#070707"/>
<ellipse cx="141.437" cy="95.9156" rx="6.37141" ry="6.25982" fill="#070707"/>
<ellipse cx="123.597" cy="95.9156" rx="6.37141" ry="6.25982" fill="#070707"/>
<ellipse cx="123.597" cy="78.388" rx="6.37141" ry="6.25982" fill="#070707"/>
<path d="M89.3095 204.327C90.7728 205.356 92.6538 205.492 94.4428 205.492H132.517C132.517 205.492 135.069 205.151 136.34 204.24C137.79 203.202 138.889 200.484 138.889 200.484L147.513 182.479C148.547 180.321 149.083 177.959 149.083 175.567V172.941V146.509C149.083 144.149 148.71 141.306 146.535 140.39C145.162 139.812 144.084 139.812 142.712 140.39C140.536 141.306 140.163 144.149 140.163 146.509V150.406H135.066V141.501C135.066 139.141 134.693 136.298 132.517 135.382C131.145 134.805 130.067 134.805 128.695 135.382C126.519 136.298 126.146 139.141 126.146 141.501V150.406H121.049V137.746C121.049 135.385 120.676 132.542 118.5 131.626C117.128 131.049 116.05 131.049 114.677 131.626C112.502 132.542 112.129 135.385 112.129 137.746V150.406H107.032V137.886V111.443C107.032 109.095 106.59 106.37 104.483 105.335C102.703 104.461 101.166 104.461 99.3861 105.335C97.2791 106.37 96.8375 109.095 96.8375 111.443V137.886V156.666C96.8375 156.666 97.1707 160.503 96.8375 162.926C96.7074 163.871 96.4149 165.044 96.1429 166.017C95.7847 167.298 95.246 168.547 94.3073 169.49C93.916 169.882 93.4677 170.247 93.0146 170.437C91.6424 171.015 90.564 171.015 89.1918 170.437C88.8662 170.3 88.543 170.073 88.2417 169.811C87.0062 168.734 86.4232 167.129 86.0153 165.542C85.7922 164.674 85.5513 163.713 85.3689 162.926C85.0263 161.446 84.6288 159.449 84.37 158.112C84.1837 157.15 84.0947 156.172 84.0947 155.192V150.406V150.254C84.0947 147.906 83.6531 145.181 81.5461 144.146C79.7657 143.271 78.2294 143.271 76.449 144.146C74.342 145.181 73.9004 147.906 73.9004 150.254V164.041C73.9004 165.789 74.187 167.526 74.7487 169.182L75.1747 170.437L86.6432 200.484C86.6432 200.484 87.7755 203.158 89.1918 204.24C89.2296 204.269 89.2689 204.298 89.3095 204.327Z" fill="#070707" stroke="#070707"/>
</svg>
