<svg xmlns="http://www.w3.org/2000/svg" width="24" height="24" viewBox="0 0 24 24" fill="none">
  <path d="M10.7195 14.4694L19.7195 5.46939C19.7892 5.39971 19.872 5.34444 19.963 5.30672C20.054 5.26901 20.1516 5.2496 20.2502 5.2496C20.3487 5.2496 20.4463 5.26901 20.5373 5.30672C20.6284 5.34444 20.7111 5.39971 20.7808 5.46939C20.8505 5.53908 20.9058 5.6218 20.9435 5.71285C20.9812 5.80389 21.0006 5.90147 21.0006 6.00002C21.0006 6.09856 20.9812 6.19615 20.9435 6.28719C20.9058 6.37824 20.8505 6.46096 20.7808 6.53064L11.7808 15.5306C11.7111 15.6003 11.6284 15.6556 11.5373 15.6933C11.4463 15.731 11.3487 15.7504 11.2502 15.7504C11.1516 15.7504 11.054 15.731 10.963 15.6933C10.872 15.6556 10.7892 15.6003 10.7195 15.5306C10.6499 15.461 10.5946 15.3782 10.5569 15.2872C10.5192 15.1961 10.4998 15.0986 10.4998 15C10.4998 14.9015 10.5192 14.8039 10.5569 14.7128C10.5946 14.6218 10.6499 14.5391 10.7195 14.4694ZM12.0002 8.25002C12.6517 8.24919 13.2989 8.35464 13.9164 8.56221C14.0102 8.59545 14.1096 8.6097 14.2089 8.60415C14.3083 8.59859 14.4055 8.57333 14.4949 8.52984C14.5844 8.48635 14.6643 8.42549 14.7301 8.35082C14.7958 8.27615 14.846 8.18914 14.8778 8.09488C14.9095 8.00061 14.9222 7.90097 14.9151 7.80175C14.908 7.70253 14.8813 7.60571 14.8364 7.51693C14.7915 7.42816 14.7294 7.3492 14.6537 7.28465C14.578 7.2201 14.4902 7.17126 14.3955 7.14096C13.2003 6.73802 11.9228 6.64302 10.6811 6.86474C9.43948 7.08646 8.2738 7.61774 7.29192 8.40943C6.31005 9.20111 5.54369 10.2276 5.06374 11.394C4.5838 12.5605 4.40576 13.8291 4.54611 15.0825C4.5664 15.2658 4.65353 15.4353 4.79085 15.5584C4.92817 15.6815 5.10605 15.7498 5.29049 15.75C5.31768 15.75 5.3458 15.75 5.37392 15.7453C5.57158 15.7234 5.75244 15.6239 5.87673 15.4687C6.00103 15.3134 6.05858 15.1152 6.03674 14.9175C6.01233 14.6959 6.00012 14.473 6.00017 14.25C6.00191 12.6593 6.63461 11.1341 7.75945 10.0093C8.88429 8.88445 10.4094 8.25176 12.0002 8.25002ZM21.3508 9.46877C21.3059 9.38111 21.2441 9.30316 21.169 9.23937C21.094 9.17559 21.0071 9.12721 20.9133 9.097C20.8196 9.06679 20.7208 9.05535 20.6226 9.06332C20.5244 9.07129 20.4288 9.09852 20.3411 9.14346C20.2535 9.18839 20.1755 9.25016 20.1117 9.32522C20.0479 9.40028 19.9996 9.48717 19.9693 9.58093C19.9391 9.67468 19.9277 9.77347 19.9357 9.87165C19.9436 9.96984 19.9709 10.0655 20.0158 10.1531C20.5707 11.2428 20.8983 12.4338 20.9789 13.6539C21.0595 14.874 20.8913 16.0978 20.4845 17.251L3.50643 17.2444C3.03273 15.8865 2.89048 14.4351 3.09152 13.0112C3.29256 11.5872 3.83108 10.2319 4.66218 9.05825C5.49328 7.88462 6.59289 6.92665 7.86933 6.26421C9.14578 5.60177 10.5621 5.25404 12.0002 5.25002H12.0827C13.4795 5.2588 14.8546 5.59601 16.097 6.23439C16.1849 6.28277 16.2817 6.31302 16.3815 6.32335C16.4813 6.33368 16.5821 6.32388 16.678 6.29453C16.774 6.26518 16.8631 6.21689 16.94 6.1525C17.017 6.08811 17.0802 6.00893 17.126 5.91966C17.1718 5.8304 17.1992 5.73285 17.2066 5.63279C17.214 5.53274 17.2013 5.43221 17.1692 5.33716C17.137 5.24212 17.0862 5.15448 17.0196 5.07945C16.953 5.00441 16.872 4.94351 16.7814 4.90033C14.9111 3.94232 12.7963 3.56757 10.7106 3.82454C8.62499 4.08151 6.66442 4.95839 5.08255 6.34174C3.50067 7.7251 2.37028 9.55128 1.83759 11.5841C1.30489 13.6169 1.39441 15.7627 2.09455 17.7441C2.19797 18.0376 2.38978 18.292 2.6436 18.4721C2.89743 18.6522 3.20081 18.7493 3.51205 18.75H20.4874C20.7984 18.7502 21.1019 18.6537 21.3557 18.4738C21.6095 18.2939 21.8011 18.0395 21.9039 17.746C22.377 16.4006 22.5718 14.9731 22.4768 13.5501C22.3817 12.1272 21.9986 10.7383 21.3508 9.46783V9.46877Z" fill="#041E4E"/>
</svg>