<svg width="56" height="32" viewBox="0 0 56 32" fill="none" xmlns="http://www.w3.org/2000/svg">
<path fill-rule="evenodd" clip-rule="evenodd" d="M1.94599 11.7866C-0.392982 14.1768 -0.39299 17.8232 1.94598 20.2134C9.49839 27.9314 28.3201 41.7611 52.89 21.3432C56.2406 18.5588 56.2407 13.4412 52.89 10.6568C28.3202 -9.76108 9.49845 4.06865 1.94599 11.7866Z" fill="#E2E1DC"/>
<path fill-rule="evenodd" clip-rule="evenodd" d="M40.3385 16.0002C40.3385 9.08666 34.734 3.48193 27.8202 3.48193C20.9067 3.48193 15.302 9.08666 15.302 16.0002C15.302 22.9139 20.9067 28.5187 27.8202 28.5187C34.734 28.5184 40.3385 22.9137 40.3385 16.0002Z" fill="#3B5FA0"/>
<path d="M31.4068 19.5875C33.3883 17.606 33.3883 14.3935 31.4068 12.412C29.4254 10.4305 26.2128 10.4305 24.2313 12.412C22.2498 14.3935 22.2498 17.606 24.2313 19.5875C26.2128 21.569 29.4254 21.569 31.4068 19.5875Z" fill="#0F1934"/>
</svg>
