<svg width="51" height="51" viewBox="0 0 51 51" fill="none" xmlns="http://www.w3.org/2000/svg">
<g clip-path="url(#clip0_1716_431)">
<path d="M14.875 29.75C19.5628 29.75 23.375 25.9378 23.375 21.25C23.375 16.5622 19.5628 12.75 14.875 12.75C10.1872 12.75 6.375 16.5622 6.375 21.25C6.375 25.9378 10.1872 29.75 14.875 29.75ZM14.875 17C17.2189 17 19.125 18.9061 19.125 21.25C19.125 23.5939 17.2189 25.5 14.875 25.5C12.5311 25.5 10.625 23.5939 10.625 21.25C10.625 18.9061 12.5311 17 14.875 17ZM29.75 40.375V51H25.5V40.375C25.5 39.202 24.5459 38.25 23.375 38.25H6.375C5.20413 38.25 4.25 39.202 4.25 40.375V51H0V40.375C0 36.8602 2.86025 34 6.375 34H23.375C26.8898 34 29.75 36.8602 29.75 40.375ZM51 6.375V38.25H33.7854C33.4645 36.669 32.7633 35.241 31.8261 34H31.875V29.75H42.5V34H46.75V6.375C46.75 5.202 45.7959 4.25 44.625 4.25H17C15.8291 4.25 14.875 5.202 14.875 6.375V8.5C13.3832 8.5 11.9552 8.76987 10.625 9.24162V6.375C10.625 6.33887 10.625 6.30062 10.6271 6.2645C10.6866 2.80075 13.5214 0 17 0H44.625C48.1398 0 51 2.86025 51 6.375Z" fill="#E7ECF6"/>
</g>
<defs>
<clipPath id="clip0_1716_431">
<rect width="51" height="51" fill="white"/>
</clipPath>
</defs>
</svg>
