<svg width="51" height="51" viewBox="0 0 51 51" fill="none" xmlns="http://www.w3.org/2000/svg">
<g clip-path="url(#clip0_1750_2)">
<path d="M4.25 5.3125C4.25 2.37787 6.62787 0 9.5625 0C12.4971 0 14.875 2.37787 14.875 5.3125C14.875 8.24713 12.4971 10.625 9.5625 10.625C6.62787 10.625 4.25 8.24713 4.25 5.3125ZM31.875 12.75V17H17V29.75H0V19.125C0 15.6102 2.86025 12.75 6.375 12.75H31.875ZM44.625 0H17.51C18.5279 1.51937 19.125 3.34687 19.125 5.3125C19.125 6.43025 18.9295 7.50337 18.5767 8.5H36.125V21.25H21.25V29.75H38.25V25.5H46.75V29.75H51V6.375C51 2.85388 48.1461 0 44.625 0ZM7.4375 42.5C9.78563 42.5 11.6875 40.5981 11.6875 38.25C11.6875 35.9019 9.78563 34 7.4375 34C5.08937 34 3.1875 35.9019 3.1875 38.25C3.1875 40.5981 5.08937 42.5 7.4375 42.5ZM25.5 42.5C27.8481 42.5 29.75 40.5981 29.75 38.25C29.75 35.9019 27.8481 34 25.5 34C23.1519 34 21.25 35.9019 21.25 38.25C21.25 40.5981 23.1519 42.5 25.5 42.5ZM43.5625 42.5C45.9106 42.5 47.8125 40.5981 47.8125 38.25C47.8125 35.9019 45.9106 34 43.5625 34C41.2144 34 39.3125 35.9019 39.3125 38.25C39.3125 40.5981 41.2144 42.5 43.5625 42.5ZM14.875 48.875C14.875 46.5311 12.9689 44.625 10.625 44.625H4.25C1.90612 44.625 0 46.5311 0 48.875V51H14.875V48.875ZM51 48.875C51 46.5311 49.0939 44.625 46.75 44.625H40.375C38.0311 44.625 36.125 46.5311 36.125 48.875V51H51V48.875ZM32.9375 48.875C32.9375 46.5311 31.0314 44.625 28.6875 44.625H22.3125C19.9686 44.625 18.0625 46.5311 18.0625 48.875V51H32.9375V48.875Z" fill="#E7ECF6"/>
</g>
<defs>
<clipPath id="clip0_1750_2">
<rect width="51" height="51" fill="white"/>
</clipPath>
</defs>
</svg>
