<svg width="24" height="25" viewBox="0 0 24 25" fill="none" xmlns="http://www.w3.org/2000/svg">
<path d="M12 0.0253906C9.62663 0.0253906 7.30655 0.729178 5.33316 2.04775C3.35977 3.36633 1.8217 5.24048 0.913451 7.43319C0.00519921 9.6259 -0.23244 12.0387 0.230582 14.3665C0.693605 16.6942 1.83649 18.8324 3.51472 20.5107C5.19295 22.1889 7.33115 23.3318 9.65892 23.7948C11.9867 24.2578 14.3995 24.0202 16.5922 23.1119C18.7849 22.2037 20.6591 20.6656 21.9776 18.6922C23.2962 16.7188 24 14.3988 24 12.0254C23.9963 8.84394 22.7308 5.79386 20.4812 3.54424C18.2315 1.29461 15.1815 0.0291269 12 0.0253906ZM12 22.6136C9.90585 22.6136 7.85872 21.9926 6.1175 20.8292C4.37627 19.6657 3.01915 18.0121 2.21775 16.0773C1.41635 14.1426 1.20667 12.0136 1.61522 9.95973C2.02377 7.90581 3.0322 6.01917 4.51299 4.53838C5.99378 3.05759 7.88042 2.04915 9.93434 1.6406C11.9883 1.23206 14.1172 1.44174 16.0519 2.24314C17.9867 3.04453 19.6403 4.40166 20.8038 6.14288C21.9672 7.88411 22.5882 9.93123 22.5882 12.0254C22.5851 14.8326 21.4686 17.524 19.4836 19.509C17.4986 21.494 14.8072 22.6105 12 22.6136ZM19.2941 12.0254C19.2941 12.2126 19.2197 12.3921 19.0874 12.5245C18.955 12.6569 18.7754 12.7313 18.5882 12.7313H12C11.8128 12.7313 11.6332 12.6569 11.5009 12.5245C11.3685 12.3921 11.2941 12.2126 11.2941 12.0254V5.43715C11.2941 5.24994 11.3685 5.0704 11.5009 4.93802C11.6332 4.80564 11.8128 4.73127 12 4.73127C12.1872 4.73127 12.3668 4.80564 12.4991 4.93802C12.6315 5.0704 12.7059 5.24994 12.7059 5.43715V11.3195H18.5882C18.7754 11.3195 18.955 11.3939 19.0874 11.5263C19.2197 11.6586 19.2941 11.8382 19.2941 12.0254Z" fill="#041E4E"/>
</svg>
