<svg width="21" height="20" viewBox="0 0 21 20" fill="none" xmlns="http://www.w3.org/2000/svg">
<path d="M14.5258 10.4425L8.27585 16.6925C8.21778 16.7506 8.14884 16.7967 8.07297 16.8281C7.9971 16.8595 7.91578 16.8757 7.83366 16.8757C7.75154 16.8757 7.67022 16.8595 7.59435 16.8281C7.51848 16.7967 7.44954 16.7506 7.39147 16.6925C7.3334 16.6345 7.28734 16.5655 7.25591 16.4897C7.22449 16.4138 7.20831 16.3325 7.20831 16.2503C7.20831 16.1682 7.22449 16.0869 7.25591 16.011C7.28734 15.9352 7.3334 15.8662 7.39147 15.8082L13.2001 10.0003L7.39147 4.19253C7.2742 4.07526 7.20831 3.9162 7.20831 3.75035C7.20831 3.5845 7.2742 3.42544 7.39147 3.30816C7.50875 3.19088 7.66781 3.125 7.83366 3.125C7.99951 3.125 8.15857 3.19088 8.27585 3.30816L14.5258 9.55816C14.584 9.61621 14.6301 9.68514 14.6615 9.76101C14.693 9.83688 14.7092 9.91821 14.7092 10.0003C14.7092 10.0825 14.693 10.1638 14.6615 10.2397C14.6301 10.3156 14.584 10.3845 14.5258 10.4425Z" fill="#F6F8FE"/>
</svg>
