<svg xmlns="http://www.w3.org/2000/svg" width="8" height="14" viewBox="0 0 8 14" fill="none">
  <path d="M0.183062 12.5575L5.92834 6.81222L0.183062 1.06694C0.152546 1.03643 0.125854 1.00355 0.102971 0.968891C0.0497622 0.888308 0.0171792 0.798116 0.00521254 0.705758C0.00173754 0.678958 3.88589e-06 0.651974 3.88589e-06 0.624999C3.88589e-06 0.484183 0.0472868 0.343374 0.14187 0.228424C0.154728 0.212807 0.168454 0.197658 0.183062 0.183058C0.194496 0.171616 0.206271 0.160707 0.218354 0.150341C0.463904 -0.0604843 0.834304 -0.0495756 1.06695 0.183058L7.25409 6.37022C7.37134 6.48747 7.43717 6.64647 7.43717 6.81222C7.43717 6.97797 7.37134 7.13688 7.25409 7.25413L1.06695 13.4413C1.03643 13.4718 1.00355 13.4985 0.968896 13.5214C0.726304 13.6815 0.396629 13.6549 0.183062 13.4413C0.152546 13.4108 0.125854 13.3779 0.102971 13.3433C-0.0572045 13.1006 -0.0305125 12.771 0.183062 12.5575Z" fill="#B9B9B9"/>
</svg>