<svg width="24" height="23" viewBox="0 0 24 23" fill="none" xmlns="http://www.w3.org/2000/svg">
<path d="M12.0011 6.25949C11.0085 6.25949 10.0382 6.55044 9.21295 7.09553C8.38765 7.64063 7.74442 8.41539 7.36458 9.32186C6.98474 10.2283 6.88535 11.2258 7.07899 12.1881C7.27264 13.1503 7.7506 14.0343 8.45246 14.728C9.15431 15.4218 10.0485 15.8943 11.022 16.0857C11.9955 16.2771 13.0046 16.1789 13.9216 15.8034C14.8386 15.4279 15.6224 14.7921 16.1738 13.9763C16.7253 13.1605 17.0196 12.2014 17.0196 11.2203C17.0179 9.90511 16.4886 8.64431 15.5478 7.71436C14.607 6.78441 13.3316 6.26121 12.0011 6.25949ZM12.0011 14.8869C11.2674 14.8869 10.5503 14.6719 9.94029 14.269C9.33029 13.8661 8.85485 13.2934 8.5741 12.6234C8.29335 11.9534 8.21989 11.2162 8.36302 10.5049C8.50614 9.79367 8.85942 9.14033 9.37819 8.62754C9.89695 8.11475 10.5579 7.76554 11.2774 7.62406C11.997 7.48258 12.7428 7.55519 13.4206 7.83271C14.0984 8.11023 14.6777 8.5802 15.0853 9.18318C15.4929 9.78615 15.7104 10.4951 15.7104 11.2203C15.7104 12.1927 15.3196 13.1253 14.624 13.813C13.9284 14.5006 12.9849 14.8869 12.0011 14.8869ZM23.7837 9.02027C23.7647 8.93009 23.7265 8.84497 23.6715 8.77058C23.6166 8.69619 23.5462 8.63424 23.4651 8.5889L20.1442 6.71459L20.0984 6.63802L20.0853 2.93794C20.0853 2.84448 20.0648 2.75213 20.0253 2.66723C19.9857 2.58234 19.928 2.50693 19.8562 2.44618C18.6963 1.47675 17.361 0.733527 15.921 0.255894C15.8344 0.227122 15.7427 0.216576 15.6518 0.224934C15.5608 0.233291 15.4727 0.260368 15.393 0.304423L12.0513 2.14638H11.9422L8.60922 0.302266C8.52914 0.258081 8.44055 0.231025 8.34921 0.222851C8.25787 0.214676 8.16581 0.225566 8.079 0.254815C6.63914 0.73384 5.30447 1.47895 4.14601 2.45049C4.0739 2.51092 4.01588 2.58607 3.97596 2.67078C3.93603 2.75548 3.91514 2.84773 3.91472 2.94118L3.89726 6.64449C3.88199 6.6693 3.86672 6.69518 3.85253 6.72106L0.535944 8.58566C0.454438 8.6317 0.383903 8.69453 0.329125 8.76989C0.274348 8.84525 0.236609 8.93138 0.218468 9.02242C-0.0728228 10.4742 -0.0728228 11.9684 0.218468 13.4202C0.237451 13.5104 0.275689 13.5955 0.330627 13.6699C0.385564 13.7443 0.455936 13.8063 0.537036 13.8516L3.85581 15.7205L3.90163 15.7971L3.91472 19.4972C3.91419 19.5917 3.93462 19.6852 3.97458 19.7711C4.01454 19.857 4.07306 19.9332 4.14601 19.9943C5.30587 20.9638 6.64118 21.707 8.08118 22.1846C8.16775 22.2134 8.25946 22.2239 8.3504 22.2156C8.44134 22.2072 8.5295 22.1801 8.60922 22.1361L11.9487 20.2941H12.0578L15.3919 22.1382C15.4894 22.1916 15.599 22.2197 15.7104 22.2202C15.7821 22.2205 15.8533 22.2088 15.921 22.1857C17.3589 21.7061 18.6917 20.961 19.8485 19.99C19.9206 19.9296 19.9787 19.8544 20.0186 19.7697C20.0585 19.685 20.0794 19.5928 20.0798 19.4993L20.0973 15.796C20.1125 15.7712 20.1278 15.7453 20.142 15.7195L23.4608 13.8549C23.5425 13.8089 23.6132 13.7462 23.6682 13.6708C23.7232 13.5954 23.7611 13.5092 23.7793 13.4181C24.0721 11.9666 24.0736 10.4724 23.7837 9.02027ZM22.5564 12.88L19.3456 14.682C19.2415 14.7409 19.1555 14.8266 19.0968 14.93C19.0325 15.0379 18.9648 15.1576 18.8939 15.2687C18.8294 15.3709 18.795 15.4889 18.7946 15.6095L18.7772 19.1909C17.8745 19.9058 16.8605 20.4714 15.7748 20.8657L12.5466 19.0798C12.449 19.0256 12.3389 18.997 12.2269 18.9968H12.2116C12.0764 18.9968 11.9389 18.9968 11.8036 18.9968C11.6866 18.994 11.5709 19.0223 11.4687 19.0788L8.23174 20.8646C7.14463 20.4723 6.12917 19.9082 5.22499 19.1941L5.2119 15.617C5.21156 15.4965 5.17717 15.3785 5.11262 15.2762C5.0428 15.1684 4.97406 15.0519 4.9097 14.9376C4.85165 14.8341 4.76599 14.7483 4.66204 14.6896L1.45128 12.881C1.26464 11.7819 1.26464 10.6597 1.45128 9.56056L4.65659 7.75851C4.7623 7.70025 4.84984 7.61446 4.9097 7.51047C4.97406 7.40263 5.04171 7.28292 5.11262 7.17184C5.17717 7.06961 5.21156 6.95158 5.2119 6.83106L5.22935 3.24961C6.13074 2.53511 7.14317 1.96954 8.22738 1.57481L11.4556 3.36068C11.5574 3.41809 11.6734 3.44646 11.7905 3.44264C11.9258 3.44264 12.0633 3.44264 12.1986 3.44264C12.3156 3.44543 12.4313 3.41712 12.5335 3.36068L15.7683 1.57481C16.8554 1.96711 17.8708 2.53128 18.775 3.24529L18.7881 6.82243C18.7884 6.94295 18.8228 7.06098 18.8874 7.16322C18.9572 7.27106 19.0259 7.38753 19.0903 7.50184C19.1483 7.60535 19.234 7.69115 19.338 7.74988L22.5509 9.55948C22.7386 10.6584 22.7397 11.7806 22.5542 12.88H22.5564Z" fill="#041E4E"/>
</svg>
