<svg xmlns="http://www.w3.org/2000/svg" width="15" height="17" viewBox="0 0 15 17" fill="none">
  <path d="M14.8272 11.8703C14.3936 11.1234 13.7491 9.01016 13.7491 6.25C13.7491 4.5924 13.0906 3.00269 11.9185 1.83058C10.7464 0.65848 9.1567 0 7.49909 0C5.84149 0 4.25178 0.65848 3.07968 1.83058C1.90757 3.00269 1.24909 4.5924 1.24909 6.25C1.24909 9.01094 0.603782 11.1234 0.170188 11.8703C0.0594621 12.0602 0.000761949 12.2759 7.36794e-06 12.4957C-0.000747213 12.7155 0.0564706 12.9316 0.16589 13.1223C0.27531 13.3129 0.433063 13.4713 0.623239 13.5815C0.813416 13.6917 1.02929 13.7498 1.24909 13.75H4.43738C4.58157 14.4556 4.96505 15.0897 5.52295 15.5451C6.08085 16.0006 6.77892 16.2493 7.49909 16.2493C8.21927 16.2493 8.91734 16.0006 9.47524 15.5451C10.0331 15.0897 10.4166 14.4556 10.5608 13.75H13.7491C13.9688 13.7497 14.1846 13.6915 14.3747 13.5812C14.5647 13.471 14.7224 13.3125 14.8317 13.1219C14.941 12.9313 14.9982 12.7153 14.9974 12.4955C14.9966 12.2758 14.9379 12.0601 14.8272 11.8703ZM7.49909 15C7.11145 14.9999 6.73338 14.8796 6.41691 14.6558C6.10043 14.4319 5.86112 14.1155 5.73191 13.75H9.26628C9.13707 14.1155 8.89776 14.4319 8.58128 14.6558C8.26481 14.8796 7.88674 14.9999 7.49909 15ZM1.24909 12.5C1.85066 11.4656 2.49909 9.06875 2.49909 6.25C2.49909 4.92392 3.02588 3.65215 3.96356 2.71447C4.90124 1.77678 6.17301 1.25 7.49909 1.25C8.82518 1.25 10.0969 1.77678 11.0346 2.71447C11.9723 3.65215 12.4991 4.92392 12.4991 6.25C12.4991 9.06641 13.146 11.4633 13.7491 12.5H1.24909Z" fill="#041E4E"/>
</svg>