<svg width="32" height="32" viewBox="0 0 32 32" fill="none" xmlns="http://www.w3.org/2000/svg">
<g clip-path="url(#clip0_1703_2)">
<path d="M15.2855 15.2946L7.28809 23.292L8.7023 24.7062L16.6997 16.7088L15.2855 15.2946Z" fill="#041E4E"/>
<path d="M16.9998 30.0001C16.8732 30.0004 16.7476 29.9766 16.6298 29.9301C16.466 29.8648 16.3223 29.7573 16.2135 29.6185C16.1046 29.4798 16.0343 29.3147 16.0098 29.1401L15.0098 22.1401L17.0098 21.8601L17.7598 27.1301L20.9998 24.5201V17.0001C20.9991 16.8685 21.0243 16.738 21.074 16.6162C21.1238 16.4943 21.1971 16.3835 21.2898 16.2901L25.3598 12.2201C26.1985 11.3871 26.8636 10.3961 27.3167 9.30445C27.7699 8.21276 28.0021 7.04206 27.9998 5.86006V4.00006H26.1398C24.9578 3.99782 23.7871 4.22999 22.6954 4.68314C21.6038 5.13629 20.6128 5.80142 19.7798 6.64006L15.7098 10.7101C15.6164 10.8027 15.5056 10.8761 15.3837 10.9258C15.2619 10.9756 15.1314 11.0008 14.9998 11.0001H7.47982L4.86982 14.2601L10.1398 15.0101L9.85982 17.0101L2.85982 16.0101C2.68516 15.9856 2.52009 15.9153 2.38135 15.8064C2.24261 15.6975 2.13513 15.5539 2.06982 15.3901C2.0037 15.2251 1.98275 15.0455 2.00911 14.8697C2.03548 14.6939 2.10821 14.5284 2.21982 14.3901L6.21982 9.39006C6.31194 9.27037 6.42998 9.1731 6.56507 9.10556C6.70016 9.03801 6.8488 9.00194 6.99982 9.00006H14.5898L18.3598 5.22006C19.379 4.19517 20.5915 3.3828 21.927 2.83005C23.2625 2.27731 24.6945 1.99519 26.1398 2.00006H27.9998C28.5303 2.00006 29.039 2.21078 29.414 2.58585C29.7891 2.96092 29.9998 3.46963 29.9998 4.00006V5.86006C30.0047 7.30543 29.7226 8.73738 29.1698 10.0729C28.6171 11.4084 27.8047 12.6209 26.7798 13.6401L22.9998 17.4101V25.0001C22.9991 25.1503 22.9646 25.2984 22.8988 25.4334C22.833 25.5685 22.7377 25.6869 22.6198 25.7801L17.6198 29.7801C17.4439 29.9212 17.2254 29.9988 16.9998 30.0001Z" fill="#041E4E"/>
</g>
<defs>
<clipPath id="clip0_1703_2">
<rect width="32" height="32" fill="white"/>
</clipPath>
</defs>
</svg>
