<svg width="32" height="32" viewBox="0 0 32 32" fill="none" xmlns="http://www.w3.org/2000/svg">
<g clip-path="url(#clip0_1825_95)">
<path d="M28.5039 8.1362L16.5039 1.1362C16.3481 1.0454 16.1741 1 16 1C15.8259 1 15.6518 1.0454 15.4961 1.1362L3.4961 8.1362C3.189 8.3154 3 8.6445 3 9V23C3 23.3555 3.189 23.6846 3.4961 23.8643L15.4961 30.8643C15.6519 30.9551 15.8257 31 16 31C16.1743 31 16.3481 30.9551 16.5039 30.8643L28.5039 23.8643C28.8115 23.6846 29 23.3555 29 23V9C29 8.6445 28.8115 8.3154 28.5039 8.1362ZM16 3.1577L26.0155 8.9999L23.6382 10.3866L18 7.1337C17.6895 6.955 17.3105 6.955 17 7.1337L10.5005 10.8837C10.3013 10.9987 10.1588 11.1798 10.077 11.3871L5.9845 8.9998L16 3.1577ZM12 14.8244L15 16.5744V20.4035L12 18.6728V14.8244ZM16 14.8423L12 12.509V12.3277L17.5 9.1544L21.648 11.5477L16 14.8423ZM17 16.5744L23 13.0744V18.6728L17.5 21.8457L17 21.5572V16.5744ZM5 10.741L10 13.6577V19.25C10 19.6074 10.1909 19.9375 10.5005 20.1162L15 22.7123V28.2594L5 22.4258V10.741ZM17 28.2594V23.8662C17.1553 23.9551 17.3271 24 17.5 24C17.6729 24 17.8447 23.9551 18 23.8662L24.5 20.1162C24.8096 19.9375 25 19.6074 25 19.25V11.9077L27 10.741V22.4258L17 28.2594Z" fill="#E7ECF6"/>
</g>
<defs>
<clipPath id="clip0_1825_95">
<rect width="32" height="32" fill="white"/>
</clipPath>
</defs>
</svg>
