<svg width="510" height="512" viewBox="0 0 510 512" fill="none" xmlns="http://www.w3.org/2000/svg">
<path fill-rule="evenodd" clip-rule="evenodd" d="M435.545 74.4107C387.63 26.4533 323.929 0.0213333 256.067 0C116.227 0 2.41413 113.792 2.35013 253.696C2.3288 298.411 14.0195 342.059 36.2275 380.544L0.216797 512L134.702 476.715C171.758 496.939 213.486 507.584 255.939 507.605H256.046C395.865 507.605 509.699 393.792 509.763 253.888C509.806 186.112 483.438 122.347 435.545 74.4107ZM256.067 464.747H255.982C218.137 464.747 181.038 454.571 148.654 435.349L140.953 430.784L61.1448 451.712L82.4568 373.888L77.4435 365.909C56.3235 332.331 45.1875 293.525 45.2088 253.696C45.2515 137.429 139.865 42.8373 256.174 42.8373C312.494 42.8373 365.443 64.8107 405.251 104.661C445.059 144.533 466.969 197.504 466.947 253.845C466.883 370.155 372.291 464.747 256.067 464.747ZM371.737 306.816C365.401 303.637 334.233 288.299 328.409 286.187C322.606 284.075 318.382 283.008 314.137 289.344C309.891 295.68 297.774 309.973 294.062 314.219C290.371 318.443 286.659 318.976 280.323 315.797C273.987 312.619 253.55 305.941 229.337 284.331C210.499 267.52 197.763 246.763 194.073 240.405C190.382 234.048 193.689 230.635 196.846 227.477C199.705 224.64 203.182 220.075 206.361 216.363C209.561 212.693 210.606 210.048 212.739 205.803C214.851 201.579 213.806 197.867 212.206 194.688C210.606 191.531 197.934 160.32 192.665 147.627C187.523 135.253 182.297 136.939 178.393 136.747C174.702 136.555 170.478 136.533 166.233 136.533C162.009 136.533 155.139 138.112 149.337 144.469C143.534 150.827 127.15 166.165 127.15 197.355C127.15 228.565 149.87 258.709 153.027 262.933C156.185 267.157 197.721 331.2 261.315 358.656C276.441 365.184 288.259 369.088 297.454 372.011C312.643 376.832 326.467 376.149 337.39 374.528C349.571 372.715 374.894 359.189 380.185 344.384C385.475 329.579 385.475 316.864 383.875 314.24C382.297 311.573 378.073 309.995 371.737 306.816Z" fill="white"/>
</svg>
