<svg width="22" height="22" viewBox="0 0 22 22" fill="none" xmlns="http://www.w3.org/2000/svg">
<path fill-rule="evenodd" clip-rule="evenodd" d="M18.7886 3.19733C16.7217 1.13667 13.9738 0.000916665 11.0464 0C5.01413 0 0.104553 4.8895 0.101792 10.901C0.100872 12.8223 0.605176 14.6978 1.56317 16.3515L0.00976562 22L5.81109 20.4838C7.40958 21.3528 9.20961 21.8103 11.0409 21.8112H11.0455C17.0769 21.8112 21.9874 16.9208 21.9902 10.9093C21.992 7.997 20.8546 5.2571 18.7886 3.19733ZM11.0464 19.9696H11.0428C9.41024 19.9696 7.8099 19.5323 6.41294 18.7064L6.08074 18.5102L2.63803 19.4095L3.55737 16.0655L3.34111 15.7227C2.43005 14.2798 1.94968 12.6124 1.9506 10.901C1.95244 5.90515 6.03381 1.84067 11.0511 1.84067C13.4805 1.84067 15.7646 2.78483 17.4818 4.49715C19.199 6.2104 20.1442 8.4865 20.1432 10.9074C20.1405 15.9051 16.06 19.9696 11.0464 19.9696ZM16.0361 13.1835C15.7628 13.0469 14.4183 12.3878 14.1671 12.2971C13.9168 12.2063 13.7345 12.1605 13.5514 12.4327C13.3683 12.705 12.8456 13.3192 12.6854 13.5016C12.5262 13.6831 12.3661 13.706 12.0928 13.5694C11.8195 13.4328 10.9379 13.1459 9.89338 12.2173C9.08076 11.495 8.53137 10.6031 8.37219 10.3299C8.21297 10.0567 8.35563 9.9101 8.49181 9.7744C8.61514 9.6525 8.76513 9.45635 8.90226 9.29685C9.0403 9.13915 9.08538 9.0255 9.17739 8.8431C9.2685 8.6616 9.22342 8.5021 9.1544 8.3655C9.08538 8.22985 8.53874 6.88875 8.31145 6.34335C8.08964 5.81165 7.86421 5.8841 7.6958 5.87585C7.53658 5.8676 7.35437 5.86665 7.17125 5.86665C6.98904 5.86665 6.69268 5.9345 6.4424 6.20765C6.19208 6.48085 5.48532 7.1399 5.48532 8.4801C5.48532 9.82115 6.46539 11.1164 6.60158 11.2979C6.73781 11.4794 8.52956 14.2313 11.2728 15.411C11.9253 15.6915 12.4351 15.8592 12.8318 15.9848C13.487 16.192 14.0833 16.1627 14.5545 16.093C15.0799 16.0151 16.1723 15.4339 16.4006 14.7978C16.6287 14.1616 16.6287 13.6152 16.5597 13.5025C16.4917 13.3879 16.3094 13.3201 16.0361 13.1835Z" fill="#40C057"/>
</svg>
