<svg width="24" height="23" viewBox="0 0 24 23" fill="none" xmlns="http://www.w3.org/2000/svg">
<path d="M16.1565 8.56501L10.5094 4.82033C10.403 4.74974 10.2794 4.70921 10.1517 4.70309C10.0239 4.69696 9.89693 4.72545 9.78422 4.78554C9.67151 4.84562 9.57733 4.93502 9.51173 5.04421C9.44613 5.15339 9.41158 5.27825 9.41176 5.40544V12.8948C9.41158 13.022 9.44613 13.1469 9.51173 13.256C9.57733 13.3652 9.67151 13.4546 9.78422 13.5147C9.89693 13.5748 10.0239 13.6033 10.1517 13.5972C10.2794 13.591 10.403 13.5505 10.5094 13.4799L16.1565 9.73523C16.2535 9.67118 16.3332 9.58423 16.3883 9.48214C16.4433 9.38005 16.4722 9.26599 16.4722 9.15012C16.4722 9.03426 16.4433 8.92019 16.3883 8.8181C16.3332 8.71601 16.2535 8.62906 16.1565 8.56501ZM10.8235 11.583V6.71725L14.4918 9.15012L10.8235 11.583ZM21.4118 0.0224609H2.58824C1.90179 0.0224609 1.24346 0.293699 0.758076 0.776505C0.272688 1.25931 0 1.91414 0 2.59693V15.7033C0 16.3861 0.272688 17.0409 0.758076 17.5237C1.24346 18.0065 1.90179 18.2778 2.58824 18.2778H21.4118C22.0982 18.2778 22.7565 18.0065 23.2419 17.5237C23.7273 17.0409 24 16.3861 24 15.7033V2.59693C24 1.91414 23.7273 1.25931 23.2419 0.776505C22.7565 0.293699 22.0982 0.0224609 21.4118 0.0224609ZM22.5882 15.7033C22.5882 16.0137 22.4643 16.3113 22.2437 16.5308C22.023 16.7502 21.7238 16.8735 21.4118 16.8735H2.58824C2.27622 16.8735 1.97698 16.7502 1.75634 16.5308C1.53571 16.3113 1.41176 16.0137 1.41176 15.7033V2.59693C1.41176 2.28657 1.53571 1.98892 1.75634 1.76946C1.97698 1.55001 2.27622 1.42672 2.58824 1.42672H21.4118C21.7238 1.42672 22.023 1.55001 22.2437 1.76946C22.4643 1.98892 22.5882 2.28657 22.5882 2.59693V15.7033ZM16.4706 21.3203C16.4706 21.5065 16.3962 21.6851 16.2638 21.8168C16.1315 21.9485 15.9519 22.0225 15.7647 22.0225H8.23529C8.04808 22.0225 7.86854 21.9485 7.73616 21.8168C7.60378 21.6851 7.52941 21.5065 7.52941 21.3203C7.52941 21.1341 7.60378 20.9555 7.73616 20.8239C7.86854 20.6922 8.04808 20.6182 8.23529 20.6182H15.7647C15.9519 20.6182 16.1315 20.6922 16.2638 20.8239C16.3962 20.9555 16.4706 21.1341 16.4706 21.3203Z" fill="#E7ECF6"/>
</svg>
