<svg width="22" height="21" viewBox="0 0 22 21" fill="none" xmlns="http://www.w3.org/2000/svg">
<path d="M13.4228 3H3.73047V4.5H13.4228V3Z" fill="#E5EBF7"/>
<path d="M13.4228 6H3.73047V7.5H13.4228V6Z" fill="#E5EBF7"/>
<path d="M8.57662 9H3.73047V10.5H8.57662V9Z" fill="#E5EBF7"/>
<path d="M6.96123 16.5H3.73047V18H6.96123V16.5Z" fill="#E5EBF7"/>
<path d="M21.2644 12.9698L18.8413 10.7198C18.7663 10.6501 18.6773 10.5948 18.5793 10.5571C18.4814 10.5194 18.3763 10.5 18.2703 10.5C18.1642 10.5 18.0592 10.5194 17.9612 10.5571C17.8632 10.5948 17.7742 10.6501 17.6992 10.7198L10.1934 17.6894V21H13.7586L21.2644 14.0303C21.3394 13.9607 21.3989 13.878 21.4396 13.787C21.4802 13.696 21.5011 13.5985 21.5011 13.5C21.5011 13.4015 21.4802 13.304 21.4396 13.213C21.3989 13.122 21.3394 13.0394 21.2644 12.9698ZM13.0897 19.5H11.8087V18.3106L15.8472 14.5606L17.1281 15.75L13.0897 19.5ZM18.2703 14.6894L16.9894 13.5L18.2703 12.3106L19.5512 13.5L18.2703 14.6894Z" fill="#E5EBF7"/>
<path d="M6.96153 21H2.11538C1.68709 20.9996 1.27648 20.8414 0.973631 20.5602C0.670785 20.279 0.500449 19.8977 0.5 19.5V1.5C0.500449 1.1023 0.670785 0.721014 0.973631 0.4398C1.27648 0.158586 1.68709 0.000416925 2.11538 0H15.0384C15.4667 0.000416925 15.8773 0.158586 16.1802 0.4398C16.483 0.721014 16.6534 1.1023 16.6538 1.5V8.99999H15.0384V1.5H2.11538V19.5H6.96153V21Z" fill="#E5EBF7"/>
</svg>
