<svg width="20" height="20" viewBox="0 0 20 20" fill="none" xmlns="http://www.w3.org/2000/svg">
<g clip-path="url(#clip0_2589_1306)">
<path d="M19.863 7.32834C19.6925 6.78575 19.352 6.31243 18.8917 5.97836C18.4314 5.6443 17.8759 5.46723 17.3072 5.47334H13.6663L12.5605 2.02667C12.3866 1.48413 12.0449 1.01085 11.5846 0.675057C11.1244 0.339267 10.5694 0.158325 9.99967 0.158325C9.42995 0.158325 8.87495 0.339267 8.4147 0.675057C7.95445 1.01085 7.61274 1.48413 7.43884 2.02667L6.33301 5.47334H2.69217C2.12529 5.47414 1.57317 5.65407 1.11466 5.98742C0.656146 6.32077 0.314706 6.79049 0.139107 7.32949C-0.0364925 7.86849 -0.0372697 8.44919 0.136886 8.98866C0.311042 9.52813 0.651223 9.99876 1.10884 10.3333L4.07217 12.5L2.94551 15.9892C2.76343 16.5303 2.76113 17.1158 2.93893 17.6584C3.11673 18.201 3.46513 18.6716 3.93217 19C4.39122 19.339 4.9475 19.5206 5.51813 19.5177C6.08877 19.5149 6.64321 19.3277 7.09884 18.9842L9.99967 16.8492L12.9013 18.9817C13.3596 19.3187 13.9128 19.5018 14.4816 19.5046C15.0505 19.5073 15.6055 19.3297 16.067 18.9971C16.5285 18.6645 16.8726 18.1942 17.0499 17.6537C17.2272 17.1133 17.2286 16.5305 17.0538 15.9892L15.9272 12.5L18.8938 10.3333C19.3567 10.003 19.7009 9.53233 19.8754 8.99112C20.05 8.44991 20.0456 7.86688 19.863 7.32834ZM17.9105 8.9875L14.4572 11.5117C14.3153 11.6151 14.2098 11.7608 14.1556 11.9278C14.1014 12.0948 14.1014 12.2746 14.1555 12.4417L15.468 16.5C15.5344 16.7058 15.5339 16.9274 15.4664 17.1329C15.3989 17.3384 15.268 17.5172 15.0925 17.6436C14.917 17.7701 14.706 17.8376 14.4897 17.8365C14.2734 17.8354 14.063 17.7657 13.8888 17.6375L10.493 15.1375C10.35 15.0324 10.1771 14.9758 9.99967 14.9758C9.8222 14.9758 9.64937 15.0324 9.50634 15.1375L6.11051 17.6375C5.93641 17.7674 5.72545 17.8385 5.50823 17.8405C5.291 17.8425 5.07879 17.7752 4.90236 17.6485C4.72594 17.5217 4.59446 17.3421 4.527 17.1356C4.45954 16.9291 4.4596 16.7065 4.52717 16.5L5.84384 12.4417C5.89794 12.2746 5.8979 12.0948 5.84372 11.9278C5.78955 11.7608 5.68401 11.6151 5.54217 11.5117L2.08884 8.9875C1.91493 8.86017 1.7857 8.68113 1.71962 8.47596C1.65355 8.27079 1.654 8.04998 1.72091 7.84508C1.78782 7.64019 1.91778 7.46167 2.09221 7.33505C2.26664 7.20842 2.47662 7.14015 2.69217 7.14H6.94217C7.1186 7.14 7.29048 7.084 7.43305 6.98007C7.57561 6.87613 7.68152 6.72964 7.73551 6.56167L9.02717 2.53584C9.09347 2.32982 9.22343 2.15016 9.39834 2.02271C9.57325 1.89526 9.78409 1.82659 10.0005 1.82659C10.2169 1.82659 10.4278 1.89526 10.6027 2.02271C10.7776 2.15016 10.9075 2.32982 10.9738 2.53584L12.2655 6.56167C12.3195 6.72964 12.4254 6.87613 12.568 6.98007C12.7105 7.084 12.8824 7.14 13.0588 7.14H17.3088C17.5244 7.14015 17.7344 7.20842 17.9088 7.33505C18.0832 7.46167 18.2132 7.64019 18.2801 7.84508C18.347 8.04998 18.3475 8.27079 18.2814 8.47596C18.2153 8.68113 18.0861 8.86017 17.9122 8.9875H17.9105Z" fill="#E7ECF6"/>
</g>
<defs>
<clipPath id="clip0_2589_1306">
<rect width="20" height="20" fill="white"/>
</clipPath>
</defs>
</svg>
