<svg width="20" height="20" viewBox="0 0 20 20" fill="none" xmlns="http://www.w3.org/2000/svg">
<path d="M18.8849 5.82004C19.3452 6.1541 19.6857 6.62743 19.8562 7.17001C20.0388 7.70856 20.0431 8.29159 19.8686 8.8328C19.694 9.37401 19.3498 9.84463 18.887 10.175L15.9203 12.3417L17.047 15.8308C17.2218 16.3722 17.2204 16.9549 17.0431 17.4954C16.8658 18.0359 16.5216 18.5062 16.0601 18.8388C15.5987 19.1713 15.0436 19.349 14.4748 19.3462C13.906 19.3435 13.3527 19.1604 12.8945 18.8233L9.99284 16.6908L7.092 18.8258C6.63637 19.1694 6.08193 19.3566 5.5113 19.3594C4.94066 19.3623 4.38438 19.1807 3.92534 18.8417C3.45829 18.5132 3.1099 18.0427 2.93209 17.5001C2.75429 16.9575 2.7566 16.372 2.93867 15.8308L4.06534 12.3417L1.102 10.175C0.644387 9.84044 0.304206 9.3698 0.13005 8.83034C-0.0441056 8.29087 -0.0433284 7.71017 0.132271 7.17117C0.30787 6.63217 0.64931 6.16245 1.10782 5.8291C1.56633 5.49575 2.11846 5.31582 2.68534 5.31501H6.32617L7.432 1.86834C7.6059 1.32581 7.94761 0.852523 8.40786 0.516732C8.86811 0.180942 9.42311 0 9.99284 0C10.5626 0 11.1176 0.180942 11.5778 0.516732C12.0381 0.852523 12.3798 1.32581 12.5537 1.86834L13.6595 5.31501H17.3003C17.869 5.3089 18.4246 5.48597 18.8849 5.82004Z" fill="#EDB120"/>
</svg>
