<svg width="22" height="21" viewBox="0 0 22 21" fill="none" xmlns="http://www.w3.org/2000/svg">
<path d="M20 9.69231V14.5385H2V1.61538H10.25V0H2C1.60218 0 1.22064 0.170192 0.93934 0.473135C0.658035 0.776078 0.5 1.18696 0.5 1.61538V14.5385C0.5 14.9669 0.658035 15.3778 0.93934 15.6807C1.22064 15.9837 1.60218 16.1538 2 16.1538H8V19.3846H5V21H17V19.3846H14V16.1538H20C20.3978 16.1538 20.7794 15.9837 21.0607 15.6807C21.342 15.3778 21.5 14.9669 21.5 14.5385V9.69231H20ZM12.5 19.3846H9.5V16.1538H12.5V19.3846Z" fill="#E5EBF7"/>
<path d="M21.5 0H12.5V1.61538H21.5V0Z" fill="#E5EBF7"/>
<path d="M21.5 3.23083H12.5V4.84622H21.5V3.23083Z" fill="#E5EBF7"/>
<path d="M17 6.46155H12.5V8.07693H17V6.46155Z" fill="#E5EBF7"/>
</svg>
