<svg width="20" height="16" viewBox="0 0 20 16" fill="none" xmlns="http://www.w3.org/2000/svg">
<path d="M1.01847 0.59835C0.737678 0.786372 0.57842 1.28561 0.637094 1.77188C0.674813 2.07661 0.884362 2.43321 1.07296 2.5175C1.18192 2.56937 3.96055 2.58233 10.1003 2.56937L18.9727 2.54992L19.0858 2.41376C19.3079 2.1609 19.375 1.95342 19.375 1.54496C19.375 1.13649 19.3079 0.929012 19.0858 0.676154L18.9727 0.539998L10.0584 0.52703C2.71163 0.514063 1.12325 0.52703 1.01847 0.59835Z" fill="#E5EBF7"/>
<path d="M4.37003 6.82259C4.08924 7.01062 3.92998 7.50986 3.98865 7.99613C4.02637 8.30086 4.23592 8.65745 4.42452 8.74174C4.53348 8.79361 6.30627 8.80658 10.0991 8.79361C15.5977 8.77416 15.6186 8.77416 15.7318 8.638C15.9539 8.38514 16.021 8.17767 16.021 7.7692C16.021 7.36073 15.9539 7.15326 15.7318 6.90039C15.6186 6.76424 15.6019 6.76424 10.0572 6.75127C5.49741 6.7383 4.47481 6.75127 4.37003 6.82259Z" fill="#E5EBF7"/>
<path d="M7.72355 13.0468C7.44275 13.2348 7.2835 13.7341 7.34217 14.2203C7.37989 14.5251 7.58944 14.8817 7.77803 14.966C7.88281 15.0178 8.65395 15.0308 10.0998 15.0178C12.2121 14.9984 12.2666 14.9919 12.3797 14.8622C12.6019 14.6094 12.6689 14.4019 12.6689 13.9934C12.6689 13.5849 12.6019 13.3775 12.3797 13.1246C12.2666 12.9885 12.2121 12.9885 10.0579 12.9755C8.28514 12.9625 7.82413 12.9755 7.72355 13.0468Z" fill="#E5EBF7"/>
</svg>
