<svg width="28" height="28" viewBox="0 0 28 28" fill="none" xmlns="http://www.w3.org/2000/svg">
<mask id="mask0_2056_375" style="mask-type:luminance" maskUnits="userSpaceOnUse" x="0" y="0" width="28" height="28">
<path d="M27.5 0.522583H0.5V27.5226H27.5V0.522583Z" fill="white"/>
</mask>
<g mask="url(#mask0_2056_375)">
<path d="M26.465 7.44126C25.826 7.12064 25.0745 7.19035 24.4411 7.67187L21.875 10.2605V10.0839C21.875 7.29276 19.6036 5.02136 16.8125 5.02136H5.5625C2.77137 5.02249 0.5 7.29387 0.5 10.085V17.96C0.5 20.7511 2.77137 23.0225 5.5625 23.0225H16.8125C19.6036 23.0225 21.875 20.7511 21.875 17.96V17.7462L24.503 20.3641C24.8349 20.6139 25.2286 20.7399 25.6246 20.7399C25.9093 20.7399 26.1972 20.6746 26.465 20.5407C27.104 20.2212 27.5 19.58 27.5 18.8656V9.11748C27.5 8.40314 27.1029 7.75962 26.465 7.44126ZM16.8125 21.8975H5.5625C3.39125 21.8975 1.625 20.1313 1.625 17.96V10.085C1.625 7.91376 3.39125 6.14748 5.5625 6.14748H16.8125C18.9838 6.14748 20.75 7.91376 20.75 10.085V17.96C20.75 20.1313 18.9838 21.8975 16.8125 21.8975ZM26.375 18.8656C26.375 19.1547 26.2198 19.4056 25.961 19.535C25.7011 19.6666 25.4086 19.6385 25.2376 19.5159L21.875 16.1566V11.858L25.178 8.51673C25.4098 8.3435 25.7022 8.3176 25.9621 8.44701C26.2209 8.57637 26.3761 8.82612 26.3761 9.11637L26.375 18.8656ZM15.6875 14.0225C15.6875 14.333 15.4355 14.585 15.125 14.585H11.75V17.96C11.75 18.2705 11.498 18.5225 11.1875 18.5225C10.877 18.5225 10.625 18.2705 10.625 17.96V14.585H7.25C6.9395 14.585 6.68748 14.333 6.68748 14.0225C6.68748 13.712 6.9395 13.46 7.25 13.46H10.625V10.085C10.625 9.7745 10.877 9.52248 11.1875 9.52248C11.498 9.52248 11.75 9.7745 11.75 10.085V13.46H15.125C15.4355 13.46 15.6875 13.712 15.6875 14.0225Z" fill="#E5EBF7"/>
</g>
</svg>
