<svg width="32" height="32" viewBox="0 0 32 32" fill="none" xmlns="http://www.w3.org/2000/svg">
<path d="M11.4541 5.57899C10.8979 5.72878 10.1786 6.2453 9.91326 6.67917C9.83674 6.79797 9.75 6.81863 7.94898 7.07689C6.91326 7.22668 5.95918 7.38164 5.83163 7.42812C5.43367 7.56758 5.11225 7.77419 4.79082 8.0996C4.28061 8.62128 4 9.29275 4 9.99007C4 10.2948 5.95918 24.6178 6.09694 25.3306C6.33674 26.5548 7.47449 27.5 8.71429 27.5C8.89795 27.5 10.6837 27.2676 12.6837 26.9835C14.6837 26.6943 16.4031 26.4618 16.5 26.4618C16.5969 26.4566 17.0918 26.5186 17.5969 26.5909C22.449 27.2882 24.0102 27.5 24.301 27.5C25.4133 27.5 26.4337 26.7562 26.8061 25.6715C26.9286 25.3255 29 10.5066 29 9.99007C29 8.86404 28.2398 7.80518 27.1683 7.42812C27.0408 7.38164 26.0867 7.22152 25.051 7.07689C23.25 6.81863 23.1633 6.79797 23.0867 6.67917C22.9337 6.43124 22.4388 5.98187 22.1326 5.82175C21.5051 5.48602 21.7092 5.49635 16.4745 5.50151C12.5 5.50151 11.6837 5.51701 11.4541 5.57899ZM21.5612 6.75148C21.8775 6.90644 22.1479 7.18019 22.3265 7.5211L22.4439 7.7432V15.6718V23.6003L22.3265 23.8224C22.1479 24.1633 21.8775 24.4371 21.5612 24.592C21.2908 24.7263 21.2143 24.7366 20.5459 24.7521L19.8214 24.7728L19.9286 24.468C20.1683 23.8018 20.1786 23.8999 19.051 15.8009C18.4898 11.7359 17.9949 8.28038 17.9541 8.10993C17.8418 7.67089 17.5867 7.22152 17.2551 6.87545L16.9643 6.57587L19.1174 6.59137L21.2704 6.60686L21.5612 6.75148ZM16.0153 7.30932C16.3418 7.46428 16.6479 7.77419 16.7959 8.0996C16.8979 8.31137 17.0817 9.56651 17.9592 15.8732C18.7092 21.2295 19 23.4764 18.9847 23.6829C18.9286 24.3544 18.4439 24.9536 17.8163 25.124C17.7245 25.1498 15.6633 25.4546 13.2347 25.7955C10.2143 26.2294 8.73978 26.4153 8.56121 26.3998C8.23979 26.3689 7.84183 26.1674 7.59183 25.9143C7.18878 25.5063 7.2551 25.8678 6.11225 17.6759C5.37755 12.4073 5.07143 10.083 5.08674 9.88158C5.13265 9.31341 5.46939 8.81239 5.96939 8.56446C6.21939 8.4405 6.69898 8.36302 10.6479 7.78968C15.4082 7.10272 15.5561 7.08722 16.0153 7.30932ZM24.6122 8.13059C26.8826 8.43016 27.0459 8.47665 27.4286 8.86404C27.6837 9.11714 27.8112 9.36507 27.8878 9.74729C27.9388 9.99007 27.8418 10.739 26.8878 17.6087C25.7347 25.8885 25.8061 25.5166 25.4031 25.9246C25.1939 26.1364 24.8061 26.3378 24.4949 26.3947C24.2602 26.436 20.7551 25.9504 20.8521 25.8885C20.8878 25.8678 21.0102 25.8472 21.1225 25.8472C21.2398 25.8472 21.4847 25.8007 21.6633 25.7438C22.5918 25.4546 23.3775 24.5507 23.5408 23.5745C23.5765 23.3369 23.5918 20.9712 23.5817 15.6046L23.5663 7.97563L23.6939 7.99629C23.7653 8.01179 24.1786 8.07377 24.6122 8.13059Z" fill="#010204"/>
</svg>
