<svg width="28" height="25" viewBox="0 0 28 25" fill="none" xmlns="http://www.w3.org/2000/svg">
<g clip-path="url(#clip0_398_517)">
<path d="M8.34855 0.155819C7.7257 0.324915 6.92 0.908006 6.62285 1.3978C6.53715 1.53191 6.44 1.55524 4.42285 1.84678C3.26285 2.01588 2.19428 2.19081 2.05143 2.24328C1.60571 2.40072 1.24572 2.63396 0.885715 3.0013C0.314286 3.59022 0 4.34824 0 5.13544C0 5.47941 2.19429 21.6485 2.34857 22.4532C2.61715 23.8351 3.89143 24.9022 5.28 24.9022C5.4857 24.9022 7.4857 24.6398 9.7257 24.3191C11.9657 23.9926 13.8915 23.7302 14 23.7302C14.1085 23.7243 14.6628 23.7943 15.2285 23.8759C20.6628 24.6631 22.4115 24.9022 22.7372 24.9022C23.9829 24.9022 25.1257 24.0625 25.5429 22.838C25.68 22.4474 28 5.7185 28 5.13544C28 3.86427 27.1485 2.66894 25.9485 2.24328C25.8057 2.19081 24.7372 2.01005 23.5772 1.84678C21.56 1.55524 21.4628 1.53191 21.3771 1.3978C21.2057 1.11792 20.6514 0.610629 20.3085 0.429872C19.6057 0.0508634 19.8343 0.0625246 13.9714 0.0683557C9.52 0.0683557 8.6057 0.0858486 8.34855 0.155819ZM19.6686 1.47943C20.0229 1.65436 20.3257 1.9634 20.5257 2.34824L20.6572 2.59897V11.5494V20.4998L20.5257 20.7506C20.3257 21.1354 20.0229 21.4445 19.6686 21.6194C19.3657 21.771 19.28 21.7826 18.5315 21.8001L17.72 21.8234L17.84 21.4794C18.1086 20.7273 18.12 20.838 16.8571 11.6952C16.2285 7.10625 15.6743 3.20538 15.6285 3.01297C15.5028 2.51734 15.2172 2.01005 14.8457 1.61938L14.52 1.28118L16.9314 1.29868L19.3428 1.31617L19.6686 1.47943ZM13.4572 2.10917C13.8229 2.2841 14.1657 2.63396 14.3315 3.0013C14.4457 3.24037 14.6515 4.65728 15.6343 11.7768C16.4743 17.8234 16.8 20.3599 16.7829 20.5931C16.72 21.3511 16.1772 22.0275 15.4743 22.22C15.3715 22.2491 13.0628 22.5931 10.3428 22.978C6.96 23.4678 5.30855 23.6777 5.10855 23.6602C4.74857 23.6252 4.30285 23.3978 4.02285 23.1121C3.57143 22.6515 3.64571 23.0596 2.36572 13.8118C1.54286 7.86426 1.2 5.24038 1.21714 5.01296C1.26857 4.37156 1.64571 3.80597 2.20571 3.52608C2.48571 3.38614 3.02286 3.29867 7.4457 2.65144C12.7772 1.87593 12.9429 1.85844 13.4572 2.10917ZM23.0857 3.03629C25.6285 3.37448 25.8114 3.42696 26.24 3.86428C26.5257 4.14999 26.6685 4.42987 26.7543 4.86136C26.8114 5.13543 26.7029 5.98089 25.6343 13.736C24.3429 23.0829 24.4229 22.6631 23.9715 23.1238C23.7372 23.3628 23.3028 23.5902 22.9543 23.6544C22.6914 23.701 18.7657 23.1529 18.8743 23.0829C18.9143 23.0596 19.0515 23.0363 19.1772 23.0363C19.3086 23.0363 19.5829 22.9838 19.7829 22.9197C20.8229 22.5931 21.7029 21.5727 21.8857 20.4707C21.9257 20.2025 21.9428 17.5319 21.9314 11.4736L21.9143 2.86136L22.0571 2.88468C22.1371 2.90217 22.6 2.97214 23.0857 3.03629Z" fill="#E7ECF6"/>
<path d="M3.03613 5.66744L11.5433 4.35547L11.6719 5.27382L3.16471 6.56392L3.03613 5.66744Z" fill="#E7ECF6"/>
<path d="M3.35742 7.59167L10.1503 6.56396L10.2789 7.48233L3.48599 8.48815L3.35742 7.59167Z" fill="#E7ECF6"/>
<path d="M5.41539 21.7603C5.34179 21.4154 5.56564 21.0777 5.90679 21.0189L7.38679 20.7642C7.70984 20.7085 8.01854 20.9224 8.08704 21.2494C8.16024 21.5989 7.93154 21.9397 7.58569 21.9964L6.10379 22.2394C5.78609 22.2916 5.48384 22.0812 5.41539 21.7603Z" fill="#E7ECF6"/>
<path d="M8.9171 20.861C8.8755 20.6658 9.0021 20.4748 9.1951 20.4416L11.2013 20.0962C11.3823 20.0651 11.5552 20.1849 11.5936 20.3681L11.7067 20.9078C11.7477 21.1036 11.6196 21.2946 11.4258 21.3263L9.4182 21.6556C9.2385 21.6851 9.0675 21.5661 9.0288 21.3846L8.9171 20.861Z" fill="#E7ECF6"/>
</g>
<defs>
<clipPath id="clip0_398_517">
<rect width="28" height="25" fill="white"/>
</clipPath>
</defs>
</svg>
