<svg width="22" height="21" viewBox="0 0 22 21" fill="none" xmlns="http://www.w3.org/2000/svg">
<path d="M11.954 6H10.0449V12H11.954V6Z" fill="#E5EBF7"/>
<path d="M16.7275 9H14.8184V12H16.7275V9Z" fill="#E5EBF7"/>
<path d="M7.18253 7.5H5.27344V12H7.18253V7.5Z" fill="#E5EBF7"/>
<path d="M19.5909 1.5H11.9545V0H10.0455V1.5H2.40909C1.90277 1.5 1.41718 1.65804 1.05916 1.93934C0.701136 2.22064 0.5 2.60218 0.5 3V13.5C0.5 13.8978 0.701136 14.2794 1.05916 14.5607C1.41718 14.842 1.90277 15 2.40909 15H10.0455V19.5H6.22727V21H15.7727V19.5H11.9545V15H19.5909C20.0972 15 20.5828 14.842 20.9408 14.5607C21.2989 14.2794 21.5 13.8978 21.5 13.5V3C21.5 2.60218 21.2989 2.22064 20.9408 1.93934C20.5828 1.65804 20.0972 1.5 19.5909 1.5ZM19.5909 13.5H2.40909V3H19.5909V13.5Z" fill="#E5EBF7"/>
</svg>
