<svg width="20" height="16" viewBox="0 0 20 16" fill="none" xmlns="http://www.w3.org/2000/svg">
<path d="M18.75 14.4063H17.3438V8.24766L17.7937 8.69766C17.8819 8.78434 18.0008 8.83265 18.1245 8.83208C18.2481 8.8315 18.3666 8.78208 18.454 8.69459C18.5413 8.6071 18.5906 8.48862 18.5911 8.36496C18.5915 8.2413 18.543 8.12248 18.4563 8.03438L10.7734 0.350787C10.6719 0.249211 10.5513 0.168636 10.4186 0.113663C10.2859 0.0586898 10.1436 0.0303955 10 0.0303955C9.85636 0.0303955 9.71412 0.0586898 9.58141 0.113663C9.44871 0.168636 9.32813 0.249211 9.22656 0.350787L1.54375 8.03438C1.45697 8.12248 1.40852 8.2413 1.40895 8.36496C1.40938 8.48862 1.45865 8.6071 1.54604 8.69459C1.63343 8.78208 1.75185 8.8315 1.87551 8.83208C1.99917 8.83265 2.11805 8.78434 2.20625 8.69766L2.65625 8.24766V14.4063H1.25C1.12568 14.4063 1.00645 14.4556 0.918544 14.5435C0.830636 14.6315 0.78125 14.7507 0.78125 14.875C0.78125 14.9993 0.830636 15.1186 0.918544 15.2065C1.00645 15.2944 1.12568 15.3438 1.25 15.3438H18.75C18.8743 15.3438 18.9935 15.2944 19.0815 15.2065C19.1694 15.1186 19.2188 14.9993 19.2188 14.875C19.2188 14.7507 19.1694 14.6315 19.0815 14.5435C18.9935 14.4556 18.8743 14.4063 18.75 14.4063ZM3.59375 7.31016L9.88906 1.01407C9.90359 0.999423 9.92087 0.987799 9.93991 0.979866C9.95895 0.971934 9.97937 0.96785 10 0.96785C10.0206 0.96785 10.041 0.971934 10.0601 0.979866C10.0791 0.987799 10.0964 0.999423 10.1109 1.01407L16.4062 7.31016V14.4063H12.3438V9.87501C12.3438 9.75069 12.2944 9.63146 12.2065 9.54355C12.1185 9.45564 11.9993 9.40626 11.875 9.40626H8.125C8.00068 9.40626 7.88145 9.45564 7.79354 9.54355C7.70564 9.63146 7.65625 9.75069 7.65625 9.87501V14.4063H3.59375V7.31016ZM11.4062 14.4063H8.59375V10.3438H11.4062V14.4063Z" fill="#F6F8FE"/>
</svg>
