<svg width="22" height="21" viewBox="0 0 22 21" fill="none" xmlns="http://www.w3.org/2000/svg">
<path d="M16.2501 18.9L14.3 16.95L13.25 18L16.2501 21L21.5003 15.75L20.4502 14.7L16.2501 18.9Z" fill="#E5EBF7"/>
<path d="M14.0002 12H8V13.5H14.0002V12Z" fill="#E5EBF7"/>
<path d="M14.0002 8.25H8V9.75H14.0002V8.25Z" fill="#E5EBF7"/>
<path d="M14.0002 4.5H8V6H14.0002V4.5Z" fill="#E5EBF7"/>
<path d="M11.0004 19.5H3.5001V16.5H5.00015V15H3.5001V11.25H5.00015V9.75H3.5001V6H5.00015V4.5H3.5001V1.5H17.0006V13.5H18.5006V1.5C18.5006 0.675 17.8256 0 17.0006 0H3.5001C2.67507 0 2.00005 0.675 2.00005 1.5V4.5H0.5V6H2.00005V9.75H0.5V11.25H2.00005V15H0.5V16.5H2.00005V19.5C2.00005 20.325 2.67507 21 3.5001 21H11.0004V19.5Z" fill="#E5EBF7"/>
</svg>
