<svg width="24" height="22" viewBox="0 0 24 22" fill="none" xmlns="http://www.w3.org/2000/svg">
<path d="M1.81053 0.26544C1.43759 0.355666 0.890226 0.674463 0.625564 0.963184C0.493233 1.10755 0.294737 1.4083 0.192481 1.63085L0 2.03386V10.882V19.7241L0.222556 20.1812C0.493233 20.7286 0.842105 21.0654 1.4015 21.3301L1.80451 21.5226H12.006H22.2015L22.6586 21.3C23.206 21.0293 23.5429 20.6805 23.8075 20.1211L24 19.7181V10.876V2.03386L23.8075 1.63085C23.5429 1.07145 23.206 0.722583 22.6586 0.451906L22.2015 0.22935L12.1263 0.21732C6.17143 0.21732 1.94887 0.235365 1.81053 0.26544ZM22.0692 1.23386C22.4 1.3301 22.8992 1.82935 22.9955 2.16018C23.0496 2.34664 23.0677 3.98273 23.0677 8.92709V15.4474L19.5609 11.9406C16.2887 8.66845 16.0421 8.43988 15.8496 8.43988C15.6571 8.43988 15.5068 8.57822 13.8226 10.2564L12 12.079L9.21504 9.29401C6.62256 6.70153 6.41805 6.51506 6.22556 6.51506C6.03308 6.51506 5.8406 6.6895 3.47669 9.05341L0.932331 11.5978V7.00228C0.932331 3.57371 0.950376 2.34664 1.00451 2.16018C1.09474 1.85341 1.6 1.33612 1.89474 1.23988C2.21353 1.13762 21.7323 1.13762 22.0692 1.23386ZM9.02256 10.485C11.603 13.0594 11.8075 13.2519 12 13.2519C12.1925 13.2519 12.3489 13.1136 14.0271 11.4354L15.8496 9.61281L19.4586 13.2218L23.0677 16.8309V18.088C23.0677 18.9 23.0436 19.4293 22.9955 19.5918C22.8992 19.9226 22.4 20.4218 22.0692 20.5181C21.7083 20.6203 2.29173 20.6203 1.93083 20.5181C1.6 20.4218 1.10075 19.9226 1.00451 19.5918C0.950376 19.4113 0.932331 18.485 0.932331 16.1632V12.9812L3.5609 10.3527C5.01053 8.90303 6.20752 7.71807 6.22556 7.71807C6.24361 7.71807 7.50075 8.96318 9.02256 10.485Z" fill="#E5EBF7"/>
<path d="M17.2031 2.72546C16.8242 2.8217 16.2828 3.14651 16.0181 3.42922C15.8858 3.57358 15.6873 3.87433 15.5851 4.09689C15.4106 4.46381 15.3926 4.55403 15.3926 5.07734C15.3926 5.61869 15.4046 5.67283 15.6151 6.10591C15.8858 6.65328 16.2347 6.99012 16.7941 7.25478C17.161 7.42922 17.2512 7.44727 17.7685 7.44727C18.2858 7.44727 18.376 7.42922 18.743 7.25478C19.3024 6.99012 19.6512 6.65328 19.9219 6.10591C20.1324 5.67283 20.1445 5.61869 20.1445 5.07133C20.1445 4.52396 20.1324 4.46982 19.9219 4.03674C19.5129 3.21869 18.7911 2.73147 17.9008 2.68937C17.6482 2.67734 17.3354 2.69538 17.2031 2.72546ZM18.2136 3.6999C18.7309 3.85629 19.2121 4.51794 19.2121 5.07133C19.2121 5.81719 18.5144 6.51493 17.7685 6.51493C17.3896 6.51493 17.0828 6.37659 16.776 6.06381C16.1625 5.45629 16.1625 4.68636 16.776 4.07884C17.1971 3.65178 17.6482 3.53749 18.2136 3.6999Z" fill="#E5EBF7"/>
</svg>
