<svg width="20" height="20" viewBox="0 0 20 20" fill="none" xmlns="http://www.w3.org/2000/svg">
<g clip-path="url(#clip0_2334_1304)">
<path d="M14.9945 1.90499C13.9774 0.996274 12.7317 0.382141 11.3915 0.128681C10.0513 -0.124779 8.66734 -0.00797007 7.38858 0.466538C6.10983 0.941045 4.98468 1.75529 4.13423 2.82163C3.28377 3.88798 2.74021 5.16606 2.56203 6.51832C2.40202 7.70403 2.52999 8.91083 2.93513 10.0366C3.34027 11.1624 4.01065 12.174 4.88953 12.9858C5.43303 13.4624 5.8716 14.0468 6.17744 14.7018C6.48327 15.3567 6.64971 16.0681 6.6662 16.7908V16.925C6.66708 17.7403 6.99134 18.5219 7.56782 19.0984C8.1443 19.6749 8.92593 19.9991 9.7412 20H10.2579C11.0731 19.9991 11.8548 19.6749 12.4312 19.0984C13.0077 18.5219 13.332 17.7403 13.3329 16.925V16.4675C13.3453 15.8287 13.4957 15.2002 13.7735 14.6248C14.0514 14.0495 14.4503 13.541 14.9429 13.1342C15.7417 12.4345 16.3827 11.5731 16.8235 10.6071C17.2643 9.64097 17.4948 8.59226 17.4997 7.53038C17.5045 6.46851 17.2837 5.41771 16.8519 4.44762C16.42 3.47752 15.7869 2.61027 14.9945 1.90332V1.90499ZM10.2579 18.3333H9.7412C9.36782 18.3329 9.00986 18.1844 8.74585 17.9203C8.48183 17.6563 8.33331 17.2984 8.33287 16.925C8.33287 16.925 8.32703 16.7083 8.3262 16.6667H11.6662V16.925C11.6658 17.2984 11.5172 17.6563 11.2532 17.9203C10.9892 18.1844 10.6312 18.3329 10.2579 18.3333ZM13.8412 11.8825C12.8924 12.7054 12.2072 13.7898 11.8712 15H10.8329V9.01332C11.3186 8.84159 11.7395 8.52396 12.0378 8.1039C12.3361 7.68385 12.4974 7.18187 12.4995 6.66666C12.4995 6.44564 12.4117 6.23368 12.2555 6.0774C12.0992 5.92112 11.8872 5.83332 11.6662 5.83332C11.4452 5.83332 11.2332 5.92112 11.0769 6.0774C10.9207 6.23368 10.8329 6.44564 10.8329 6.66666C10.8329 6.88767 10.7451 7.09963 10.5888 7.25591C10.4325 7.41219 10.2205 7.49999 9.99953 7.49999C9.77852 7.49999 9.56656 7.41219 9.41028 7.25591C9.254 7.09963 9.1662 6.88767 9.1662 6.66666C9.1662 6.44564 9.0784 6.23368 8.92212 6.0774C8.76584 5.92112 8.55388 5.83332 8.33287 5.83332C8.11185 5.83332 7.89989 5.92112 7.74361 6.0774C7.58733 6.23368 7.49953 6.44564 7.49953 6.66666C7.50167 7.18187 7.66294 7.68385 7.96127 8.1039C8.25961 8.52396 8.68044 8.84159 9.1662 9.01332V15H8.06453C7.68869 13.7577 6.9838 12.6401 6.02453 11.7658C5.21033 11.0072 4.63014 10.0314 4.35243 8.95373C4.07471 7.87605 4.11107 6.74142 4.45721 5.68373C4.80335 4.62605 5.44482 3.68945 6.30592 2.98446C7.16703 2.27947 8.21183 1.83552 9.31703 1.70499C9.54614 1.67941 9.7765 1.66662 10.007 1.66665C11.4383 1.6624 12.8201 2.19051 13.8837 3.14832C14.5001 3.69799 14.9926 4.3724 15.3287 5.12684C15.6647 5.88129 15.8365 6.69854 15.8327 7.52442C15.8289 8.3503 15.6496 9.16595 15.3067 9.91729C14.9638 10.6686 14.4651 11.3385 13.8437 11.8825H13.8412Z" fill="#E7ECF6"/>
</g>
<defs>
<clipPath id="clip0_2334_1304">
<rect width="20" height="20" fill="white"/>
</clipPath>
</defs>
</svg>
