<svg xmlns="http://www.w3.org/2000/svg" width="19" height="14" viewBox="0 0 19 14" fill="none">
  <path d="M8.34414 10.0059L16.4848 1.60829C16.5479 1.54328 16.6227 1.4917 16.7051 1.45651C16.7874 1.42133 16.8757 1.40321 16.9648 1.40321C17.0539 1.40321 17.1422 1.42133 17.2246 1.45651C17.3069 1.4917 17.3817 1.54328 17.4448 1.60829C17.5078 1.67331 17.5578 1.7505 17.5919 1.83545C17.626 1.9204 17.6436 2.01145 17.6436 2.1034C17.6436 2.19535 17.626 2.2864 17.5919 2.37135C17.5578 2.4563 17.5078 2.53349 17.4448 2.59851L9.30407 10.9961C9.24104 11.0611 9.16621 11.1127 9.08386 11.1479C9.00151 11.1831 8.91324 11.2012 8.82411 11.2012C8.73497 11.2012 8.64671 11.1831 8.56435 11.1479C8.482 11.1127 8.40717 11.0611 8.34414 10.9961C8.28112 10.9311 8.23112 10.8539 8.19701 10.769C8.16289 10.684 8.14534 10.593 8.14534 10.501C8.14534 10.4091 8.16289 10.318 8.19701 10.233C8.23112 10.1481 8.28112 10.0709 8.34414 10.0059ZM9.5025 4.2028C10.0918 4.20203 10.6772 4.30042 11.2358 4.49409C11.3206 4.52511 11.4105 4.53841 11.5004 4.53323C11.5902 4.52804 11.6782 4.50447 11.7591 4.46389C11.84 4.42331 11.9123 4.36653 11.9717 4.29686C12.0312 4.22718 12.0766 4.146 12.1053 4.05805C12.1341 3.97009 12.1456 3.87712 12.1391 3.78454C12.1327 3.69196 12.1085 3.60162 12.0679 3.51879C12.0273 3.43595 11.9711 3.36228 11.9027 3.30205C11.8342 3.24182 11.7548 3.19625 11.6691 3.16797C10.588 2.79201 9.43249 2.70337 8.30939 2.91025C7.18629 3.11713 6.13191 3.61284 5.24378 4.35154C4.35565 5.09024 3.66246 6.04806 3.22834 7.13639C2.79422 8.22472 2.63318 9.40842 2.76013 10.578C2.77849 10.749 2.8573 10.9071 2.9815 11.022C3.10571 11.1369 3.26661 11.2006 3.43344 11.2008C3.45803 11.2008 3.48347 11.2008 3.50891 11.1964C3.68769 11.176 3.85128 11.0831 3.96371 10.9383C4.07614 10.7934 4.1282 10.6085 4.10844 10.424C4.08636 10.2172 4.07532 10.0093 4.07537 9.8012C4.07694 8.31691 4.64923 6.89388 5.66667 5.84433C6.68412 4.79477 8.06362 4.20442 9.5025 4.2028ZM17.9603 5.33998C17.9197 5.25819 17.8638 5.18546 17.7959 5.12594C17.728 5.06642 17.6495 5.02128 17.5646 4.99309C17.4798 4.96491 17.3905 4.95423 17.3017 4.96166C17.2129 4.9691 17.1263 4.99451 17.0471 5.03644C16.9678 5.07837 16.8973 5.136 16.8396 5.20603C16.7819 5.27607 16.7381 5.35714 16.7108 5.44463C16.6835 5.53211 16.6731 5.62429 16.6803 5.7159C16.6875 5.80751 16.7122 5.89675 16.7528 5.97854C17.2547 6.99525 17.5511 8.10655 17.624 9.245C17.6969 10.3835 17.5447 11.5253 17.1768 12.6013L1.81971 12.5952C1.39125 11.3282 1.26257 9.97393 1.44442 8.64526C1.62627 7.31659 2.11337 6.05201 2.86512 4.95693C3.61687 3.86186 4.61149 2.96801 5.76606 2.34991C6.92063 1.73181 8.20171 1.40736 9.5025 1.4036H9.57712C10.8406 1.4118 12.0844 1.72643 13.2082 2.32209C13.2877 2.36723 13.3752 2.39545 13.4655 2.40509C13.5557 2.41473 13.647 2.40558 13.7337 2.3782C13.8205 2.35082 13.9011 2.30576 13.9707 2.24567C14.0403 2.18559 14.0975 2.11172 14.1389 2.02843C14.1803 1.94513 14.2051 1.85411 14.2118 1.76076C14.2186 1.6674 14.207 1.5736 14.178 1.48491C14.1489 1.39623 14.1029 1.31446 14.0427 1.24445C13.9824 1.17444 13.9092 1.11761 13.8272 1.07732C12.1355 0.183436 10.2226 -0.166237 8.33609 0.0735353C6.44956 0.313308 4.67619 1.13149 3.24535 2.42226C1.81451 3.71302 0.792046 5.41697 0.310213 7.31369C-0.171621 9.21042 -0.0906537 11.2127 0.542642 13.0614C0.636191 13.3353 0.809683 13.5726 1.03927 13.7407C1.26886 13.9087 1.54328 13.9993 1.8248 14H17.1793C17.4607 14.0002 17.7352 13.9101 17.9648 13.7423C18.1943 13.5744 18.3676 13.3371 18.4607 13.0631C18.8885 11.8078 19.0648 10.4759 18.9788 9.14817C18.8928 7.82045 18.5463 6.52457 17.9603 5.3391V5.33998Z" fill="#E7ECF6"/>
</svg>