<svg width="24" height="23" viewBox="0 0 24 23" fill="none" xmlns="http://www.w3.org/2000/svg">
<path d="M21.8572 0H2.14285C1.70728 0.00043516 1.28966 0.173661 0.981662 0.481666C0.673661 0.789664 0.500435 1.20728 0.5 1.64285V21.3572C0.5005 21.7927 0.673747 22.2103 0.981734 22.5183C1.28972 22.8262 1.7073 22.9995 2.14285 23H21.8572C22.2927 22.9994 22.7102 22.8261 23.0182 22.5182C23.3261 22.2102 23.4994 21.7927 23.5 21.3572V1.64285C23.4995 1.2073 23.3262 0.789719 23.0183 0.48173C22.7103 0.173747 22.2927 0.00050048 21.8572 0ZM21.8572 7.39286H10.3572V1.64285H21.8572V7.39286ZM8.71428 1.64285V7.39286H2.14285V1.64285H8.71428ZM2.14285 21.3572V9.03569H21.8577L21.8588 21.3572H2.14285Z" fill="#E5EBF7"/>
<path d="M20.2132 15.6072H18.5703V19.7142H20.2132V15.6072Z" fill="#E5EBF7"/>
<path d="M16.93 11.5H15.2871V19.7143H16.93V11.5Z" fill="#E5EBF7"/>
<path d="M7.89425 19.7143C6.80536 19.713 5.76144 19.2799 4.99148 18.5099C4.22152 17.74 3.78839 16.6961 3.78711 15.6072H5.42996C5.42996 16.0946 5.57449 16.5709 5.84527 16.9762C6.11605 17.3815 6.50093 17.6973 6.95121 17.8839C7.4015 18.0704 7.89699 18.1191 8.37501 18.0241C8.85303 17.929 9.29213 17.6943 9.63676 17.3496C9.98139 17.005 10.2161 16.5659 10.3112 16.0879C10.4062 15.6099 10.3575 15.1144 10.171 14.6641C9.98442 14.2138 9.66859 13.829 9.26334 13.5581C8.85809 13.2874 8.38164 13.1428 7.89425 13.1428V11.5C8.98354 11.5 10.0282 11.9327 10.7984 12.703C11.5687 13.4732 12.0014 14.5179 12.0014 15.6072C12.0014 16.6964 11.5687 17.7411 10.7984 18.5113C10.0282 19.2815 8.98354 19.7143 7.89425 19.7143Z" fill="#E5EBF7"/>
</svg>
