<svg width="22" height="24" viewBox="0 0 22 24" fill="none" xmlns="http://www.w3.org/2000/svg">
<path d="M9.92199 0.0829884C9.22163 0.198529 8.65894 0.377618 7.95858 0.718464C4.67826 2.31293 3.36134 6.18355 5.01946 9.37248C5.31876 9.94441 5.5163 10.2275 5.97722 10.7416C6.68955 11.5447 7.83886 12.2726 8.94029 12.6192C11.5502 13.4453 14.4953 12.5903 16.2193 10.5106C18.2485 8.06109 18.1767 4.60064 16.0397 2.20894C14.5791 0.574037 12.1248 -0.280966 9.92199 0.0829884ZM11.7357 1.90853C14.3037 2.28982 16.1055 4.6353 15.7344 7.1021C15.2316 10.4008 11.4305 12.1339 8.50331 10.395C6.82723 9.40137 5.92933 7.47183 6.29447 5.64628C6.7973 3.1506 9.15578 1.52147 11.7357 1.90853Z" fill="#E5EBF7"/>
<path d="M9.14434 13.8959C6.13937 14.2252 3.61926 15.7042 2.00305 18.0785C1.0812 19.4361 0.518518 21.1924 0.50056 22.7406C0.494574 23.5032 0.53049 23.6129 0.907608 23.8787L1.06923 24H11H20.9308L21.0924 23.8787C21.4695 23.6129 21.5054 23.5032 21.4994 22.7406C21.4815 21.2328 20.9787 19.6094 20.0867 18.223C18.692 16.0566 16.4473 14.5661 13.7835 14.0288C13.2627 13.9248 12.9335 13.9075 11.2694 13.8902C10.2158 13.8786 9.25807 13.8844 9.14434 13.8959ZM13.574 15.8717C16.2437 16.4841 18.261 18.1998 19.1709 20.6204C19.3145 21.0133 19.554 21.926 19.56 22.1051C19.56 22.1629 17.8061 22.1802 11 22.1802C4.19392 22.1802 2.44002 22.1629 2.44002 22.1051C2.44601 21.9318 2.68545 21.0133 2.82911 20.6204C3.8168 17.9745 6.27705 16.0912 9.2042 15.7446C9.31793 15.733 10.2338 15.7273 11.2394 15.7388C12.8257 15.7504 13.131 15.7677 13.574 15.8717Z" fill="#E5EBF7"/>
</svg>
