<svg width="24" height="25" viewBox="0 0 24 25" fill="none" xmlns="http://www.w3.org/2000/svg">
<path d="M12 0.0224609C9.62663 0.0224609 7.30655 0.726248 5.33316 2.04482C3.35977 3.3634 1.8217 5.23755 0.913451 7.43026C0.00519921 9.62297 -0.23244 12.0358 0.230582 14.3635C0.693605 16.6913 1.83649 18.8295 3.51472 20.5077C5.19295 22.186 7.33115 23.3289 9.65892 23.7919C11.9867 24.2549 14.3995 24.0173 16.5922 23.109C18.7849 22.2008 20.6591 20.6627 21.9776 18.6893C23.2962 16.7159 24 14.3958 24 12.0225C23.9963 8.84101 22.7308 5.79093 20.4812 3.54131C18.2315 1.29168 15.1815 0.0261972 12 0.0224609ZM12 22.6107C9.90585 22.6107 7.85872 21.9897 6.1175 20.8263C4.37627 19.6628 3.01915 18.0091 2.21775 16.0744C1.41635 14.1397 1.20667 12.0107 1.61522 9.9568C2.02377 7.90288 3.0322 6.01624 4.51299 4.53545C5.99378 3.05466 7.88042 2.04622 9.93434 1.63768C11.9883 1.22913 14.1172 1.43881 16.0519 2.24021C17.9867 3.0416 19.6403 4.39873 20.8038 6.13995C21.9672 7.88118 22.5882 9.9283 22.5882 12.0225C22.5851 14.8297 21.4686 17.521 19.4836 19.506C17.4986 21.491 14.8072 22.6076 12 22.6107ZM19.2941 12.0225C19.2941 12.2097 19.2197 12.3892 19.0874 12.5216C18.955 12.654 18.7754 12.7283 18.5882 12.7283H12C11.8128 12.7283 11.6332 12.654 11.5009 12.5216C11.3685 12.3892 11.2941 12.2097 11.2941 12.0225V5.43422C11.2941 5.24701 11.3685 5.06747 11.5009 4.93509C11.6332 4.80271 11.8128 4.72834 12 4.72834C12.1872 4.72834 12.3668 4.80271 12.4991 4.93509C12.6315 5.06747 12.7059 5.24701 12.7059 5.43422V11.3166H18.5882C18.7754 11.3166 18.955 11.3909 19.0874 11.5233C19.2197 11.6557 19.2941 11.8352 19.2941 12.0225Z" fill="#E7ECF6"/>
</svg>
