<svg width="28" height="28" viewBox="0 0 28 28" fill="none" xmlns="http://www.w3.org/2000/svg">
<path fill-rule="evenodd" clip-rule="evenodd" d="M10.5 23.3334H4.08333C2.79467 23.3334 1.75 22.2888 1.75 21.0001V7.00008C1.75 5.71142 2.79467 4.66675 4.08333 4.66675H10.5C11.9311 4.66675 13.2018 5.35393 14 6.41632C14.7982 5.35393 16.0688 4.66675 17.5 4.66675H23.9167C25.2054 4.66675 26.25 5.71142 26.25 7.00008V21.0001C26.25 22.2888 25.2054 23.3334 23.9167 23.3334H17.5C16.4603 23.3334 15.5617 23.9379 15.1367 24.8146C14.9154 25.271 14.5071 25.6667 14 25.6667C13.4928 25.6667 13.0846 25.271 12.8633 24.8146C12.4383 23.9379 11.5397 23.3334 10.5 23.3334ZM3.5 7.00008C3.5 6.67792 3.76117 6.41675 4.08333 6.41675H10.5C11.9497 6.41675 13.125 7.592 13.125 9.04175V22.4581C12.3938 21.9089 11.4849 21.5834 10.5 21.5834H4.08333C3.76117 21.5834 3.5 21.3222 3.5 21.0001V7.00008ZM17.5 6.41675C16.0503 6.41675 14.875 7.592 14.875 9.04175V22.4581C15.6061 21.9089 16.5151 21.5834 17.5 21.5834H23.9167C24.2388 21.5834 24.5 21.3222 24.5 21.0001V7.00008C24.5 6.67792 24.2388 6.41675 23.9167 6.41675H17.5Z" fill="#E5EBF7"/>
</svg>
