<svg width="24" height="23" viewBox="0 0 24 23" fill="none" xmlns="http://www.w3.org/2000/svg">
<path d="M12.0011 6.06174C11.0085 6.06174 10.0382 6.35268 9.21295 6.89778C8.38765 7.44288 7.74442 8.21764 7.36458 9.1241C6.98474 10.0306 6.88535 11.028 7.07899 11.9903C7.27264 12.9526 7.7506 13.8365 8.45246 14.5303C9.15431 15.2241 10.0485 15.6965 11.022 15.8879C11.9955 16.0794 13.0046 15.9811 13.9216 15.6057C14.8386 15.2302 15.6224 14.5943 16.1738 13.7786C16.7253 12.9628 17.0196 12.0036 17.0196 11.0225C17.0179 9.70735 16.4886 8.44656 15.5478 7.51661C14.607 6.58665 13.3316 6.06345 12.0011 6.06174ZM12.0011 14.6892C11.2674 14.6892 10.5503 14.4741 9.94029 14.0712C9.33029 13.6683 8.85485 13.0957 8.5741 12.4257C8.29335 11.7557 8.21989 11.0184 8.36302 10.3072C8.50614 9.59591 8.85942 8.94258 9.37819 8.42979C9.89695 7.917 10.5579 7.56778 11.2774 7.42631C11.997 7.28483 12.7428 7.35744 13.4206 7.63496C14.0984 7.91248 14.6777 8.38244 15.0853 8.98542C15.4929 9.5884 15.7104 10.2973 15.7104 11.0225C15.7104 11.995 15.3196 12.9276 14.624 13.6152C13.9284 14.3028 12.9849 14.6892 12.0011 14.6892ZM23.7837 8.82251C23.7647 8.73234 23.7265 8.64721 23.6715 8.57282C23.6166 8.49843 23.5462 8.43649 23.4651 8.39114L20.1442 6.51684L20.0984 6.44027L20.0853 2.74019C20.0853 2.64673 20.0648 2.55437 20.0253 2.46948C19.9857 2.38459 19.928 2.30917 19.8562 2.24842C18.6963 1.279 17.361 0.535773 15.921 0.0581397C15.8344 0.0293678 15.7427 0.0188219 15.6518 0.0271797C15.5608 0.0355375 15.4727 0.0626143 15.393 0.106669L12.0513 1.94862H11.9422L8.60922 0.104512C8.52914 0.0603274 8.44055 0.033271 8.34921 0.0250966C8.25787 0.0169223 8.16581 0.0278124 8.079 0.0570612C6.63914 0.536087 5.30447 1.28119 4.14601 2.25274C4.0739 2.31317 4.01588 2.38832 3.97596 2.47302C3.93603 2.55773 3.91514 2.64998 3.91472 2.74342L3.89726 6.44674C3.88199 6.47154 3.86672 6.49743 3.85253 6.52331L0.535944 8.38791C0.454438 8.43395 0.383903 8.49678 0.329125 8.57214C0.274348 8.6475 0.236609 8.73362 0.218468 8.82467C-0.0728228 10.2765 -0.0728228 11.7707 0.218468 13.2225C0.237451 13.3127 0.275689 13.3978 0.330627 13.4722C0.385564 13.5466 0.455936 13.6085 0.537036 13.6539L3.85581 15.5228L3.90163 15.5993L3.91472 19.2994C3.91419 19.394 3.93462 19.4875 3.97458 19.5734C4.01454 19.6593 4.07306 19.7354 4.14601 19.7966C5.30587 20.766 6.64118 21.5092 8.08118 21.9869C8.16775 22.0156 8.25946 22.0262 8.3504 22.0178C8.44134 22.0095 8.5295 21.9824 8.60922 21.9383L11.9487 20.0964H12.0578L15.3919 21.9405C15.4894 21.9938 15.599 22.022 15.7104 22.0225C15.7821 22.0228 15.8533 22.0111 15.921 21.9879C17.3589 21.5083 18.6917 20.7632 19.8485 19.7923C19.9206 19.7318 19.9787 19.6567 20.0186 19.572C20.0585 19.4873 20.0794 19.395 20.0798 19.3016L20.0973 15.5983C20.1125 15.5735 20.1278 15.5476 20.142 15.5217L23.4608 13.6571C23.5425 13.6112 23.6132 13.5484 23.6682 13.473C23.7232 13.3977 23.7611 13.3115 23.7793 13.2203C24.0721 11.7688 24.0736 10.2746 23.7837 8.82251ZM22.5564 12.6822L19.3456 14.4843C19.2415 14.5431 19.1555 14.6289 19.0968 14.7323C19.0325 14.8401 18.9648 14.9598 18.8939 15.0709C18.8294 15.1732 18.795 15.2912 18.7946 15.4117L18.7772 18.9932C17.8745 19.7081 16.8605 20.2736 15.7748 20.668L12.5466 18.8821C12.449 18.8278 12.3389 18.7992 12.2269 18.799H12.2116C12.0764 18.799 11.9389 18.799 11.8036 18.799C11.6866 18.7963 11.5709 18.8246 11.4687 18.881L8.23174 20.6669C7.14463 20.2746 6.12917 19.7104 5.22499 18.9964L5.2119 15.4192C5.21156 15.2987 5.17717 15.1807 5.11262 15.0785C5.0428 14.9706 4.97406 14.8542 4.9097 14.7398C4.85165 14.6363 4.76599 14.5505 4.66204 14.4918L1.45128 12.6833C1.26464 11.5841 1.26464 10.4619 1.45128 9.36281L4.65659 7.56075C4.7623 7.50249 4.84984 7.41671 4.9097 7.31272C4.97406 7.20487 5.04171 7.08517 5.11262 6.97409C5.17717 6.87185 5.21156 6.75382 5.2119 6.63331L5.22935 3.05185C6.13074 2.33736 7.14317 1.77178 8.22738 1.37706L11.4556 3.16293C11.5574 3.22034 11.6734 3.24871 11.7905 3.24489C11.9258 3.24489 12.0633 3.24489 12.1986 3.24489C12.3156 3.24767 12.4313 3.21937 12.5335 3.16293L15.7683 1.37706C16.8554 1.76936 17.8708 2.33353 18.775 3.04754L18.7881 6.62468C18.7884 6.7452 18.8228 6.86322 18.8874 6.96546C18.9572 7.0733 19.0259 7.18977 19.0903 7.30409C19.1483 7.4076 19.234 7.49339 19.338 7.55213L22.5509 9.36173C22.7386 10.4607 22.7397 11.5829 22.5542 12.6822H22.5564Z" fill="#E7ECF6"/>
</svg>
