<svg width="22" height="21" viewBox="0 0 22 21" fill="none" xmlns="http://www.w3.org/2000/svg">
<path d="M8 10.3236H3.5V12.0442H8V10.3236Z" fill="#E5EBF7"/>
<path d="M11 6.88245H3.5V8.60305H11V6.88245Z" fill="#E5EBF7"/>
<path d="M11 3.44116H3.5V5.16177H11V3.44116Z" fill="#E5EBF7"/>
<path d="M9.5 18.9267H2V1.72061H20V10.3236H21.5V1.72061C21.5 1.26427 21.342 0.82663 21.0607 0.503954C20.7794 0.181278 20.3978 0 20 0H2C1.60218 0 1.22064 0.181278 0.93934 0.503954C0.658035 0.82663 0.5 1.26427 0.5 1.72061V18.9267C0.5 19.383 0.658035 19.8206 0.93934 20.1433C1.22064 20.466 1.60218 20.6473 2 20.6473H9.5V18.9267Z" fill="#E5EBF7"/>
<path d="M15.5 18.5739L13.5575 16.3458L12.5 17.5588L15.5 21L21.5 14.1176L20.4425 12.9045L15.5 18.5739Z" fill="#E5EBF7"/>
</svg>
