<svg width="28" height="28" viewBox="0 0 28 28" fill="none" xmlns="http://www.w3.org/2000/svg">
<mask id="mask0_2052_226" style="mask-type:luminance" maskUnits="userSpaceOnUse" x="0" y="0" width="28" height="28">
<path d="M28 0H0V28H28V0Z" fill="white"/>
</mask>
<g mask="url(#mask0_2052_226)">
<path d="M13.3766 13.3827L6.37891 20.3804L7.61634 21.6178L14.6141 14.6201L13.3766 13.3827Z" fill="#E5EBF7"/>
<path d="M14.8746 26.2501C14.7638 26.2504 14.6539 26.2295 14.5508 26.1888C14.4075 26.1317 14.2818 26.0376 14.1866 25.9162C14.0913 25.7948 14.0298 25.6504 14.0083 25.4976L13.1333 19.3726L14.8833 19.1276L15.5396 23.7388L18.3746 21.4551V14.8751C18.374 14.7599 18.396 14.6458 18.4395 14.5392C18.4831 14.4325 18.5472 14.3356 18.6283 14.2538L22.1896 10.6926C22.9234 9.96371 23.5054 9.09659 23.9019 8.1414C24.2984 7.18617 24.5016 6.1618 24.4996 5.12755V3.50005H22.8721C21.8378 3.49809 20.8135 3.70124 19.8582 4.09775C18.9031 4.49426 18.036 5.07624 17.3071 5.81005L13.7458 9.37134C13.6641 9.45236 13.5672 9.51659 13.4605 9.56008C13.3539 9.60365 13.2397 9.6257 13.1246 9.62509H6.5446L4.26085 12.4776L8.87208 13.1338L8.6271 14.8838L2.5021 14.0088C2.34927 13.9874 2.20483 13.9259 2.08344 13.8306C1.96204 13.7353 1.86799 13.6097 1.81085 13.4663C1.75299 13.322 1.73466 13.1648 1.75773 13.011C1.7808 12.8572 1.84444 12.7124 1.9421 12.5913L5.4421 8.2163C5.5227 8.11158 5.62599 8.02646 5.74419 7.96737C5.8624 7.90826 5.99246 7.8767 6.1246 7.87505H12.7658L16.0646 4.56755C16.9564 3.67078 18.0173 2.95995 19.1859 2.4763C20.3544 1.99265 21.6074 1.74579 22.8721 1.75005H24.4996C24.9638 1.75005 25.4089 1.93443 25.737 2.26262C26.0652 2.59081 26.2496 3.03593 26.2496 3.50005V5.12755C26.2539 6.39225 26.007 7.64521 25.5233 8.81379C25.0397 9.98235 24.3289 11.0433 23.4321 11.9351L20.1246 15.2338V21.8751C20.124 22.0065 20.0938 22.1361 20.0362 22.2542C19.9786 22.3724 19.8952 22.476 19.7921 22.5576L15.4171 26.0576C15.2632 26.1811 15.072 26.249 14.8746 26.2501Z" fill="#E5EBF7"/>
</g>
</svg>
